<svg width="50" height="32" viewBox="0 0 50 32" fill="none" xmlns="http://www.w3.org/2000/svg">
<path fill-rule="evenodd" clip-rule="evenodd" d="M31.2159 3.66787C32.6385 2.39795 34.509 1.62709 36.5579 1.62709C41.0119 1.62709 44.6225 5.26951 44.6225 9.76267C44.6225 11.2934 44.2034 12.7253 43.4748 13.9482C47.2498 15.0892 50 18.6114 50 22.7797C50 27.8719 45.8954 32 40.832 32H9.16795C4.10463 32 0 27.8719 0 22.7797C0 18.5795 2.79251 15.0352 6.61217 13.9224C6.50733 13.4568 6.45197 12.9722 6.45197 12.4746C6.45197 8.88007 9.34046 5.96613 12.9036 5.96613C13.5055 5.96613 14.0882 6.04928 14.6409 6.20483C16.0506 2.57246 19.5553 0 23.6556 0C26.7148 0 29.4425 1.43203 31.2159 3.66787Z" fill="#E5F9FF"/>
<path fill-rule="evenodd" clip-rule="evenodd" d="M28.8273 18.5267C25.8054 20.0938 22.8739 19.1746 21.8182 18.5429C21.5778 18.399 21.2479 18.4509 21.0815 18.6587C20.9151 18.8664 20.975 19.1515 21.2154 19.2953C22.5068 20.068 25.8945 21.1148 29.3721 19.3115C29.6229 19.1815 29.7042 18.9004 29.5537 18.6837C29.4033 18.467 29.0781 18.3967 28.8273 18.5267Z" fill="#0091BC"/>
<path d="M34.0034 10.5784C35.6431 12.3069 35.5668 15.0333 33.8329 16.668C32.099 18.3026 29.3642 18.2265 27.7245 16.498C26.0848 14.7694 26.1611 12.043 27.895 10.4084C29.6289 8.7737 32.3637 8.84982 34.0034 10.5784Z" fill="white"/>
<path d="M32.4891 11.4237C33.6603 12.6584 33.6057 14.6058 32.3672 15.7734C31.1288 16.941 29.1753 16.8867 28.0041 15.652C26.8329 14.4173 26.8874 12.4699 28.1259 11.3023C29.3644 10.1347 31.3178 10.189 32.4891 11.4237Z" fill="black"/>
<path d="M16.6138 10.5784C14.9741 12.3069 15.0504 15.0333 16.7843 16.668C18.5182 18.3026 21.253 18.2265 22.8927 16.498C24.5324 14.7694 24.456 12.043 22.7222 10.4084C20.9883 8.7737 18.2535 8.84982 16.6138 10.5784Z" fill="white"/>
<path d="M18.1281 11.4237C16.9569 12.6584 17.0115 14.6058 18.2499 15.7734C19.4884 16.941 21.4419 16.8867 22.6131 15.652C23.7843 14.4173 23.7298 12.4699 22.4913 11.3023C21.2528 10.1347 19.2993 10.189 18.1281 11.4237Z" fill="black"/>
</svg>
