<svg width="71" height="70" viewBox="0 0 71 70" fill="none" xmlns="http://www.w3.org/2000/svg">
<path d="M53.9846 19.7497C54.1979 19.6288 54.4659 19.7752 54.4809 20.0207L54.648 22.7558C54.6606 22.9616 54.8562 23.1076 55.0567 23.061L57.7226 22.441C57.9619 22.3853 58.1785 22.6008 58.1236 22.84L57.5128 25.5049C57.4668 25.7053 57.6137 25.9001 57.8198 25.9119L60.559 26.0687C60.8048 26.0827 60.9523 26.3499 60.8321 26.5634L59.4927 28.9421C59.392 29.1211 59.4784 29.3489 59.6732 29.4181L62.2637 30.3389C62.4962 30.4215 62.5627 30.7188 62.3869 30.8893L60.4275 32.7892C60.2801 32.9321 60.299 33.1744 60.4669 33.2956L62.6988 34.9058C62.8991 35.0503 62.8793 35.3535 62.662 35.4672L60.2414 36.7343C60.0593 36.8296 60.0091 37.0668 60.1364 37.23L61.829 39.3992C61.9809 39.5939 61.8763 39.8785 61.6352 39.9262L58.9495 40.4579C58.7475 40.4979 58.6322 40.7108 58.7086 40.9028L59.7247 43.4553C59.8159 43.6844 59.635 43.9273 59.3897 43.9052L56.6564 43.6583C56.4508 43.6398 56.2798 43.8111 56.2992 44.0164L56.5565 46.7453C56.5796 46.9903 56.337 47.1719 56.1073 47.0816L53.5479 46.0763C53.3554 46.0007 53.1426 46.1166 53.1033 46.3185L52.581 49.0028C52.5341 49.2438 52.2495 49.3493 52.054 49.1983L49.8759 47.5159C49.712 47.3894 49.4747 47.4404 49.3799 47.6227L48.1202 50.0449C48.0071 50.2623 47.7037 50.2833 47.5582 50.0837L45.9377 47.8606C45.8158 47.6933 45.5731 47.6754 45.4306 47.8232L43.5356 49.7871C43.3655 49.9634 43.0677 49.898 42.9841 49.6661L42.0526 47.0823C41.9825 46.8879 41.7541 46.8025 41.5753 46.9038L39.1986 48.2503C38.9853 48.3712 38.7172 48.2248 38.7022 47.9793L38.5351 45.2442C38.5226 45.0384 38.327 44.8924 38.1264 44.939L35.4605 45.559C35.2212 45.6147 35.0047 45.3992 35.0595 45.16L35.6704 42.4951C35.7164 42.2947 35.5694 42.0999 35.3634 42.0881L32.6242 41.9313C32.3783 41.9173 32.2308 41.6501 32.3511 41.4366L33.6904 39.0579C33.7912 38.8789 33.7048 38.6511 33.5099 38.5819L30.9194 37.6611C30.6869 37.5785 30.6204 37.2812 30.7963 37.1107L32.7556 35.2108C32.903 35.0679 32.8842 34.8256 32.7163 34.7044L30.4844 33.0942C30.284 32.9497 30.3039 32.6465 30.5212 32.5328L32.9417 31.2657C33.1238 31.1704 33.1741 30.9332 33.0467 30.77L31.3542 28.6008C31.2023 28.4061 31.3069 28.1215 31.548 28.0738L34.2337 27.5421C34.4357 27.5021 34.551 27.2892 34.4745 27.0972L33.4584 24.5447C33.3672 24.3156 33.5482 24.0727 33.7935 24.0948L36.5268 24.3417C36.7324 24.3602 36.9033 24.1889 36.884 23.9836L36.6267 21.2547C36.6036 21.0097 36.8462 20.8281 37.0759 20.9184L39.6352 21.9237C39.8278 21.9993 40.0405 21.8834 40.0798 21.6815L40.6022 18.9972C40.6491 18.7562 40.9336 18.6507 41.1291 18.8017L43.3073 20.4841C43.4712 20.6106 43.7085 20.5596 43.8033 20.3773L45.063 17.9551C45.176 17.7377 45.4795 17.7167 45.625 17.9163L47.2454 20.1394C47.3673 20.3067 47.61 20.3246 47.7526 20.1768L49.6475 18.2129C49.8176 18.0366 50.1155 18.102 50.1991 18.3339L51.1306 20.9177C51.2007 21.1121 51.429 21.1975 51.6079 21.0962L53.9846 19.7497Z" fill="#FF8F89"/>
<path d="M56.7932 39.5697C53.7305 45.2272 46.6805 47.3203 41.0466 44.2447C35.4126 41.1692 33.3283 34.0897 36.391 28.4322C39.4537 22.7748 46.5037 20.6817 52.1376 23.7572C57.7716 26.8327 59.8559 33.9122 56.7932 39.5697Z" fill="#FFFD9B"/>
<path d="M40.6315 30.0582C40.1306 28.164 41.2537 26.2208 43.14 25.7178C45.0263 25.2148 46.9615 26.3426 47.4624 28.2367C47.9633 30.1309 46.8402 32.0742 44.9539 32.5772C43.0676 33.0801 41.1324 31.9524 40.6315 30.0582Z" fill="white"/>
<path d="M40.9224 30.0021C40.5646 28.6491 41.3668 27.2611 42.7141 26.9018C44.0615 26.5425 45.4437 27.3481 45.8015 28.701C46.1593 30.054 45.3571 31.4421 44.0098 31.8013C42.6624 32.1606 41.2801 31.3551 40.9224 30.0021Z" fill="black"/>
<path d="M47.7272 33.9332C47.2263 32.039 48.3494 30.0958 50.2357 29.5928C52.122 29.0898 54.0572 30.2176 54.5581 32.1117C55.059 34.0059 53.9359 35.9492 52.0496 36.4522C50.1633 36.9551 48.2281 35.8274 47.7272 33.9332Z" fill="white"/>
<path d="M48.0181 33.8761C47.6603 32.5231 48.4625 31.1351 49.8098 30.7758C51.1572 30.4165 52.5394 31.2221 52.8972 32.5751C53.255 33.928 52.4528 35.3161 51.1055 35.6754C49.7581 36.0346 48.3758 35.2291 48.0181 33.8761Z" fill="black"/>
<path d="M46.2788 35.6397C45.8612 36.4111 45.0262 36.7655 44.4138 36.4312C43.8014 36.0969 43.6436 35.2005 44.0612 34.4291C44.4788 33.6576 45.3138 33.3032 45.9262 33.6375C46.5386 33.9718 46.6965 34.8682 46.2788 35.6397Z" fill="#FF7272"/>
<path fill-rule="evenodd" clip-rule="evenodd" d="M31.029 30.2305C32.1924 29.1844 33.7221 28.5493 35.3978 28.5493C39.0403 28.5493 41.9931 31.5499 41.9931 35.2512C41.9931 36.5122 41.6505 37.6918 41.0545 38.6991C44.1418 39.639 46.391 42.5406 46.391 45.9743C46.391 50.1691 43.0342 53.5698 38.8933 53.5698H12.9977C8.85685 53.5698 5.5 50.1691 5.5 45.9743C5.5 42.5143 7.78377 39.5946 10.9076 38.6779C10.8218 38.2943 10.7766 37.8952 10.7766 37.4852C10.7766 34.5242 13.1388 32.1237 16.0528 32.1237C16.5451 32.1237 17.0216 32.1922 17.4736 32.3204C18.6265 29.3281 21.4927 27.209 24.846 27.209C27.3479 27.209 29.5787 28.3887 31.029 30.2305Z" fill="#E5F9FF"/>
<path fill-rule="evenodd" clip-rule="evenodd" d="M29.0758 42.4705C26.6044 43.7613 24.207 43.0041 23.3436 42.4838C23.1469 42.3653 22.8772 42.408 22.7411 42.5791C22.605 42.7503 22.654 42.9851 22.8506 43.1036C23.9067 43.7401 26.6772 44.6025 29.5214 43.1169C29.7264 43.0098 29.7929 42.7783 29.6699 42.5998C29.5468 42.4212 29.2809 42.3634 29.0758 42.4705Z" fill="#0091BC"/>
<path d="M33.3093 35.9229C34.6503 37.3468 34.5879 39.5927 33.1699 40.9393C31.7519 42.2859 29.5153 42.2232 28.1743 40.7993C26.8333 39.3753 26.8957 37.1294 28.3137 35.7828C29.7317 34.4362 31.9683 34.4989 33.3093 35.9229Z" fill="white"/>
<path d="M33.0807 36.1124C34.0386 37.1295 33.994 38.7338 32.9811 39.6956C31.9683 40.6575 30.3707 40.6127 29.4128 39.5956C28.455 38.5785 28.4996 36.9743 29.5125 36.0124C30.5253 35.0506 32.1229 35.0954 33.0807 36.1124Z" fill="black"/>
<path d="M24.2224 35.9229C25.5634 37.3468 25.5009 39.5927 24.0829 40.9393C22.6649 42.2859 20.4283 42.2232 19.0874 40.7993C17.7464 39.3753 17.8088 37.1294 19.2268 35.7828C20.6448 34.4362 22.8814 34.4989 24.2224 35.9229Z" fill="white"/>
<path d="M23.9938 36.1124C24.9517 37.1295 24.9071 38.7338 23.8942 39.6956C22.8813 40.6575 21.2838 40.6127 20.3259 39.5956C19.3681 38.5785 19.4127 36.9743 20.4256 36.0124C21.4384 35.0506 23.036 35.0954 23.9938 36.1124Z" fill="black"/>
</svg>
