<svg width="44" height="44" viewBox="0 0 44 44" fill="none" xmlns="http://www.w3.org/2000/svg">
<circle cx="22" cy="22" r="22" fill="#00BFFE"/>
<path fill-rule="evenodd" clip-rule="evenodd" d="M8.51686 20.8503C8.41103 20.3183 8.35547 19.7675 8.35547 19.2034C8.35547 14.6728 11.9399 11 16.3615 11C19.5532 11 22.3087 12.9138 23.5947 15.6825C24.6624 14.4136 26.2427 13.6104 28.0061 13.6104C31.2219 13.6104 33.8287 16.2815 33.8287 19.5765C33.8287 19.8476 33.8111 20.1145 33.7769 20.3761C36.8858 20.7824 39.2863 23.4415 39.2863 26.6612C39.2863 30.1622 36.4482 33.0002 32.9473 33.0002H11.0538C7.55291 33.0002 4.71484 30.1622 4.71484 26.6612C4.71484 24.0624 6.27878 21.8288 8.51686 20.8503Z" fill="white"/>
</svg>
