<svg width="123" height="174" viewBox="0 0 123 174" fill="none" xmlns="http://www.w3.org/2000/svg">
<g clip-path="url(#clip0_1605_49673)">
<path d="M78.8719 91.5996H44.5338C44.2563 91.5996 44.004 91.6765 43.7769 91.8303L24.375 105.286H98.6018L79.654 91.8559C79.4269 91.7021 79.1494 91.5996 78.8719 91.5996Z" fill="#D3D3D3"/>
<path d="M76.5497 92.4963H46.8287C46.5512 92.4963 46.2989 92.5732 46.0718 92.727L32.9017 101.851C31.7916 102.62 32.3214 104.363 33.6586 104.363H89.4422C90.7794 104.363 91.3093 102.62 90.2244 101.851L77.3318 92.727C77.1048 92.5732 76.8272 92.4707 76.5497 92.4707V92.4963Z" fill="#858585"/>
<path d="M24.375 105.286H98.6018V109.925C98.6018 111.617 97.2394 113.001 95.5742 113.001H27.4278C25.7627 113.001 24.4002 111.617 24.4002 109.925V105.286H24.375Z" fill="#B5B5B5"/>
<path d="M86.0604 71.4033C86.0604 76.5292 82.6291 80.8349 77.9615 82.0908C76.473 86.3709 72.4362 89.4208 67.7181 89.4208C65.1195 89.4208 62.7478 88.4981 60.8808 86.9603C59.3165 87.8317 57.5252 88.3443 55.633 88.3443C50.5365 88.3443 46.2474 84.7818 45.0868 79.9635C44.9859 79.9635 44.8597 79.9635 44.7588 79.9635C40.4445 79.9635 36.9375 76.401 36.9375 72.0184C36.9375 67.9177 39.9903 64.5346 43.9262 64.0989C44.1028 58.563 48.5938 54.1035 54.1192 54.1035C55.532 54.1035 56.8945 54.411 58.1055 54.9236C59.9221 52.1556 63.0506 50.3359 66.5828 50.3359C72.1334 50.3359 76.6496 54.8467 76.7757 60.4595C82.0236 61.2284 86.0604 65.8417 86.0604 71.4033Z" fill="#DDDDDD"/>
<path d="M55.0775 76.9132C57.5021 76.9132 59.4676 74.9166 59.4676 72.4537C59.4676 69.9907 57.5021 67.9941 55.0775 67.9941C52.653 67.9941 50.6875 69.9907 50.6875 72.4537C50.6875 74.9166 52.653 76.9132 55.0775 76.9132Z" fill="white"/>
<path d="M55.6835 76.0417C57.3835 76.0417 58.7616 74.6418 58.7616 72.9149C58.7616 71.188 57.3835 69.7881 55.6835 69.7881C53.9836 69.7881 52.6055 71.188 52.6055 72.9149C52.6055 74.6418 53.9836 76.0417 55.6835 76.0417Z" fill="black"/>
<path d="M67.7182 76.9132C70.1427 76.9132 72.1082 74.9166 72.1082 72.4537C72.1082 69.9907 70.1427 67.9941 67.7182 67.9941C65.2936 67.9941 63.3281 69.9907 63.3281 72.4537C63.3281 74.9166 65.2936 76.9132 67.7182 76.9132Z" fill="white"/>
<path d="M67.1132 76.1442C68.8132 76.1442 70.1913 74.7443 70.1913 73.0174C70.1913 71.2905 68.8132 69.8906 67.1132 69.8906C65.4133 69.8906 64.0352 71.2905 64.0352 73.0174C64.0352 74.7443 65.4133 76.1442 67.1132 76.1442Z" fill="black"/>
<path d="M64.894 76.9141H58.1071C57.912 76.9141 57.7539 77.0747 57.7539 77.2729C57.7539 77.471 57.912 77.6317 58.1071 77.6317H64.894C65.0891 77.6317 65.2472 77.471 65.2472 77.2729C65.2472 77.0747 65.0891 76.9141 64.894 76.9141Z" fill="#858585"/>
<path d="M104 22.6564C104 30.6015 96.3301 37.5727 84.7495 41.6221C81.6966 46.0816 76.6506 49.3878 73.068 48.9778C72.4625 48.9009 72.2606 48.1064 72.74 47.7219C73.9763 46.6455 74.7332 45.3897 75.1621 44.1082C70.873 44.9027 66.2811 45.3128 61.5126 45.3128C38.0235 45.3128 19 35.1635 19 22.6564C19 10.1492 38.0235 0 61.5126 0C85.0018 0 104 10.1492 104 22.6564Z" fill="#EDEDED"/>
<path d="M45.9462 24.5271C47.5626 24.5271 48.8729 23.196 48.8729 21.5541C48.8729 19.9121 47.5626 18.5811 45.9462 18.5811C44.3299 18.5811 43.0195 19.9121 43.0195 21.5541C43.0195 23.196 44.3299 24.5271 45.9462 24.5271Z" fill="#858585"/>
<path d="M61.5126 24.5271C63.129 24.5271 64.4393 23.196 64.4393 21.5541C64.4393 19.9121 63.129 18.5811 61.5126 18.5811C59.8963 18.5811 58.5859 19.9121 58.5859 21.5541C58.5859 23.196 59.8963 24.5271 61.5126 24.5271Z" fill="#858585"/>
<path d="M77.0556 24.5271C78.672 24.5271 79.9823 23.196 79.9823 21.5541C79.9823 19.9121 78.672 18.5811 77.0556 18.5811C75.4392 18.5811 74.1289 19.9121 74.1289 21.5541C74.1289 23.196 75.4392 24.5271 77.0556 24.5271Z" fill="#858585"/>
</g>
<path d="M4.42188 135.453C6.46875 135.469 7.92188 137.344 7.9375 140.297C7.92188 143.25 6.46875 145.125 4.42188 145.125C2.35938 145.125 0.921875 143.25 0.921875 140.297C0.921875 137.344 2.35938 135.469 4.42188 135.453ZM4.42188 136.547C3.04688 136.562 2.07812 138.031 2.07812 140.297C2.07812 142.562 3.04688 144.031 4.42188 144.031C5.8125 144.031 6.75 142.562 6.75 140.297C6.75 138.031 5.8125 136.562 4.42188 136.547ZM11.4531 134.375V139.922H13.7812V140.984H11.4531V148.266H10.2344V134.375H11.4531ZM19.5312 136.953C19.5312 138.828 21.0156 140.531 23.0938 141.203L22.4688 142.156C20.8516 141.609 19.5625 140.461 18.9375 138.984C18.3281 140.57 17.0234 141.82 15.375 142.422L14.7344 141.469C16.8125 140.734 18.2969 138.922 18.2969 136.953V136.359H15.0469V135.359H22.7344V136.359H19.5312V136.953ZM26 134.375V142.781H24.7812V134.375H26ZM26 143.516V148.266H24.7812V144.531H16.6562V143.516H26ZM38.3281 135.594V136.609H34.2188V140.766C36.0703 140.773 37.4297 140.703 39.0156 140.375L39.125 141.391C37.3906 141.719 35.9688 141.781 33.9062 141.781H33.0156V135.594H38.3281ZM44.1719 134.375V143.562H43V139.047H41.0469V142.359H39.9062V134.641H41.0469V138.016H43V134.375H44.1719ZM40.1406 143.469C40.1406 145.328 42.4844 146.875 44.9219 147.25L44.3906 148.203C42.3281 147.828 40.3672 146.734 39.5312 145.156C38.6875 146.734 36.7188 147.828 34.6719 148.203L34.1406 147.25C36.5625 146.875 38.9062 145.328 38.9219 143.469V142.938H40.1406V143.469ZM57.25 134.984V135.875C57.25 136.82 57.25 138.008 56.9375 139.578H58.9219V140.562H46.2031V139.578H55.7031C56.0156 138.031 56.0312 136.891 56.0312 135.984H47.8125V134.984H57.25ZM57.2969 141.969V145.469H48.9688V147.109H57.6562V148.109H47.7344V144.5H56.0781V142.953H47.7188V141.969H57.2969ZM71.4844 134.375V148.297H70.25V134.375H71.4844ZM64.0938 135.453C66.1562 135.469 67.6406 137.344 67.6406 140.297C67.6406 143.25 66.1562 145.125 64.0938 145.125C62.0156 145.125 60.5469 143.25 60.5469 140.297C60.5469 137.344 62.0156 135.469 64.0938 135.453ZM64.0938 136.547C62.7031 136.562 61.7344 138.031 61.7344 140.297C61.7344 142.562 62.7031 144.031 64.0938 144.031C65.4844 144.031 66.4531 142.562 66.4531 140.297C66.4531 138.031 65.4844 136.562 64.0938 136.547ZM80.6406 142.531V144.266H83.1719V142.531H84.3125V148.078H79.4844V142.531H80.6406ZM80.6406 147.109H83.1719V145.203H80.6406V147.109ZM88.2812 143.625C88.2656 145.094 89.1406 146.625 90.8438 147.25L90.2031 148.188C88.9219 147.672 88.0781 146.695 87.6562 145.531C87.2109 146.672 86.3672 147.656 85.1406 148.188L84.5 147.25C86.1719 146.562 87.0625 145.031 87.0625 143.625V142.438H88.2812V143.625ZM81.7031 135C83.5625 135 84.9844 136.055 85.25 137.656H88.1562V134.375H89.3906V141.734H88.1562V138.672H85.2656C85.0156 140.312 83.5859 141.391 81.7031 141.391C79.5938 141.391 78.0938 140.094 78.0938 138.188C78.0938 136.297 79.5938 135 81.7031 135ZM81.7031 136.031C80.2812 136.031 79.2656 136.922 79.2656 138.188C79.2656 139.469 80.2812 140.375 81.7031 140.375C83.1094 140.375 84.1094 139.469 84.1094 138.188C84.1094 136.922 83.1094 136.031 81.7031 136.031ZM95.4375 135.453C97.3281 135.469 98.6875 137.086 98.8906 139.688H102V134.375H103.219V148.297H102V140.703H98.9062C98.7578 143.422 97.375 145.125 95.4375 145.125C93.3906 145.125 91.9531 143.25 91.9531 140.297C91.9531 137.344 93.3906 135.469 95.4375 135.453ZM95.4375 136.547C94.0625 136.562 93.125 138.031 93.125 140.297C93.125 142.562 94.0625 144.031 95.4375 144.031C96.7969 144.031 97.75 142.562 97.75 140.297C97.75 138.031 96.7969 136.562 95.4375 136.547ZM118.25 145.453V146.484H105.531V145.453H108.688V141.703C107.5 141.086 106.781 140.086 106.781 138.828C106.781 136.672 108.891 135.266 111.859 135.25C114.828 135.266 116.938 136.672 116.938 138.828C116.938 140.062 116.242 141.055 115.094 141.672V145.453H118.25ZM111.859 136.266C109.578 136.25 107.969 137.281 107.969 138.828C107.969 140.375 109.578 141.422 111.859 141.422C114.125 141.422 115.75 140.375 115.75 138.828C115.75 137.281 114.125 136.25 111.859 136.266ZM109.891 145.453H113.859V142.141C113.258 142.305 112.586 142.391 111.859 142.391C111.148 142.391 110.484 142.312 109.891 142.156V145.453ZM120.828 147.094C120.281 147.094 119.812 146.641 119.828 146.078C119.812 145.531 120.281 145.078 120.828 145.078C121.375 145.078 121.828 145.531 121.828 146.078C121.828 146.641 121.375 147.094 120.828 147.094ZM8.64062 158.594V159.609H4.53125V163.766C6.38281 163.773 7.74219 163.703 9.32812 163.375L9.4375 164.391C7.70312 164.719 6.28125 164.781 4.21875 164.781H3.32812V158.594H8.64062ZM14.4844 157.375V166.562H13.3125V162.047H11.3594V165.359H10.2188V157.641H11.3594V161.016H13.3125V157.375H14.4844ZM10.4531 166.469C10.4531 168.328 12.7969 169.875 15.2344 170.25L14.7031 171.203C12.6406 170.828 10.6797 169.734 9.84375 168.156C9 169.734 7.03125 170.828 4.98438 171.203L4.45312 170.25C6.875 169.875 9.21875 168.328 9.23438 166.469V165.938H10.4531V166.469ZM27.5625 157.984V158.875C27.5625 159.82 27.5625 161.008 27.25 162.578H29.2344V163.562H16.5156V162.578H26.0156C26.3281 161.031 26.3438 159.891 26.3438 158.984H18.125V157.984H27.5625ZM27.6094 164.969V168.469H19.2812V170.109H27.9688V171.109H18.0469V167.5H26.3906V165.953H18.0312V164.969H27.6094ZM36.6719 157.625C39.7656 157.625 41.5781 158.469 41.5781 160.016C41.5781 161.594 39.7656 162.438 36.6719 162.453C33.5781 162.438 31.75 161.594 31.75 160.016C31.75 158.469 33.5781 157.625 36.6719 157.625ZM36.6719 158.547C34.3594 158.547 33.0156 159.109 33.0312 160.016C33.0156 160.984 34.3594 161.516 36.6719 161.516C38.9688 161.516 40.3281 160.984 40.3281 160.016C40.3281 159.109 38.9688 158.547 36.6719 158.547ZM43 163.391V164.391H30.3438V163.391H43ZM41.375 165.594V168.703H33.125V170.141H41.7969V171.109H31.9062V167.797H40.1719V166.531H31.875V165.594H41.375ZM59.0469 157.391V160.578H61.1562V161.609H59.0469V165.234H57.8281V157.391H59.0469ZM59.0469 166V171.078H50.25V166H59.0469ZM51.4531 166.969V170.078H57.8594V166.969H51.4531ZM50.0938 158.094V163.141C52.0703 163.133 54.1094 162.977 56.3594 162.516L56.5156 163.547C54.1562 164.016 52.0625 164.172 49.9688 164.172H48.8594V158.094H50.0938ZM69.0625 158.891C69.0625 159.68 68.9922 160.453 68.8438 161.203H72.2969V157.359H73.5156V171.266H72.2969V165.922H68.375V164.906H72.2969V162.203H68.5938C67.7891 164.781 65.9531 167.047 62.6719 168.641L62.0312 167.641C65.7344 165.852 67.5703 163.172 67.8281 159.891H62.6406V158.891H69.0625ZM88.5625 168.469V169.484H75.8438V168.469H81.5625V165.469H77.3438V158.359H78.5781V160.875H85.7969V158.359H87V165.469H82.7656V168.469H88.5625ZM78.5781 164.469H85.7969V161.875H78.5781V164.469ZM93.7969 161.328C93.7969 163.531 94.875 165.922 96.7188 167.016L96.0156 167.969C94.6797 167.156 93.7188 165.672 93.2344 163.984C92.7188 165.828 91.6875 167.414 90.2969 168.266L89.5156 167.344C91.4375 166.219 92.6094 163.75 92.6094 161.375V158.688H93.7969V161.328ZM101.578 157.375V171.266H100.391V157.375H101.578ZM98.7031 157.672V170.562H97.5469V163.406H95.1875V162.359H97.5469V157.672H98.7031ZM116.219 168.453V169.484H103.5V168.453H106.656V164.703C105.469 164.086 104.75 163.086 104.75 161.828C104.75 159.672 106.859 158.266 109.828 158.25C112.797 158.266 114.906 159.672 114.906 161.828C114.906 163.062 114.211 164.055 113.062 164.672V168.453H116.219ZM109.828 159.266C107.547 159.25 105.938 160.281 105.938 161.828C105.938 163.375 107.547 164.422 109.828 164.422C112.094 164.422 113.719 163.375 113.719 161.828C113.719 160.281 112.094 159.25 109.828 159.266ZM107.859 168.453H111.828V165.141C111.227 165.305 110.555 165.391 109.828 165.391C109.117 165.391 108.453 165.312 107.859 165.156V168.453ZM119.578 158.688L119.469 166.812H118.156L118.047 158.688H119.578ZM118.812 170.094C118.266 170.094 117.797 169.641 117.812 169.078C117.797 168.531 118.266 168.078 118.812 168.078C119.359 168.078 119.812 168.531 119.812 169.078C119.812 169.641 119.359 170.094 118.812 170.094Z" fill="#ADADAD"/>
<defs>
<clipPath id="clip0_1605_49673">
<rect width="85" height="113" fill="white" transform="translate(19)"/>
</clipPath>
</defs>
</svg>
