<svg width="20" height="18" viewBox="0 0 20 18" fill="none" xmlns="http://www.w3.org/2000/svg">
<mask id="path-1-inside-1_2231_5621" fill="white">
<path fill-rule="evenodd" clip-rule="evenodd" d="M17.6865 13.1998C19.131 11.8041 20 10.0088 20 8.05006C20 3.60414 15.5228 0 10 0C4.47715 0 0 3.60414 0 8.05006C0 12.496 4.47715 16.1001 10 16.1001C10.6878 16.1001 11.3595 16.0442 12.0083 15.9377L16.8051 17.9241C17.515 18.2181 18.2761 17.6276 18.1741 16.862L17.6865 13.1998Z"/>
</mask>
<path d="M17.6865 13.1998L16.2968 11.7615C15.8402 12.2026 15.6202 12.8344 15.704 13.4638L17.6865 13.1998ZM12.0083 15.9377L12.7734 14.0899C12.4292 13.9474 12.052 13.9038 11.6844 13.9641L12.0083 15.9377ZM16.8051 17.9241L16.0399 19.7719H16.0399L16.8051 17.9241ZM18.1741 16.862L16.1916 17.126V17.126L18.1741 16.862ZM18 8.05006C18 9.38692 17.4124 10.6836 16.2968 11.7615L19.0762 14.6381C20.8496 12.9246 22 10.6306 22 8.05006H18ZM10 2C14.8451 2 18 5.09194 18 8.05006H22C22 2.11633 16.2006 -2 10 -2V2ZM2 8.05006C2 5.09194 5.15486 2 10 2V-2C3.79945 -2 -2 2.11633 -2 8.05006H2ZM10 14.1001C5.15486 14.1001 2 11.0082 2 8.05006H-2C-2 13.9838 3.79945 18.1001 10 18.1001V14.1001ZM11.6844 13.9641C11.1428 14.053 10.5795 14.1001 10 14.1001V18.1001C10.7962 18.1001 11.5762 18.0354 12.3322 17.9113L11.6844 13.9641ZM17.5703 16.0762L12.7734 14.0899L11.2431 17.7856L16.0399 19.7719L17.5703 16.0762ZM16.1916 17.126C16.0934 16.3883 16.8343 15.7715 17.5703 16.0762L16.0399 19.7719C18.1958 20.6646 20.4588 18.867 20.1566 16.598L16.1916 17.126ZM15.704 13.4638L16.1916 17.126L20.1566 16.598L19.669 12.9358L15.704 13.4638Z" fill="#858585" mask="url(#path-1-inside-1_2231_5621)"/>
</svg>
