<svg width="90" height="90" viewBox="0 0 90 90" fill="none" xmlns="http://www.w3.org/2000/svg">
<circle cx="45" cy="45" r="45" fill="#00BFFE"/>
<path fill-rule="evenodd" clip-rule="evenodd" d="M14.5794 39.4136C14.3372 38.1962 14.21 36.9355 14.21 35.6441C14.21 25.3472 22.2971 17 32.2732 17C39.4744 17 45.6915 21.3496 48.5928 27.6423C51.0018 24.7581 54.5676 22.9323 58.5465 22.9323C65.8018 22.9323 71.6833 29.003 71.6833 36.4916C71.6833 37.1117 71.643 37.7222 71.5649 38.3202C78.5887 39.2815 84 45.3054 84 52.5932C84 60.5499 77.5499 67 69.5932 67H20.4068C12.4501 67 6 60.5499 6 52.5932C6 46.7106 9.52575 41.6514 14.5794 39.4136Z" fill="white"/>
</svg>
