<svg width="26" height="27" viewBox="0 0 26 27" fill="none" xmlns="http://www.w3.org/2000/svg">
<rect x="1.29993" y="3.27271" width="23.4" height="22.9091" rx="3" fill="#D6D6D6"/>
<path d="M1.29993 6.27271C1.29993 4.61585 2.64307 3.27271 4.29993 3.27271H21.6999C23.3568 3.27271 24.6999 4.61585 24.6999 6.27271V9.81816H1.29993V6.27271Z" fill="white"/>
<path fill-rule="evenodd" clip-rule="evenodd" d="M0.464233 8.18186C0.464233 5.01878 3.08337 2.45459 6.31423 2.45459H19.6857C22.9165 2.45459 25.5357 5.01878 25.5357 8.18186V21.2728C25.5357 24.4358 22.9165 27 19.6857 27H6.31423C3.08337 27 0.464233 24.4358 0.464233 21.2728V8.18186ZM6.31423 4.09095C4.00647 4.09095 2.13566 5.92251 2.13566 8.18186V21.2728C2.13566 23.5321 4.00647 25.3637 6.31423 25.3637H19.6857C21.9934 25.3637 23.8642 23.5321 23.8642 21.2728V8.18186C23.8642 5.92251 21.9934 4.09095 19.6857 4.09095H6.31423Z" fill="#D6D6D6"/>
<path fill-rule="evenodd" clip-rule="evenodd" d="M0.464233 8.18186C0.464233 5.01878 3.08337 2.45459 6.31423 2.45459H19.6857C22.9165 2.45459 25.5357 5.01878 25.5357 8.18186V9.81822C25.5357 10.2701 25.1615 10.6364 24.6999 10.6364H1.29995C0.838395 10.6364 0.464233 10.2701 0.464233 9.81822V8.18186ZM6.31423 4.09095C4.00647 4.09095 2.13566 5.92251 2.13566 8.18186V9.00004H23.8642V8.18186C23.8642 5.92251 21.9934 4.09095 19.6857 4.09095H6.31423Z" fill="#D6D6D6"/>
<path d="M6.31409 1.63636C6.31409 0.732624 7.06241 0 7.98552 0C8.90862 0 9.65694 0.732624 9.65694 1.63636V4.90909C9.65694 5.81282 8.90862 6.54545 7.98552 6.54545C7.06241 6.54545 6.31409 5.81282 6.31409 4.90909V1.63636Z" fill="#D6D6D6"/>
<path d="M16.3427 1.63636C16.3427 0.732624 17.091 0 18.0141 0C18.9372 0 19.6855 0.732624 19.6855 1.63636V4.90909C19.6855 5.81282 18.9372 6.54545 18.0141 6.54545C17.091 6.54545 16.3427 5.81282 16.3427 4.90909V1.63636Z" fill="#D6D6D6"/>
<path d="M7.98572 14.7272C7.98572 13.8234 8.73404 13.0908 9.65715 13.0908C10.5803 13.0908 11.3286 13.8234 11.3286 14.7272V21.2726C11.3286 22.1764 10.5803 22.909 9.65715 22.909C8.73404 22.909 7.98572 22.1764 7.98572 21.2726V14.7272Z" fill="white"/>
<path fill-rule="evenodd" clip-rule="evenodd" d="M12.1642 14.7272C12.1642 13.8234 12.9125 13.0908 13.8356 13.0908H18.0142C18.5935 13.0908 19.1314 13.3845 19.436 13.8669C19.7405 14.3493 19.7682 14.9517 19.5092 15.459L16.1663 22.0044C15.7535 22.8128 14.7495 23.1404 13.9238 22.7362C13.0982 22.3321 12.7635 21.3492 13.1764 20.5408L15.3098 16.3635H13.8356C12.9125 16.3635 12.1642 15.6309 12.1642 14.7272Z" fill="white"/>
</svg>
