<svg width="16" height="19" viewBox="0 0 16 19" fill="none" xmlns="http://www.w3.org/2000/svg">
<path fill-rule="evenodd" clip-rule="evenodd" d="M5 1C5 0.447715 4.55228 0 4 0C3.44772 0 3 0.447715 3 1H2C0.895431 1 0 1.89543 0 3V17C0 18.1046 0.895431 19 2 19H14C15.1046 19 16 18.1046 16 17V3C16 1.89543 15.1046 1 14 1H13C13 0.447715 12.5523 0 12 0C11.4477 0 11 0.447715 11 1H9C9 0.447715 8.55229 0 8 0C7.44772 0 7 0.447715 7 1H5ZM11 3H9C9 3.55228 8.55229 4 8 4C7.44772 4 7 3.55228 7 3H5C5 3.55228 4.55228 4 4 4C3.44772 4 3 3.55228 3 3H2V17H14V3H13C13 3.55228 12.5523 4 12 4C11.4477 4 11 3.55228 11 3ZM3 7C3 6.44772 3.44772 6 4 6H12C12.5523 6 13 6.44772 13 7C13 7.55228 12.5523 8 12 8H4C3.44772 8 3 7.55228 3 7ZM4 9C3.44772 9 3 9.44771 3 10C3 10.5523 3.44772 11 4 11H8C8.55228 11 9 10.5523 9 10C9 9.44771 8.55228 9 8 9H4Z" fill="#D6D6D6"/>
</svg>
