<svg width="26" height="27" viewBox="0 0 26 27" fill="none" xmlns="http://www.w3.org/2000/svg">
<rect x="1.30005" y="3.27271" width="23.4" height="22.9091" rx="3" fill="#00BFFE"/>
<path d="M1.30005 6.27271C1.30005 4.61585 2.64319 3.27271 4.30005 3.27271H21.7001C23.3569 3.27271 24.7 4.61585 24.7 6.27271V9.81816H1.30005V6.27271Z" fill="white"/>
<path fill-rule="evenodd" clip-rule="evenodd" d="M0.464294 8.18186C0.464294 5.01878 3.08343 2.45459 6.31429 2.45459H19.6857C22.9166 2.45459 25.5357 5.01878 25.5357 8.18186V21.2728C25.5357 24.4359 22.9166 27 19.6857 27H6.31429C3.08343 27 0.464294 24.4359 0.464294 21.2728V8.18186ZM6.31429 4.09095C4.00653 4.09095 2.13572 5.92252 2.13572 8.18186V21.2728C2.13572 23.5321 4.00653 25.3637 6.31429 25.3637H19.6857C21.9935 25.3637 23.8643 23.5321 23.8643 21.2728V8.18186C23.8643 5.92252 21.9935 4.09095 19.6857 4.09095H6.31429Z" fill="#00BFFE"/>
<path fill-rule="evenodd" clip-rule="evenodd" d="M0.464294 8.18186C0.464294 5.01878 3.08343 2.45459 6.31429 2.45459H19.6857C22.9166 2.45459 25.5357 5.01878 25.5357 8.18186V9.81823C25.5357 10.2701 25.1616 10.6364 24.7 10.6364H1.30001C0.838456 10.6364 0.464294 10.2701 0.464294 9.81823V8.18186ZM6.31429 4.09095C4.00653 4.09095 2.13572 5.92252 2.13572 8.18186V9.00004H23.8643V8.18186C23.8643 5.92252 21.9935 4.09095 19.6857 4.09095H6.31429Z" fill="#00BFFE"/>
<path d="M6.31415 1.63636C6.31415 0.732625 7.06247 0 7.98558 0C8.90868 0 9.65701 0.732625 9.65701 1.63636V4.90909C9.65701 5.81283 8.90868 6.54546 7.98558 6.54546C7.06247 6.54546 6.31415 5.81283 6.31415 4.90909V1.63636Z" fill="#00BFFE"/>
<path d="M16.3429 1.63636C16.3429 0.732625 17.0912 0 18.0143 0C18.9374 0 19.6858 0.732625 19.6858 1.63636V4.90909C19.6858 5.81283 18.9374 6.54546 18.0143 6.54546C17.0912 6.54546 16.3429 5.81283 16.3429 4.90909V1.63636Z" fill="#00BFFE"/>
<path d="M7.98578 14.7274C7.98578 13.8237 8.7341 13.0911 9.65721 13.0911C10.5803 13.0911 11.3286 13.8237 11.3286 14.7274V21.2729C11.3286 22.1766 10.5803 22.9092 9.65721 22.9092C8.7341 22.9092 7.98578 22.1766 7.98578 21.2729V14.7274Z" fill="white"/>
<path fill-rule="evenodd" clip-rule="evenodd" d="M12.1641 14.7274C12.1641 13.8237 12.9124 13.0911 13.8356 13.0911H18.0141C18.5934 13.0911 19.1314 13.3847 19.4359 13.8671C19.7405 14.3496 19.7682 14.952 19.5091 15.4592L16.1662 22.0047C15.7534 22.813 14.7494 23.1407 13.9238 22.7365C13.0981 22.3323 12.7635 21.3494 13.1763 20.5411L15.3097 16.3638H13.8356C12.9124 16.3638 12.1641 15.6312 12.1641 14.7274Z" fill="white"/>
</svg>
