<svg width="24" height="24" viewBox="0 0 24 24" fill="none" xmlns="http://www.w3.org/2000/svg">
<rect width="5.00496" height="15.0149" transform="matrix(0.724145 0.689647 -0.724145 0.689647 15.4766 5.76123)" fill="#D6D6D6"/>
<rect width="5.00496" height="1.00099" transform="matrix(0.724145 0.689647 -0.724145 0.689647 16.2012 5.0708)" fill="#D6D6D6"/>
<path d="M17.6518 3.68965C18.0518 3.30877 18.7002 3.30877 19.1001 3.68965L21.2761 5.76201C21.6761 6.14289 21.6761 6.76042 21.2761 7.1413L19.8257 8.52265L16.2014 5.07099L17.6518 3.68965Z" fill="#D6D6D6"/>
<path d="M8.22801 19.568L4.6037 16.1163L3.45175 19.4328C3.18739 20.1939 3.9465 20.9168 4.74566 20.665L8.22801 19.568Z" fill="#D6D6D6"/>
<rect width="18" height="1" transform="matrix(1 0 0 -1 3 21)" fill="#D6D6D6"/>
</svg>
