<svg width="16" height="16" viewBox="0 0 16 16" fill="none" xmlns="http://www.w3.org/2000/svg">
<path d="M8 12C12.2222 9.00885 13 7.26401 13 6.26696C13 5.60226 12.5556 4.22301 10.7778 4.0236C9 3.82419 8.18518 4.93756 8 5.51917C7.81482 4.93756 7 3.82419 5.22222 4.0236C3.44444 4.22301 3 5.60226 3 6.26696C3 8.26106 6.33333 10.8368 8 12Z" fill="#FF7E7E"/>
<path fill-rule="evenodd" clip-rule="evenodd" d="M6.76822 4.51958C6.40775 4.25026 5.86995 4.04123 5.0742 4.13306C4.29975 4.22243 3.8503 4.56354 3.58019 4.94105C3.29534 5.33916 3.2 5.79609 3.2 6.0744C3.2 6.49496 3.37363 6.99241 3.7132 7.54972C4.04962 8.10186 4.52512 8.67404 5.07039 9.23337C6.01808 10.2055 7.13779 11.0997 7.9979 11.7359C12.2046 8.59934 12.8 6.88174 12.8 6.0744C12.8 5.79609 12.7047 5.33916 12.4198 4.94105C12.1497 4.56354 11.7002 4.22243 10.9258 4.13306C10.1301 4.04123 9.59225 4.25026 9.23178 4.51958C8.85311 4.80249 8.64656 5.17112 8.57679 5.39656C8.50304 5.63486 8.26771 5.79908 8 5.79908C7.73229 5.79908 7.49696 5.63486 7.42321 5.39656C7.35344 5.17112 7.14689 4.80249 6.76822 4.51958ZM8 4.09627C7.86441 3.94213 7.70554 3.79216 7.52178 3.65486C6.91225 3.19947 6.05005 2.90074 4.9258 3.03048C3.78025 3.16268 3.0297 3.69861 2.57981 4.32738C2.14466 4.93555 2 5.61415 2 6.0744C2 6.76167 2.27637 7.45283 2.66805 8.09568C3.06288 8.74369 3.59988 9.3832 4.17961 9.97787C5.33906 11.1672 6.72074 12.2289 7.63231 12.8835C7.85 13.0398 8.15466 13.0387 8.37111 12.881C12.9499 9.54378 14 7.45968 14 6.0744C14 5.61415 13.8553 4.93555 13.4202 4.32738C12.9703 3.69861 12.2198 3.16268 11.0742 3.03048C9.94995 2.90074 9.08775 3.19947 8.47822 3.65486C8.29446 3.79216 8.1356 3.94213 8 4.09627Z" fill="#FF7E7E"/>
</svg>
