<svg width="20" height="14" viewBox="0 0 20 14" fill="none" xmlns="http://www.w3.org/2000/svg">
<path fill-rule="evenodd" clip-rule="evenodd" d="M4.3531 4.03195C5.80731 1.25136 8.31237 0.500004 10 0.5C12.5371 0.5 14.2721 1.62376 15.3697 3.00201C16.1906 4.0327 16.6516 5.19682 16.8658 6.13151C17.2811 6.2406 17.7644 6.4261 18.2244 6.71884C19.1414 7.30242 20 8.34369 20 10C20 11.2829 19.5005 12.3498 18.5257 13.0587C17.6003 13.7317 16.36 14 15 14H5C3.53159 14 2.2569 13.5251 1.34905 12.6007C0.444038 11.6792 0 10.4094 0 9C0 7.59056 0.444038 6.32076 1.34905 5.39929C2.12077 4.61354 3.15757 4.15253 4.3531 4.03195ZM10 2.5C8.7984 2.5 6.92507 3.04677 5.91915 5.39392C5.76157 5.7616 5.40003 6 5 6C3.96841 6 3.2431 6.32506 2.77595 6.80071C2.30596 7.27924 2 8.00944 2 9C2 9.99056 2.30596 10.7208 2.77595 11.1993C3.2431 11.6749 3.96841 12 5 12H15C16.14 12 16.8997 11.7683 17.3493 11.4413C17.7495 11.1502 18 10.7171 18 10C18 9.15631 17.6086 8.69758 17.1506 8.40616C16.9062 8.25063 16.6409 8.14526 16.4082 8.07964C16.2933 8.04723 16.1927 8.02629 16.1148 8.01386C16.0467 8.003 16.0089 8.00064 16.0008 8.00013C15.9989 8.00002 15.9986 8 16 8C15.4862 8 15.0561 7.61071 15.005 7.0995C14.9377 6.42655 14.5966 5.24164 13.8053 4.24799C13.0446 3.2929 11.8629 2.5 10 2.5Z" fill="#00BFFE"/>
</svg>
