<svg width="63" height="44" viewBox="0 0 63 44" fill="none" xmlns="http://www.w3.org/2000/svg">
<path d="M48.4836 7.7497C48.6969 7.62884 48.965 7.77517 48.98 8.02066L49.147 10.7558C49.1596 10.9616 49.3552 11.1076 49.5557 11.061L52.2217 10.441C52.461 10.3853 52.6775 10.6008 52.6227 10.84L52.0118 13.5049C51.9658 13.7053 52.1128 13.9001 52.3188 13.9119L55.058 14.0687C55.3038 14.0827 55.4513 14.3499 55.3311 14.5634L53.9918 16.9421C53.891 17.1211 53.9774 17.3489 54.1723 17.4181L56.7627 18.3389C56.9952 18.4215 57.0618 18.7188 56.8859 18.8893L54.9266 20.7892C54.7792 20.9321 54.798 21.1744 54.9659 21.2956L57.1978 22.9058C57.3982 23.0503 57.3783 23.3535 57.161 23.4672L54.7405 24.7343C54.5584 24.8296 54.5081 25.0668 54.6354 25.23L56.328 27.3992C56.4799 27.5939 56.3753 27.8785 56.1342 27.9262L53.4485 28.4579C53.2465 28.4979 53.1312 28.7108 53.2077 28.9028L54.2237 31.4553C54.3149 31.6844 54.134 31.9273 53.8887 31.9052L51.1554 31.6583C50.9498 31.6398 50.7789 31.8111 50.7982 32.0164L51.0555 34.7453C51.0786 34.9903 50.836 35.1719 50.6063 35.0816L48.0469 34.0763C47.8544 34.0007 47.6416 34.1166 47.6023 34.3185L47.08 37.0028C47.0331 37.2438 46.7485 37.3493 46.553 37.1983L44.3749 35.5159C44.211 35.3894 43.9737 35.4404 43.8789 35.6227L42.6192 38.0449C42.5062 38.2623 42.2027 38.2833 42.0572 38.0837L40.4368 35.8606C40.3149 35.6933 40.0722 35.6754 39.9296 35.8232L38.0346 37.7871C37.8646 37.9634 37.5667 37.898 37.4831 37.6661L36.5516 35.0823C36.4815 34.8879 36.2531 34.8025 36.0743 34.9038L33.6976 36.2503C33.4843 36.3712 33.2162 36.2248 33.2013 35.9793L33.0342 33.2442C33.0216 33.0384 32.826 32.8924 32.6255 32.939L29.9595 33.559C29.7203 33.6147 29.5037 33.3992 29.5585 33.16L30.1694 30.4951C30.2154 30.2947 30.0685 30.0999 29.8624 30.0881L27.1232 29.9313C26.8774 29.9173 26.7299 29.6501 26.8501 29.4366L28.1894 27.0579C28.2902 26.8789 28.2038 26.6511 28.0089 26.5819L25.4185 25.6611C25.186 25.5785 25.1195 25.2812 25.2953 25.1107L27.2546 23.2108C27.402 23.0679 27.3832 22.8256 27.2153 22.7044L24.9834 21.0942C24.7831 20.9497 24.8029 20.6465 25.0202 20.5328L27.4407 19.2657C27.6228 19.1704 27.6731 18.9332 27.5458 18.77L25.8532 16.6008C25.7013 16.4061 25.8059 16.1215 26.047 16.0738L28.7327 15.5421C28.9347 15.5021 29.05 15.2892 28.9735 15.0972L27.9575 12.5447C27.8663 12.3156 28.0472 12.0727 28.2925 12.0948L31.0258 12.3417C31.2314 12.3602 31.4023 12.1889 31.383 11.9836L31.1257 9.25467C31.1026 9.00973 31.3452 8.82812 31.5749 8.91835L34.1343 9.9237C34.3268 9.99933 34.5396 9.88342 34.5789 9.68148L35.1012 6.99717C35.1481 6.75624 35.4327 6.65067 35.6282 6.80167L37.8063 8.48408C37.9702 8.61065 38.2075 8.55957 38.3023 8.37735L39.562 5.95512C39.675 5.7377 39.9785 5.71673 40.124 5.91627L41.7444 8.13944C41.8664 8.30669 42.1091 8.32459 42.2516 8.17684L44.1466 6.21292C44.3167 6.03665 44.6145 6.10197 44.6981 6.33388L45.6296 8.9177C45.6997 9.11208 45.9281 9.1975 46.1069 9.0962L48.4836 7.7497Z" fill="#C2C2C2"/>
<path d="M51.2903 27.5697C48.2276 33.2272 41.1775 35.3203 35.5436 32.2447C29.9097 29.1692 27.8253 22.0897 30.888 16.4322C33.9508 10.7748 41.0008 8.68168 46.6347 11.7572C52.2686 14.8327 54.353 21.9122 51.2903 27.5697Z" fill="#F5F5F5"/>
<path d="M35.1286 18.0582C34.6277 16.164 35.7508 14.2208 37.6371 13.7178C39.5234 13.2148 41.4585 14.3426 41.9594 16.2367C42.4603 18.1309 41.3373 20.0742 39.451 20.5772C37.5647 21.0801 35.6295 19.9524 35.1286 18.0582Z" fill="white"/>
<path d="M35.4194 18.0021C35.0616 16.6491 35.8638 15.2611 37.2112 14.9018C38.5585 14.5425 39.9408 15.3481 40.2986 16.701C40.6564 18.054 39.8542 19.4421 38.5068 19.8013C37.1595 20.1606 35.7772 19.3551 35.4194 18.0021Z" fill="#333333"/>
<path d="M42.2263 21.9332C41.7254 20.039 42.8485 18.0958 44.7347 17.5928C46.621 17.0898 48.5562 18.2176 49.0571 20.1117C49.558 22.0059 48.4349 23.9492 46.5486 24.4522C44.6623 24.9551 42.7272 23.8274 42.2263 21.9332Z" fill="white"/>
<path d="M42.5171 21.8761C42.1593 20.5231 42.9615 19.1351 44.3089 18.7758C45.6562 18.4165 47.0385 19.2221 47.3963 20.5751C47.754 21.928 46.9518 23.3161 45.6045 23.6754C44.2571 24.0346 42.8749 23.2291 42.5171 21.8761Z" fill="#333333"/>
<path d="M40.7779 23.6397C40.3602 24.4111 39.5252 24.7655 38.9129 24.4312C38.3005 24.0969 38.1426 23.2005 38.5602 22.4291C38.9779 21.6576 39.8128 21.3032 40.4252 21.6375C41.0376 21.9718 41.1955 22.8682 40.7779 23.6397Z" fill="#707070"/>
<path fill-rule="evenodd" clip-rule="evenodd" d="M25.529 18.2305C26.6924 17.1844 28.2221 16.5493 29.8978 16.5493C33.5403 16.5493 36.4931 19.5499 36.4931 23.2512C36.4931 24.5122 36.1505 25.6918 35.5545 26.6991C38.6418 27.639 40.891 30.5406 40.891 33.9743C40.891 38.1691 37.5342 41.5698 33.3933 41.5698H7.49773C3.35685 41.5698 0 38.1691 0 33.9743C0 30.5143 2.28377 27.5946 5.40756 26.6779C5.32182 26.2943 5.27655 25.8952 5.27655 25.4852C5.27655 22.5242 7.63881 20.1237 10.5528 20.1237C11.0451 20.1237 11.5216 20.1922 11.9736 20.3204C13.1265 17.3281 15.9927 15.209 19.346 15.209C21.8479 15.209 24.0787 16.3887 25.529 18.2305Z" fill="#EBEBEB"/>
<path fill-rule="evenodd" clip-rule="evenodd" d="M23.5758 30.4705C21.1044 31.7613 18.707 31.0041 17.8436 30.4838C17.6469 30.3653 17.3772 30.408 17.2411 30.5791C17.105 30.7503 17.154 30.9851 17.3506 31.1036C18.4067 31.7401 21.1772 32.6025 24.0214 31.1169C24.2264 31.0098 24.2929 30.7783 24.1699 30.5998C24.0468 30.4212 23.7809 30.3634 23.5758 30.4705Z" fill="#333333"/>
<path d="M27.8083 23.9229C29.1493 25.3468 29.0869 27.5927 27.6689 28.9393C26.2509 30.2859 24.0143 30.2232 22.6733 28.7993C21.3323 27.3753 21.3948 25.1294 22.8128 23.7828C24.2308 22.4362 26.4674 22.4989 27.8083 23.9229Z" fill="white"/>
<path d="M27.5807 24.1124C28.5386 25.1295 28.494 26.7338 27.4811 27.6956C26.4683 28.6575 24.8707 28.6127 23.9128 27.5956C22.955 26.5785 22.9996 24.9743 24.0125 24.0124C25.0253 23.0506 26.6229 23.0954 27.5807 24.1124Z" fill="#333333"/>
<path d="M18.7224 23.9229C20.0634 25.3468 20.0009 27.5927 18.5829 28.9393C17.1649 30.2859 14.9283 30.2232 13.5874 28.7993C12.2464 27.3753 12.3088 25.1294 13.7268 23.7828C15.1448 22.4362 17.3814 22.4989 18.7224 23.9229Z" fill="white"/>
<path d="M18.4948 24.1124C19.4526 25.1295 19.408 26.7338 18.3952 27.6956C17.3823 28.6575 15.7848 28.6127 14.8269 27.5956C13.8691 26.5785 13.9137 24.9743 14.9265 24.0124C15.9394 23.0506 17.537 23.0954 18.4948 24.1124Z" fill="#333333"/>
</svg>
