<svg width="70" height="70" viewBox="0 0 70 70" fill="none" xmlns="http://www.w3.org/2000/svg">
<path fill-rule="evenodd" clip-rule="evenodd" d="M41.2159 22.6679C42.6385 21.3979 44.509 20.6271 46.5579 20.6271C51.0119 20.6271 54.6225 24.2695 54.6225 28.7627C54.6225 30.2934 54.2034 31.7253 53.4748 32.9482C57.2498 34.0892 60 37.6114 60 41.7797C60 46.8719 55.8954 51 50.832 51H19.1679C14.1046 51 10 46.8719 10 41.7797C10 37.5795 12.7925 34.0352 16.6122 32.9224C16.5073 32.4568 16.452 31.9722 16.452 31.4746C16.452 27.8801 19.3405 24.9661 22.9036 24.9661C23.5055 24.9661 24.0882 25.0493 24.6409 25.2048C26.0506 21.5725 29.5553 19 33.6556 19C36.7148 19 39.4425 20.432 41.2159 22.6679Z" fill="#E5F9FF"/>
<path fill-rule="evenodd" clip-rule="evenodd" d="M38.8273 37.5267C35.8054 39.0938 32.8739 38.1746 31.8182 37.5429C31.5778 37.399 31.2479 37.4509 31.0815 37.6587C30.9151 37.8664 30.975 38.1515 31.2154 38.2953C32.5068 39.068 35.8945 40.1148 39.3721 38.3115C39.6229 38.1815 39.7042 37.9004 39.5537 37.6837C39.4033 37.467 39.0781 37.3967 38.8273 37.5267Z" fill="#0091BC"/>
<path d="M44.0034 29.5784C45.6431 31.3069 45.5668 34.0333 43.8329 35.668C42.099 37.3026 39.3642 37.2265 37.7245 35.498C36.0848 33.7694 36.1611 31.043 37.895 29.4084C39.6289 27.7737 42.3637 27.8498 44.0034 29.5784Z" fill="white"/>
<path d="M42.4891 30.4237C43.6603 31.6584 43.6057 33.6058 42.3672 34.7734C41.1288 35.941 39.1753 35.8867 38.0041 34.652C36.8329 33.4173 36.8874 31.4699 38.1259 30.3023C39.3644 29.1347 41.3178 29.189 42.4891 30.4237Z" fill="black"/>
<path d="M26.6138 29.5784C24.9741 31.3069 25.0504 34.0333 26.7843 35.668C28.5182 37.3026 31.253 37.2265 32.8927 35.498C34.5324 33.7694 34.456 31.043 32.7222 29.4084C30.9883 27.7737 28.2535 27.8498 26.6138 29.5784Z" fill="white"/>
<path d="M28.1281 30.4237C26.9569 31.6584 27.0115 33.6058 28.2499 34.7734C29.4884 35.941 31.4419 35.8867 32.6131 34.652C33.7843 33.4173 33.7298 31.4699 32.4913 30.3023C31.2528 29.1347 29.2993 29.189 28.1281 30.4237Z" fill="black"/>
</svg>
