<svg width="63" height="44" viewBox="0 0 63 44" fill="none" xmlns="http://www.w3.org/2000/svg">
<path d="M48.4846 7.7497C48.6979 7.62884 48.9659 7.77517 48.9809 8.02066L49.148 10.7558C49.1606 10.9616 49.3562 11.1076 49.5567 11.061L52.2226 10.441C52.4619 10.3853 52.6785 10.6008 52.6236 10.84L52.0128 13.5049C51.9668 13.7053 52.1137 13.9001 52.3198 13.9119L55.059 14.0687C55.3048 14.0827 55.4523 14.3499 55.3321 14.5634L53.9927 16.9421C53.892 17.1211 53.9784 17.3489 54.1732 17.4181L56.7637 18.3389C56.9962 18.4215 57.0627 18.7188 56.8869 18.8893L54.9275 20.7892C54.7801 20.9321 54.799 21.1744 54.9669 21.2956L57.1988 22.9058C57.3991 23.0503 57.3793 23.3535 57.162 23.4672L54.7414 24.7343C54.5593 24.8296 54.5091 25.0668 54.6364 25.23L56.329 27.3992C56.4809 27.5939 56.3763 27.8785 56.1352 27.9262L53.4495 28.4579C53.2475 28.4979 53.1322 28.7108 53.2086 28.9028L54.2247 31.4553C54.3159 31.6844 54.135 31.9273 53.8897 31.9052L51.1564 31.6583C50.9508 31.6398 50.7798 31.8111 50.7992 32.0164L51.0565 34.7453C51.0796 34.9903 50.837 35.1719 50.6073 35.0816L48.0479 34.0763C47.8554 34.0007 47.6426 34.1166 47.6033 34.3185L47.081 37.0028C47.0341 37.2438 46.7495 37.3493 46.554 37.1983L44.3759 35.5159C44.212 35.3894 43.9747 35.4404 43.8799 35.6227L42.6202 38.0449C42.5071 38.2623 42.2037 38.2833 42.0582 38.0837L40.4377 35.8606C40.3158 35.6933 40.0731 35.6754 39.9306 35.8232L38.0356 37.7871C37.8655 37.9634 37.5677 37.898 37.4841 37.6661L36.5526 35.0823C36.4825 34.8879 36.2541 34.8025 36.0753 34.9038L33.6986 36.2503C33.4853 36.3712 33.2172 36.2248 33.2022 35.9793L33.0351 33.2442C33.0226 33.0384 32.827 32.8924 32.6264 32.939L29.9605 33.559C29.7212 33.6147 29.5047 33.3992 29.5595 33.16L30.1704 30.4951C30.2164 30.2947 30.0694 30.0999 29.8634 30.0881L27.1242 29.9313C26.8783 29.9173 26.7308 29.6501 26.8511 29.4366L28.1904 27.0579C28.2912 26.8789 28.2048 26.6511 28.0099 26.5819L25.4194 25.6611C25.1869 25.5785 25.1204 25.2812 25.2963 25.1107L27.2556 23.2108C27.403 23.0679 27.3842 22.8256 27.2163 22.7044L24.9844 21.0942C24.784 20.9497 24.8039 20.6465 25.0212 20.5328L27.4417 19.2657C27.6238 19.1704 27.6741 18.9332 27.5467 18.77L25.8542 16.6008C25.7023 16.4061 25.8069 16.1215 26.048 16.0738L28.7337 15.5421C28.9357 15.5021 29.051 15.2892 28.9745 15.0972L27.9584 12.5447C27.8672 12.3156 28.0482 12.0727 28.2935 12.0948L31.0268 12.3417C31.2324 12.3602 31.4033 12.1889 31.384 11.9836L31.1267 9.25467C31.1036 9.00973 31.3462 8.82812 31.5759 8.91835L34.1352 9.9237C34.3278 9.99933 34.5405 9.88342 34.5798 9.68148L35.1022 6.99717C35.1491 6.75624 35.4336 6.65067 35.6291 6.80167L37.8073 8.48408C37.9712 8.61065 38.2085 8.55957 38.3033 8.37735L39.563 5.95512C39.676 5.7377 39.9795 5.71673 40.125 5.91627L41.7454 8.13944C41.8673 8.30669 42.11 8.32459 42.2526 8.17684L44.1475 6.21292C44.3176 6.03665 44.6155 6.10197 44.6991 6.33388L45.6306 8.9177C45.7007 9.11208 45.929 9.1975 46.1079 9.0962L48.4846 7.7497Z" fill="#FF8F89"/>
<path d="M51.2932 27.5697C48.2305 33.2272 41.1805 35.3203 35.5466 32.2447C29.9126 29.1692 27.8283 22.0897 30.891 16.4322C33.9537 10.7748 41.0037 8.68168 46.6376 11.7572C52.2716 14.8327 54.3559 21.9122 51.2932 27.5697Z" fill="#FFFD9B"/>
<path d="M35.1315 18.0582C34.6306 16.164 35.7537 14.2208 37.64 13.7178C39.5263 13.2148 41.4615 14.3426 41.9624 16.2367C42.4633 18.1309 41.3402 20.0742 39.4539 20.5772C37.5676 21.0801 35.6324 19.9524 35.1315 18.0582Z" fill="white"/>
<path d="M35.4224 18.0021C35.0646 16.6491 35.8668 15.2611 37.2141 14.9018C38.5615 14.5425 39.9437 15.3481 40.3015 16.701C40.6593 18.054 39.8571 19.4421 38.5098 19.8013C37.1624 20.1606 35.7801 19.3551 35.4224 18.0021Z" fill="black"/>
<path d="M42.2272 21.9332C41.7263 20.039 42.8494 18.0958 44.7357 17.5928C46.622 17.0898 48.5572 18.2176 49.0581 20.1117C49.559 22.0059 48.4359 23.9492 46.5496 24.4522C44.6633 24.9551 42.7281 23.8274 42.2272 21.9332Z" fill="white"/>
<path d="M42.5181 21.8761C42.1603 20.5231 42.9625 19.1351 44.3098 18.7758C45.6572 18.4165 47.0394 19.2221 47.3972 20.5751C47.755 21.928 46.9528 23.3161 45.6055 23.6754C44.2581 24.0346 42.8758 23.2291 42.5181 21.8761Z" fill="black"/>
<path d="M40.7788 23.6397C40.3612 24.4111 39.5262 24.7655 38.9138 24.4312C38.3014 24.0969 38.1436 23.2005 38.5612 22.4291C38.9788 21.6576 39.8138 21.3032 40.4262 21.6375C41.0386 21.9718 41.1965 22.8682 40.7788 23.6397Z" fill="#FF7272"/>
<path fill-rule="evenodd" clip-rule="evenodd" d="M25.529 18.2304C26.6924 17.1843 28.2221 16.5492 29.8978 16.5492C33.5403 16.5492 36.4931 19.5498 36.4931 23.2511C36.4931 24.5121 36.1505 25.6917 35.5545 26.699C38.6418 27.6389 40.891 30.5405 40.891 33.9742C40.891 38.1691 37.5342 41.5697 33.3933 41.5697H7.49773C3.35685 41.5697 0 38.1691 0 33.9742C0 30.5142 2.28377 27.5945 5.40756 26.6778C5.32182 26.2942 5.27655 25.8951 5.27655 25.4851C5.27655 22.5241 7.63881 20.1236 10.5528 20.1236C11.0451 20.1236 11.5216 20.1921 11.9736 20.3203C13.1265 17.328 15.9927 15.2089 19.346 15.2089C21.8479 15.2089 24.0787 16.3886 25.529 18.2304Z" fill="#E5F9FF"/>
<path fill-rule="evenodd" clip-rule="evenodd" d="M23.5758 30.4704C21.1044 31.7613 18.707 31.004 17.8436 30.4837C17.6469 30.3652 17.3772 30.4079 17.2411 30.579C17.105 30.7502 17.154 30.985 17.3506 31.1035C18.4067 31.74 21.1772 32.6024 24.0214 31.1168C24.2264 31.0097 24.2929 30.7782 24.1699 30.5997C24.0468 30.4211 23.7809 30.3633 23.5758 30.4704Z" fill="#0091BC"/>
<path d="M27.8093 23.9228C29.1503 25.3467 29.0879 27.5926 27.6699 28.9392C26.2519 30.2858 24.0153 30.2231 22.6743 28.7992C21.3333 27.3752 21.3957 25.1293 22.8137 23.7827C24.2317 22.4361 26.4683 22.4988 27.8093 23.9228Z" fill="white"/>
<path d="M27.5807 24.1124C28.5386 25.1295 28.494 26.7337 27.4811 27.6955C26.4683 28.6574 24.8707 28.6126 23.9128 27.5955C22.955 26.5784 22.9996 24.9742 24.0125 24.0123C25.0253 23.0505 26.6229 23.0953 27.5807 24.1124Z" fill="black"/>
<path d="M18.7224 23.9228C20.0634 25.3467 20.0009 27.5926 18.5829 28.9392C17.1649 30.2858 14.9283 30.2231 13.5874 28.7992C12.2464 27.3752 12.3088 25.1293 13.7268 23.7827C15.1448 22.4361 17.3814 22.4988 18.7224 23.9228Z" fill="white"/>
<path d="M18.4938 24.1124C19.4517 25.1295 19.4071 26.7337 18.3942 27.6955C17.3813 28.6574 15.7838 28.6126 14.8259 27.5955C13.8681 26.5784 13.9127 24.9742 14.9256 24.0123C15.9384 23.0505 17.536 23.0953 18.4938 24.1124Z" fill="black"/>
</svg>
