<svg width="51" height="51" viewBox="0 0 51 51" fill="none" xmlns="http://www.w3.org/2000/svg">
<g clip-path="url(#clip0_1533_33801)">
<rect x="22.5" width="6" height="17" rx="3" fill="#ADADAD"/>
<rect x="22.5" y="34" width="6" height="17" rx="3" fill="#ADADAD" fill-opacity="0.3"/>
<rect x="51" y="22.5" width="6" height="17" rx="3" transform="rotate(90 51 22.5)" fill="#ADADAD" fill-opacity="0.05"/>
<rect x="17" y="22.5" width="6" height="17" rx="3" transform="rotate(90 17 22.5)" fill="#C2C2C2" fill-opacity="0.7"/>
<rect x="45.6523" y="41.4102" width="6" height="17" rx="3" transform="rotate(135 45.6523 41.4102)" fill="#ADADAD" fill-opacity="0.15"/>
<rect x="21.6113" y="17.3682" width="6" height="17" rx="3" transform="rotate(135 21.6113 17.3682)" fill="#ADADAD" fill-opacity="0.8"/>
<rect x="9.58984" y="45.6523" width="6" height="17" rx="3" transform="rotate(-135 9.58984 45.6523)" fill="#ADADAD" fill-opacity="0.5"/>
<rect x="33.6318" y="21.6113" width="6" height="17" rx="3" transform="rotate(-135 33.6318 21.6113)" fill="#ADADAD" fill-opacity="0.01"/>
</g>
<defs>
<clipPath id="clip0_1533_33801">
<rect width="51" height="51" fill="white"/>
</clipPath>
</defs>
</svg>
