<svg width="51" height="51" viewBox="0 0 51 51" fill="none" xmlns="http://www.w3.org/2000/svg">
<g clip-path="url(#clip0_1533_33771)">
<rect y="28.5" width="6" height="17" rx="3" transform="rotate(-90 0 28.5)" fill="#ADADAD" fill-opacity="0.8"/>
<rect x="34" y="28.5" width="6" height="17" rx="3" transform="rotate(-90 34 28.5)" fill="#ADADAD" fill-opacity="0.15"/>
<rect x="22.5" width="6" height="17" rx="3" fill="#ADADAD" fill-opacity="0.01"/>
<rect x="22.5" y="34" width="6" height="17" rx="3" fill="#ADADAD" fill-opacity="0.5"/>
<rect x="41.4099" y="5.34766" width="6" height="17" rx="3" transform="rotate(45 41.4099 5.34766)" fill="#ADADAD" fill-opacity="0.05"/>
<rect x="17.3682" y="29.3887" width="6" height="17" rx="3" transform="rotate(45 17.3682 29.3887)" fill="#C2C2C2" fill-opacity="0.7"/>
<rect x="45.6521" y="41.4102" width="6" height="17" rx="3" transform="rotate(135 45.6521 41.4102)" fill="#ADADAD" fill-opacity="0.3"/>
<rect x="21.6111" y="17.3682" width="6" height="17" rx="3" transform="rotate(135 21.6111 17.3682)" fill="#ADADAD"/>
</g>
<defs>
<clipPath id="clip0_1533_33771">
<rect width="51" height="51" fill="white" transform="translate(0 51) rotate(-90)"/>
</clipPath>
</defs>
</svg>
