<svg width="51" height="51" viewBox="0 0 51 51" fill="none" xmlns="http://www.w3.org/2000/svg">
<g clip-path="url(#clip0_1533_33781)">
<rect x="28.5" y="51" width="6" height="17" rx="3" transform="rotate(-180 28.5 51)" fill="#ADADAD" fill-opacity="0.8"/>
<rect x="28.5" y="17" width="6" height="17" rx="3" transform="rotate(-180 28.5 17)" fill="#ADADAD" fill-opacity="0.15"/>
<rect x="3.8147e-06" y="28.5" width="6" height="17" rx="3" transform="rotate(-90 3.8147e-06 28.5)" fill="#ADADAD" fill-opacity="0.01"/>
<rect x="34" y="28.5" width="6" height="17" rx="3" transform="rotate(-90 34 28.5)" fill="#ADADAD" fill-opacity="0.5"/>
<rect x="5.34766" y="9.58984" width="6" height="17" rx="3" transform="rotate(-45 5.34766 9.58984)" fill="#ADADAD" fill-opacity="0.05"/>
<rect x="29.3887" y="33.6318" width="6" height="17" rx="3" transform="rotate(-45 29.3887 33.6318)" fill="#C2C2C2" fill-opacity="0.7"/>
<rect x="41.4102" y="5.34766" width="6" height="17" rx="3" transform="rotate(45 41.4102 5.34766)" fill="#ADADAD" fill-opacity="0.3"/>
<rect x="17.3682" y="29.3887" width="6" height="17" rx="3" transform="rotate(45 17.3682 29.3887)" fill="#ADADAD"/>
</g>
<defs>
<clipPath id="clip0_1533_33781">
<rect width="51" height="51" fill="white" transform="translate(51 51) rotate(-180)"/>
</clipPath>
</defs>
</svg>
