<svg width="51" height="51" viewBox="0 0 51 51" fill="none" xmlns="http://www.w3.org/2000/svg">
<g clip-path="url(#clip0_1533_33791)">
<rect x="51" y="22.5" width="6" height="17" rx="3" transform="rotate(90 51 22.5)" fill="#ADADAD" fill-opacity="0.8"/>
<rect x="17" y="22.5" width="6" height="17" rx="3" transform="rotate(90 17 22.5)" fill="#ADADAD" fill-opacity="0.15"/>
<rect x="28.5" y="51" width="6" height="17" rx="3" transform="rotate(-180 28.5 51)" fill="#ADADAD" fill-opacity="0.01"/>
<rect x="28.5" y="17" width="6" height="17" rx="3" transform="rotate(-180 28.5 17)" fill="#ADADAD" fill-opacity="0.5"/>
<rect x="9.59008" y="45.6523" width="6" height="17" rx="3" transform="rotate(-135 9.59008 45.6523)" fill="#ADADAD" fill-opacity="0.05"/>
<rect x="33.6318" y="21.6113" width="6" height="17" rx="3" transform="rotate(-135 33.6318 21.6113)" fill="#C2C2C2" fill-opacity="0.7"/>
<rect x="5.3479" y="9.58984" width="6" height="17" rx="3" transform="rotate(-45 5.3479 9.58984)" fill="#ADADAD" fill-opacity="0.3"/>
<rect x="29.3889" y="33.6318" width="6" height="17" rx="3" transform="rotate(-45 29.3889 33.6318)" fill="#ADADAD"/>
</g>
<defs>
<clipPath id="clip0_1533_33791">
<rect width="51" height="51" fill="white" transform="translate(51) rotate(90)"/>
</clipPath>
</defs>
</svg>
