<svg width="346" height="45" viewBox="0 0 346 45" fill="none" xmlns="http://www.w3.org/2000/svg">
<rect width="346" height="45" rx="8" fill="#FEE500"/>
<g clip-path="url(#clip0_91_3787)">
<path d="M24 34.5C30.6274 34.5 36 29.1274 36 22.5C36 15.8726 30.6274 10.5 24 10.5C17.3726 10.5 12 15.8726 12 22.5C12 29.1274 17.3726 34.5 24 34.5Z" fill="#FEE500"/>
<path d="M23.9935 14C19.015 14 15 17.2818 15 21.266C15 23.8522 16.6702 26.1167 19.1756 27.4097L18.3276 30.6457C18.3116 30.6941 18.3092 30.7462 18.3205 30.7959C18.3319 30.8458 18.3566 30.8916 18.3919 30.9279C18.4433 30.9742 18.5096 30.9998 18.5782 31C18.6351 30.9954 18.689 30.9724 18.7323 30.9344L22.3812 28.4206C22.9198 28.4965 23.4627 28.5359 24.0065 28.5386C28.9787 28.5386 33 25.2568 33 21.266C33 17.2753 28.9657 14 23.9935 14Z" fill="#392020"/>
</g>
<path d="M128.234 16.6562C128.234 20.9219 127.062 24.5781 121.859 27.1719L120.905 25.8594C123.351 24.6484 124.804 23.2422 125.624 21.5625L121.234 21.9844L121.015 20.4844L126.155 20.1562C126.335 19.5 126.445 18.8047 126.499 18.0625H121.749V16.6562H128.234ZM131.952 15.2656V20.7969H134.046V22.2188H131.952V29.3594H130.218V15.2656H131.952ZM141.654 16.6562C141.654 20.9219 140.482 24.5781 135.279 27.1719L134.326 25.8594C136.771 24.6484 138.224 23.2422 139.044 21.5625L134.654 21.9844L134.435 20.4844L139.576 20.1562C139.755 19.5 139.865 18.8047 139.919 18.0625H135.169V16.6562H141.654ZM145.372 15.2656V20.7969H147.466V22.2188H145.372V29.3594H143.638V15.2656H145.372ZM154.152 16.0625C157.183 16.0625 159.418 17.5781 159.418 19.875C159.418 21.9922 157.597 23.4062 155.011 23.6562V26.25H160.636V27.6719H147.73V26.25H153.293V23.6562C150.722 23.4062 148.902 21.9922 148.918 19.875C148.902 17.5781 151.136 16.0625 154.152 16.0625ZM154.152 17.4688C152.089 17.4531 150.605 18.3906 150.621 19.875C150.605 21.4062 152.089 22.3125 154.152 22.3125C156.246 22.3125 157.714 21.4062 157.714 19.875C157.714 18.3906 156.246 17.4531 154.152 17.4688ZM174.056 26.3125V27.75H161.15V26.3125H166.713V24.0156H162.681V19.3906H170.806V17.6406H162.65V16.2344H172.525V20.7656H164.416V22.5938H172.853V24.0156H168.431V26.3125H174.056ZM190.147 15.2656V29.3906H188.49V15.2656H190.147ZM187.225 15.6094V28.7188H185.569V24H183.365V22.5781H185.569V20.4844H183.615C182.951 22.8281 181.475 24.8438 178.834 26.4062L177.819 25.1719C180.748 23.4453 182.092 21.2344 182.35 18.3906H178.569V16.9844H184.069C184.069 17.6953 184.022 18.3906 183.928 19.0625H185.569V15.6094H187.225ZM204.254 22.2031V23.6094H191.379V22.2031H196.942V20.2344H198.661V22.2031H204.254ZM198.676 16.0312C198.676 17.75 200.567 19.3125 203.52 19.6875L202.848 21.0469C200.528 20.6875 198.684 19.6406 197.786 18.1562C196.879 19.6406 195.036 20.6875 192.707 21.0469L192.082 19.6875C194.989 19.3125 196.911 17.7188 196.911 16.0312V15.5H198.676V16.0312ZM202.676 24.7344V29.3906H200.942V26.0938H192.801V24.7344H202.676ZM215.862 15.2656V20.8906H218.034V22.3281H215.862V29.3906H214.143V15.2656H215.862ZM213.049 17.4375V18.8281H204.721V17.4375H208.065V15.4688H209.799V17.4375H213.049ZM208.94 19.75C210.971 19.75 212.487 21.125 212.487 23.0781C212.487 25.0312 210.971 26.3906 208.94 26.3906C206.878 26.3906 205.362 25.0312 205.378 23.0781C205.362 21.125 206.878 19.75 208.94 19.75ZM208.94 21.1719C207.831 21.1719 207.034 21.9219 207.034 23.0781C207.034 24.2344 207.831 24.9688 208.94 24.9531C210.018 24.9688 210.815 24.2344 210.831 23.0781C210.815 21.9219 210.018 21.1719 208.94 21.1719ZM230.016 15.2656V29.3906H228.266V15.2656H230.016ZM225.798 16.7656C225.798 20.9688 224.173 24.5469 219.22 26.8906L218.313 25.5C222.009 23.7422 223.727 21.3516 224.032 18.1406H219.032V16.7656H225.798Z" fill="#333333"/>
<defs>
<clipPath id="clip0_91_3787">
<rect width="24" height="24" fill="white" transform="translate(12 10.5)"/>
</clipPath>
</defs>
</svg>
