<svg width="346" height="45" viewBox="0 0 346 45" fill="none" xmlns="http://www.w3.org/2000/svg">
<rect width="346" height="45" rx="8" fill="#03C75A"/>
<g clip-path="url(#clip0_91_3780)">
<mask id="mask0_91_3780" style="mask-type:luminance" maskUnits="userSpaceOnUse" x="12" y="10" width="24" height="25">
<path d="M36 10.5H12V34.5H36V10.5Z" fill="white"/>
</mask>
<g mask="url(#mask0_91_3780)">
<path d="M33.6 34.5H14.4C13.08 34.5 12 33.42 12 32.1V12.9C12 11.58 13.08 10.5 14.4 10.5H33.6C34.92 10.5 36 11.58 36 12.9V32.1C36 33.42 34.92 34.5 33.6 34.5Z" fill="#03C75A"/>
<path d="M26.4545 22.9277L21.2727 16H17V29H21.5455V22.0723L26.7273 29H31V16H26.4545V22.9277Z" fill="white"/>
</g>
</g>
<path d="M123.218 16.6719V24.4375C124.601 24.4219 125.874 24.3203 127.312 24.0156L127.562 25.4844C125.765 25.875 124.218 25.9375 122.437 25.9375H121.484V16.6719H123.218ZM133.077 15.2656V29.3906H131.421V15.2656H133.077ZM130.046 15.5625V28.7188H128.405V21.2344H125.452V19.8281H128.405V15.5625H130.046ZM146.06 15.2656V29.4062H144.31V15.2656H146.06ZM138.451 16.2969C140.576 16.2969 142.122 18.2344 142.138 21.2812C142.122 24.3594 140.576 26.2812 138.451 26.2812C136.31 26.2812 134.763 24.3594 134.763 21.2812C134.763 18.2344 136.31 16.2969 138.451 16.2969ZM138.451 17.8594C137.247 17.8594 136.435 19.125 136.435 21.2812C136.435 23.4531 137.247 24.7188 138.451 24.7188C139.638 24.7188 140.451 23.4531 140.451 21.2812C140.451 19.125 139.638 17.8594 138.451 17.8594ZM159.574 15.2656V29.4062H157.855V21.75H154.98V25.9844H148.261V16.3594H150.011V19.875H153.277V16.3594H154.98V20.3281H157.855V15.2656H159.574ZM150.011 24.5938H153.277V21.2344H150.011V24.5938ZM174.056 26.3125V27.75H161.15V26.3125H166.713V24.0156H162.681V19.3906H170.806V17.6406H162.65V16.2344H172.525V20.7656H164.416V22.5938H172.853V24.0156H168.431V26.3125H174.056ZM190.147 15.2656V29.3906H188.49V15.2656H190.147ZM187.225 15.6094V28.7188H185.569V24H183.365V22.5781H185.569V20.4844H183.615C182.951 22.8281 181.475 24.8438 178.834 26.4062L177.819 25.1719C180.748 23.4453 182.092 21.2344 182.35 18.3906H178.569V16.9844H184.069C184.069 17.6953 184.022 18.3906 183.928 19.0625H185.569V15.6094H187.225ZM204.254 22.2031V23.6094H191.379V22.2031H196.942V20.2344H198.661V22.2031H204.254ZM198.676 16.0312C198.676 17.75 200.567 19.3125 203.52 19.6875L202.848 21.0469C200.528 20.6875 198.684 19.6406 197.786 18.1562C196.879 19.6406 195.036 20.6875 192.707 21.0469L192.082 19.6875C194.989 19.3125 196.911 17.7188 196.911 16.0312V15.5H198.676V16.0312ZM202.676 24.7344V29.3906H200.942V26.0938H192.801V24.7344H202.676ZM215.862 15.2656V20.8906H218.034V22.3281H215.862V29.3906H214.143V15.2656H215.862ZM213.049 17.4375V18.8281H204.721V17.4375H208.065V15.4688H209.799V17.4375H213.049ZM208.94 19.75C210.971 19.75 212.487 21.125 212.487 23.0781C212.487 25.0312 210.971 26.3906 208.94 26.3906C206.878 26.3906 205.362 25.0312 205.378 23.0781C205.362 21.125 206.878 19.75 208.94 19.75ZM208.94 21.1719C207.831 21.1719 207.034 21.9219 207.034 23.0781C207.034 24.2344 207.831 24.9688 208.94 24.9531C210.018 24.9688 210.815 24.2344 210.831 23.0781C210.815 21.9219 210.018 21.1719 208.94 21.1719ZM230.016 15.2656V29.3906H228.266V15.2656H230.016ZM225.798 16.7656C225.798 20.9688 224.173 24.5469 219.22 26.8906L218.313 25.5C222.009 23.7422 223.727 21.3516 224.032 18.1406H219.032V16.7656H225.798Z" fill="white"/>
<defs>
<clipPath id="clip0_91_3780">
<rect width="24" height="24" fill="white" transform="translate(12 10.5)"/>
</clipPath>
</defs>
</svg>
