<svg width="227" height="190" viewBox="0 0 227 190" fill="none" xmlns="http://www.w3.org/2000/svg">
<path d="M111.467 28.4098C111.713 28.0171 112.29 28.0171 112.536 28.4098L116.742 35.129C116.948 35.4582 117.404 35.5232 117.695 35.2648L123.643 29.9906C123.99 29.6824 124.544 29.8433 124.668 30.2887L126.791 37.9087C126.895 38.282 127.314 38.4716 127.667 38.3049L134.875 34.9031C135.296 34.7043 135.781 35.0132 135.774 35.4751L135.642 43.3785C135.635 43.7657 135.984 44.0646 136.37 44.0032L144.253 42.7493C144.714 42.6761 145.092 43.1078 144.953 43.5489L142.578 51.0954C142.461 51.4651 142.711 51.8491 143.099 51.8979L151.02 52.8936C151.483 52.9518 151.722 53.4714 151.464 53.8559L147.037 60.4342C146.82 60.7564 146.95 61.1944 147.308 61.3494L154.625 64.514C155.052 64.699 155.135 65.2645 154.777 65.5612L148.657 70.6383C148.357 70.887 148.357 71.3435 148.657 71.5922L154.777 76.6693C155.135 76.966 155.052 77.5315 154.625 77.7164L147.308 80.881C146.95 81.0361 146.82 81.474 147.037 81.7963L151.464 88.3746C151.722 88.759 151.483 89.2787 151.02 89.3369L143.099 90.3326C142.711 90.3814 142.461 90.7654 142.578 91.1351L144.953 98.6816C145.092 99.1227 144.714 99.5544 144.253 99.4811L136.37 98.2273C135.984 98.1659 135.635 98.4648 135.642 98.852L135.774 106.755C135.781 107.217 135.296 107.526 134.875 107.327L127.667 103.926C127.314 103.759 126.895 103.949 126.791 104.322L124.668 111.942C124.544 112.387 123.99 112.548 123.643 112.24L117.695 106.966C117.404 106.707 116.948 106.772 116.742 107.101L112.536 113.821C112.29 114.213 111.713 114.213 111.467 113.821L107.262 107.101C107.056 106.772 106.6 106.707 106.308 106.966L100.361 112.24C100.013 112.548 99.4598 112.387 99.3357 111.942L97.2129 104.322C97.1089 103.949 96.6895 103.759 96.3364 103.926L89.1291 107.327C88.7079 107.526 88.2224 107.217 88.2301 106.755L88.3618 98.852C88.3682 98.4648 88.0198 98.1659 87.6336 98.2273L79.7501 99.4811C79.2894 99.5544 78.9115 99.1227 79.0503 98.6816L81.4259 91.1351C81.5423 90.7654 81.293 90.3814 80.9049 90.3326L72.984 89.3369C72.521 89.2787 72.2813 88.759 72.54 88.3746L76.967 81.7963C77.1839 81.474 77.054 81.0361 76.6956 80.881L69.3788 77.7164C68.9512 77.5315 68.8691 76.966 69.2268 76.6693L75.3465 71.5922C75.6463 71.3435 75.6463 70.887 75.3465 70.6383L69.2268 65.5612C68.8691 65.2645 68.9512 64.699 69.3788 64.514L76.6956 61.3494C77.054 61.1944 77.1839 60.7564 76.967 60.4342L72.54 53.8559C72.2813 53.4714 72.521 52.9518 72.984 52.8936L80.9049 51.8979C81.293 51.8491 81.5423 51.4651 81.4259 51.0954L79.0503 43.5489C78.9115 43.1078 79.2894 42.676 79.7501 42.7493L87.6336 44.0032C88.0198 44.0646 88.3682 43.7657 88.3618 43.3785L88.2301 35.4751C88.2224 35.0132 88.7079 34.7043 89.1291 34.9031L96.3364 38.3049C96.6895 38.4716 97.1089 38.282 97.2129 37.9087L99.3357 30.2887C99.4598 29.8433 100.013 29.6824 100.361 29.9906L106.308 35.2648C106.6 35.5232 107.056 35.4582 107.262 35.129L111.467 28.4098Z" fill="#FF8F89"/>
<path d="M143.002 70.6152C143.002 88.0122 128.899 102.115 111.502 102.115C94.1048 102.115 80.0018 88.0122 80.0018 70.6152C80.0018 53.2183 94.1048 39.1152 111.502 39.1152C128.899 39.1152 143.002 53.2183 143.002 70.6152Z" fill="#FFFD9B"/>
<path fill-rule="evenodd" clip-rule="evenodd" d="M105.022 74.1152C105.008 74.2567 105 74.3996 105 74.5437C105 77.6208 108.358 80.1152 112.5 80.1152C116.642 80.1152 120 77.6208 120 74.5437C120 74.3996 119.993 74.2567 119.978 74.1152L105.022 74.1152Z" fill="#FF7272"/>
<path d="M109 74.1152H112V75.4009C112 75.7954 111.68 76.1152 111.286 76.1152H109.714C109.32 76.1152 109 75.7954 109 75.4009V74.1152Z" fill="white"/>
<path d="M112 74.1152H115V75.4009C115 75.7954 114.68 76.1152 114.286 76.1152H112.714C112.32 76.1152 112 75.7954 112 75.4009V74.1152Z" fill="white"/>
<path d="M83.0026 62.1152C83.0026 61.0107 83.9882 60.1152 85.2039 60.1152H88.8013C90.0171 60.1152 91.0026 61.0107 91.0026 62.1152C91.0026 63.2198 90.0171 64.1152 88.8013 64.1152H85.2039C83.9882 64.1152 83.0026 63.2198 83.0026 62.1152Z" fill="#408CFF"/>
<path d="M135.003 62.1152C135.003 61.0107 135.865 60.1152 136.929 60.1152H140.076C141.14 60.1152 142.003 61.0107 142.003 62.1152C142.003 63.2198 141.14 64.1152 140.076 64.1152H136.929C135.865 64.1152 135.003 63.2198 135.003 62.1152Z" fill="#408CFF"/>
<path fill-rule="evenodd" clip-rule="evenodd" d="M115.22 59.1152C113.319 59.1152 111.75 60.6108 112.038 62.4229C113.281 70.2285 118.837 76.1152 125.504 76.1152C132.17 76.1152 137.727 70.2285 138.969 62.4229C139.258 60.6108 137.688 59.1152 135.788 59.1152L115.22 59.1152Z" fill="#408CFF"/>
<path fill-rule="evenodd" clip-rule="evenodd" d="M90.2199 59.1152C88.3192 59.1152 86.7496 60.6108 87.0381 62.4229C88.2808 70.2285 93.8372 76.1152 100.504 76.1152C107.17 76.1152 112.727 70.2285 113.969 62.4229C114.258 60.6108 112.688 59.1152 110.788 59.1152L90.2199 59.1152Z" fill="#408CFF"/>
<path fill-rule="evenodd" clip-rule="evenodd" d="M116.213 61.1152C115.517 61.1152 114.947 61.6864 115.008 62.3864C115.54 68.4162 119.812 73.1152 125.004 73.1152C130.195 73.1152 134.467 68.4162 134.999 62.3864C135.061 61.6864 134.49 61.1152 133.794 61.1152L116.213 61.1152Z" fill="black"/>
<path fill-rule="evenodd" clip-rule="evenodd" d="M92.1527 61.1152C91.4913 61.1152 90.9494 61.6864 91.0081 62.3864C91.5133 68.4162 95.5718 73.1152 100.504 73.1152C105.436 73.1152 109.494 68.4162 109.999 62.3864C110.058 61.6864 109.516 61.1152 108.855 61.1152L92.1527 61.1152Z" fill="black"/>
<path d="M190.877 166.964C190.092 142.701 174.339 124.994 164.571 120.25L158.066 122.485C179.117 131.924 186.082 159.529 185.316 167.144L190.877 166.964Z" fill="#FB564D"/>
<path d="M185.823 167.128C185.038 142.865 169.285 125.158 159.517 120.414L153.012 122.648C174.063 132.088 181.028 159.693 180.262 167.307L185.823 167.128Z" fill="#FFBB37"/>
<path d="M180.766 167.291C179.981 143.028 164.228 125.321 154.461 120.577L147.955 122.811C169.007 132.251 175.972 159.856 175.206 167.471L180.766 167.291Z" fill="#FFFC74"/>
<path d="M175.712 167.455C174.927 143.192 159.174 125.485 149.407 120.741L142.901 122.975C163.953 132.415 170.917 160.02 170.152 167.635L175.712 167.455Z" fill="#0FCC0B"/>
<path d="M170.658 167.618C169.873 143.355 154.12 125.649 144.353 120.905L137.847 123.139C158.899 132.578 165.863 160.183 165.098 167.798L170.658 167.618Z" fill="#38ACFF"/>
<path d="M165.601 167.781C164.817 143.519 149.064 125.812 139.296 121.068L132.79 123.302C153.842 132.741 160.807 160.346 160.041 167.961L165.601 167.781Z" fill="#204CBF"/>
<path d="M160.547 167.945C159.763 143.682 144.01 125.975 134.242 121.231L127.736 123.466C148.788 132.905 155.753 160.51 154.987 168.125L160.547 167.945Z" fill="#8500C4"/>
<path fill-rule="evenodd" clip-rule="evenodd" d="M164.368 99.6214C164.582 98.4486 164.676 97.2361 164.636 95.9974C164.328 86.4848 156.241 79.0269 146.573 79.3396C140.116 79.5484 134.587 83.1703 131.718 88.3868C129.117 86.1289 125.67 84.8053 121.928 84.9263C114.14 85.1782 108.027 91.5944 108.275 99.2573C108.312 100.416 108.493 101.537 108.8 102.605C102.084 103.108 96.8979 108.737 97.1142 115.424C97.3364 122.294 103.177 127.68 110.16 127.454C111.549 127.409 112.879 127.146 114.116 126.698C114.075 127.22 114.062 127.75 114.08 128.285C114.336 136.212 121.075 142.427 129.132 142.167C135.126 141.973 140.16 138.25 142.24 133.094C144.24 135.928 147.615 137.737 151.382 137.615C157.291 137.424 161.928 132.557 161.74 126.744C161.729 126.411 161.703 126.082 161.662 125.758C168.733 125.059 174.146 119.073 173.917 111.981C173.727 106.126 169.747 101.271 164.368 99.6214Z" fill="#EDEDED"/>
<path d="M134.092 106.791C135.138 110.826 139.257 113.248 143.291 112.202C147.325 111.156 149.748 107.037 148.702 103.003C147.655 98.9687 143.537 96.5463 139.503 97.5924C135.468 98.6385 133.046 102.757 134.092 106.791Z" fill="white"/>
<path d="M135.853 106.637C136.557 109.353 139.33 110.984 142.046 110.279C144.762 109.575 146.393 106.802 145.689 104.086C144.984 101.37 142.212 99.7389 139.495 100.443C136.779 101.148 135.148 103.92 135.853 106.637Z" fill="black"/>
<path d="M117.937 112.715C120.09 116.284 124.728 117.432 128.296 115.279C131.865 113.127 133.013 108.488 130.86 104.92C128.708 101.351 124.069 100.203 120.501 102.356C116.932 104.509 115.784 109.147 117.937 112.715Z" fill="white"/>
<path d="M119.579 112.064C121.028 114.467 124.151 115.24 126.554 113.79C128.956 112.341 129.729 109.218 128.28 106.815C126.831 104.413 123.708 103.64 121.305 105.089C118.902 106.539 118.129 109.661 119.579 112.064Z" fill="black"/>
<path d="M48 170.116H181V182.783C181 186.281 178.204 189.116 174.756 189.116H54.2441C50.7956 189.116 48 186.281 48 182.783V170.116Z" fill="#BDBDBD"/>
<path d="M78.9084 147.116H148.843L181 170.116H48L78.9084 147.116Z" fill="#D9D9D9"/>
<path d="M83.2249 148.383C83.446 148.21 83.7196 148.116 84.0015 148.116H144.039C144.313 148.116 144.579 148.205 144.797 148.368L169.503 166.897C170.458 167.613 169.945 169.116 168.746 169.116H60.2545C59.0675 169.116 58.5468 167.638 59.4778 166.912L83.2249 148.383Z" fill="#424242"/>
<path d="M227 69.1162L169.064 169.116H58.233L0 69.1162L227 69.1162Z" fill="url(#paint0_linear_392_8719)"/>
<path fill-rule="evenodd" clip-rule="evenodd" d="M116.942 115.638C118.927 123.047 115.558 130.626 109.212 134.246C109.503 134.937 109.75 135.657 109.95 136.402C112.309 145.208 107.105 154.255 98.3248 156.607C93.0039 158.033 87.591 156.673 83.6265 153.42C81.4998 156.203 78.4744 158.328 74.8344 159.304C66.0545 161.656 57.0239 156.424 54.6642 147.617C53.7506 144.208 53.9708 140.763 55.0931 137.684C50.524 135.784 46.8526 131.852 45.4703 126.693C43.1106 117.887 48.3152 108.84 57.0952 106.488C59.8524 105.749 62.6344 105.758 65.2267 106.391C66.4879 100.543 70.8887 95.5954 77.0503 93.9444C85.2652 91.7432 93.6995 96.1819 96.6839 103.976L96.7713 103.952C105.551 101.6 114.582 106.832 116.942 115.638Z" fill="#99E5FF"/>
<path d="M88.0017 127.616C88.0017 129.549 86.6586 131.116 85.0017 131.116C83.3449 131.116 82.0017 129.549 82.0017 127.616C82.0017 125.683 83.3449 124.116 85.0017 124.116C86.6586 124.116 88.0017 125.683 88.0017 127.616Z" fill="#FF9191"/>
<path d="M73.8897 118.658C72.4854 121.095 73.3153 124.208 75.7434 125.613C78.1715 127.017 81.2783 126.18 82.6826 123.743C84.087 121.307 83.257 118.193 80.8289 116.789C78.4008 115.384 75.294 116.221 73.8897 118.658Z" fill="white"/>
<path d="M75.9836 120.255C75.0381 121.896 75.5969 123.992 77.2316 124.937C78.8664 125.883 80.9581 125.319 81.9036 123.679C82.8491 122.038 82.2904 119.942 80.6556 118.997C79.0208 118.051 76.9291 118.614 75.9836 120.255Z" fill="black"/>
<path d="M92.3683 116.296C89.6512 115.57 86.8584 117.177 86.1303 119.886C85.4023 122.595 87.0147 125.379 89.7318 126.105C92.4489 126.831 95.2417 125.223 95.9698 122.515C96.6978 119.806 95.0854 117.021 92.3683 116.296Z" fill="white"/>
<path d="M91.3677 118.732C89.5383 118.243 87.658 119.325 87.1678 121.149C86.6777 122.973 87.7633 124.848 89.5926 125.336C91.422 125.825 93.3023 124.743 93.7925 122.919C94.2827 121.095 93.197 119.221 91.3677 118.732Z" fill="black"/>
<path d="M62.2424 9.40056C61.9926 7.45375 59.5573 6.677 58.2264 8.11964L49.3484 17.7431C48.806 18.331 47.9925 18.5955 47.2002 18.4415L34.2326 15.9204C32.2887 15.5425 30.8055 17.5932 31.7867 19.3022L38.3323 30.7026C38.7322 31.3991 38.7396 32.2492 38.3518 32.9475L32.0039 44.376C31.0523 46.0892 32.571 48.1334 34.5083 47.7469L47.4317 45.1693C48.2213 45.0118 49.0393 45.2727 49.5919 45.8583L58.6363 55.4426C59.9921 56.8793 62.4139 56.092 62.63 54.1441L64.0715 41.1508C64.1595 40.3569 64.6578 39.668 65.3871 39.3317L77.3247 33.8266C79.1143 33.0013 79.0923 30.4705 77.2886 29.6531L65.256 24.2004C64.5209 23.8673 64.0108 23.1806 63.9089 22.3872L62.2424 9.40056Z" fill="#FFFD9B"/>
<path d="M50.2758 37.9348C49.8225 39.3561 50.4631 40.8297 51.7067 41.2263C52.9502 41.623 54.3258 40.7924 54.7791 39.3712C55.2324 37.95 54.5917 36.4763 53.3482 36.0797C52.1046 35.6831 50.7291 36.5136 50.2758 37.9348Z" fill="#FF9191"/>
<path d="M72.0478 36.3416C72.2487 35.7118 71.901 35.0383 71.2711 34.8374L69.4074 34.243C68.7775 34.0421 68.104 34.3898 67.9032 35.0197C67.7023 35.6495 68.05 36.323 68.6799 36.5239L70.5436 37.1183C71.1735 37.3192 71.8469 36.9715 72.0478 36.3416Z" fill="#FF7DBC"/>
<path d="M42.7397 26.994C42.9406 26.3641 42.5928 25.6907 41.963 25.4898L40.0992 24.8953C39.4694 24.6944 38.7959 25.0422 38.595 25.672C38.3941 26.3019 38.7419 26.9753 39.3717 27.1762L41.2355 27.7707C41.8653 27.9716 42.5388 27.6238 42.7397 26.994Z" fill="#FF7DBC"/>
<path fill-rule="evenodd" clip-rule="evenodd" d="M54.7366 28.7275C55.8025 29.0674 56.4055 30.2177 55.9076 31.2197C53.7632 35.5356 49.5555 37.9644 45.8169 36.7719C42.0783 35.5795 40.0539 31.163 40.8044 26.4025C40.9786 25.2974 42.1363 24.7086 43.2022 25.0486L54.7366 28.7275Z" fill="#FF7DBC"/>
<path fill-rule="evenodd" clip-rule="evenodd" d="M68.6505 33.165C69.7164 33.5049 70.3194 34.6552 69.8215 35.6572C67.6771 39.9731 63.4694 42.4019 59.7308 41.2094C55.9922 40.017 53.9678 35.6005 54.7183 30.84C54.8926 29.7349 56.0502 29.1461 57.1161 29.4861L68.6505 33.165Z" fill="#FF7DBC"/>
<path fill-rule="evenodd" clip-rule="evenodd" d="M52.9176 29.8225C53.5757 30.0323 53.9477 30.7426 53.6411 31.3616C52.1764 34.3181 49.1263 35.9426 46.3624 35.0611C43.5986 34.1796 42.0523 31.089 42.57 27.8305C42.6784 27.1483 43.3929 26.7845 44.051 26.9944L52.9176 29.8225Z" fill="black"/>
<path fill-rule="evenodd" clip-rule="evenodd" d="M66.8316 34.26C67.4896 34.4698 67.8616 35.1801 67.555 35.7991C66.0904 38.7556 63.0402 40.3801 60.2764 39.4986C57.5125 38.6171 55.9662 35.5265 56.4839 32.268C56.5923 31.5858 57.3068 31.222 57.9649 31.4319L66.8316 34.26Z" fill="black"/>
<defs>
<linearGradient id="paint0_linear_392_8719" x1="113.5" y1="233.46" x2="113.5" y2="84.2801" gradientUnits="userSpaceOnUse">
<stop stop-color="#FFD706"/>
<stop offset="1" stop-color="white" stop-opacity="0"/>
</linearGradient>
</defs>
</svg>
