<svg width="346" height="45" viewBox="0 0 346 45" fill="none" xmlns="http://www.w3.org/2000/svg">
<rect width="346" height="45" rx="8" fill="black"/>
<g clip-path="url(#clip0_91_3794)">
<path d="M33.7724 29.2033C33.4062 30.0418 32.9726 30.8136 32.4703 31.5232C31.7857 32.4906 31.2251 33.1602 30.7931 33.5321C30.1232 34.1424 29.4058 34.455 28.6373 34.4728C28.0856 34.4728 27.4205 34.3172 26.646 34.0016C25.8691 33.6876 25.1551 33.5321 24.5023 33.5321C23.8176 33.5321 23.0833 33.6876 22.2979 34.0016C21.5112 34.3172 20.8775 34.4816 20.393 34.498C19.6561 34.529 18.9217 34.2076 18.1886 33.5321C17.7206 33.1276 17.1354 32.4343 16.4342 31.4521C15.682 30.4032 15.0635 29.187 14.579 27.8004C14.0601 26.3027 13.8 24.8524 13.8 23.4482C13.8 21.8398 14.1507 20.4526 14.8532 19.2901C15.4053 18.3564 16.1397 17.6198 17.059 17.0791C17.9782 16.5383 18.9715 16.2628 20.0411 16.2452C20.6264 16.2452 21.3939 16.4246 22.3476 16.7772C23.2987 17.1309 23.9094 17.3103 24.1771 17.3103C24.3773 17.3103 25.0558 17.1005 26.2058 16.6823C27.2934 16.2945 28.2113 16.1339 28.9632 16.1972C31.0008 16.3601 32.5316 17.1561 33.5497 18.5901C31.7274 19.6843 30.826 21.2169 30.8438 23.1829C30.8603 24.7142 31.4209 25.9885 32.5226 27.0004C33.022 27.47 33.5796 27.8329 34.2 28.0907C34.0655 28.4774 33.9234 28.8478 33.7724 29.2033ZM29.0993 10.9801C29.0993 12.1804 28.6567 13.3011 27.7747 14.3384C26.7103 15.5715 25.4228 16.2841 24.0268 16.1717C24.009 16.0277 23.9987 15.8761 23.9987 15.7169C23.9987 14.5646 24.5048 13.3315 25.4038 12.3232C25.8526 11.8127 26.4233 11.3882 27.1154 11.0496C27.8062 10.7161 28.4594 10.5316 29.0738 10.5C29.0917 10.6605 29.0993 10.8209 29.0993 10.9801Z" fill="white"/>
</g>
<path d="M122.438 28H120.267L124.251 16.6875H126.751L130.751 28H128.579L127.642 25.2031H123.376L122.438 28ZM123.923 23.5625H127.095L125.548 19H125.454L123.923 23.5625ZM131.593 31.1875V19.5156H133.546V20.9062H133.671C133.984 20.2969 134.609 19.4062 136.109 19.4062C138.062 19.4062 139.609 20.9375 139.609 23.7656C139.609 26.5625 138.109 28.1562 136.109 28.1562C134.64 28.1562 133.984 27.2812 133.671 26.6562H133.593V31.1875H131.593ZM133.546 23.75C133.546 25.4062 134.265 26.5156 135.562 26.5156C136.874 26.5156 137.577 25.3594 137.577 23.75C137.577 22.1719 136.89 21.0312 135.562 21.0312C134.265 21.0312 133.546 22.1094 133.546 23.75ZM140.763 31.1875V19.5156H142.716V20.9062H142.841C143.154 20.2969 143.779 19.4062 145.279 19.4062C147.232 19.4062 148.779 20.9375 148.779 23.7656C148.779 26.5625 147.279 28.1562 145.279 28.1562C143.81 28.1562 143.154 27.2812 142.841 26.6562H142.763V31.1875H140.763ZM142.716 23.75C142.716 25.4062 143.435 26.5156 144.732 26.5156C146.044 26.5156 146.747 25.3594 146.747 23.75C146.747 22.1719 146.06 21.0312 144.732 21.0312C143.435 21.0312 142.716 22.1094 142.716 23.75ZM151.933 16.6875V28H149.933V16.6875H151.933ZM157.197 28.1719C154.635 28.1719 153.072 26.4688 153.072 23.8125C153.072 21.1875 154.666 19.4062 157.088 19.4062C159.166 19.4062 160.963 20.7031 160.963 23.6875V24.3125H155.041C155.064 25.7578 155.916 26.6094 157.213 26.6094C158.088 26.6094 158.681 26.2344 158.931 25.7344H160.885C160.525 27.2031 159.166 28.1719 157.197 28.1719ZM155.056 22.9531H159.056C159.041 21.7969 158.275 20.9531 157.119 20.9531C155.916 20.9531 155.119 21.8672 155.056 22.9531ZM174.523 26.3125V27.75H161.617V26.3125H167.18V24.0156H163.148V19.3906H171.273V17.6406H163.117V16.2344H172.992V20.7656H164.883V22.5938H173.32V24.0156H168.898V26.3125H174.523ZM190.614 15.2656V29.3906H188.957V15.2656H190.614ZM187.692 15.6094V28.7188H186.036V24H183.832V22.5781H186.036V20.4844H184.082C183.418 22.8281 181.942 24.8438 179.301 26.4062L178.286 25.1719C181.215 23.4453 182.559 21.2344 182.817 18.3906H179.036V16.9844H184.536C184.536 17.6953 184.489 18.3906 184.395 19.0625H186.036V15.6094H187.692ZM204.721 22.2031V23.6094H191.846V22.2031H197.409V20.2344H199.128V22.2031H204.721ZM199.143 16.0312C199.143 17.75 201.034 19.3125 203.987 19.6875L203.315 21.0469C200.995 20.6875 199.151 19.6406 198.253 18.1562C197.346 19.6406 195.503 20.6875 193.174 21.0469L192.549 19.6875C195.456 19.3125 197.378 17.7188 197.378 16.0312V15.5H199.143V16.0312ZM203.143 24.7344V29.3906H201.409V26.0938H193.268V24.7344H203.143ZM216.329 15.2656V20.8906H218.501V22.3281H216.329V29.3906H214.61V15.2656H216.329ZM213.516 17.4375V18.8281H205.188V17.4375H208.532V15.4688H210.266V17.4375H213.516ZM209.407 19.75C211.438 19.75 212.954 21.125 212.954 23.0781C212.954 25.0312 211.438 26.3906 209.407 26.3906C207.345 26.3906 205.829 25.0312 205.845 23.0781C205.829 21.125 207.345 19.75 209.407 19.75ZM209.407 21.1719C208.298 21.1719 207.501 21.9219 207.501 23.0781C207.501 24.2344 208.298 24.9688 209.407 24.9531C210.485 24.9688 211.282 24.2344 211.298 23.0781C211.282 21.9219 210.485 21.1719 209.407 21.1719ZM230.483 15.2656V29.3906H228.733V15.2656H230.483ZM226.265 16.7656C226.265 20.9688 224.64 24.5469 219.687 26.8906L218.78 25.5C222.476 23.7422 224.194 21.3516 224.499 18.1406H219.499V16.7656H226.265Z" fill="white"/>
<defs>
<clipPath id="clip0_91_3794">
<rect width="24" height="24" fill="white" transform="translate(12 10.5)"/>
</clipPath>
</defs>
</svg>
