<svg width="346" height="45" viewBox="0 0 346 45" fill="none" xmlns="http://www.w3.org/2000/svg">
<rect x="0.5" y="0.5" width="345" height="44" rx="7.5" fill="white"/>
<rect x="0.5" y="0.5" width="345" height="44" rx="7.5" stroke="#D6D6D6"/>
<path d="M33.8055 20.5415H33V20.5H24V24.5H29.6515C28.827 26.8285 26.6115 28.5 24 28.5C20.6865 28.5 18 25.8135 18 22.5C18 19.1865 20.6865 16.5 24 16.5C25.5295 16.5 26.921 17.077 27.9805 18.0195L30.809 15.191C29.023 13.5265 26.634 12.5 24 12.5C18.4775 12.5 14 16.9775 14 22.5C14 28.0225 18.4775 32.5 24 32.5C29.5225 32.5 34 28.0225 34 22.5C34 21.8295 33.931 21.175 33.8055 20.5415Z" fill="#FFC107"/>
<path d="M15.153 17.8455L18.4385 20.255C19.3275 18.054 21.4805 16.5 24 16.5C25.5295 16.5 26.921 17.077 27.9805 18.0195L30.809 15.191C29.023 13.5265 26.634 12.5 24 12.5C20.159 12.5 16.828 14.6685 15.153 17.8455Z" fill="#FF3D00"/>
<path d="M24 32.4999C26.583 32.4999 28.93 31.5114 30.7045 29.9039L27.6095 27.2849C26.6055 28.0454 25.3575 28.4999 24 28.4999C21.399 28.4999 19.1905 26.8414 18.3585 24.5269L15.0975 27.0394C16.7525 30.2779 20.1135 32.4999 24 32.4999Z" fill="#4CAF50"/>
<path d="M33.8055 20.5415H33V20.5H24V24.5H29.6515C29.2555 25.6185 28.536 26.583 27.608 27.2855L27.6095 27.2845L30.7045 29.9035C30.4855 30.1025 34 27.5 34 22.5C34 21.8295 33.931 21.175 33.8055 20.5415Z" fill="#1976D2"/>
<path d="M124.01 20.2969C123.65 19.0938 122.713 18.3594 121.338 18.3594C119.51 18.3594 118.197 19.7812 118.197 22.3281C118.197 24.9062 119.494 26.3281 121.385 26.3281C123.088 26.3281 124.182 25.2969 124.213 23.6875H121.588V22.0781H126.182V23.4375C126.182 26.3438 124.182 28.1562 121.385 28.1562C118.26 28.1562 116.15 25.9375 116.15 22.3438C116.15 18.7188 118.353 16.5312 121.322 16.5312C123.822 16.5312 125.744 18.0781 126.088 20.2969H124.01ZM131.227 28.1719C128.758 28.1719 127.164 26.4219 127.164 23.7969C127.164 21.1562 128.758 19.4062 131.227 19.4062C133.711 19.4062 135.289 21.1562 135.289 23.7969C135.289 26.4219 133.711 28.1719 131.227 28.1719ZM131.242 26.5781C132.602 26.5781 133.274 25.3438 133.274 23.7812C133.274 22.2344 132.602 20.9844 131.242 20.9844C129.852 20.9844 129.18 22.2344 129.18 23.7812C129.18 25.3438 129.852 26.5781 131.242 26.5781ZM140.131 28.1719C137.662 28.1719 136.069 26.4219 136.069 23.7969C136.069 21.1562 137.662 19.4062 140.131 19.4062C142.616 19.4062 144.194 21.1562 144.194 23.7969C144.194 26.4219 142.616 28.1719 140.131 28.1719ZM140.147 26.5781C141.506 26.5781 142.178 25.3438 142.178 23.7812C142.178 22.2344 141.506 20.9844 140.147 20.9844C138.756 20.9844 138.084 22.2344 138.084 23.7812C138.084 25.3438 138.756 26.5781 140.147 26.5781ZM149.036 31.3594C146.786 31.3594 145.364 30.3594 145.223 28.7656H147.208C147.348 29.5 148.051 29.8594 149.067 29.8594C150.254 29.8594 151.036 29.3438 151.036 28.0938V26.4688H150.942C150.629 27.0938 149.958 27.875 148.489 27.875C146.536 27.875 144.989 26.4531 144.989 23.6875C144.989 20.8906 146.536 19.4062 148.504 19.4062C150.004 19.4062 150.629 20.2969 150.942 20.9062H151.036V19.5156H153.004V28.1406C153.004 30.3125 151.333 31.3594 149.036 31.3594ZM149.036 26.3125C150.317 26.3125 151.051 25.3438 151.051 23.7188C151.051 22.1094 150.333 21.0312 149.036 21.0312C147.708 21.0312 147.02 22.1719 147.02 23.7188C147.02 25.2812 147.723 26.3125 149.036 26.3125ZM156.503 16.6875V28H154.503V16.6875H156.503ZM161.767 28.1719C159.204 28.1719 157.642 26.4688 157.642 23.8125C157.642 21.1875 159.235 19.4062 161.657 19.4062C163.735 19.4062 165.532 20.7031 165.532 23.6875V24.3125H159.61C159.634 25.7578 160.485 26.6094 161.782 26.6094C162.657 26.6094 163.251 26.2344 163.501 25.7344H165.454C165.095 27.2031 163.735 28.1719 161.767 28.1719ZM159.626 22.9531H163.626C163.61 21.7969 162.845 20.9531 161.688 20.9531C160.485 20.9531 159.688 21.8672 159.626 22.9531ZM179.093 26.3125V27.75H166.187V26.3125H171.749V24.0156H167.718V19.3906H175.843V17.6406H167.687V16.2344H177.562V20.7656H169.452V22.5938H177.89V24.0156H173.468V26.3125H179.093ZM195.183 15.2656V29.3906H193.527V15.2656H195.183ZM192.261 15.6094V28.7188H190.605V24H188.402V22.5781H190.605V20.4844H188.652C187.988 22.8281 186.511 24.8438 183.871 26.4062L182.855 25.1719C185.785 23.4453 187.128 21.2344 187.386 18.3906H183.605V16.9844H189.105C189.105 17.6953 189.058 18.3906 188.964 19.0625H190.605V15.6094H192.261ZM209.291 22.2031V23.6094H196.416V22.2031H201.978V20.2344H203.697V22.2031H209.291ZM203.713 16.0312C203.713 17.75 205.603 19.3125 208.556 19.6875L207.885 21.0469C205.564 20.6875 203.72 19.6406 202.822 18.1562C201.916 19.6406 200.072 20.6875 197.744 21.0469L197.119 19.6875C200.025 19.3125 201.947 17.7188 201.947 16.0312V15.5H203.713V16.0312ZM207.713 24.7344V29.3906H205.978V26.0938H197.838V24.7344H207.713ZM220.898 15.2656V20.8906H223.07V22.3281H220.898V29.3906H219.18V15.2656H220.898ZM218.086 17.4375V18.8281H209.758V17.4375H213.102V15.4688H214.836V17.4375H218.086ZM213.977 19.75C216.008 19.75 217.523 21.125 217.523 23.0781C217.523 25.0312 216.008 26.3906 213.977 26.3906C211.914 26.3906 210.398 25.0312 210.414 23.0781C210.398 21.125 211.914 19.75 213.977 19.75ZM213.977 21.1719C212.867 21.1719 212.07 21.9219 212.07 23.0781C212.07 24.2344 212.867 24.9688 213.977 24.9531C215.055 24.9688 215.852 24.2344 215.867 23.0781C215.852 21.9219 215.055 21.1719 213.977 21.1719ZM235.053 15.2656V29.3906H233.303V15.2656H235.053ZM230.834 16.7656C230.834 20.9688 229.209 24.5469 224.256 26.8906L223.35 25.5C227.045 23.7422 228.764 21.3516 229.069 18.1406H224.069V16.7656H230.834Z" fill="#333333"/>
</svg>
