<svg width="48" height="34" viewBox="0 0 48 34" fill="none" xmlns="http://www.w3.org/2000/svg">
<path fill-rule="evenodd" clip-rule="evenodd" d="M23.7976 2.80592C24.8821 1.83451 26.3081 1.24485 27.8701 1.24485C31.2655 1.24485 34.0181 4.0312 34.0181 7.46834C34.0181 8.63928 33.6987 9.73469 33.1431 10.6701C36.0211 11.543 38.1177 14.2374 38.1177 17.426C38.1177 21.3214 34.9885 24.4793 31.1285 24.4793H6.98923C3.12918 24.4793 0 21.3214 0 17.426C0 14.2129 2.12893 11.5017 5.04091 10.6504C4.96093 10.2941 4.9187 9.92329 4.9187 9.54249C4.9187 6.79278 7.12075 4.5637 9.83711 4.5637C10.296 4.5637 10.7402 4.62732 11.1616 4.74632C12.2364 1.96777 14.9081 0 18.0339 0C20.3662 0 22.4457 1.09551 23.7976 2.80592Z" fill="#333333"/>
<path fill-rule="evenodd" clip-rule="evenodd" d="M33.6805 6.43092C34.765 5.45951 36.1909 4.86985 37.7529 4.86985C41.1484 4.86985 43.9009 7.6562 43.9009 11.0933C43.9009 12.2643 43.5815 13.3597 43.026 14.2951C45.9039 15.168 48.0005 17.8624 48.0005 21.051C48.0005 24.9464 44.8713 28.1043 41.0113 28.1043H16.872C13.012 28.1043 9.88281 24.9464 9.88281 21.051C9.88281 17.8379 12.0117 15.1267 14.9237 14.2754C14.8437 13.9191 14.8015 13.5483 14.8015 13.1675C14.8015 10.4178 17.0036 8.1887 19.7199 8.1887C20.1788 8.1887 20.623 8.25232 21.0444 8.37131C22.1192 5.59277 24.7909 3.625 27.9167 3.625C30.249 3.625 32.3285 4.72051 33.6805 6.43092Z" fill="#858585"/>
<path fill-rule="evenodd" clip-rule="evenodd" d="M25.5945 12.3264C26.679 11.355 28.105 10.7654 29.667 10.7654C33.0624 10.7654 35.815 13.5517 35.815 16.9888C35.815 18.1598 35.4955 19.2552 34.94 20.1906C37.8179 21.0635 39.9146 23.7579 39.9146 26.9465C39.9146 30.8419 36.7854 33.9998 32.9253 33.9998H8.7861C4.92606 33.9998 1.79688 30.8419 1.79688 26.9465C1.79688 23.7334 3.9258 21.0222 6.83779 20.1709C6.75781 19.8146 6.71558 19.4438 6.71558 19.063C6.71558 16.3133 8.91762 14.0842 11.634 14.0842C12.0929 14.0842 12.5371 14.1478 12.9585 14.2668C14.0333 11.4883 16.705 9.52051 19.8308 9.52051C22.1631 9.52051 24.2426 10.616 25.5945 12.3264Z" fill="#D6D6D6"/>
<path fill-rule="evenodd" clip-rule="evenodd" d="M18.5497 25.0897C20.7619 23.805 22.8705 24.6213 23.6253 25.1695C23.7972 25.2943 24.0368 25.2549 24.1605 25.0814C24.2842 24.908 24.2451 24.6662 24.0732 24.5413C23.15 23.8708 20.713 22.9405 18.1673 24.4189C17.9837 24.5255 17.9205 24.762 18.0262 24.9473C18.1318 25.1325 18.3662 25.1962 18.5497 25.0897Z" fill="black"/>
<path fill-rule="evenodd" clip-rule="evenodd" d="M22.0117 20.316C22.0728 21.0537 22.3732 21.7764 22.9164 22.3561C24.1881 23.7132 26.3092 23.773 27.654 22.4896C28.9988 21.2062 29.058 19.0656 27.7863 17.7085C27.7769 17.6985 27.7675 17.6886 27.758 17.6787L22.0117 20.316Z" fill="white"/>
<path fill-rule="evenodd" clip-rule="evenodd" d="M22.5234 20.0813C22.5619 20.5828 22.7645 21.0747 23.1336 21.4686C23.9899 22.3823 25.4179 22.4225 26.3234 21.5584C27.2288 20.6943 27.2686 19.2532 26.4124 18.3395C26.403 18.3294 26.3935 18.3194 26.3839 18.3096L22.5234 20.0813Z" fill="black"/>
<path fill-rule="evenodd" clip-rule="evenodd" d="M19.9023 20.3883C19.8396 21.1464 19.531 21.8889 18.9728 22.4845C17.6662 23.8788 15.4869 23.9402 14.1052 22.6216C12.7235 21.303 12.6626 19.1037 13.9693 17.7094C13.9789 17.6991 13.9886 17.6889 13.9984 17.6787L19.9023 20.3883Z" fill="white"/>
<path fill-rule="evenodd" clip-rule="evenodd" d="M19.375 20.1475C19.3355 20.6627 19.1273 21.1682 18.7481 21.5729C17.8683 22.5117 16.401 22.553 15.4708 21.6652C14.5405 20.7775 14.4996 19.2967 15.3793 18.3579C15.389 18.3476 15.3988 18.3373 15.4087 18.3271L19.375 20.1475Z" fill="black"/>
</svg>
