<svg width="41" height="40" viewBox="0 0 41 40" fill="none" xmlns="http://www.w3.org/2000/svg">
<circle cx="20.5" cy="16" r="8" fill="white"/>
<ellipse cx="20.5" cy="36.5" rx="9" ry="3.5" fill="#ADADAD"/>
<path fill-rule="evenodd" clip-rule="evenodd" d="M33.5 16.1964C33.5 11.7976 30.9028 3 20.5138 3C10.1248 3 7.52757 11.7976 7.52757 16.1964C7.2214 20.5522 9.34059 30.33 20.1893 34.914C20.3966 35.0016 20.6294 35.0165 20.8434 34.9471C25.2665 33.5136 33.5003 27.9627 33.5 16.1964ZM20.4999 23.7372C24.6026 23.7372 27.9285 20.3611 27.9285 16.1964C27.9285 12.0317 24.6026 8.65561 20.4999 8.65561C16.3973 8.65561 13.0714 12.0317 13.0714 16.1964C13.0714 20.3611 16.3973 23.7372 20.4999 23.7372Z" fill="#00BFFE"/>
</svg>
