<svg width="90" height="90" viewBox="0 0 90 90" fill="none" xmlns="http://www.w3.org/2000/svg">
<circle cx="45" cy="45" r="45" fill="#007398"/>
<path fill-rule="evenodd" clip-rule="evenodd" d="M70.244 37.5738C70.5766 36.3802 70.7538 35.1263 70.7538 33.8331C70.7538 25.7987 63.9137 19.2856 55.476 19.2856C50.1762 19.2856 45.5066 21.8552 42.7665 25.7573C41.1243 24.8153 39.2003 24.2734 37.1433 24.2734C32.0236 24.2734 27.7273 27.6305 26.5499 32.159C25.471 31.8952 24.34 31.7549 23.1746 31.7549C15.7012 31.7549 9.64282 37.5237 9.64282 44.6398C9.64282 51.7559 15.7012 57.5246 23.1746 57.5246C24.6195 57.5246 26.0116 57.309 27.3172 56.9097C28.4538 62.9311 33.9841 67.5 40.635 67.5C45.0314 67.5 48.9382 65.5037 51.4099 62.411C53.0501 63.5218 55.056 64.1749 57.222 64.1749C62.2001 64.1749 66.3319 60.7251 67.1245 56.1993C68.1276 56.5195 69.2014 56.693 70.3177 56.693C75.8625 56.693 80.3574 52.413 80.3574 47.1333C80.3574 41.8536 75.8625 37.5736 70.3177 37.5736L70.244 37.5738Z" fill="white"/>
<g clip-path="url(#clip0_1002_13139)">
<circle cx="78" cy="74" r="12" fill="#333333"/>
<rect x="69" y="70" width="18" height="10" rx="3" fill="white"/>
<rect x="73" y="68" width="10" height="6" rx="3" fill="white"/>
<circle cx="78" cy="75" r="4" fill="#333333"/>
<circle cx="78" cy="75" r="2" fill="white"/>
</g>
<defs>
<clipPath id="clip0_1002_13139">
<rect width="24" height="24" fill="white" transform="translate(66 62)"/>
</clipPath>
</defs>
</svg>
