<svg width="18" height="17" viewBox="0 0 18 17" fill="none" xmlns="http://www.w3.org/2000/svg">
<path fill-rule="evenodd" clip-rule="evenodd" d="M11 4C11 5.10457 10.1046 6 9 6C7.89543 6 7 5.10457 7 4C7 2.89543 7.89543 2 9 2C10.1046 2 11 2.89543 11 4ZM13 4C13 6.20914 11.2091 8 9 8C6.79086 8 5 6.20914 5 4C5 1.79086 6.79086 0 9 0C11.2091 0 13 1.79086 13 4ZM9 9C5.75736 9 3.53379 10.0902 2.09948 11.5489C0.691748 12.9805 0.10437 14.706 0.00345746 15.917C-0.0197664 16.1956 0.0747659 16.4713 0.264121 16.6771C0.453476 16.8829 0.720351 17 1 17H17C17.2797 17 17.5465 16.8829 17.7359 16.6771C17.9252 16.4713 18.0198 16.1956 17.9965 15.917C17.8956 14.706 17.3083 12.9805 15.9005 11.5489C14.4662 10.0902 12.2426 9 9 9ZM14.4745 12.9511C15.1221 13.6098 15.5274 14.3467 15.7583 15H2.24169C2.47265 14.3467 2.87786 13.6098 3.52553 12.9511C4.54955 11.9098 6.24264 11 9 11C11.7574 11 13.4505 11.9098 14.4745 12.9511Z" fill="#00BFFE"/>
</svg>
