<svg width="24" height="24" viewBox="0 0 24 24" fill="none" xmlns="http://www.w3.org/2000/svg">
<path fill-rule="evenodd" clip-rule="evenodd" d="M8.28033 7.80813C7.49961 8.87995 7.13228 10.2579 7.03013 11.3718C6.95535 12.1872 6.43637 12.8144 5.84618 13.1581C5.19562 13.5369 5 14.1165 5 14.5C5 15.3548 5.64627 15.8304 6.1434 16H17.761C18.4592 15.6369 19 15.2118 19 14.5C19 13.8942 18.6143 13.4945 18.0351 13.1513C17.4355 12.7961 17.0251 12.1621 16.9846 11.4361C16.8578 9.16424 15.97 7.84158 14.9884 7.06941C13.9706 6.2688 12.7729 6 12 6C10.1744 6 9.02897 6.78033 8.28033 7.80813ZM6.66373 6.63059C7.75525 5.13207 9.48009 4 12 4C13.1512 4 14.8031 4.37907 16.2249 5.49748C17.6828 6.64433 18.8245 8.51183 18.9815 11.3246C18.9832 11.3549 19.0023 11.3997 19.0545 11.4306C19.8098 11.8781 21 12.7996 21 14.5C21 16.4943 19.3708 17.4185 18.6705 17.7813C18.3821 17.9307 18.0696 18 17.7639 18H6.12311C5.97109 18 5.78304 17.9837 5.58192 17.9205C4.69561 17.6418 3 16.6435 3 14.5C3 13.489 3.50443 12.2074 4.83971 11.4298C4.99344 11.3403 5.03465 11.2309 5.03849 11.1891C5.16153 9.84739 5.60428 8.08507 6.66373 6.63059Z" fill="#333333"/>
<path fill-rule="evenodd" clip-rule="evenodd" d="M10.7183 18.0002C10.7183 18.0002 10.7189 18 10.7201 18L10.7183 18.0002ZM10.8311 18H13.1689C13.1744 18.2953 13.1131 18.5219 13.015 18.6623C12.936 18.7753 12.7204 19 12 19C11.2796 19 11.0641 18.7753 10.9851 18.6623C10.8869 18.5219 10.8256 18.2953 10.8311 18ZM13.2818 18.0002C13.2817 18.0003 13.2811 18.0003 13.2799 18L13.2818 18.0002ZM8.85444 17.5976C8.96753 16.5323 9.91968 16 10.7208 16H13.2793C14.0804 16 15.0325 16.5323 15.1456 17.5976C15.2128 18.2309 15.1598 19.0846 14.6543 19.8079C14.1095 20.5876 13.1951 21 12 21C10.8049 21 9.89057 20.5876 9.3457 19.8079C8.84025 19.0846 8.78721 18.2309 8.85444 17.5976Z" fill="#333333"/>
<path d="M14 4C14 5.10457 13.1046 6 12 6C10.8954 6 10 5.10457 10 4C10 2.89543 10.8954 2 12 2C13.1046 2 14 2.89543 14 4Z" fill="#333333"/>
<circle cx="19.5" cy="4.5" r="1.5" fill="#EF4F44"/>
</svg>
