<svg width="57" height="53" viewBox="0 0 57 53" fill="none" xmlns="http://www.w3.org/2000/svg">
<path fill-rule="evenodd" clip-rule="evenodd" d="M53.6052 27.1411C53.9929 26.5633 53.2576 25.9092 52.625 26.2055C47.0572 28.8138 39.7513 27.4015 34.6953 22.2603C30.5828 18.0787 28.9925 12.4812 30.03 7.60035C30.1255 7.15114 29.5939 6.80705 29.2627 7.12767C22.9799 13.21 22.8564 23.1939 28.9867 29.4274C35.1171 35.661 45.1799 35.7836 51.4627 29.7013C52.2816 28.9085 52.9958 28.0495 53.6052 27.1411Z" fill="#D6D6D6"/>
<path fill-rule="evenodd" clip-rule="evenodd" d="M29.8642 22.9662C30.0545 22.8883 30.2756 22.9854 30.3579 23.1833C30.6099 23.7888 30.8737 24.0769 31.1244 24.1968C31.3678 24.3133 31.6909 24.3145 32.1605 24.1221C32.7186 23.8935 32.8913 23.527 32.9309 23.1777C32.9741 22.7956 32.8571 22.4031 32.7705 22.195C32.6882 21.9971 32.7757 21.7735 32.9661 21.6956C33.1564 21.6176 33.3775 21.7148 33.4598 21.9126C33.572 22.1822 33.7415 22.7206 33.6769 23.2911C33.6087 23.8944 33.2792 24.5024 32.4587 24.8385C31.8944 25.0697 31.3376 25.1378 30.8255 24.8929C30.3207 24.6514 29.9533 24.1497 29.6686 23.4657C29.5863 23.2678 29.6738 23.0442 29.8642 22.9662Z" fill="#333333"/>
<path fill-rule="evenodd" clip-rule="evenodd" d="M27.5124 28.0452C28.7662 26.9266 30.4147 26.2476 32.2206 26.2476C36.1461 26.2476 39.3283 29.4559 39.3283 33.4135C39.3283 34.7618 38.959 36.0231 38.3168 37.1002C41.6439 38.1052 44.0678 41.2076 44.0678 44.8791C44.0678 49.3644 40.4502 53.0005 35.9876 53.0005H8.08023C3.61764 53.0005 0 49.3644 0 44.8791C0 41.1795 2.46119 38.0577 5.82768 37.0775C5.73528 36.6673 5.68649 36.2405 5.68649 35.8022C5.68649 32.6361 8.23227 30.0695 11.3727 30.0695C11.9032 30.0695 12.4167 30.1427 12.9039 30.2797C14.1463 27.0803 17.2352 24.8145 20.849 24.8145C23.5453 24.8145 25.9494 26.0758 27.5124 28.0452Z" fill="#EBEBEB"/>
<path fill-rule="evenodd" clip-rule="evenodd" d="M25.406 41.1326C22.7425 42.5128 20.1589 41.7032 19.2284 41.1468C19.0165 41.0201 18.7258 41.0657 18.5791 41.2487C18.4324 41.4318 18.4853 41.6828 18.6972 41.8095C19.8353 42.4901 22.8211 43.4122 25.8861 41.8238C26.1071 41.7092 26.1788 41.4617 26.0462 41.2708C25.9136 41.0799 25.627 41.018 25.406 41.1326Z" fill="#333333"/>
<path fill-rule="evenodd" clip-rule="evenodd" d="M12.2804 35.2846C12.5015 35.2945 12.6718 35.4618 12.6607 35.6584C12.6307 36.1926 12.778 36.9997 13.3043 37.6626C13.8148 38.3056 14.7084 38.8483 16.2685 38.8483C16.8347 38.8483 17.6963 38.6863 18.4062 38.2079C19.0969 37.7424 19.6754 36.9576 19.6754 35.6406C19.6754 35.4438 19.8548 35.2842 20.0762 35.2842C20.2975 35.2842 20.477 35.4438 20.477 35.6406C20.477 37.1749 19.7862 38.1722 18.8904 38.776C18.0137 39.3668 16.9716 39.5611 16.2685 39.5611C14.4619 39.5611 13.318 38.9158 12.6494 38.0737C11.9967 37.2516 11.8234 36.2766 11.8601 35.6228C11.8712 35.4262 12.0594 35.2748 12.2804 35.2846Z" fill="#333333"/>
<path fill-rule="evenodd" clip-rule="evenodd" d="M24.1359 35.2846C24.357 35.2945 24.5273 35.4618 24.5162 35.6584C24.4862 36.1926 24.6335 36.9997 25.1598 37.6626C25.6703 38.3056 26.5638 38.8483 28.124 38.8483C28.6901 38.8483 29.5518 38.6863 30.2617 38.2079C30.9524 37.7424 31.5308 36.9576 31.5308 35.6406C31.5308 35.4438 31.7103 35.2842 31.9317 35.2842C32.153 35.2842 32.3325 35.4438 32.3325 35.6406C32.3325 37.1749 31.6417 38.1722 30.7459 38.776C29.8692 39.3668 28.827 39.5611 28.124 39.5611C26.3173 39.5611 25.1735 38.9158 24.5049 38.0737C23.8522 37.2516 23.6788 36.2766 23.7156 35.6228C23.7266 35.4262 23.9148 35.2748 24.1359 35.2846Z" fill="#333333"/>
</svg>
