<svg width="57" height="53" viewBox="0 0 57 53" fill="none" xmlns="http://www.w3.org/2000/svg">
<path fill-rule="evenodd" clip-rule="evenodd" d="M53.6082 27.1419C53.9958 26.5641 53.2606 25.9099 52.6279 26.2063C47.0601 28.8146 39.7542 27.4022 34.6982 22.2611C30.5857 18.0794 28.9954 12.4819 30.0329 7.60109C30.1284 7.15187 29.5968 6.80778 29.2657 7.1284C22.9829 13.2107 22.8593 23.1946 28.9896 29.4282C35.12 35.6617 45.1828 35.7843 51.4656 29.702C52.2845 28.9093 52.9988 28.0502 53.6082 27.1419Z" fill="#FFF8BB"/>
<path fill-rule="evenodd" clip-rule="evenodd" d="M29.8671 22.9661C30.0575 22.8882 30.2785 22.9853 30.3608 23.1832C30.6129 23.7888 30.8767 24.0768 31.1274 24.1967C31.3707 24.3132 31.6938 24.3144 32.1635 24.122C32.7215 23.8934 32.8943 23.5269 32.9338 23.1776C32.977 22.7955 32.86 22.403 32.7734 22.1949C32.6911 21.997 32.7787 21.7734 32.969 21.6955C33.1594 21.6175 33.3804 21.7147 33.4627 21.9125C33.5749 22.1821 33.7444 22.7205 33.6799 23.291C33.6116 23.8943 33.2822 24.5023 32.4616 24.8385C31.8973 25.0696 31.3405 25.1377 30.8284 24.8928C30.3236 24.6513 29.9562 24.1497 29.6715 23.4656C29.5892 23.2677 29.6768 23.0441 29.8671 22.9661Z" fill="#9B6C25"/>
<path fill-rule="evenodd" clip-rule="evenodd" d="M27.5124 28.045C28.7662 26.9264 30.4147 26.2474 32.2206 26.2474C36.1461 26.2474 39.3283 29.4557 39.3283 33.4134C39.3283 34.7616 38.959 36.0229 38.3168 37.1C41.6439 38.105 44.0678 41.2074 44.0678 44.8789C44.0678 49.3642 40.4502 53.0003 35.9876 53.0003H8.08023C3.61764 53.0003 0 49.3642 0 44.8789C0 41.1793 2.46119 38.0575 5.82768 37.0773C5.73528 36.6672 5.68649 36.2404 5.68649 35.802C5.68649 32.6359 8.23227 30.0693 11.3727 30.0693C11.9032 30.0693 12.4167 30.1426 12.9039 30.2796C14.1463 27.0801 17.2352 24.8143 20.849 24.8143C23.5453 24.8143 25.9494 26.0756 27.5124 28.045Z" fill="#E5F9FF"/>
<path fill-rule="evenodd" clip-rule="evenodd" d="M25.4079 41.1323C22.7445 42.5126 20.1608 41.7029 19.2303 41.1465C19.0184 41.0198 18.7278 41.0655 18.5811 41.2485C18.4344 41.4315 18.4872 41.6826 18.6991 41.8093C19.8373 42.4899 22.823 43.4119 25.8881 41.8235C26.1091 41.709 26.1807 41.4614 26.0481 41.2706C25.9155 41.0797 25.6289 41.0178 25.4079 41.1323Z" fill="#0091BC"/>
<path fill-rule="evenodd" clip-rule="evenodd" d="M12.2795 35.2847C12.5006 35.2945 12.6708 35.4618 12.6598 35.6584C12.6297 36.1926 12.777 36.9998 13.3033 37.6627C13.8138 38.3056 14.7074 38.8483 16.2675 38.8483C16.8337 38.8483 17.6954 38.6863 18.4052 38.2079C19.0959 37.7424 19.6744 36.9576 19.6744 35.6406C19.6744 35.4438 19.8538 35.2842 20.0752 35.2842C20.2966 35.2842 20.476 35.4438 20.476 35.6406C20.476 37.1749 19.7852 38.1722 18.8894 38.776C18.0127 39.3668 16.9706 39.5612 16.2675 39.5612C14.4609 39.5612 13.317 38.9158 12.6485 38.0738C11.9957 37.2516 11.8224 36.2767 11.8592 35.6228C11.8702 35.4262 12.0584 35.2748 12.2795 35.2847Z" fill="#0091BC"/>
<path fill-rule="evenodd" clip-rule="evenodd" d="M24.134 35.2846C24.355 35.2945 24.5253 35.4618 24.5143 35.6584C24.4842 36.1926 24.6315 36.9997 25.1578 37.6626C25.6683 38.3056 26.5619 38.8483 28.122 38.8483C28.6882 38.8483 29.5499 38.6863 30.2597 38.2079C30.9504 37.7424 31.5289 36.9576 31.5289 35.6406C31.5289 35.4438 31.7083 35.2842 31.9297 35.2842C32.1511 35.2842 32.3305 35.4438 32.3305 35.6406C32.3305 37.1749 31.6397 38.1722 30.7439 38.776C29.8672 39.3668 28.8251 39.5611 28.122 39.5611C26.3154 39.5611 25.1715 38.9158 24.503 38.0737C23.8502 37.2516 23.6769 36.2766 23.7136 35.6228C23.7247 35.4262 23.9129 35.2748 24.134 35.2846Z" fill="#0091BC"/>
</svg>
