<svg width="120" height="90" viewBox="0 0 120 90" fill="none" xmlns="http://www.w3.org/2000/svg">
<path d="M96.006 16.0757H26.5874C21.9742 16.0757 18.2344 19.803 18.2344 24.4008V60.5034C18.2344 65.1013 21.9742 68.8286 26.5874 68.8286H96.006C100.619 68.8286 104.359 65.1013 104.359 60.5034V24.4008C104.359 19.803 100.619 16.0757 96.006 16.0757Z" fill="#DDDDDD"/>
<path d="M95.7554 18.7832H26.5541C23.5687 18.7832 21.1484 21.1953 21.1484 24.1708V60.7337C21.1484 63.7093 23.5687 66.1214 26.5541 66.1214H95.7554C98.7409 66.1214 101.161 63.7093 101.161 60.7337V24.1708C101.161 21.1953 98.7409 18.7832 95.7554 18.7832Z" fill="#F9F9F9"/>
<path d="M27.2852 29.0981V57.566H92.4796" stroke="#DDDDDD" stroke-linecap="round" stroke-linejoin="round"/>
<path d="M29.3086 42.445H38.1913L43.8823 37.8831L47.7668 40.1708L61.2946 32.6714L76.0313 48.5907L81.4099 43.3248H87.2366" stroke="#C6C6C6" stroke-linecap="round" stroke-linejoin="round"/>
<path d="M69.9079 36.5167C69.9079 39.4406 68.3595 41.1869 65.9827 42.527C64.1898 43.6099 63.2934 44.5981 63.2934 46.588V47.1431C63.2662 47.5492 62.9131 47.874 62.5056 47.874H58.5532C58.1186 47.874 57.7654 47.5492 57.7383 47.1431V46.588C57.7383 42.527 58.7026 41.3087 60.5498 40.1039C62.0982 39.1157 63.2798 38.2629 63.2798 36.8686C63.2798 35.6097 62.2611 34.7433 60.998 34.7433C59.7349 34.7433 58.5396 35.7045 58.4446 37.1394V37.2883C58.4446 37.762 58.0914 38.1005 57.6296 38.1005H53.2018C52.7672 38.1005 52.4141 37.7485 52.4141 37.2883V37.1394C52.5363 31.9142 56.3665 29.7212 61.0252 29.7212C66.1864 29.7212 69.9351 32.0224 69.9351 36.5302L69.9079 36.5167Z" fill="#707070"/>
<path d="M63.9017 51.8672C63.9017 53.7353 62.3262 55.1973 60.5877 55.1973C58.7133 55.1973 57.2193 53.7353 57.2465 51.8672C57.2193 50.0533 58.7133 48.5913 60.5877 48.5913C62.3126 48.5913 63.9017 50.0533 63.9017 51.8672Z" fill="#707070"/>
<path d="M53.9077 66.162C53.9077 70.6968 51.4901 74.6496 47.8772 76.8561C47.7142 83.638 42.1591 89.0798 35.3273 89.0798C32.4886 89.0798 29.8536 88.1457 27.7484 86.5484C25.4938 88.6872 22.4514 90.0003 19.0966 90.0003C12.645 90.0003 7.3208 85.1406 6.61452 78.9001C2.67569 76.7884 0 72.6461 0 67.8676C0 60.9639 5.62302 55.3461 12.5635 55.3461C12.9982 55.3461 13.4464 55.3732 13.8674 55.4138C15.4158 50.2427 20.2103 46.4795 25.9012 46.4795C31.1439 46.4795 35.6397 49.6877 37.514 54.2361C38.7228 53.857 39.9995 53.6405 41.3306 53.6405C48.2575 53.6405 53.8941 59.2447 53.8941 66.162H53.9077Z" fill="#EBEBEB"/>
<path d="M23.7959 66.4866C25.8363 66.4866 27.4903 64.8381 27.4903 62.8046C27.4903 60.7711 25.8363 59.1226 23.7959 59.1226C21.7556 59.1226 20.1016 60.7711 20.1016 62.8046C20.1016 64.8381 21.7556 66.4866 23.7959 66.4866Z" fill="white"/>
<path d="M33.6045 65.4441C35.6448 65.4441 37.2989 63.7956 37.2989 61.7621C37.2989 59.7286 35.6448 58.0801 33.6045 58.0801C31.5642 58.0801 29.9102 59.7286 29.9102 61.7621C29.9102 63.7956 31.5642 65.4441 33.6045 65.4441Z" fill="white"/>
<path d="M33.7256 63.8874C35.2783 63.8874 36.5371 62.6329 36.5371 61.0853C36.5371 59.5378 35.2783 58.2832 33.7256 58.2832C32.1728 58.2832 30.9141 59.5378 30.9141 61.0853C30.9141 62.6329 32.1728 63.8874 33.7256 63.8874Z" fill="black"/>
<path d="M23.999 64.9299C25.5518 64.9299 26.8105 63.6754 26.8105 62.1278C26.8105 60.5802 25.5518 59.3257 23.999 59.3257C22.4463 59.3257 21.1875 60.5802 21.1875 62.1278C21.1875 63.6754 22.4463 64.9299 23.999 64.9299Z" fill="black"/>
<path d="M29.1991 67.9025C30.4536 67.783 31.4098 67.0526 31.3349 66.2712C31.2599 65.4898 30.1822 64.9532 28.9277 65.0727C27.6732 65.1922 26.717 65.9225 26.7919 66.704C26.8669 67.4854 27.9446 68.022 29.1991 67.9025Z" fill="#707070"/>
<path d="M84.722 18.5393L82.5216 16.4546C82.1549 16.1027 82.25 15.4935 82.7118 15.2634L85.4554 13.9639C85.632 13.8826 85.6999 13.6661 85.6048 13.4901L84.1515 10.8369C83.907 10.3901 84.1922 9.83514 84.6948 9.76745L87.71 9.37489C87.9002 9.34781 88.036 9.17183 88.0088 8.96878L87.452 5.99069C87.3569 5.48983 87.8051 5.04311 88.3076 5.13787L91.2957 5.69288C91.4859 5.73349 91.676 5.59812 91.7032 5.39507L92.0971 2.3899C92.165 1.88904 92.7219 1.60477 93.1701 1.84843L95.8322 3.29686C96.0087 3.39162 96.2261 3.32394 96.3076 3.14796L97.6114 0.413527C97.8288 -0.046724 98.4535 -0.141482 98.8067 0.224012L100.898 2.41697C101.034 2.56588 101.265 2.56588 101.401 2.41697L103.493 0.224012C103.846 -0.141482 104.457 -0.046724 104.688 0.413527L105.992 3.14796C106.073 3.32394 106.29 3.39162 106.467 3.29686L109.129 1.84843C109.577 1.60477 110.134 1.88904 110.202 2.3899L110.596 5.39507C110.623 5.58458 110.8 5.71995 111.003 5.69288L113.992 5.13787C114.494 5.04311 114.942 5.48983 114.847 5.99069L114.29 8.96878C114.25 9.1583 114.385 9.34781 114.589 9.37489L117.604 9.76745C118.107 9.83514 118.392 10.3901 118.148 10.8369L116.694 13.4901C116.599 13.6661 116.667 13.8826 116.844 13.9639L119.587 15.2634C120.049 15.48 120.144 16.1027 119.778 16.4546L117.577 18.5393C117.428 18.6747 117.428 18.9048 117.577 19.0402L119.778 21.1248C120.144 21.4768 120.049 22.0859 119.587 22.3161L116.844 23.6156C116.667 23.6968 116.599 23.9134 116.694 24.0894L118.148 26.7426C118.392 27.1893 118.107 27.7443 117.604 27.812L114.589 28.2046C114.399 28.2316 114.263 28.4076 114.29 28.6107L114.847 31.5888C114.942 32.0896 114.494 32.5363 113.992 32.4416L111.003 31.8866C110.813 31.846 110.623 31.9813 110.596 32.1844L110.202 35.1896C110.134 35.6904 109.577 35.9747 109.129 35.731L106.467 34.2826C106.29 34.1878 106.073 34.2555 105.992 34.4315L104.688 37.1659C104.47 37.6262 103.846 37.7209 103.493 37.3554L101.401 35.1625C101.265 35.0136 101.034 35.0136 100.898 35.1625L98.8067 37.3554C98.4535 37.7209 97.8423 37.6262 97.6114 37.1659L96.3076 34.4315C96.2261 34.2555 96.0087 34.1878 95.8322 34.2826L93.1701 35.731C92.7219 35.9747 92.165 35.6904 92.0971 35.1896L91.7032 32.1844C91.676 31.9949 91.4995 31.8595 91.2957 31.8866L88.3076 32.4416C87.8051 32.5363 87.3569 32.0896 87.452 31.5888L88.0088 28.6107C88.0496 28.4212 87.9138 28.2316 87.71 28.2046L84.6948 27.812C84.1922 27.7443 83.907 27.1893 84.1515 26.7426L85.6048 24.0894C85.6999 23.9134 85.632 23.6968 85.4554 23.6156L82.7118 22.3161C82.25 22.0995 82.1549 21.4768 82.5216 21.1248L84.722 19.0402C84.8714 18.9048 84.8714 18.6747 84.722 18.5393Z" fill="#C2C2C2"/>
<path d="M101.14 32.9693C109.002 32.9693 115.375 26.6178 115.375 18.7828C115.375 10.9477 109.002 4.59619 101.14 4.59619C93.2791 4.59619 86.9062 10.9477 86.9062 18.7828C86.9062 26.6178 93.2791 32.9693 101.14 32.9693Z" fill="#F5F5F5"/>
<path d="M93.2412 21.7747C95.2816 21.7747 96.9356 20.1262 96.9356 18.0927C96.9356 16.0591 95.2816 14.4106 93.2412 14.4106C91.2009 14.4106 89.5469 16.0591 89.5469 18.0927C89.5469 20.1262 91.2009 21.7747 93.2412 21.7747Z" fill="white"/>
<path d="M103.042 20.7322C105.082 20.7322 106.736 19.0837 106.736 17.0502C106.736 15.0167 105.082 13.3682 103.042 13.3682C101.002 13.3682 99.3477 15.0167 99.3477 17.0502C99.3477 19.0837 101.002 20.7322 103.042 20.7322Z" fill="white"/>
<path d="M102.519 20.2175C104.071 20.2175 105.33 18.963 105.33 17.4154C105.33 15.8678 104.071 14.6133 102.519 14.6133C100.966 14.6133 99.707 15.8678 99.707 17.4154C99.707 18.963 100.966 20.2175 102.519 20.2175Z" fill="black"/>
<path d="M93.4443 21.5852C94.9971 21.5852 96.2558 20.3306 96.2558 18.7831C96.2558 17.2355 94.9971 15.981 93.4443 15.981C91.8916 15.981 90.6328 17.2355 90.6328 18.7831C90.6328 20.3306 91.8916 21.5852 93.4443 21.5852Z" fill="black"/>
<path d="M98.455 23.2987C99.239 23.224 99.8011 22.3973 99.7105 21.4521C99.6198 20.507 98.9108 19.8013 98.1267 19.876C97.3426 19.9507 96.7805 20.7774 96.8712 21.7226C96.9618 22.6678 97.6709 23.3734 98.455 23.2987Z" fill="#707070"/>
</svg>
