<svg width="77" height="97" viewBox="0 0 77 97" fill="none" xmlns="http://www.w3.org/2000/svg">
<path d="M0.136719 85.2695H76.8665V92.5771C76.8665 94.5951 75.2537 96.2309 73.2642 96.2309H3.73906C1.74954 96.2309 0.136719 94.5951 0.136719 92.5771V85.2695Z" fill="#BDBDBD"/>
<path d="M17.9683 72H58.3145L76.8665 85.2691H0.136719L17.9683 72Z" fill="#D9D9D9"/>
<path d="M20.4601 72.7298C20.5876 72.6303 20.7455 72.5762 20.9081 72.5762H55.5448C55.7027 72.5762 55.8562 72.6272 55.9819 72.7215L70.2354 83.4114C70.7862 83.8244 70.4901 84.6914 69.7983 84.6914H7.20809C6.52329 84.6914 6.22292 83.8389 6.76005 83.4198L20.4601 72.7298Z" fill="#999999"/>
<path fill-rule="evenodd" clip-rule="evenodd" d="M20.8008 38.6332L53.5297 20.9369C53.9668 20.7006 54.3796 21.2835 54.0052 21.6082L36.3416 36.9276C35.9839 37.2378 36.3467 37.8029 36.7832 37.6153L58.7451 28.1793C59.1821 27.9915 59.5448 28.558 59.1858 28.8678L43.0155 42.8178C42.6642 43.1209 43.0044 43.6785 43.4397 43.513L63.1565 36.0159C63.5988 35.8477 63.9373 36.4228 63.5706 36.7194L44.1562 52.4295C43.8046 52.7139 44.1015 53.27 44.5376 53.1439L67.4533 46.5203C67.9336 46.3815 68.209 47.0433 67.7688 47.2785L35.0891 64.7378C35.0714 64.7473 35.0533 64.7554 35.0349 64.7621C34.9316 64.8204 34.8274 64.8777 34.7221 64.9339C27.4266 68.8316 18.3145 66.1477 14.3696 58.9394C10.4248 51.731 13.1411 42.7277 20.4367 38.83C20.5385 38.7756 20.6406 38.7225 20.7431 38.6707C20.7609 38.6569 20.7802 38.6443 20.8008 38.6332Z" fill="#C2C2C2"/>
<path d="M35.9282 47.2085C38.9964 52.815 36.8837 59.8175 31.2094 62.8491C25.5351 65.8806 18.4479 63.7932 15.3797 58.1867C12.3115 52.5801 14.4242 45.5776 20.0985 42.5461C25.7728 39.5145 32.86 41.602 35.9282 47.2085Z" fill="#F5F5F5"/>
<path d="M20.3678 51.4109C21.5488 52.6448 21.4938 54.591 20.245 55.7579C18.9961 56.9248 17.0264 56.8704 15.8454 55.6365C14.6644 54.4026 14.7194 52.4564 15.9682 51.2895C17.2171 50.1226 19.1868 50.177 20.3678 51.4109Z" fill="white"/>
<path d="M19.6603 52.9365C20.4554 53.7673 20.4184 55.0776 19.5776 55.8633C18.7368 56.6489 17.4106 56.6123 16.6155 55.7816C15.8204 54.9508 15.8574 53.6405 16.6982 52.8548C17.539 52.0692 18.8652 52.1058 19.6603 52.9365Z" fill="#333333"/>
<path d="M26.61 48.0789C27.791 49.3128 27.736 51.259 26.4872 52.4259C25.2383 53.5927 23.2686 53.5384 22.0876 52.3045C20.9066 51.0706 20.9616 49.1244 22.2104 47.9575C23.4592 46.7906 25.429 46.845 26.61 48.0789Z" fill="white"/>
<path d="M25.8439 49.5635C26.639 50.3943 26.602 51.7046 25.7612 52.4902C24.9204 53.2759 23.5942 53.2393 22.7991 52.4085C22.004 51.5778 22.041 50.2674 22.8818 49.4818C23.7226 48.6962 25.0488 48.7327 25.8439 49.5635Z" fill="#333333"/>
<path d="M19.2109 58.2482C18.9369 57.7476 19.1256 57.1224 19.6322 56.8517L26.604 53.127C27.1106 52.8563 27.7434 53.0427 28.0174 53.5432C28.2913 54.0438 28.1027 54.6691 27.5961 54.9397L20.6242 58.6645C20.1176 58.9351 19.4848 58.7488 19.2109 58.2482Z" fill="#707070"/>
<circle cx="13.1367" cy="4" r="4" fill="#C2C2C2"/>
<circle cx="38.1367" cy="4" r="4" fill="#C2C2C2"/>
<circle cx="63.1367" cy="4" r="4" fill="#C2C2C2"/>
</svg>
