<svg width="50" height="48" viewBox="0 0 50 48" fill="none" xmlns="http://www.w3.org/2000/svg">
<path d="M0 48C0 34.9091 8.24175 25.091 13.4615 22.3637L17.0329 23.4546C5.76922 28.9092 2.47252 43.9091 3.02197 48H0Z" fill="#FB564D"/>
<path d="M2.74805 47.9999C2.74805 34.9091 10.9898 25.0909 16.2096 22.3637L19.781 23.4546C8.51727 28.9091 5.22057 43.909 5.77002 47.9999H2.74805Z" fill="#FFBB37"/>
<path d="M5.49414 47.9998C5.49414 34.909 13.7359 25.0908 18.9557 22.3636L22.5271 23.4545C11.2634 28.909 7.96667 43.9089 8.51612 47.9998H5.49414Z" fill="#FFFC74"/>
<path d="M8.24121 47.9999C8.24121 34.9091 16.483 25.0909 21.7027 22.3637L25.2742 23.4546C14.0104 28.9091 10.7137 43.909 11.2632 47.9999H8.24121Z" fill="#0FCC0B"/>
<path d="M10.9883 47.9999C10.9883 34.9091 19.23 25.0909 24.4498 22.3637L28.0212 23.4546C16.7575 28.9091 13.4608 43.909 14.0103 47.9999H10.9883Z" fill="#38ACFF"/>
<path d="M13.7363 47.9999C13.7363 34.9091 21.9781 25.0909 27.1979 22.3637L30.7693 23.4546C19.5056 28.9091 16.2089 43.909 16.7583 47.9999H13.7363Z" fill="#204CBF"/>
<path d="M16.4834 47.9998C16.4834 34.909 24.7251 25.0908 29.9449 22.3636L33.5163 23.4545C22.2526 28.909 18.9559 43.9089 19.5054 47.9998H16.4834Z" fill="#8500C4"/>
<path fill-rule="evenodd" clip-rule="evenodd" d="M13.2086 11.2416C13.0714 10.6133 12.9991 9.96142 12.9991 9.29307C12.9991 4.16065 17.2589 0 22.5137 0C26.023 0 29.0886 1.85571 30.738 4.61726C32.11 3.35501 33.9586 2.58148 35.9921 2.58148C40.2251 2.58148 43.6566 5.93311 43.6566 10.0676C43.6566 10.6929 43.5781 11.3004 43.4302 11.881C47.0852 12.0354 49.9999 14.9784 49.9999 18.5863C49.9999 22.293 46.9233 25.298 43.1282 25.298C42.3731 25.298 41.6465 25.179 40.9669 24.9592C40.9984 25.2399 41.0146 25.5252 41.0146 25.8141C41.0146 30.0911 37.4648 33.5583 33.0858 33.5583C29.8285 33.5583 27.03 31.6398 25.81 28.8967C24.7742 30.4593 22.9736 31.4933 20.9258 31.4933C17.7146 31.4933 15.1114 28.9506 15.1114 25.8142C15.1114 25.6345 15.1199 25.4567 15.1366 25.2813C11.285 25.0279 8.24121 21.8961 8.24121 18.0699C8.24121 14.9105 10.3167 12.2245 13.2086 11.2416Z" fill="#EDEDED"/>
<path d="M27.3642 10.5041C28.9197 12.137 28.8473 14.7127 27.2024 16.2569C25.5575 17.8011 22.963 17.7292 21.4074 16.0963C19.8519 14.4634 19.9243 11.8877 21.5692 10.3435C23.2141 8.79924 25.8086 8.87115 27.3642 10.5041Z" fill="white"/>
<path d="M26.7858 11.2634C27.8331 12.3629 27.7843 14.097 26.6769 15.1367C25.5694 16.1764 23.8226 16.1279 22.7752 15.0285C21.7279 13.9291 21.7767 12.195 22.8842 11.1553C23.9916 10.1156 25.7385 10.164 26.7858 11.2634Z" fill="black"/>
<path d="M36.705 11.0494C38.2605 12.6824 38.1881 15.258 36.5432 16.8023C34.8983 18.3465 32.3038 18.2746 30.7482 16.6416C29.1927 15.0087 29.2651 12.4331 30.91 10.8888C32.5549 9.34459 35.1494 9.4165 36.705 11.0494Z" fill="white"/>
<path d="M36.1246 11.8089C37.172 12.9083 37.1232 14.6424 36.0157 15.6821C34.9082 16.7218 33.1614 16.6734 32.1141 15.574C31.0668 14.4746 31.1156 12.7405 32.223 11.7008C33.3305 10.6611 35.0773 10.7095 36.1246 11.8089Z" fill="black"/>
</svg>
