<svg width="48" height="49" viewBox="0 0 48 49" fill="none" xmlns="http://www.w3.org/2000/svg">
<path fill-rule="evenodd" clip-rule="evenodd" d="M40.7408 15.0615C41.7304 18.7548 40.0513 22.5327 36.8874 24.3372C37.0324 24.6819 37.1558 25.0406 37.2553 25.4121C38.4316 29.8022 35.8371 34.3119 31.4603 35.4847C28.8078 36.1954 26.1095 35.5175 24.1332 33.8959C23.073 35.2828 21.5649 36.3425 19.7503 36.8287C15.3735 38.0015 10.8718 35.3933 9.69544 31.0031C9.24005 29.3036 9.34977 27.5861 9.90925 26.0513C7.63154 25.1044 5.80139 23.1441 5.11231 20.5724C3.93596 16.1823 6.53047 11.6726 10.9073 10.4999C12.2818 10.1316 13.6686 10.1361 14.9609 10.4517C15.5896 7.53648 17.7834 5.07005 20.8549 4.24703C24.9501 3.14974 29.1546 5.36243 30.6423 9.2477L30.6859 9.2359C35.0627 8.06314 39.5645 10.6714 40.7408 15.0615Z" fill="#858585"/>
<path d="M23.3289 14.9295C23.33 16.3315 24.4644 17.4689 25.8627 17.4699C27.261 17.471 28.3936 16.3353 28.3926 14.9334C28.3915 13.5314 27.2571 12.394 25.8588 12.393C24.4605 12.3919 23.3279 13.5276 23.3289 14.9295Z" fill="white"/>
<path d="M23.8958 15.006C23.8965 15.9499 24.6603 16.7157 25.6017 16.7164C26.5431 16.7171 27.3057 15.9525 27.305 15.0086C27.3043 14.0647 26.5405 13.2989 25.5991 13.2982C24.6577 13.2975 23.8951 14.0621 23.8958 15.006Z" fill="black"/>
<path d="M17.2528 14.9248C17.2538 16.3268 18.3882 17.4642 19.7865 17.4652C21.1848 17.4663 22.3174 16.3306 22.3164 14.9287C22.3153 13.5267 21.1809 12.3893 19.7826 12.3883C18.3844 12.3872 17.2517 13.5229 17.2528 14.9248Z" fill="white"/>
<path d="M18.555 15.0922C18.5557 16.0361 19.3195 16.8019 20.2609 16.8026C21.2023 16.8033 21.9649 16.0387 21.9642 15.0948C21.9635 14.1509 21.1997 13.3851 20.2583 13.3844C19.3169 13.3837 18.5543 14.1483 18.555 15.0922Z" fill="black"/>
<path fill-rule="evenodd" clip-rule="evenodd" d="M20.0535 19.194C22.4882 17.7906 24.8106 18.6853 25.6421 19.2856C25.8314 19.4223 26.0952 19.3794 26.2313 19.1898C26.3674 19.0001 26.3241 18.7355 26.1348 18.5988C25.1177 17.8646 22.4336 16.8448 19.6318 18.4599C19.4298 18.5764 19.3605 18.8351 19.4769 19.0378C19.5934 19.2405 19.8515 19.3105 20.0535 19.194Z" fill="black"/>
<path d="M39.4778 39.8277C36.5731 39.2962 37.1881 35.369 38.028 33.2427C38.1253 32.9962 38.4288 32.9203 38.6385 33.0823C42.6229 36.1611 42.1572 38.4862 40.7039 39.5542C40.3535 39.8117 39.9055 39.9059 39.4778 39.8277Z" fill="#99E5FF"/>
<path d="M32.9644 42.2214C31.4699 41.7654 31.7583 39.6625 32.2333 38.3778C32.3241 38.1322 32.6242 38.0573 32.83 38.219C35.0038 39.9268 34.8917 41.2532 34.1426 41.9547C33.8311 42.2464 33.3727 42.346 32.9644 42.2214Z" fill="#99E5FF"/>
<path d="M25.0383 41.8736C22.5387 41.2841 23.0162 37.7319 23.7324 35.7564C23.8253 35.5001 24.1385 35.4211 24.35 35.5931C27.8591 38.448 27.5432 40.583 26.3079 41.5915C25.9561 41.8786 25.4803 41.9778 25.0383 41.8736Z" fill="#99E5FF"/>
<path d="M18.4458 44.7661C16.9514 44.3101 17.2398 42.2072 17.7148 40.9225C17.8056 40.6769 18.1056 40.6019 18.3115 40.7637C20.4852 42.4715 20.3731 43.7978 19.6241 44.4993C19.3125 44.7911 18.8542 44.8907 18.4458 44.7661Z" fill="#99E5FF"/>
<path d="M9.84988 41.0399C6.94516 40.5084 7.56021 36.5813 8.40005 34.455C8.49741 34.2085 8.80089 34.1325 9.0106 34.2945C12.9949 37.3733 12.5292 39.6984 11.0759 40.7664C10.7256 41.0239 10.2776 41.1181 9.84988 41.0399Z" fill="#99E5FF"/>
</svg>
