<svg width="48" height="50" viewBox="0 0 48 50" fill="none" xmlns="http://www.w3.org/2000/svg">
<path fill-rule="evenodd" clip-rule="evenodd" d="M41.356 15.9756C42.3457 19.6689 40.6665 23.4468 37.5026 25.2513C37.6477 25.596 37.771 25.9547 37.8705 26.3261C39.0469 30.7163 36.4524 35.2259 32.0755 36.3987C29.4231 37.1094 26.7247 36.4315 24.7485 34.8099C23.6883 36.1969 22.1801 37.2566 20.3656 37.7428C15.9888 38.9156 11.487 36.3073 10.3107 31.9172C9.85528 30.2176 9.96501 28.5002 10.5245 26.9654C8.24678 26.0184 6.41662 24.0582 5.72754 21.4865C4.5512 17.0963 7.1457 12.5867 11.5225 11.4139C12.897 11.0456 14.2838 11.0502 15.5761 11.3658C16.2048 8.45054 18.3986 5.98412 21.4702 5.16109C25.5653 4.0638 29.7698 6.27649 31.2576 10.1618L31.3011 10.15C35.678 8.9772 40.1797 11.5854 41.356 15.9756Z" fill="#858585"/>
<path d="M23.9461 15.8432C23.9472 17.2452 25.0816 18.3826 26.4799 18.3836C27.8781 18.3847 29.0108 17.249 29.0097 15.8471C29.0087 14.4451 27.8743 13.3077 26.476 13.3067C25.0777 13.3056 23.9451 14.4413 23.9461 15.8432Z" fill="white"/>
<path d="M24.514 15.9194C24.5147 16.8633 25.2784 17.6291 26.2199 17.6298C27.1613 17.6305 27.9239 16.8659 27.9232 15.922C27.9225 14.9781 27.1587 14.2123 26.2173 14.2116C25.2758 14.2109 24.5133 14.9755 24.514 15.9194Z" fill="#333333"/>
<path d="M17.868 15.8393C17.8691 17.2413 19.0035 18.3787 20.4017 18.3797C21.8 18.3808 22.9327 17.2451 22.9316 15.8432C22.9306 14.4412 21.7962 13.3038 20.3979 13.3028C18.9996 13.3017 17.8669 14.4373 17.868 15.8393Z" fill="white"/>
<path d="M19.1702 16.0063C19.1709 16.9502 19.9347 17.716 20.8761 17.7167C21.8175 17.7174 22.5801 16.9528 22.5794 16.0089C22.5787 15.065 21.8149 14.2992 20.8735 14.2985C19.9321 14.2978 19.1695 15.0624 19.1702 16.0063Z" fill="#333333"/>
<path fill-rule="evenodd" clip-rule="evenodd" d="M20.6697 20.1081C23.1044 18.7046 25.4268 19.5994 26.2583 20.1997C26.4477 20.3364 26.7115 20.2935 26.8475 20.1038C26.9836 19.9142 26.9404 19.6496 26.751 19.5129C25.7339 18.7786 23.0498 17.7589 20.2481 19.374C20.046 19.4904 19.9767 19.7492 20.0931 19.9519C20.2096 20.1546 20.4677 20.2245 20.6697 20.1081Z" fill="#333333"/>
<path d="M40.0921 40.7416C37.1873 40.2101 37.8024 36.283 38.6422 34.1567C38.7396 33.9102 39.0431 33.8342 39.2528 33.9962C43.2371 37.075 42.7714 39.4001 41.3181 40.4681C40.9678 40.7256 40.5198 40.8198 40.0921 40.7416Z" fill="#E0E0E0"/>
<path d="M33.5816 43.1355C32.0871 42.6796 32.3755 40.5766 32.8505 39.2919C32.9413 39.0463 33.2413 38.9714 33.4472 39.1331C35.621 40.8409 35.5089 42.1673 34.7598 42.8688C34.4483 43.1606 33.9899 43.2601 33.5816 43.1355Z" fill="#E0E0E0"/>
<path d="M25.6535 42.7876C23.154 42.1981 23.6314 38.6459 24.3477 36.6705C24.4406 36.4142 24.7537 36.3352 24.9652 36.5072C28.4743 39.362 28.1585 41.497 26.9231 42.5055C26.5714 42.7927 26.0956 42.8919 25.6535 42.7876Z" fill="#E0E0E0"/>
<path d="M19.062 45.6805C17.5676 45.2245 17.856 43.1215 18.331 41.8368C18.4218 41.5913 18.7218 41.5163 18.9277 41.678C21.1014 43.3858 20.9893 44.7122 20.2403 45.4137C19.9287 45.7055 19.4704 45.8051 19.062 45.6805Z" fill="#E0E0E0"/>
<path d="M10.4671 41.9545C7.56235 41.423 8.1774 37.4958 9.01724 35.3695C9.1146 35.123 9.41808 35.0471 9.62779 35.2091C13.6121 38.2879 13.1464 40.613 11.6931 41.681C11.3428 41.9385 10.8948 42.0327 10.4671 41.9545Z" fill="#E0E0E0"/>
</svg>
