<svg width="50" height="48" viewBox="0 0 50 48" fill="none" xmlns="http://www.w3.org/2000/svg">
<path d="M0 47.9995C0 34.9087 8.24175 25.0905 13.4615 22.3633L17.0329 23.4542C5.76922 28.9087 2.47252 43.9087 3.02197 47.9995H0Z" fill="#FB564D"/>
<path d="M2.75 47.9995C2.75 34.9087 10.9917 25.0905 16.2115 22.3633L19.7829 23.4542C8.51922 28.9087 5.22252 43.9087 5.77197 47.9995H2.75Z" fill="#FFBB37"/>
<path d="M5.49219 47.9995C5.49219 34.9087 13.7339 25.0905 18.9537 22.3633L22.5251 23.4542C11.2614 28.9087 7.96471 43.9087 8.51416 47.9995H5.49219Z" fill="#FFFC74"/>
<path d="M8.24219 47.9995C8.24219 34.9087 16.4839 25.0905 21.7037 22.3633L25.2751 23.4542C14.0114 28.9087 10.7147 43.9087 11.2642 47.9995H8.24219Z" fill="#0FCC0B"/>
<path d="M10.9883 47.9995C10.9883 34.9087 19.23 25.0905 24.4498 22.3633L28.0212 23.4542C16.7575 28.9087 13.4608 43.9087 14.0103 47.9995H10.9883Z" fill="#38ACFF"/>
<path d="M13.7344 47.9995C13.7344 34.9087 21.9761 25.0905 27.1959 22.3633L30.7673 23.4542C19.5036 28.9087 16.2069 43.9087 16.7563 47.9995H13.7344Z" fill="#204CBF"/>
<path d="M16.4844 47.9995C16.4844 34.9087 24.7261 25.0905 29.9459 22.3633L33.5173 23.4542C22.2536 28.9087 18.9569 43.9087 19.5063 47.9995H16.4844Z" fill="#8500C4"/>
<path fill-rule="evenodd" clip-rule="evenodd" d="M13.2096 11.2416C13.0723 10.6133 13.0001 9.96142 13.0001 9.29307C13.0001 4.16065 17.2599 0 22.5147 0C26.024 0 29.0896 1.85571 30.7389 4.61726C32.1109 3.35501 33.9595 2.58148 35.9931 2.58148C40.2261 2.58148 43.6576 5.93311 43.6576 10.0676C43.6576 10.6929 43.5791 11.3004 43.4312 11.881C47.0862 12.0354 50.0008 14.9784 50.0008 18.5863C50.0008 22.293 46.9243 25.298 43.1292 25.298C42.3741 25.298 41.6475 25.179 40.9678 24.9592C40.9994 25.2399 41.0156 25.5252 41.0156 25.8141C41.0156 30.0911 37.4658 33.5583 33.0868 33.5583C29.8295 33.5583 27.031 31.6398 25.811 28.8967C24.7751 30.4593 22.9746 31.4933 20.9268 31.4933C17.7156 31.4933 15.1123 28.9506 15.1123 25.8142C15.1123 25.6345 15.1209 25.4567 15.1376 25.2813C11.286 25.0279 8.24219 21.8961 8.24219 18.0699C8.24219 14.9105 10.3177 12.2245 13.2096 11.2416Z" fill="#EDEDED"/>
<path d="M27.3632 10.5042C28.9187 12.1371 28.8463 14.7127 27.2014 16.257C25.5565 17.8012 22.962 17.7293 21.4064 16.0964C19.8509 14.4634 19.9233 11.8878 21.5682 10.3435C23.2131 8.7993 25.8076 8.87121 27.3632 10.5042Z" fill="white"/>
<path d="M26.7858 11.2637C27.8331 12.3631 27.7843 14.0972 26.6769 15.1369C25.5694 16.1766 23.8226 16.1282 22.7752 15.0288C21.7279 13.9293 21.7767 12.1952 22.8842 11.1555C23.9916 10.1158 25.7385 10.1643 26.7858 11.2637Z" fill="black"/>
<path d="M36.703 11.0491C38.2586 12.682 38.1862 15.2576 36.5412 16.8019C34.8963 18.3461 32.3018 18.2742 30.7463 16.6413C29.1907 15.0083 29.2632 12.4327 30.9081 10.8885C32.553 9.34423 35.1475 9.41613 36.703 11.0491Z" fill="white"/>
<path d="M36.1256 11.8086C37.1729 12.908 37.1242 14.6421 36.0167 15.6818C34.9092 16.7215 33.1624 16.6731 32.1151 15.5737C31.0678 14.4743 31.1165 12.7402 32.224 11.7005C33.3315 10.6608 35.0783 10.7092 36.1256 11.8086Z" fill="black"/>
</svg>
