<svg width="390" height="844" viewBox="0 0 390 844" fill="none" xmlns="http://www.w3.org/2000/svg">
<g clip-path="url(#clip0_2155_51294)">
<rect width="390" height="844" fill="#00BFFE"/>
<rect x="220.959" y="420.36" width="4.23924" height="8.47849" rx="1" fill="#54D4E6"/>
<rect x="220.123" y="473.259" width="4.23924" height="8.47849" rx="1" transform="rotate(108.889 220.123 473.259)" fill="#FF8A8A"/>
<rect x="207.749" y="443.96" width="4.23924" height="8.47849" rx="1" fill="#FF8A8A"/>
<rect x="196.091" y="442.9" width="4.23924" height="8.47849" rx="1" transform="rotate(-30 196.091 442.9)" fill="#548FE6"/>
<rect x="252.845" y="418.524" width="4.23924" height="8.47849" rx="1" transform="rotate(70.7397 252.845 418.524)" fill="#548FE6"/>
<rect x="247.657" y="393.089" width="4.23924" height="8.47849" rx="1" transform="rotate(45 247.657 393.089)" fill="#54D4E6"/>
<rect x="138.497" y="394.149" width="4.23924" height="8.47849" rx="1" transform="rotate(45 138.497 394.149)" fill="#54D4E6"/>
<rect x="173.011" y="342.392" width="4.23924" height="8.47849" rx="1" transform="rotate(-16.9081 173.011 342.392)" fill="#54D4E6"/>
<rect x="177.586" y="460.795" width="4.23924" height="8.47849" rx="1" transform="rotate(92.1743 177.586 460.795)" fill="#FFF0A2"/>
<rect x="179.06" y="443.96" width="4.23924" height="8.47849" rx="1" transform="rotate(120 179.06 443.96)" fill="#21E871"/>
<rect x="216.455" y="385.097" width="4.23924" height="8.47849" rx="1" transform="rotate(93.288 216.455 385.097)" fill="#21E871"/>
<rect x="82.6162" y="377.192" width="4.23924" height="8.47849" rx="1" transform="rotate(120 82.6162 377.192)" fill="#E354E6"/>
<rect x="191.487" y="407.927" width="4.23924" height="8.47849" rx="1" transform="rotate(45 191.487 407.927)" fill="#54D4E6"/>
<rect x="181.312" y="382.854" width="4.23924" height="8.47849" rx="1" transform="rotate(-2.72038 181.312 382.854)" fill="#FFF0A2"/>
<rect x="303.827" y="376.132" width="4.23924" height="8.47849" rx="1" transform="rotate(45 303.827 376.132)" fill="#FFF0A2"/>
<rect x="254.811" y="350.457" width="4.23924" height="8.47849" rx="1" transform="rotate(28.6848 254.811 350.457)" fill="#FF8A8A"/>
<rect x="224.652" y="321.85" width="4.23924" height="8.47849" rx="1" transform="rotate(133.63 224.652 321.85)" fill="#FF8A8A"/>
<rect x="44.0615" y="419.076" width="4.23924" height="8.47849" rx="1" transform="rotate(133.63 44.0615 419.076)" fill="#FF8A8A"/>
<rect x="128.599" y="357.646" width="4.23924" height="8.47849" rx="1" transform="rotate(-166.904 128.599 357.646)" fill="#FF8A8A"/>
<rect x="289.242" y="437.281" width="4.23924" height="8.47849" rx="1" transform="rotate(-166.904 289.242 437.281)" fill="#FF8A8A"/>
<rect x="189.732" y="469.214" width="4.23924" height="8.47849" rx="1" transform="rotate(-45 189.732 469.214)" fill="#548FE6"/>
<rect x="133.964" y="434.048" width="4.23924" height="8.47849" rx="1" transform="rotate(107.118 133.964 434.048)" fill="#548FE6"/>
<rect x="230.7" y="452.438" width="4.23924" height="8.47849" rx="1" transform="rotate(45 230.7 452.438)" fill="#E354E6"/>
<path d="M125.383 137.828V146.008H128.406V148.469H125.383V159.109H122.383V137.828H125.383ZM119.688 140.008C119.664 146.383 117.18 151.914 110.008 155.43L108.32 153.133C113.371 150.602 116.078 147.203 116.641 142.445H109.539V140.008H119.688ZM146.748 137.828V149.289H143.748V137.828H146.748ZM135.428 150.227V152.219H143.772V150.227H146.748V158.922H132.475V150.227H135.428ZM135.428 156.508H143.772V154.539H135.428V156.508ZM135.053 138.719C138.381 138.695 140.889 140.781 140.889 143.781C140.889 146.688 138.381 148.773 135.053 148.773C131.725 148.773 129.217 146.688 129.217 143.781C129.217 140.781 131.725 138.695 135.053 138.719ZM135.053 141.203C133.342 141.203 132.123 142.164 132.147 143.781C132.123 145.375 133.342 146.312 135.053 146.312C136.717 146.312 137.936 145.375 137.936 143.781C137.936 142.164 136.717 141.203 135.053 141.203ZM158.95 138.133C163.848 138.133 166.684 139.422 166.707 141.766C166.684 144.133 163.848 145.422 158.95 145.422C154.028 145.422 151.168 144.133 151.168 141.766C151.168 139.422 154.028 138.133 158.95 138.133ZM158.95 140.312C155.809 140.312 154.286 140.828 154.309 141.766C154.286 142.82 155.809 143.219 158.95 143.219C162.114 143.219 163.614 142.82 163.614 141.766C163.614 140.828 162.114 140.312 158.95 140.312ZM168.676 146.43V148.797H149.223V146.43H168.676ZM166.309 150.039V155.477H154.426V156.766H166.872V159.016H151.497V153.391H163.356V152.219H151.473V150.039H166.309ZM194.134 148.328V150.695H185.86V152.547H191.766V159.133H188.79V154.914H176.837V152.547H182.907V150.695H174.681V148.328H194.134ZM185.86 137.852V139.773H192.259V142.094H186.095C186.434 143.629 188.602 145.012 193.266 145.328L192.352 147.555C188.438 147.285 185.72 146.16 184.384 144.438C183.036 146.16 180.317 147.285 176.415 147.555L175.501 145.328C180.141 145.012 182.309 143.629 182.673 142.094H176.556V139.773H182.907V137.852H185.86ZM211.843 137.828V146.172H214.983V148.633H211.843V159.156H208.89V137.828H211.843ZM207.437 141.016V143.406H194.898V141.016H199.726V138.156H202.726V141.016H207.437ZM201.226 144.602C204.343 144.602 206.663 146.711 206.663 149.688C206.663 152.664 204.343 154.773 201.226 154.773C198.085 154.773 195.765 152.664 195.765 149.688C195.765 146.711 198.085 144.602 201.226 144.602ZM201.226 147.016C199.726 147.039 198.624 148.047 198.624 149.688C198.624 151.352 199.726 152.336 201.226 152.312C202.726 152.336 203.804 151.352 203.804 149.688C203.804 148.047 202.726 147.039 201.226 147.016ZM232.74 147.695V150.086H217.646V139.609H232.576V142.023H220.599V147.695H232.74ZM234.872 154.094V156.555H215.349V154.094H234.872ZM253.66 137.828V159.203H250.683V150.602H247.027V148.141H250.683V144.789H247.097V142.352H250.683V137.828H253.66ZM245.972 139.609V147.812H239.41V151.961C242.046 151.949 244.39 151.82 247.074 151.422L247.308 153.859C244.121 154.375 241.402 154.422 238.121 154.422H236.433V145.492H243.042V141.977H236.386V139.609H245.972ZM275.541 154.211V156.672H256.017V154.211H260.377V148.984C258.724 148 257.728 146.488 257.728 144.602C257.728 141.156 261.103 138.859 265.744 138.859C270.361 138.859 273.759 141.156 273.783 144.602C273.771 146.441 272.799 147.941 271.205 148.938V154.211H275.541ZM265.744 141.227C262.697 141.227 260.681 142.445 260.681 144.602C260.681 146.688 262.697 147.977 265.744 147.977C268.767 147.977 270.806 146.688 270.83 144.602C270.806 142.445 268.767 141.227 265.744 141.227ZM263.33 154.211H268.181V150.062C267.42 150.215 266.599 150.297 265.744 150.297C264.888 150.297 264.08 150.227 263.33 150.062V154.211ZM281.203 140.031L280.898 151.914H277.898L277.594 140.031H281.203ZM279.422 157.211C278.32 157.211 277.43 156.32 277.453 155.242C277.43 154.164 278.32 153.297 279.422 153.297C280.453 153.297 281.367 154.164 281.367 155.242C281.367 156.32 280.453 157.211 279.422 157.211ZM32.7354 168.93C37.3291 168.93 40.751 171.25 40.7744 174.766C40.751 177.977 38.044 180.145 34.2119 180.578V184.211H42.5323V186.672H23.0088V184.211H31.2354V180.555C27.4151 180.145 24.7198 177.965 24.7198 174.766C24.7198 171.25 28.1416 168.93 32.7354 168.93ZM32.7354 171.32C29.7588 171.32 27.6729 172.633 27.6729 174.766C27.6729 177.016 29.7588 178.281 32.7354 178.281C35.7354 178.281 37.7979 177.016 37.8213 174.766C37.7979 172.633 35.7354 171.32 32.7354 171.32ZM60.1711 167.828V176.172H63.3118V178.633H60.1711V189.156H57.218V167.828H60.1711ZM55.7649 171.016V173.406H43.2258V171.016H48.0539V168.156H51.0539V171.016H55.7649ZM49.5539 174.602C52.6711 174.602 54.9914 176.711 54.9914 179.688C54.9914 182.664 52.6711 184.773 49.5539 184.773C46.4133 184.773 44.093 182.664 44.093 179.688C44.093 176.711 46.4133 174.602 49.5539 174.602ZM49.5539 177.016C48.0539 177.039 46.9524 178.047 46.9524 179.688C46.9524 181.352 48.0539 182.336 49.5539 182.312C51.0539 182.336 52.1321 181.352 52.1321 179.688C52.1321 178.047 51.0539 177.039 49.5539 177.016ZM82.1694 167.828V189.156H79.31V167.828H82.1694ZM77.7163 168.133V188.172H74.9038V178.094H73.1928C72.9116 182.289 71.1303 184.82 68.5053 184.82C65.6928 184.82 63.8647 181.867 63.8647 177.062C63.8647 172.281 65.6928 169.352 68.5053 169.352C71.0717 169.352 72.8295 171.742 73.1694 175.727H74.9038V168.133H77.7163ZM68.5053 172.164C67.31 172.164 66.6069 173.805 66.6303 177.062C66.6069 180.344 67.31 181.961 68.5053 181.938C69.7241 181.961 70.4506 180.344 70.4506 177.062C70.4506 173.805 69.7241 172.164 68.5053 172.164ZM92.0739 172.656C92.0739 176.664 93.6911 180.555 97.2536 182.102L95.4254 184.492C93.0583 183.332 91.4762 181.211 90.5973 178.586C89.6598 181.375 88.0192 183.66 85.5817 184.867L83.7067 182.43C87.3629 180.789 89.027 176.664 89.0504 172.656V169.469H92.0739V172.656ZM102.011 167.828V189.203H99.0583V176.945H94.8629V174.531H99.0583V167.828H102.011ZM126.297 167.828V175.75H129.438V178.188H126.297V189.203H123.297V167.828H126.297ZM120.32 169.797V172.211H113.289V181.562C116.383 181.527 118.938 181.387 121.774 180.883L122.102 183.391C118.797 183.953 115.891 184.047 112.117 184.023H110.313V169.797H120.32ZM149.491 170.477V172.914H146.725V175.117H149.491V177.578H146.725V180.297H143.725V167.828H146.725V170.477H149.491ZM135.803 169C139.108 168.977 141.616 171.133 141.616 174.156C141.616 177.18 139.108 179.312 135.803 179.312C132.475 179.312 129.944 177.18 129.944 174.156C129.944 171.133 132.475 168.977 135.803 169ZM135.803 171.508C134.116 171.484 132.873 172.516 132.897 174.156C132.873 175.82 134.116 176.805 135.803 176.805C137.444 176.805 138.686 175.82 138.709 174.156C138.686 172.516 137.444 171.484 135.803 171.508ZM139.741 180.719C144.123 180.719 146.936 182.312 146.936 184.961C146.936 187.586 144.123 189.156 139.741 189.156C135.264 189.156 132.428 187.586 132.428 184.961C132.428 182.312 135.264 180.719 139.741 180.719ZM139.741 183.086C136.928 183.086 135.405 183.719 135.428 184.961C135.405 186.203 136.928 186.789 139.741 186.789C142.506 186.789 143.983 186.203 143.983 184.961C143.983 183.719 142.506 183.086 139.741 183.086ZM167.059 167.852V174.391H169.942V176.828H167.059V183.766H164.059V167.852H167.059ZM162.793 170.078V172.445H150.137V170.078H154.989V167.805H157.965V170.078H162.793ZM156.465 173.195C159.559 173.195 161.715 174.859 161.715 177.32C161.715 179.781 159.559 181.398 156.465 181.398C153.348 181.398 151.168 179.781 151.168 177.32C151.168 174.859 153.348 173.195 156.465 173.195ZM156.465 175.469C155.036 175.492 154.075 176.148 154.098 177.32C154.075 178.492 155.036 179.125 156.465 179.125C157.895 179.125 158.879 178.492 158.879 177.32C158.879 176.148 157.895 175.492 156.465 175.469ZM167.833 186.391V188.781H153.231V182.547H156.208V186.391H167.833ZM192.423 167.828V176.172H195.563V178.633H192.423V189.156H189.47V167.828H192.423ZM188.017 171.016V173.406H175.477V171.016H180.306V168.156H183.306V171.016H188.017ZM181.806 174.602C184.923 174.602 187.243 176.711 187.243 179.688C187.243 182.664 184.923 184.773 181.806 184.773C178.665 184.773 176.345 182.664 176.345 179.688C176.345 176.711 178.665 174.602 181.806 174.602ZM181.806 177.016C180.306 177.039 179.204 178.047 179.204 179.688C179.204 181.352 180.306 182.336 181.806 182.312C183.306 182.336 184.384 181.352 184.384 179.688C184.384 178.047 183.306 177.039 181.806 177.016ZM213.179 172.141V174.508H198.343V168.086H201.319V172.141H213.179ZM215.429 175.938V178.305H195.905V175.938H215.429ZM213.085 179.594V185.266H201.179V186.625H213.741V188.922H198.179V183.109H210.109V181.891H198.132V179.594H213.085ZM225.99 168.133C230.888 168.133 233.724 169.422 233.747 171.766C233.724 174.133 230.888 175.422 225.99 175.422C221.068 175.422 218.208 174.133 218.208 171.766C218.208 169.422 221.068 168.133 225.99 168.133ZM225.99 170.312C222.849 170.312 221.326 170.828 221.349 171.766C221.326 172.82 222.849 173.219 225.99 173.219C229.154 173.219 230.654 172.82 230.654 171.766C230.654 170.828 229.154 170.312 225.99 170.312ZM235.716 176.43V178.797H216.263V176.43H235.716ZM233.349 180.039V185.477H221.466V186.766H233.911V189.016H218.536V183.391H230.396V182.219H218.513V180.039H233.349ZM258.9 169.07V170.992C258.9 172.984 258.9 175.164 258.361 178.141H261.174V180.555H252.853V189.18H249.853V180.555H241.72V178.141H255.338C255.877 175.387 255.924 173.301 255.924 171.461H243.947V169.07H258.9ZM280.031 167.852V180.133H277.055V178.047H272.25V175.656H277.055V173.617H272.461C271.137 176.992 268.113 179.312 263.414 180.602L262.242 178.234C267.152 176.945 269.555 174.602 269.977 171.672H263.391V169.281H273.234C273.234 169.973 273.187 170.641 273.094 171.273H277.055V167.852H280.031ZM272.93 180.391C277.266 180.391 280.172 182.055 280.195 184.703C280.172 187.375 277.266 189.062 272.93 189.062C268.547 189.062 265.617 187.375 265.641 184.703C265.617 182.055 268.547 180.391 272.93 180.391ZM272.93 182.734C270.234 182.711 268.617 183.391 268.617 184.703C268.617 186.016 270.234 186.695 272.93 186.695C275.578 186.695 277.195 186.016 277.195 184.703C277.195 183.391 275.578 182.711 272.93 182.734ZM292.678 171.086V173.453H282.365V171.086H286.069V168.414H289.022V171.086H292.678ZM287.569 174.414C290.287 174.414 292.233 176.523 292.256 179.477C292.233 182.453 290.287 184.562 287.569 184.562C284.85 184.562 282.858 182.453 282.858 179.477C282.858 176.523 284.85 174.414 287.569 174.414ZM287.569 176.898C286.326 176.898 285.483 177.859 285.483 179.477C285.483 181.094 286.326 182.031 287.569 182.031C288.764 182.031 289.608 181.094 289.631 179.477C289.608 177.859 288.764 176.898 287.569 176.898ZM300.834 167.828V189.156H297.998V178.891H296.264V188.242H293.475V168.25H296.264V176.5H297.998V167.828H300.834ZM327.37 184.234V186.672H307.846V184.234H316.073V180.297H309.909V169.188H312.909V172.492H322.213V169.188H325.19V180.297H319.049V184.234H327.37ZM312.909 177.906H322.213V174.883H312.909V177.906ZM335.024 173.195C335.024 176.641 335.985 180.203 338.891 182.078L337.274 184.398C335.434 183.285 334.262 181.457 333.595 179.266C332.821 181.68 331.544 183.695 329.61 184.867L327.782 182.664C330.946 180.695 332.118 176.945 332.118 173.336V169.656H335.024V173.195ZM346.673 167.828V189.156H343.813V167.828H346.673ZM342.196 168.133V188.172H339.407V177.461H336.641V175.023H339.407V168.133H342.196ZM368.038 184.211V186.672H348.515V184.211H352.874V178.984C351.222 178 350.226 176.488 350.226 174.602C350.226 171.156 353.601 168.859 358.241 168.859C362.858 168.859 366.257 171.156 366.28 174.602C366.269 176.441 365.296 177.941 363.702 178.938V184.211H368.038ZM358.241 171.227C355.194 171.227 353.179 172.445 353.179 174.602C353.179 176.688 355.194 177.977 358.241 177.977C361.265 177.977 363.304 176.688 363.327 174.602C363.304 172.445 361.265 171.227 358.241 171.227ZM355.827 184.211H360.679V180.062C359.917 180.215 359.097 180.297 358.241 180.297C357.386 180.297 356.577 180.227 355.827 180.062V184.211Z" fill="white"/>
<path d="M21.4466 294.02C20.202 294.636 18.7588 293.671 18.8487 292.282L21.6745 248.636C21.7644 247.247 23.32 246.477 24.4746 247.249L60.7639 271.526C61.9185 272.298 61.8061 274.034 60.5616 274.65L21.4466 294.02Z" fill="#FEFFCC"/>
<path d="M47.4849 269.7C47.3504 270.036 47.1436 270.347 46.8644 270.632C46.73 270.766 46.5956 270.901 46.4612 271.036C46.3526 271.165 46.2311 271.297 46.0967 271.432L46.0114 271.51C45.1532 272.328 44.2278 273.18 43.2353 274.065C42.2685 274.946 41.3613 275.787 40.5134 276.59C39.8103 277.242 39.0478 277.967 38.2258 278.765C37.4038 279.562 36.6258 280.277 35.8917 280.909C35.6384 281.121 35.3774 281.328 35.1086 281.53C34.8552 281.743 34.5787 281.939 34.2789 282.121C34.0153 282.281 33.7439 282.403 33.4648 282.485C33.2116 282.563 32.9661 282.578 32.7284 282.532C32.4804 282.501 32.2582 282.397 32.0619 282.221C31.8708 282.07 31.7081 281.827 31.5739 281.49C31.3777 280.977 31.3418 280.425 31.466 279.835C31.6058 279.254 31.712 278.708 31.7845 278.195C31.7949 278.045 31.8622 277.742 31.9864 277.286C32.1106 276.83 32.2478 276.338 32.3979 275.809C32.5583 275.265 32.7032 274.745 32.8326 274.247C32.9878 273.745 33.0862 273.362 33.1276 273.097C32.7606 273.346 32.3626 273.641 31.9335 273.983C31.5045 274.325 31.0883 274.664 30.6851 275C30.2819 275.337 29.9123 275.64 29.5763 275.909C29.2661 276.173 29.0361 276.367 28.8861 276.492C28.5553 276.72 28.1883 276.968 27.7851 277.237C27.3974 277.517 27.0072 277.716 26.6144 277.835C26.2371 277.965 25.8753 277.97 25.5292 277.85C25.1726 277.747 24.8808 277.428 24.6536 276.894C24.4678 276.5 24.4266 276.091 24.5301 275.666C24.5974 275.397 24.6595 275.135 24.7165 274.881C24.7734 274.628 24.851 274.376 24.9493 274.128L25.6478 272.068L27.1922 267.678C27.3888 267.114 27.5906 266.541 27.7975 265.961C28.0303 265.376 28.2502 264.759 28.4572 264.112C28.5555 263.796 28.6564 263.493 28.7599 263.203C28.8892 262.907 29.0211 262.591 29.1556 262.255C29.3159 261.913 29.4866 261.522 29.6677 261.081C29.8642 260.651 30.0866 260.149 30.3349 259.574C30.4177 259.382 30.4979 259.211 30.5754 259.061C30.6789 258.906 30.7978 258.761 30.9322 258.626C31.1183 258.414 31.3612 258.284 31.661 258.238C31.7902 258.212 31.9246 258.212 32.0641 258.238C32.2036 258.264 32.3457 258.303 32.4904 258.355C32.7177 258.417 32.9321 258.516 33.1336 258.65C33.3196 258.775 33.472 258.967 33.5907 259.226C33.6785 259.397 33.7198 259.57 33.7145 259.746L33.6677 260.422C33.6263 260.552 33.5901 260.674 33.5591 260.788C33.5384 260.886 33.5125 260.992 33.4814 261.106C33.44 261.236 33.396 261.352 33.3495 261.456C33.3133 261.544 33.2771 261.632 33.2409 261.72C32.8426 262.621 32.4908 263.52 32.1855 264.416C31.8803 265.313 31.5802 266.167 31.2853 266.981C31.1611 267.302 31.0059 267.703 30.8197 268.185C30.6438 268.651 30.4524 269.141 30.2455 269.653C30.0489 270.151 29.8627 270.633 29.6868 271.099C29.5109 271.565 29.3919 271.946 29.3297 272.241C29.9966 271.677 30.6635 271.112 31.3303 270.548C32.0127 269.994 32.7157 269.442 33.4394 268.893C33.8116 268.603 34.158 268.352 34.4785 268.14C34.8248 267.922 35.1504 267.77 35.4553 267.682C35.7603 267.594 36.0419 267.591 36.3003 267.674C36.5586 267.757 36.7988 267.952 37.0209 268.257C37.212 268.542 37.2894 268.931 37.253 269.423C37.2166 269.915 37.1518 270.4 37.0586 270.876C36.9706 271.312 36.8593 271.765 36.7247 272.236C36.616 272.703 36.4995 273.164 36.3753 273.619C36.277 274.07 36.1812 274.5 36.088 274.909C35.9948 275.319 35.9326 275.681 35.9015 275.997C36.0618 275.857 36.2608 275.676 36.4986 275.454C36.7364 275.231 36.9845 274.993 37.243 274.739C37.5274 274.48 37.7988 274.224 38.0573 273.97C38.3158 273.716 38.5587 273.486 38.7862 273.279C39.5461 272.574 40.3138 271.875 41.0893 271.181C41.8751 270.472 42.6428 269.773 43.3924 269.084L43.7723 268.765C43.855 268.708 43.9222 268.641 43.9739 268.563C44.0515 268.481 44.142 268.395 44.2453 268.307C44.3384 268.235 44.4263 268.17 44.509 268.113C44.602 268.04 44.7002 267.96 44.8036 267.872C44.8863 267.815 44.9691 267.758 45.0518 267.701C45.1603 267.639 45.2714 267.59 45.3851 267.554C45.4833 267.507 45.579 267.481 45.672 267.476C45.765 267.471 45.8528 267.474 45.9355 267.484C46.2352 267.505 46.4626 267.567 46.6176 267.671C46.8191 267.806 46.9921 267.966 47.1367 268.153C47.3537 268.365 47.5112 268.617 47.6093 268.907C47.6608 269.166 47.6194 269.43 47.4849 269.7Z" fill="#CC5B42"/>
<path d="M67.3663 317.588C66.2546 318.422 64.66 317.736 64.4961 316.354L59.3427 272.922C59.1787 271.54 60.5683 270.499 61.844 271.047L101.938 288.289C103.213 288.837 103.418 290.565 102.307 291.398L67.3663 317.588Z" fill="#FEFFCC"/>
<path d="M76.2408 286.064L74.4597 290.085L75.4871 290.527C76.1965 290.812 76.8252 291.072 77.3732 291.308C77.9211 291.543 78.5253 291.813 79.1858 292.118L79.3142 292.173C79.5197 292.261 79.713 292.354 79.894 292.453C80.0995 292.541 80.2964 292.626 80.4848 292.707C80.6829 292.812 80.8651 292.931 81.0315 293.064C81.2051 293.179 81.3751 293.303 81.5414 293.435C81.7885 293.664 81.9621 293.921 82.0623 294.208C82.1381 294.505 82.1172 294.791 81.9997 295.066C81.963 295.151 81.9189 295.254 81.8675 295.375C81.8234 295.478 81.7659 295.565 81.6949 295.636C81.5799 295.81 81.3951 295.934 81.1407 296.007C81.0036 296.091 80.8042 296.106 80.5425 296.055C80.2905 296.028 80.0495 295.975 79.8195 295.896C79.5578 295.845 79.307 295.767 79.0673 295.664L77.8601 295.145L73.0973 293.128L70.8865 298.153L75.9759 300.402L77.1831 300.921C77.3201 300.98 77.4485 301.036 77.5684 301.087C77.6882 301.139 77.7959 301.195 77.8913 301.256C78.0136 301.35 78.1224 301.427 78.2178 301.488C78.3377 301.54 78.4416 301.605 78.5297 301.683C78.7058 301.84 78.8366 302.009 78.9222 302.188C79.02 302.433 79.0542 302.661 79.0247 302.872C79.0051 302.965 78.9733 303.063 78.9292 303.166C78.9096 303.259 78.8692 303.354 78.8081 303.45C78.6905 303.724 78.4984 303.936 78.2317 304.086C77.9234 304.238 77.6175 304.289 77.3142 304.24C76.8885 304.24 76.4616 304.148 76.0335 303.964C75.8378 303.9 75.6372 303.824 75.4317 303.735C75.2262 303.647 75.0256 303.571 74.8299 303.507L74.6758 303.441C73.3255 302.901 71.9385 302.304 70.5148 301.652C70.1723 301.504 69.902 301.378 69.7039 301.272C69.4984 301.184 69.31 301.103 69.1388 301.029C68.9847 300.963 68.822 300.893 68.6508 300.819C68.4795 300.746 68.2569 300.65 67.9829 300.532C67.5744 300.397 67.2784 300.189 67.095 299.907C66.9581 299.705 66.8823 299.48 66.8677 299.229C66.8384 299.156 66.8347 299.093 66.8567 299.042C66.8543 299 66.8482 298.967 66.8384 298.943C66.8286 298.918 66.8225 298.885 66.8201 298.843C66.8226 298.743 66.8336 298.646 66.8532 298.553C66.8802 298.442 66.912 298.344 66.9487 298.258C66.9683 298.165 66.9879 298.072 67.0075 297.979C67.0443 297.893 67.0724 297.803 67.092 297.71L67.2683 297.298C67.2977 297.229 67.3271 297.161 67.3564 297.092C67.4029 297.031 67.4409 296.966 67.4703 296.897L68.3296 294.888L69.9675 291.202L71.4328 287.777C71.6972 287.159 71.9322 286.61 72.1379 286.129C72.3607 285.656 72.6018 285.14 72.8613 284.581L72.9164 284.452C73.0143 284.27 73.0963 284.102 73.1624 283.948C73.253 283.784 73.335 283.616 73.4085 283.444C73.5725 283.108 73.8099 282.814 74.1207 282.561C74.2479 282.453 74.3678 282.362 74.4804 282.289C74.6101 282.223 74.7581 282.185 74.9245 282.175C75.2474 282.131 75.5459 282.168 75.8199 282.286C75.9569 282.345 76.056 282.397 76.1171 282.444L76.1281 282.418C76.4363 282.551 76.6846 282.657 76.873 282.738C77.0614 282.819 77.2412 282.897 77.4124 282.97C77.6008 283.051 77.7977 283.136 78.0032 283.225C78.216 283.296 78.5022 283.409 78.8618 283.563C79.5541 283.841 80.2085 284.112 80.8249 284.377C81.4414 284.642 82.0713 284.923 82.7146 285.22L82.8174 285.264C82.9984 285.362 83.1916 285.456 83.3971 285.544C83.6026 285.632 83.7958 285.726 83.9769 285.824C84.1652 285.905 84.3426 286.012 84.5089 286.144C84.6826 286.259 84.8489 286.392 85.0079 286.542C85.2622 286.753 85.4395 287.002 85.5398 287.289C85.591 287.595 85.5653 287.869 85.4624 288.109C85.4184 288.212 85.3743 288.315 85.3302 288.418C85.2935 288.504 85.2397 288.582 85.1687 288.654C85.0781 288.818 84.8983 288.954 84.6291 289.062C84.5459 289.067 84.4505 289.076 84.3429 289.091C84.2523 289.113 84.1483 289.119 84.0309 289.109C83.9135 289.1 83.7912 289.077 83.6639 289.043C83.5612 288.999 83.4548 288.963 83.3447 288.936C83.193 288.912 83.0573 288.874 82.9374 288.822C82.8346 288.778 82.7148 288.726 82.5778 288.667L81.4219 288.17L76.2738 285.987L76.2408 286.064Z" fill="#CC5B42"/>
<path d="M119.418 333.309C118.511 334.362 116.807 334.035 116.351 332.72L102.038 291.403C101.582 290.088 102.717 288.772 104.08 289.034L146.927 297.265C148.29 297.527 148.86 299.17 147.952 300.223L119.418 333.309Z" fill="#FEFFCC"/>
<path d="M127.94 316.483C127.959 316.582 127.951 316.723 127.916 316.907C127.885 317.072 127.858 317.209 127.837 317.32C127.809 317.466 127.756 317.599 127.676 317.716C127.597 317.834 127.501 317.94 127.388 318.032C127.181 318.221 126.912 318.34 126.58 318.39C126.113 318.453 125.687 318.447 125.303 318.373C125.098 318.353 124.886 318.322 124.666 318.279C124.446 318.237 124.223 318.213 123.997 318.208L123.887 318.187C122.474 317.934 121.02 317.655 119.522 317.348C119.16 317.26 118.748 317.181 118.287 317.111C117.823 317.06 117.376 316.965 116.948 316.825C116.515 316.704 116.132 316.526 115.798 316.291C115.485 316.04 115.292 315.708 115.22 315.295C115.2 315.196 115.189 315.108 115.184 315.032C115.184 314.936 115.192 314.843 115.21 314.751C115.256 314.113 115.346 313.493 115.48 312.891C115.614 312.29 115.737 311.695 115.849 311.108L116.667 307.128L117.371 303.44C117.498 302.78 117.61 302.193 117.708 301.679C117.824 301.169 117.951 300.604 118.089 299.984L118.115 299.846C118.169 299.666 118.213 299.484 118.248 299.301C118.301 299.121 118.345 298.939 118.38 298.756C118.498 298.341 118.667 298.002 118.888 297.74C119.05 297.486 119.284 297.303 119.59 297.191C119.86 297.071 120.159 297.043 120.488 297.106C120.617 297.131 120.734 297.163 120.84 297.203C120.968 297.227 121.085 297.259 121.192 297.299C121.298 297.338 121.392 297.394 121.473 297.467C121.572 297.543 121.668 297.637 121.76 297.75C121.845 297.9 121.916 298.075 121.972 298.276C122.007 298.492 122.014 298.702 121.994 298.908C121.988 299.04 121.983 299.162 121.98 299.276C121.978 299.39 121.966 299.502 121.945 299.612C121.887 299.715 121.848 299.821 121.827 299.931C121.806 300.041 121.786 300.142 121.769 300.234L121.674 300.729L119.087 313.67L124.512 314.769L125.802 315.017C125.912 315.038 126.029 315.07 126.153 315.113C126.281 315.138 126.408 315.171 126.532 315.214C126.675 315.261 126.8 315.304 126.906 315.343C127.012 315.383 127.117 315.431 127.22 315.489C127.411 315.583 127.558 315.706 127.661 315.859C127.827 316.081 127.921 316.289 127.94 316.483Z" fill="#CC5B42"/>
<path d="M170.848 338.506C170.114 339.687 168.38 339.63 167.726 338.402L147.174 299.822C146.52 298.594 147.437 297.117 148.824 297.163L192.426 298.609C193.814 298.655 194.631 300.189 193.898 301.371L170.848 338.506Z" fill="#FEFFCC"/>
<path d="M176.691 320.557C176.725 320.651 176.739 320.792 176.733 320.979C176.727 321.147 176.723 321.287 176.719 321.399C176.714 321.548 176.682 321.687 176.622 321.816C176.561 321.945 176.483 322.064 176.386 322.173C176.211 322.391 175.963 322.551 175.643 322.653C175.191 322.787 174.77 322.848 174.379 322.835C174.173 322.847 173.959 322.849 173.735 322.842C173.512 322.834 173.288 322.846 173.063 322.876L172.951 322.872C171.517 322.843 170.036 322.794 168.51 322.725C168.138 322.694 167.719 322.68 167.253 322.683C166.786 322.705 166.33 322.68 165.885 322.61C165.439 322.557 165.033 322.441 164.666 322.261C164.319 322.062 164.077 321.765 163.941 321.368C163.907 321.273 163.881 321.188 163.865 321.113C163.85 321.019 163.843 320.925 163.847 320.832C163.793 320.195 163.786 319.568 163.825 318.953C163.864 318.337 163.893 317.731 163.913 317.133L164.102 313.075L164.226 309.322C164.248 308.65 164.268 308.052 164.285 307.53C164.321 307.007 164.359 306.429 164.398 305.795L164.403 305.655C164.428 305.469 164.443 305.283 164.45 305.096C164.474 304.91 164.49 304.723 164.496 304.537C164.547 304.109 164.662 303.748 164.839 303.455C164.96 303.178 165.163 302.961 165.448 302.802C165.696 302.642 165.987 302.568 166.322 302.579C166.453 302.583 166.573 302.596 166.684 302.619C166.815 302.623 166.936 302.636 167.047 302.659C167.158 302.681 167.259 302.722 167.35 302.781C167.46 302.841 167.569 302.919 167.678 303.016C167.785 303.151 167.883 303.313 167.97 303.502C168.037 303.71 168.077 303.917 168.089 304.123C168.103 304.254 168.118 304.376 168.133 304.489C168.148 304.602 168.153 304.714 168.15 304.826C168.109 304.937 168.086 305.048 168.083 305.16C168.079 305.272 168.076 305.375 168.073 305.468L168.056 305.972L167.509 319.159L173.038 319.398L174.351 319.442C174.463 319.446 174.583 319.459 174.713 319.482C174.843 319.486 174.973 319.5 175.103 319.523C175.252 319.547 175.381 319.57 175.492 319.592C175.604 319.614 175.714 319.646 175.825 319.687C176.028 319.75 176.192 319.849 176.318 319.984C176.517 320.177 176.641 320.368 176.691 320.557Z" fill="#CC5B42"/>
<path d="M222.146 338.414C221.546 339.669 219.816 339.802 219.032 338.653L194.395 302.557C193.612 301.408 194.362 299.84 195.746 299.734L239.244 296.391C240.628 296.284 241.608 297.72 241.008 298.975L222.146 338.414Z" fill="#FEFFCC"/>
<path d="M226.952 317.274C227.235 317.796 227.285 318.326 227.102 318.864C226.917 319.384 226.6 319.877 226.149 320.343C225.699 320.808 225.17 321.223 224.563 321.589C223.974 321.952 223.406 322.221 222.858 322.394C222.255 322.572 221.609 322.677 220.921 322.712C220.252 322.763 219.567 322.731 218.867 322.616C218.187 322.519 217.51 322.346 216.837 322.098C216.181 321.83 215.567 321.493 214.994 321.087C214.303 320.597 213.743 319.994 213.314 319.277C212.903 318.541 212.581 317.751 212.348 316.907C212.115 316.063 211.957 315.213 211.873 314.358C211.806 313.482 211.771 312.661 211.768 311.893C211.771 311.199 211.856 310.472 212.022 309.709C212.188 308.947 212.439 308.197 212.775 307.46C213.128 306.702 213.56 305.994 214.07 305.337C214.599 304.678 215.228 304.105 215.957 303.618C216.507 303.238 217.131 302.966 217.829 302.8C218.543 302.614 219.266 302.53 219.996 302.549C220.743 302.548 221.452 302.652 222.122 302.863C222.809 303.054 223.402 303.346 223.899 303.738C224.216 303.976 224.55 304.316 224.902 304.757C225.272 305.197 225.55 305.654 225.735 306.126C225.921 306.599 225.956 307.056 225.84 307.495C225.741 307.915 225.391 308.223 224.789 308.419C224.535 308.514 224.304 308.55 224.097 308.529C223.888 308.488 223.696 308.419 223.52 308.32C223.343 308.202 223.174 308.066 223.012 307.909C222.851 307.753 222.699 307.596 222.556 307.439C222.069 306.933 221.521 306.61 220.912 306.469C220.302 306.31 219.704 306.309 219.118 306.466C218.549 306.604 218.02 306.888 217.529 307.319C217.056 307.73 216.703 308.244 216.47 308.862C216.221 309.518 216.033 310.235 215.906 311.013C215.795 311.771 215.761 312.542 215.802 313.325C215.842 314.09 215.964 314.83 216.168 315.545C216.391 316.259 216.719 316.88 217.152 317.409C217.483 317.833 217.873 318.168 218.322 318.415C218.789 318.66 219.278 318.819 219.788 318.892C220.298 318.966 220.801 318.946 221.297 318.833C221.811 318.718 222.3 318.512 222.763 318.214C222.906 318.128 223.056 318.014 223.213 317.87C223.388 317.707 223.562 317.544 223.737 317.381C223.911 317.217 224.086 317.063 224.262 316.919C224.456 316.773 224.663 316.663 224.881 316.59C225.207 316.453 225.57 316.434 225.97 316.534C226.389 316.633 226.716 316.88 226.952 317.274Z" fill="#CC5B42"/>
<path d="M273.358 330.652C272.92 331.973 271.22 332.322 270.298 331.281L241.338 298.57C240.416 297.53 240.964 295.879 242.324 295.6L285.06 286.81C286.42 286.53 287.572 287.831 287.134 289.152L273.358 330.652Z" fill="#FEFFCC"/>
<path d="M262.063 297.074C263.192 296.365 264.256 295.937 265.252 295.789C266.267 295.638 267.214 295.71 268.093 296.006C268.967 296.284 269.755 296.741 270.456 297.379C271.176 298.013 271.804 298.761 272.342 299.623C272.758 300.262 273.118 300.951 273.421 301.689C273.724 302.428 273.964 303.179 274.139 303.944C274.329 304.687 274.454 305.434 274.512 306.184C274.589 306.931 274.6 307.635 274.544 308.294C274.521 308.738 274.472 309.148 274.397 309.526C274.322 309.904 274.22 310.287 274.09 310.676C273.795 311.557 273.333 312.319 272.704 312.964C272.093 313.604 271.379 314.113 270.563 314.491C270.008 314.757 269.421 314.954 268.801 315.082C268.176 315.191 267.548 315.235 266.916 315.212C266.28 315.172 265.649 315.063 265.023 314.887C264.412 314.688 263.831 314.407 263.281 314.043C262.603 313.611 262.009 313.075 261.497 312.437C260.983 311.78 260.544 311.078 260.183 310.333C259.817 309.569 259.525 308.79 259.305 307.996C259.086 307.202 258.928 306.434 258.833 305.691C258.749 305.002 258.729 304.253 258.773 303.443C258.835 302.63 258.993 301.825 259.249 301.028C259.504 300.232 259.857 299.492 260.307 298.809C260.771 298.103 261.356 297.525 262.063 297.074ZM270.874 307.505C270.917 306.6 270.809 305.611 270.552 304.539C270.295 303.467 269.913 302.487 269.408 301.599C269.088 301.055 268.727 300.595 268.327 300.22C267.942 299.822 267.515 299.548 267.046 299.396C266.596 299.241 266.097 299.22 265.549 299.332C265.002 299.445 264.424 299.735 263.816 300.204C263.456 300.487 263.165 300.833 262.944 301.241C262.742 301.645 262.594 302.085 262.501 302.562C262.427 303.035 262.384 303.521 262.371 304.019C262.377 304.513 262.416 304.982 262.488 305.425C262.549 305.908 262.643 306.414 262.769 306.94C262.893 307.449 263.054 307.959 263.254 308.471C263.468 308.961 263.715 309.425 263.995 309.863C264.271 310.283 264.602 310.644 264.987 310.947C265.574 311.398 266.2 311.67 266.866 311.762C267.546 311.831 268.181 311.729 268.772 311.455C269.731 311.029 270.361 310.204 270.662 308.979C270.798 308.531 270.869 308.04 270.874 307.505Z" fill="#CC5B42"/>
<path d="M323.963 313.247C323.816 314.631 322.23 315.336 321.108 314.517L285.847 288.762C284.725 287.943 284.908 286.213 286.177 285.649L326.054 267.91C327.323 267.346 328.726 268.37 328.579 269.754L323.963 313.247Z" fill="#FEFFCC"/>
<path d="M323.251 293.85C323.325 294.062 323.394 294.287 323.458 294.524C323.522 294.761 323.553 294.993 323.551 295.218C323.557 295.461 323.514 295.664 323.423 295.827C323.311 296.081 323.132 296.273 322.884 296.404C322.683 296.596 322.464 296.724 322.228 296.788C321.991 296.852 321.761 296.883 321.535 296.881C321.229 296.834 320.971 296.734 320.761 296.582C320.561 296.406 320.382 296.209 320.225 295.993C320.068 295.776 319.933 295.54 319.82 295.284C319.706 295.028 319.601 294.789 319.502 294.567L318.618 292.569L316.858 288.662C316.738 288.389 316.643 288.175 316.575 288.022C316.507 287.868 316.447 287.731 316.394 287.612C316.333 287.475 316.261 287.334 316.175 287.188C316.1 287.017 315.994 286.778 315.858 286.471C315.835 286.419 315.798 286.334 315.745 286.214C315.701 286.07 315.538 285.724 315.254 285.176C315.081 286.581 314.925 287.724 314.784 288.604C314.653 289.459 314.517 290.143 314.377 290.655C314.246 291.142 314.1 291.503 313.939 291.738C313.771 291.956 313.571 292.127 313.34 292.25C313.211 292.328 313.064 292.363 312.897 292.355C312.731 292.347 312.557 292.323 312.375 292.281C312.211 292.231 312.046 292.182 311.882 292.132C311.727 292.058 311.592 291.985 311.479 291.913C310.843 291.583 310.111 291.173 309.283 290.683C308.455 290.193 307.542 289.557 306.543 288.775C306.551 288.792 306.667 289.077 306.892 289.631C307.133 290.178 307.436 290.861 307.798 291.68C308.154 292.483 308.53 293.357 308.929 294.304C309.337 295.226 309.71 296.092 310.048 296.902C310.403 297.705 310.693 298.383 310.918 298.937C311.135 299.474 311.235 299.746 311.218 299.754C311.347 300.044 311.4 300.348 311.377 300.664C311.346 300.964 311.246 301.244 311.075 301.503C310.922 301.756 310.696 301.958 310.397 302.112C310.098 302.265 309.728 302.328 309.287 302.299C309.005 302.261 308.748 302.14 308.516 301.937C308.3 301.726 308.126 301.518 307.994 301.311C307.871 301.079 307.752 300.856 307.637 300.642C307.538 300.42 307.436 300.19 307.331 299.951L306.472 297.941L304.752 293.986L303.233 290.554C302.576 289.068 301.981 287.585 301.448 286.106C301.365 285.918 301.307 285.74 301.273 285.571C301.248 285.377 301.236 285.189 301.236 285.005C301.251 284.671 301.34 284.386 301.501 284.151C301.688 283.884 301.926 283.686 302.216 283.557C302.335 283.504 302.45 283.463 302.559 283.435C302.679 283.382 302.793 283.341 302.903 283.313C303.274 283.23 303.654 283.306 304.044 283.541C304.443 283.752 304.806 283.928 305.133 284.068C305.337 284.161 305.565 284.285 305.817 284.438C306.068 284.592 306.323 284.755 306.582 284.925C306.842 285.096 307.088 285.262 307.323 285.424C307.557 285.585 307.763 285.729 307.941 285.854C308.701 286.374 309.384 286.857 309.989 287.303C310.611 287.742 311.17 288.106 311.666 288.397C311.694 288.323 311.723 288.228 311.754 288.112C311.776 287.98 311.799 287.847 311.822 287.714C311.854 287.557 311.873 287.415 311.879 287.29C311.902 287.157 311.915 287.049 311.919 286.966C311.968 286.617 312.022 286.277 312.079 285.945C312.128 285.596 312.182 285.234 312.241 284.861C312.309 284.463 312.366 284.039 312.412 283.589C312.475 283.132 312.549 282.609 312.634 282.019C312.663 281.761 312.707 281.445 312.766 281.072C312.824 280.698 312.913 280.322 313.03 279.942C313.148 279.563 313.293 279.223 313.465 278.921C313.647 278.595 313.874 278.371 314.146 278.25C314.283 278.19 314.406 278.145 314.515 278.117C314.618 278.071 314.724 278.034 314.833 278.006C315.045 277.932 315.283 277.939 315.546 278.026C315.742 278.102 315.909 278.202 316.045 278.325C316.211 278.517 316.337 278.686 316.422 278.832C316.492 278.944 316.55 279.051 316.595 279.154C316.657 279.248 316.711 279.347 316.756 279.45C317.18 280.406 317.608 281.35 318.04 282.281C318.473 283.213 318.901 284.157 319.324 285.113C319.838 286.274 320.367 287.469 320.911 288.699C321.472 289.92 322.009 291.112 322.523 292.273C322.629 292.512 322.751 292.764 322.889 293.03C323.027 293.296 323.148 293.569 323.251 293.85Z" fill="#CC5B42"/>
<path d="M371.526 286.013C371.659 287.398 370.247 288.409 368.984 287.833L329.276 269.716C328.013 269.14 327.845 267.409 328.975 266.6L364.478 241.182C365.608 240.373 367.187 241.094 367.321 242.479L371.526 286.013Z" fill="#FEFFCC"/>
<path d="M349.461 261.901L351.965 265.513L352.875 264.862C353.486 264.401 354.034 263.998 354.519 263.65C355.004 263.303 355.548 262.925 356.15 262.517L356.264 262.436C356.446 262.305 356.626 262.188 356.803 262.084C356.985 261.954 357.16 261.829 357.326 261.709C357.519 261.594 357.715 261.5 357.914 261.426C358.103 261.337 358.297 261.256 358.496 261.182C358.819 261.088 359.128 261.073 359.425 261.136C359.718 261.225 359.95 261.391 360.124 261.635C360.178 261.711 360.243 261.802 360.319 261.908C360.384 262 360.428 262.094 360.452 262.192C360.541 262.381 360.55 262.603 360.481 262.859C360.481 263.02 360.391 263.199 360.211 263.397C360.057 263.599 359.887 263.778 359.701 263.934C359.521 264.132 359.325 264.307 359.113 264.459L358.044 265.224L353.852 268.259L356.99 272.761L361.549 269.566L362.618 268.801C362.739 268.714 362.853 268.633 362.959 268.557C363.065 268.481 363.169 268.418 363.271 268.368C363.414 268.311 363.536 268.258 363.638 268.208C363.744 268.132 363.854 268.077 363.966 268.042C364.192 267.973 364.403 267.948 364.6 267.967C364.86 268.011 365.072 268.1 365.237 268.235C365.306 268.3 365.373 268.378 365.438 268.469C365.507 268.534 365.567 268.618 365.617 268.72C365.79 268.963 365.871 269.238 365.86 269.544C365.83 269.887 365.715 270.176 365.516 270.41C365.295 270.775 364.995 271.093 364.616 271.365C364.46 271.499 364.291 271.632 364.109 271.762C363.927 271.892 363.758 272.025 363.602 272.159L363.466 272.257C362.305 273.134 361.076 274.014 359.781 274.895C359.478 275.112 359.23 275.278 359.037 275.393C358.855 275.524 358.688 275.643 358.537 275.752C358.4 275.849 358.256 275.952 358.104 276.061C357.953 276.17 357.756 276.311 357.513 276.484C357.186 276.764 356.855 276.91 356.519 276.921C356.276 276.934 356.044 276.882 355.824 276.764C355.746 276.751 355.69 276.722 355.658 276.676C355.621 276.657 355.59 276.645 355.564 276.64C355.538 276.636 355.506 276.624 355.469 276.605C355.385 276.55 355.308 276.491 355.239 276.425C355.159 276.345 355.091 276.267 355.037 276.191C354.968 276.126 354.899 276.061 354.829 275.995C354.775 275.919 354.714 275.849 354.644 275.784L354.384 275.419C354.341 275.358 354.298 275.297 354.254 275.236C354.226 275.165 354.191 275.099 354.147 275.038L352.88 273.259L350.587 269.943L348.427 266.91C348.037 266.363 347.691 265.876 347.387 265.451C347.099 265.014 346.784 264.54 346.442 264.027L346.361 263.913C346.257 263.735 346.156 263.578 346.059 263.441C345.966 263.278 345.865 263.12 345.757 262.968C345.555 262.654 345.427 262.297 345.373 261.9C345.347 261.735 345.332 261.585 345.328 261.451C345.339 261.305 345.383 261.158 345.461 261.011C345.591 260.711 345.778 260.474 346.02 260.301C346.141 260.214 346.238 260.156 346.309 260.128L346.293 260.105C346.566 259.91 346.786 259.753 346.953 259.633C347.119 259.514 347.279 259.4 347.43 259.291C347.597 259.172 347.771 259.047 347.953 258.917C348.125 258.771 348.369 258.584 348.688 258.356C349.283 257.907 349.854 257.487 350.4 257.096C350.946 256.705 351.512 256.311 352.099 255.914L352.19 255.849C352.368 255.745 352.548 255.627 352.73 255.497C352.912 255.367 353.092 255.25 353.269 255.145C353.436 255.026 353.619 254.929 353.818 254.855C354.007 254.766 354.206 254.693 354.416 254.634C354.728 254.526 355.032 254.503 355.329 254.566C355.617 254.681 355.837 254.845 355.989 255.058C356.054 255.149 356.118 255.24 356.183 255.331C356.238 255.407 356.277 255.494 356.3 255.592C356.394 255.755 356.416 255.98 356.369 256.266C356.33 256.34 356.288 256.427 356.245 256.527C356.217 256.616 356.168 256.708 356.099 256.804C356.029 256.899 355.947 256.993 355.852 257.084C355.761 257.149 355.675 257.222 355.595 257.302C355.496 257.419 355.393 257.516 355.286 257.592C355.195 257.657 355.089 257.733 354.968 257.82L353.945 258.553L349.412 261.832L349.461 261.901Z" fill="#CC5B42"/>
<path fill-rule="evenodd" clip-rule="evenodd" d="M10.6843 229.346C11.4898 228.759 12.6175 228.937 13.2031 229.745C31.0955 254.418 91.844 297.243 191.104 297.243C253.006 297.243 299.034 280.278 329.091 263.353C344.125 254.888 355.159 246.435 362.18 240.125C365.695 236.965 368.182 234.364 369.656 232.585C370.243 231.878 370.633 231.343 370.863 230.98C370.858 230.924 370.855 230.866 370.855 230.808C370.855 229.809 371.662 229 372.658 229C373.046 229 373.69 229.119 374.173 229.7C374.619 230.237 374.64 230.831 374.621 231.123C374.585 231.671 374.341 232.159 374.194 232.433C373.838 233.093 373.225 233.936 372.43 234.895C370.812 236.849 368.191 239.578 364.587 242.817C357.371 249.303 346.122 257.91 330.857 266.506C300.318 283.702 253.688 300.859 191.104 300.859C90.9088 300.859 28.9764 257.644 10.2863 231.871C9.70064 231.063 9.87887 229.933 10.6843 229.346ZM371.08 230.593C371.08 230.593 371.078 230.598 371.074 230.609C371.077 230.599 371.079 230.593 371.08 230.593Z" fill="#FFD1D1"/>
<path fill-rule="evenodd" clip-rule="evenodd" d="M43.5246 596.166C42.3628 593.91 41.4233 591.497 40.7404 588.949C35.4995 569.39 47.3667 549.215 67.2465 543.889C80.5272 540.33 94.0242 544.298 103.084 553.156C106.985 546.948 113.192 542.121 120.891 540.058C136.906 535.767 153.31 545.061 157.532 560.817C158.171 563.201 158.494 565.596 158.527 567.96C172.515 564.839 186.551 573.1 190.235 586.852C194.02 600.978 185.45 615.548 171.092 619.395C168.235 620.161 165.365 620.444 162.569 620.295C162.975 621.333 163.327 622.403 163.622 623.503C167.989 639.803 158.1 656.615 141.533 661.054C129.214 664.355 116.671 659.884 109.254 650.672C106.929 657.673 101.174 663.435 93.4299 665.51C81.2811 668.765 68.8363 661.714 65.6335 649.762C65.4499 649.076 65.3006 648.39 65.1846 647.704C50.3491 650.652 35.6266 641.801 31.7181 627.214C28.4933 615.179 33.5964 602.845 43.5246 596.166Z" fill="white"/>
<path fill-rule="evenodd" clip-rule="evenodd" d="M107.996 581.651C108.272 582.3 108.967 582.709 109.652 582.526V582.526C110.338 582.342 110.752 581.637 110.496 580.979C108.374 575.529 102.419 572.441 96.6091 573.998C90.799 575.555 87.1859 581.206 88.0738 586.987C88.181 587.685 88.8921 588.088 89.5773 587.905V587.905C90.2625 587.721 90.6598 587.019 90.5745 586.319C90.0371 581.908 92.8318 577.655 97.2704 576.466C101.709 575.276 106.256 577.562 107.996 581.651Z" fill="black"/>
<path fill-rule="evenodd" clip-rule="evenodd" d="M136.974 573.886C137.251 574.535 137.946 574.945 138.631 574.761V574.761C139.316 574.577 139.73 573.872 139.474 573.215C137.353 567.764 131.398 564.676 125.588 566.233C119.777 567.79 116.164 573.442 117.052 579.223C117.159 579.92 117.871 580.324 118.556 580.14V580.14C119.241 579.957 119.638 579.255 119.553 578.554C119.016 574.143 121.81 569.89 126.249 568.701C130.687 567.512 135.234 569.798 136.974 573.886Z" fill="black"/>
<rect x="117.836" y="589.65" width="87.0991" height="6.77438" transform="rotate(-20.291 117.836 589.65)" fill="#FF8282"/>
<path fill-rule="evenodd" clip-rule="evenodd" d="M193.073 561.833L187.16 564.019L183.155 572.722L189.068 570.536L193.073 561.833ZM196.77 567.688L201.879 565.799L199.99 560.691L196.77 567.688ZM173.544 569.053L179.458 566.867L175.453 575.57L169.539 577.757L173.544 569.053ZM165.842 571.901L159.928 574.087L155.924 582.791L161.837 580.604L165.842 571.901ZM146.313 579.122L152.226 576.935L148.221 585.638L142.308 587.825L146.313 579.122ZM138.61 581.969L132.697 584.156L128.692 592.859L134.606 590.673L138.61 581.969ZM117.836 589.65L124.995 587.004L120.99 595.707L120.185 596.004L117.836 589.65Z" fill="#26E092"/>
<path fill-rule="evenodd" clip-rule="evenodd" d="M115.781 601.134C115.348 601.319 115.075 601.782 115.197 602.239V602.239C115.32 602.696 115.79 602.972 116.228 602.801C119.862 601.387 121.921 597.417 120.883 593.543C119.845 589.67 116.077 587.261 112.223 587.853C111.758 587.925 111.489 588.399 111.611 588.855V588.855C111.734 589.312 112.202 589.577 112.669 589.52C115.609 589.162 118.445 591.025 119.237 593.984C120.03 596.943 118.506 599.974 115.781 601.134Z" fill="black"/>
<path d="M22.6852 531.034C21.8276 528.381 24.3364 525.872 26.9898 526.73L77.7975 543.15C80.229 543.936 80.9706 547.014 79.1637 548.821L44.7759 583.208C42.9691 585.015 39.8909 584.274 39.1051 581.842L22.6852 531.034Z" fill="#FFEA9F"/>
<path fill-rule="evenodd" clip-rule="evenodd" d="M33.4194 564.25L38.1322 578.832L50.0923 534.197L42.1592 531.633L33.4194 564.25ZM64.2472 563.738L52.4719 575.513L62.4706 538.197L70.4038 540.761L64.2472 563.738ZM29.7808 527.632L26.9898 526.73C24.3363 525.873 21.8276 528.382 22.6851 531.035L26.066 541.496L29.7808 527.632Z" fill="#54D4E6"/>
<path d="M15.9949 520.073C16.0189 519.798 16.2367 519.58 16.5115 519.556V519.556C16.7462 519.536 16.9439 519.373 17.0084 519.146V519.146C17.084 518.881 17.3391 518.708 17.6134 518.737V518.737C17.8477 518.761 18.0728 518.638 18.179 518.428V518.428C18.3034 518.182 18.5866 518.06 18.8505 518.14V518.14C19.0761 518.208 19.3203 518.13 19.4644 517.944V517.944C19.6331 517.726 19.9341 517.66 20.1782 517.789V517.789C20.3868 517.898 20.6413 517.868 20.8181 517.712V517.712C21.0251 517.53 21.3331 517.523 21.5484 517.695V517.695C21.7324 517.842 21.9882 517.86 22.1913 517.741V517.741C22.429 517.601 22.7328 517.652 22.9116 517.862V517.862C23.0645 518.041 23.3121 518.108 23.5342 518.029V518.029C23.794 517.936 24.0827 518.044 24.2186 518.284V518.284C24.3347 518.489 24.5654 518.601 24.7983 518.566V518.566C25.0709 518.524 25.334 518.684 25.4221 518.946V518.946C25.4973 519.169 25.7026 519.323 25.938 519.332V519.332C26.2136 519.343 26.4415 519.55 26.4785 519.823V519.823C26.5101 520.057 26.6826 520.247 26.912 520.3V520.3C27.1806 520.363 27.3652 520.61 27.3498 520.885V520.885C27.3367 521.12 27.4701 521.339 27.6852 521.435V521.435C27.937 521.548 28.0716 521.825 28.0044 522.092V522.092C27.947 522.321 28.0366 522.561 28.2296 522.696V522.696C28.4556 522.854 28.5353 523.152 28.4187 523.402V523.402C28.3191 523.615 28.3616 523.868 28.5256 524.037V524.037C28.7175 524.236 28.7395 524.543 28.5777 524.766V524.766C28.4395 524.957 28.4334 525.213 28.5624 525.41V525.41C28.7133 525.641 28.6768 525.947 28.4756 526.136V526.136C28.3038 526.297 28.2493 526.547 28.3386 526.765V526.765C28.4432 527.021 28.3494 527.314 28.1162 527.461V527.461C27.917 527.587 27.816 527.823 27.8625 528.054V528.054C27.9169 528.324 27.7693 528.594 27.5124 528.695V528.695C27.293 528.781 27.1493 528.993 27.1512 529.229V529.229C27.1534 529.504 26.9573 529.742 26.6861 529.792V529.792C26.4544 529.835 26.2731 530.016 26.2304 530.248V530.248C26.1804 530.519 25.9428 530.715 25.6671 530.713V530.713C25.4315 530.711 25.2191 530.854 25.1334 531.074V531.074C25.033 531.331 24.7626 531.478 24.4922 531.424V531.424C24.2612 531.378 24.0255 531.478 23.8998 531.678V531.678C23.7526 531.911 23.4591 532.005 23.204 531.9V531.9C22.9859 531.811 22.7354 531.865 22.5742 532.037V532.037C22.3855 532.238 22.0797 532.275 21.8489 532.124V532.124C21.6517 531.995 21.3954 532.001 21.2046 532.139V532.139C20.9813 532.301 20.674 532.279 20.476 532.087V532.087C20.3068 531.923 20.0539 531.881 19.8404 531.98V531.98C19.5905 532.097 19.2929 532.017 19.1348 531.791V531.791C18.9997 531.598 18.7595 531.509 18.531 531.566V531.566C18.2635 531.633 17.9864 531.499 17.8739 531.247V531.247C17.7778 531.032 17.5588 530.898 17.3236 530.911V530.911C17.0482 530.927 16.8016 530.742 16.7388 530.474V530.474C16.6851 530.244 16.4954 530.072 16.2619 530.04V530.04C15.9886 530.003 15.7814 529.775 15.7705 529.5V529.5C15.7612 529.264 15.6076 529.059 15.3843 528.984V528.984C15.123 528.896 14.9626 528.632 15.0041 528.36V528.36C15.0395 528.127 14.9275 527.896 14.7225 527.78V527.78C14.4826 527.644 14.3749 527.356 14.4672 527.096V527.096C14.5461 526.874 14.4797 526.626 14.3004 526.473V526.473C14.0905 526.294 14.0395 525.99 14.1793 525.753V525.753C14.2988 525.55 14.2805 525.294 14.1333 525.11V525.11C13.9611 524.895 13.9684 524.587 14.1507 524.38V524.38C14.3064 524.203 14.3369 523.948 14.2272 523.74V523.74C14.0988 523.496 14.1643 523.195 14.3825 523.026V523.026C14.5689 522.882 14.6469 522.638 14.5787 522.412V522.412C14.4989 522.148 14.6201 521.865 14.8663 521.741V521.741C15.0766 521.634 15.1994 521.409 15.1751 521.175V521.175C15.1467 520.901 15.3194 520.645 15.5846 520.57V520.57C15.8112 520.505 15.9744 520.308 15.9949 520.073V520.073Z" fill="white"/>
<path fill-rule="evenodd" clip-rule="evenodd" d="M210.322 517.889C212.231 517.227 214.315 518.238 214.977 520.147C216.93 525.781 219.053 529.022 221.038 530.862C222.927 532.612 224.863 533.257 226.95 533.343C229.181 533.435 231.65 532.891 234.499 532.031C235.287 531.794 236.136 531.52 237.017 531.236C239.066 530.576 241.29 529.859 243.325 529.408C245.298 528.97 247.251 530.215 247.689 532.188C248.126 534.161 246.881 536.115 244.908 536.552C243.211 536.928 241.551 537.465 239.69 538.066C238.729 538.377 237.714 538.705 236.613 539.037C233.611 539.942 230.163 540.8 226.647 540.654C222.987 540.503 219.346 539.27 216.064 536.229C212.877 533.276 210.235 528.81 208.063 522.544C207.401 520.635 208.412 518.551 210.322 517.889Z" fill="#70312E"/>
<path d="M310.066 466.342C311.002 465.471 312.541 465.883 312.915 467.106L316.307 478.172C316.621 479.197 317.791 479.696 318.753 479.215L329.134 474.024C330.28 473.45 331.642 474.275 331.654 475.551L331.768 487.101C331.779 488.171 332.761 488.976 333.822 488.784L345.272 486.709C346.537 486.48 347.611 487.65 347.26 488.876L344.088 499.974C343.794 501.002 344.509 502.048 345.583 502.16L357.175 503.37C358.456 503.504 359.155 504.925 358.47 506.002L352.267 515.749C351.693 516.651 352.083 517.853 353.082 518.26L363.878 522.658C365.07 523.144 365.338 524.701 364.374 525.541L355.644 533.146C354.835 533.851 354.869 535.111 355.713 535.781L364.837 543.009C365.845 543.808 365.66 545.374 364.494 545.91L353.944 550.758C352.967 551.207 352.641 552.424 353.263 553.301L359.975 562.775C360.716 563.822 360.094 565.271 358.821 565.459L347.306 567.157C346.24 567.315 345.581 568.389 345.929 569.404L349.686 580.355C350.101 581.565 349.091 582.779 347.815 582.604L336.267 581.015C335.198 580.868 334.259 581.713 334.305 582.782L334.804 594.324C334.859 595.599 333.543 596.481 332.367 595.956L321.722 591.208C320.737 590.769 319.594 591.317 319.335 592.354L316.533 603.551C316.224 604.788 314.709 605.265 313.728 604.434L304.849 596.912C304.027 596.215 302.773 596.421 302.229 597.342L296.355 607.288C295.706 608.387 294.115 608.42 293.409 607.35L287.014 597.664C286.422 596.767 285.159 596.614 284.375 597.344L275.904 605.233C274.969 606.104 273.43 605.692 273.055 604.469L269.664 593.402C269.35 592.378 268.179 591.879 267.218 592.359L256.837 597.551C255.69 598.124 254.329 597.3 254.317 596.024L254.203 584.474C254.192 583.404 253.209 582.599 252.149 582.791L240.698 584.866C239.433 585.095 238.36 583.925 238.71 582.699L241.883 571.601C242.177 570.573 241.462 569.527 240.388 569.415L228.796 568.204C227.515 568.071 226.816 566.649 227.501 565.573L233.704 555.826C234.278 554.924 233.888 553.722 232.888 553.315L222.093 548.917C220.901 548.431 220.633 546.874 221.597 546.034L230.327 538.428C231.136 537.724 231.102 536.463 230.257 535.794L221.134 528.565C220.126 527.767 220.311 526.201 221.477 525.665L232.027 520.816C233.004 520.367 233.33 519.15 232.708 518.273L225.996 508.799C225.254 507.753 225.877 506.304 227.149 506.116L238.665 504.417C239.731 504.26 240.39 503.185 240.042 502.171L236.285 491.22C235.87 490.01 236.88 488.795 238.156 488.971L249.703 490.56C250.773 490.707 251.712 489.861 251.665 488.793L251.167 477.25C251.112 475.975 252.428 475.094 253.604 475.619L264.249 480.366C265.234 480.806 266.377 480.258 266.636 479.221L269.437 468.024C269.747 466.787 271.262 466.31 272.243 467.141L281.122 474.663C281.944 475.359 283.198 475.153 283.742 474.232L289.615 464.287C290.264 463.188 291.855 463.154 292.562 464.224L298.956 473.911C299.548 474.808 300.812 474.961 301.596 474.23L310.066 466.342Z" fill="#FF8F89"/>
<path d="M345.372 549.824C337.62 578.757 307.881 595.926 278.948 588.174C250.016 580.421 232.846 550.683 240.599 521.75C248.351 492.818 278.09 475.648 307.022 483.401C335.955 491.153 353.124 520.892 345.372 549.824Z" fill="#FFFD9B"/>
<path fill-rule="evenodd" clip-rule="evenodd" d="M261.782 516.196C261.688 516.436 261.608 516.682 261.54 516.934C260.101 522.307 265.188 528.338 272.903 530.406C280.619 532.473 288.04 529.793 289.48 524.42C289.547 524.168 289.601 523.915 289.64 523.661L261.782 516.196Z" fill="#FF7272"/>
<path d="M268.727 518.057L275.711 519.929L275.32 521.391C275.019 522.512 273.564 523.096 272.068 522.696L270.498 522.275C269.003 521.874 268.034 520.64 268.335 519.519L268.727 518.057Z" fill="white"/>
<path d="M275.711 519.929L282.696 521.8L282.304 523.262C282.004 524.384 280.548 524.968 279.053 524.567L277.482 524.147C275.987 523.746 275.019 522.512 275.319 521.391L275.711 519.929Z" fill="white"/>
<rect x="303.964" y="508.784" width="31.6368" height="3.61564" rx="1.80782" transform="rotate(15 303.964 508.784)" fill="#5B22FF"/>
<rect x="251.577" y="494.747" width="14.5343" height="3.63358" rx="1.81679" transform="rotate(15 251.577 494.747)" fill="#5B22FF"/>
<path d="M263.782 516.323C277.553 510.87 281.002 506.462 281.763 503.618C282.271 501.723 282.116 497.466 277.433 495.601C272.75 493.737 269.683 496.318 268.734 497.842C268.675 496.048 267.31 492.279 262.321 491.552C257.333 490.825 255.071 494.434 254.563 496.33C253.039 502.016 260.138 511.791 263.782 516.323Z" fill="#333333"/>
<path d="M291.862 523.847C305.632 518.394 309.081 513.986 309.843 511.142C310.35 509.247 310.195 504.99 305.512 503.125C300.829 501.261 297.762 503.842 296.814 505.366C296.754 503.572 295.389 499.803 290.401 499.076C285.413 498.349 283.15 501.958 282.642 503.854C281.118 509.54 288.217 519.315 291.862 523.847Z" fill="#333333"/>
<path fill-rule="evenodd" clip-rule="evenodd" d="M265.756 494.949C265.057 493.977 263.872 493.05 261.827 492.77C259.836 492.497 258.47 493.125 257.524 493.972C256.525 494.865 255.955 496.045 255.752 496.802C255.446 497.946 255.515 499.414 255.953 501.156C256.387 502.882 257.152 504.756 258.1 506.64C259.747 509.916 261.879 513.094 263.554 515.397C276.298 509.668 279.03 505.393 279.619 503.197C279.822 502.44 279.918 501.133 279.5 499.861C279.103 498.654 278.234 497.427 276.374 496.668C274.463 495.888 272.974 496.098 271.881 496.59C270.733 497.108 269.951 497.973 269.614 498.54C269.256 499.139 268.552 499.429 267.886 499.25C267.221 499.072 266.755 498.468 266.746 497.771C266.736 497.111 266.492 495.971 265.756 494.949ZM269.127 494.618C268.903 494.109 268.617 493.595 268.26 493.099C267.077 491.455 265.151 490.068 262.261 489.672C259.317 489.268 257.061 490.226 255.484 491.636C253.959 493.001 253.104 494.75 252.769 496.002C252.268 497.872 252.451 499.936 252.957 501.945C253.466 503.971 254.335 506.068 255.343 508.072C257.358 512.079 260.02 515.888 261.809 518.275C262.236 518.845 262.994 519.046 263.647 518.761C277.463 512.733 281.592 507.764 282.602 503.996C282.938 502.744 283.072 500.802 282.434 498.858C281.774 496.848 280.298 494.89 277.547 493.767C274.846 492.665 272.485 492.904 270.638 493.736C270.081 493.987 269.577 494.29 269.127 494.618Z" fill="#5B22FF"/>
<path fill-rule="evenodd" clip-rule="evenodd" d="M294.713 502.708C294.013 501.735 292.828 500.809 290.783 500.528C288.792 500.256 287.426 500.884 286.48 501.731C285.481 502.624 284.911 503.803 284.708 504.56C284.402 505.704 284.471 507.173 284.909 508.915C285.343 510.641 286.108 512.514 287.056 514.399C288.703 517.675 290.835 520.853 292.51 523.156C305.254 517.427 307.986 513.151 308.575 510.955C308.778 510.198 308.874 508.892 308.456 507.619C308.059 506.413 307.191 505.185 305.33 504.426C303.419 503.646 301.93 503.857 300.837 504.349C299.69 504.867 298.907 505.732 298.57 506.298C298.213 506.897 297.508 507.187 296.842 507.009C296.177 506.831 295.711 506.227 295.702 505.53C295.693 504.87 295.448 503.73 294.713 502.708ZM298.083 502.377C297.859 501.868 297.573 501.354 297.216 500.858C296.033 499.213 294.107 497.826 291.217 497.43C288.273 497.027 286.017 497.985 284.44 499.395C282.915 500.76 282.061 502.509 281.725 503.761C281.224 505.63 281.407 507.695 281.913 509.704C282.422 511.73 283.291 513.827 284.299 515.831C286.314 519.838 288.976 523.646 290.765 526.034C291.192 526.604 291.95 526.804 292.603 526.52C306.419 520.492 310.548 515.523 311.558 511.755C311.894 510.503 312.029 508.561 311.39 506.617C310.73 504.607 309.254 502.649 306.503 501.526C303.802 500.424 301.441 500.662 299.594 501.495C299.037 501.746 298.533 502.048 298.083 502.377Z" fill="#5B22FF"/>
<path fill-rule="evenodd" clip-rule="evenodd" d="M212.105 504.835C213.824 503.774 216.079 504.307 217.14 506.026C231.511 529.292 247.714 538.872 261.805 541.76C276.033 544.676 288.563 540.866 295.607 536.591C297.334 535.543 299.585 536.093 300.633 537.82C301.681 539.548 301.131 541.798 299.403 542.847C290.965 547.968 276.57 552.255 260.336 548.929C243.965 545.574 226.17 534.571 210.915 509.871C209.853 508.152 210.386 505.897 212.105 504.835Z" fill="#70312E"/>
<path d="M210.807 502.786C212.401 504.003 214.529 507.103 210.293 509.763C204.998 513.087 207.814 520.278 211.607 521.295" stroke="#54D4E6" stroke-width="4" stroke-linecap="round"/>
<path d="M213.45 506.378C213.191 507.589 211.668 507.997 210.837 507.078L194.935 489.472C194.174 488.63 194.573 487.281 195.669 486.987L216.541 481.394C217.637 481.101 218.657 482.07 218.419 483.18L213.45 506.378Z" fill="#FFEA9F"/>
<path fill-rule="evenodd" clip-rule="evenodd" d="M216.698 491.212L218.125 484.554L203.607 499.072L206.09 501.821L216.698 491.212ZM204.723 484.561L211.87 482.646L199.732 494.783L197.249 492.034L204.723 484.561ZM209.964 506.11L210.837 507.077C211.668 507.997 213.191 507.589 213.45 506.377L214.473 501.601L209.964 506.11Z" fill="#54D4E6"/>
<ellipse cx="107.5" cy="679" rx="52.5" ry="7" fill="#0086B2"/>
<ellipse cx="288.5" cy="629" rx="40.5" ry="5" fill="#0086B2"/>
</g>
<defs>
<clipPath id="clip0_2155_51294">
<rect width="390" height="844" fill="white"/>
</clipPath>
</defs>
</svg>
