<svg width="44" height="44" viewBox="0 0 44 44" fill="none" xmlns="http://www.w3.org/2000/svg">
<path fill-rule="evenodd" clip-rule="evenodd" d="M14.068 5.81894C15.0905 2.45294 18.255 0 22.0003 0C25.5147 0 28.5177 2.15976 29.7195 5.20707C30.0569 5.1585 30.402 5.13336 30.7531 5.13336C34.6725 5.13336 37.8499 8.26735 37.8499 12.1333C37.8499 12.2004 37.8489 12.2673 37.847 12.334C41.3712 13.142 44 16.2974 44 20.0667C44 24.4481 40.4481 28 36.0667 28H7.93333C3.55187 28 0 24.4481 0 20.0667C0 16.6446 2.16673 13.7286 5.20316 12.6157L5.20314 12.5999C5.20314 8.73396 8.38047 5.59997 12.2999 5.59997C12.9103 5.59997 13.5027 5.67598 14.068 5.81894Z" fill="#F5F5F5"/>
<path d="M33.769 32.5C33.769 33.3284 33.0818 34 32.2341 34C31.3864 34 30.6992 33.3284 30.6992 32.5C30.6992 31.6716 31.3864 31 32.2341 31C33.0818 31 33.769 31.6716 33.769 32.5Z" fill="#EBEBEB"/>
<path d="M21 40C21 40.5523 20.5523 41 20 41C19.4477 41 19 40.5523 19 40C19 39.4477 19.4477 39 20 39C20.5523 39 21 39.4477 21 40Z" fill="#EBEBEB"/>
<path d="M12.2809 32C12.2809 32.5523 11.8228 33 11.2576 33C10.6925 33 10.2344 32.5523 10.2344 32C10.2344 31.4477 10.6925 31 11.2576 31C11.8228 31 12.2809 31.4477 12.2809 32Z" fill="#EBEBEB"/>
<path d="M24.5582 30C24.5582 30.5523 24.1001 31 23.535 31C22.9698 31 22.5117 30.5523 22.5117 30C22.5117 29.4477 22.9698 29 23.535 29C24.1001 29 24.5582 29.4477 24.5582 30Z" fill="#EBEBEB"/>
<path d="M3.06995 36C3.06995 36.5523 2.61182 37 2.04669 37C1.48156 37 1.02344 36.5523 1.02344 36C1.02344 35.4477 1.48156 35 2.04669 35C2.61182 35 3.06995 35.4477 3.06995 36Z" fill="#EBEBEB"/>
<path d="M12 42.5C12 43.3284 11.3284 44 10.5 44C9.67157 44 9 43.3284 9 42.5C9 41.6716 9.67157 41 10.5 41C11.3284 41 12 41.6716 12 42.5Z" fill="#EBEBEB"/>
<path d="M41.9528 31C41.9528 31.5523 41.4946 32 40.9295 32C40.3644 32 39.9062 31.5523 39.9062 31C39.9062 30.4477 40.3644 30 40.9295 30C41.4946 30 41.9528 30.4477 41.9528 31Z" fill="#EBEBEB"/>
<path d="M35.8121 42C35.8121 42.5523 35.354 43 34.7889 43C34.2238 43 33.7656 42.5523 33.7656 42C33.7656 41.4477 34.2238 41 34.7889 41C35.354 41 35.8121 41.4477 35.8121 42Z" fill="#EBEBEB"/>
<path d="M28.652 36C28.652 36.5523 28.1939 37 27.6287 37C27.0636 37 26.6055 36.5523 26.6055 36C26.6055 35.4477 27.0636 35 27.6287 35C28.1939 35 28.652 35.4477 28.652 36Z" fill="#EBEBEB"/>
<path d="M17 35.5C17 36.3284 16.3284 37 15.5 37C14.6716 37 14 36.3284 14 35.5C14 34.6716 14.6716 34 15.5 34C16.3284 34 17 34.6716 17 35.5Z" fill="#EBEBEB"/>
<path fill-rule="evenodd" clip-rule="evenodd" d="M21.4868 14C21.4868 14 21.4868 14 21.4868 14C21.4868 11.7909 19.6543 10 17.3938 10C15.1333 10 13.3008 11.7909 13.3008 14C13.3008 14 13.3008 14 13.3008 14H21.4868Z" fill="white"/>
<path fill-rule="evenodd" clip-rule="evenodd" d="M31.7212 14C31.7212 14 31.7212 14 31.7212 14C31.7212 11.7909 29.8887 10 27.6282 10C25.3677 10 23.5352 11.7909 23.5352 14C23.5352 14 23.5352 14 23.5352 14H31.7212Z" fill="white"/>
<path fill-rule="evenodd" clip-rule="evenodd" d="M20.1163 14H15C15 12.8954 16.1453 12 17.5581 12C18.971 12 20.1163 12.8954 20.1163 14Z" fill="#333333"/>
<path fill-rule="evenodd" clip-rule="evenodd" d="M30.1163 14H25C25 12.8954 26.1453 12 27.5581 12C28.971 12 30.1163 12.8954 30.1163 14Z" fill="#333333"/>
<path fill-rule="evenodd" clip-rule="evenodd" d="M17.3963 14.999C17.3963 17.2082 19.687 18.999 22.5126 18.999C25.3383 18.999 27.6289 17.2082 27.6289 14.999C27.6289 14.999 27.6289 14.999 27.6289 14.999L17.3963 14.999Z" fill="#707070"/>
<path d="M20.4648 14.999H22.5114V15.499C22.5114 15.7752 22.2059 15.999 21.8292 15.999H21.147C20.7703 15.999 20.4648 15.7752 20.4648 15.499V14.999Z" fill="#EBEBEB"/>
<path d="M22.5117 14.999H24.5582V15.499C24.5582 15.7752 24.2528 15.999 23.8761 15.999H23.1939C22.8171 15.999 22.5117 15.7752 22.5117 15.499V14.999Z" fill="#EBEBEB"/>
</svg>
