<svg width="44" height="44" viewBox="0 0 44 44" fill="none" xmlns="http://www.w3.org/2000/svg">
<path fill-rule="evenodd" clip-rule="evenodd" d="M14.068 5.81894C15.0905 2.45294 18.255 0 22.0003 0C25.5147 0 28.5177 2.15976 29.7195 5.20707C30.0569 5.1585 30.402 5.13336 30.7531 5.13336C34.6725 5.13336 37.8499 8.26735 37.8499 12.1333C37.8499 12.2004 37.8489 12.2673 37.847 12.334C41.3712 13.142 44 16.2974 44 20.0667C44 24.4481 40.4481 28 36.0667 28H7.93333C3.55187 28 0 24.4481 0 20.0667C0 16.6446 2.16673 13.7286 5.20316 12.6157L5.20314 12.5999C5.20314 8.73396 8.38047 5.59997 12.2999 5.59997C12.9103 5.59997 13.5027 5.67598 14.068 5.81894Z" fill="#F5F5F5"/>
<path d="M33.767 32.4998C33.767 33.3282 33.0798 33.9998 32.2321 33.9998C31.3845 33.9998 30.6973 33.3282 30.6973 32.4998C30.6973 31.6713 31.3845 30.9998 32.2321 30.9998C33.0798 30.9998 33.767 31.6713 33.767 32.4998Z" fill="#F5F5F5"/>
<path d="M21 40C21 40.5523 20.5523 41 20 41C19.4477 41 19 40.5523 19 40C19 39.4477 19.4477 39 20 39C20.5523 39 21 39.4477 21 40Z" fill="#F5F5F5"/>
<path d="M12.2789 31.9998C12.2789 32.552 11.8208 32.9998 11.2557 32.9998C10.6905 32.9998 10.2324 32.552 10.2324 31.9998C10.2324 31.4475 10.6905 30.9998 11.2557 30.9998C11.8208 30.9998 12.2789 31.4475 12.2789 31.9998Z" fill="#F5F5F5"/>
<path d="M24.5582 30.0004C24.5582 30.5527 24.1001 31.0004 23.535 31.0004C22.9698 31.0004 22.5117 30.5527 22.5117 30.0004C22.5117 29.4481 22.9698 29.0004 23.535 29.0004C24.1001 29.0004 24.5582 29.4481 24.5582 30.0004Z" fill="#F5F5F5"/>
<path d="M3.06995 35.9995C3.06995 36.5518 2.61182 36.9995 2.04669 36.9995C1.48156 36.9995 1.02344 36.5518 1.02344 35.9995C1.02344 35.4472 1.48156 34.9995 2.04669 34.9995C2.61182 34.9995 3.06995 35.4472 3.06995 35.9995Z" fill="#F5F5F5"/>
<path d="M12 42.5C12 43.3284 11.3284 44 10.5 44C9.67157 44 9 43.3284 9 42.5C9 41.6716 9.67157 41 10.5 41C11.3284 41 12 41.6716 12 42.5Z" fill="#F5F5F5"/>
<path d="M41.9537 30.9996C41.9537 31.5519 41.4956 31.9996 40.9305 31.9996C40.3654 31.9996 39.9072 31.5519 39.9072 30.9996C39.9072 30.4473 40.3654 29.9996 40.9305 29.9996C41.4956 29.9996 41.9537 30.4473 41.9537 30.9996Z" fill="#F5F5F5"/>
<path d="M35.8141 41.9996C35.8141 42.5519 35.356 42.9996 34.7908 42.9996C34.2257 42.9996 33.7676 42.5519 33.7676 41.9996C33.7676 41.4473 34.2257 40.9996 34.7908 40.9996C35.356 40.9996 35.8141 41.4473 35.8141 41.9996Z" fill="#F5F5F5"/>
<path d="M28.651 35.9995C28.651 36.5518 28.1929 36.9995 27.6277 36.9995C27.0626 36.9995 26.6045 36.5518 26.6045 35.9995C26.6045 35.4472 27.0626 34.9995 27.6277 34.9995C28.1929 34.9995 28.651 35.4472 28.651 35.9995Z" fill="#F5F5F5"/>
<path d="M17 35.5C17 36.3284 16.3284 37 15.5 37C14.6716 37 14 36.3284 14 35.5C14 34.6716 14.6716 34 15.5 34C16.3284 34 17 34.6716 17 35.5Z" fill="#F5F5F5"/>
<path fill-rule="evenodd" clip-rule="evenodd" d="M21.4888 13.9999C21.4888 13.9999 21.4888 13.9999 21.4888 13.9999C21.4888 11.7907 19.6563 9.99988 17.3958 9.99988C15.1352 9.99988 13.3027 11.7907 13.3027 13.9999C13.3027 13.9999 13.3027 13.9999 13.3027 13.9999H21.4888Z" fill="white"/>
<path fill-rule="evenodd" clip-rule="evenodd" d="M31.7212 13.9999C31.7212 13.9999 31.7212 13.9999 31.7212 13.9999C31.7212 11.7907 29.8887 9.99988 27.6282 9.99988C25.3677 9.99988 23.5352 11.7907 23.5352 13.9999C23.5352 13.9999 23.5352 13.9999 23.5352 13.9999H31.7212Z" fill="white"/>
<path fill-rule="evenodd" clip-rule="evenodd" d="M20.1163 13.9999H15C15 12.8953 16.1453 11.9999 17.5581 11.9999C18.971 11.9999 20.1163 12.8953 20.1163 13.9999Z" fill="black"/>
<path fill-rule="evenodd" clip-rule="evenodd" d="M30.1163 13.9999H25C25 12.8953 26.1453 11.9999 27.5581 11.9999C28.971 11.9999 30.1163 12.8953 30.1163 13.9999Z" fill="black"/>
<path fill-rule="evenodd" clip-rule="evenodd" d="M17.3954 14.9994C17.3954 17.2085 19.686 18.9994 22.5117 18.9994C25.3373 18.9994 27.6279 17.2085 27.6279 14.9994C27.6279 14.9994 27.6279 14.9994 27.6279 14.9994L17.3954 14.9994Z" fill="#FF7272"/>
<path d="M20.4648 14.9996H22.5114V15.4996C22.5114 15.7757 22.2059 15.9996 21.8292 15.9996H21.147C20.7703 15.9996 20.4648 15.7757 20.4648 15.4996V14.9996Z" fill="#F5F5F5"/>
<path d="M22.5117 14.9996H24.5582V15.4996C24.5582 15.7757 24.2528 15.9996 23.8761 15.9996H23.1939C22.8171 15.9996 22.5117 15.7757 22.5117 15.4996V14.9996Z" fill="#F5F5F5"/>
</svg>
