<svg width="175" height="114" viewBox="0 0 175 114" fill="none" xmlns="http://www.w3.org/2000/svg">
<g clip-path="url(#clip0_1884_67790)">
<path fill-rule="evenodd" clip-rule="evenodd" d="M40.4901 14.2662C42.997 6.01381 50.7553 0 59.9377 0C68.5539 0 75.9162 5.29505 78.8626 12.7661C79.6898 12.647 80.5359 12.5853 81.3967 12.5853C91.0059 12.5853 98.7957 20.2689 98.7957 29.747C98.7957 29.9115 98.7934 30.0755 98.7887 30.2389C107.429 32.22 113.874 39.9559 113.874 49.1971C113.874 59.939 105.166 68.647 94.4239 68.647H25.45C14.708 68.647 6 59.939 6 49.1971C6 40.8073 11.3121 33.6581 18.7565 30.9296L18.7564 30.891C18.7564 21.4129 26.5462 13.7293 36.1554 13.7293C37.652 13.7293 39.1044 13.9157 40.4901 14.2662Z" fill="#F5F5F5"/>
<path d="M96.5261 83.6775C96.5261 85.7086 94.8413 87.355 92.763 87.355C90.6848 87.355 89 85.7086 89 83.6775C89 81.6465 90.6848 80 92.763 80C94.8413 80 96.5261 81.6465 96.5261 83.6775Z" fill="#F5F5F5"/>
<path d="M57.4851 98.0672C57.4851 99.4212 56.3875 100.519 55.0335 100.519C53.6794 100.519 52.5818 99.4212 52.5818 98.0672C52.5818 96.7131 53.6794 95.6155 55.0335 95.6155C56.3875 95.6155 57.4851 96.7131 57.4851 98.0672Z" fill="#F5F5F5"/>
<path d="M36.1045 78.4534C36.1045 79.8074 34.9814 80.9051 33.5959 80.9051C32.2103 80.9051 31.0872 79.8074 31.0872 78.4534C31.0872 77.0994 32.2103 76.0017 33.5959 76.0017C34.9814 76.0017 36.1045 77.0994 36.1045 78.4534Z" fill="#F5F5F5"/>
<path d="M64.0081 75.314C64.0081 76.668 62.8849 77.7657 61.4994 77.7657C60.1139 77.7657 58.9907 76.668 58.9907 75.314C58.9907 73.96 60.1139 72.8623 61.4994 72.8623C62.8849 72.8623 64.0081 73.96 64.0081 75.314Z" fill="#F5F5F5"/>
<path d="M13.5257 88.2595C13.5257 89.6136 12.4025 90.7112 11.017 90.7112C9.63148 90.7112 8.5083 89.6136 8.5083 88.2595C8.5083 86.9055 9.63148 85.8079 11.017 85.8079C12.4025 85.8079 13.5257 86.9055 13.5257 88.2595Z" fill="#F5F5F5"/>
<path d="M35.4202 104.197C35.4202 106.228 33.7737 107.874 31.7427 107.874C29.7117 107.874 28.0652 106.228 28.0652 104.197C28.0652 102.166 29.7117 100.519 31.7427 100.519C33.7737 100.519 35.4202 102.166 35.4202 104.197Z" fill="#F5F5F5"/>
<path d="M108.857 76.001C108.857 77.355 107.733 78.4527 106.348 78.4527C104.962 78.4527 103.839 77.355 103.839 76.001C103.839 74.647 104.962 73.5493 106.348 73.5493C107.733 73.5493 108.857 74.647 108.857 76.001Z" fill="#F5F5F5"/>
<path d="M78.0174 91.4517C78.0174 92.8057 76.8942 93.9034 75.5087 93.9034C74.1232 93.9034 73 92.8057 73 91.4517C73 90.0977 74.1232 89 75.5087 89C76.8942 89 78.0174 90.0977 78.0174 91.4517Z" fill="#F5F5F5"/>
<path d="M124.017 89.4517C124.017 90.8057 122.894 91.9034 121.509 91.9034C120.123 91.9034 119 90.8057 119 89.4517C119 88.0977 120.123 87 121.509 87C122.894 87 124.017 88.0977 124.017 89.4517Z" fill="#F5F5F5"/>
<path d="M47.6785 87.0342C47.6785 89.0652 46.032 90.7117 44.001 90.7117C41.97 90.7117 40.3235 89.0652 40.3235 87.0342C40.3235 85.0032 41.97 83.3567 44.001 83.3567C46.032 83.3567 47.6785 85.0032 47.6785 87.0342Z" fill="#F5F5F5"/>
<path fill-rule="evenodd" clip-rule="evenodd" d="M58.2427 34.4095C58.2427 34.4095 58.2427 34.4095 58.2427 34.4095C58.2427 28.9934 53.7499 24.6028 48.2079 24.6028C42.6658 24.6028 38.1731 28.9934 38.1731 34.4095C38.1731 34.4095 38.1731 34.4095 38.1731 34.4095H58.2427Z" fill="white"/>
<path fill-rule="evenodd" clip-rule="evenodd" d="M55.5658 34.4096C55.9416 33.6139 56.1517 32.7246 56.1517 31.7862C56.1517 28.3893 53.398 25.6355 50.001 25.6355C46.6041 25.6355 43.8503 28.3893 43.8503 31.7862C43.8503 32.7246 44.0605 33.6139 44.4363 34.4096H55.5658Z" fill="black"/>
<path fill-rule="evenodd" clip-rule="evenodd" d="M83.7912 34.4095C83.7912 34.4095 83.7912 34.4095 83.7912 34.4095C83.7912 28.9934 79.2985 24.6028 73.7565 24.6028C68.2144 24.6028 63.7217 28.9934 63.7217 34.4095C63.7217 34.4095 63.7217 34.4095 63.7217 34.4095H83.7912Z" fill="white"/>
<path fill-rule="evenodd" clip-rule="evenodd" d="M81.1149 34.4096C81.4907 33.6139 81.7008 32.7246 81.7008 31.7862C81.7008 28.3893 78.9471 25.6355 75.5501 25.6355C72.1532 25.6355 69.3994 28.3893 69.3994 31.7862C69.3994 32.7246 69.6095 33.6139 69.9853 34.4096H81.1149Z" fill="black"/>
<path fill-rule="evenodd" clip-rule="evenodd" d="M48.6479 36.7729C48.6479 42.189 54.2638 46.5796 61.1914 46.5796C68.119 46.5796 73.7349 42.189 73.7349 36.7729C73.7349 36.7729 73.7349 36.7729 73.7349 36.7729L48.6479 36.7729Z" fill="#FF7272"/>
<path d="M56.1738 36.7739H61.1912V37.9998C61.1912 38.6768 60.4424 39.2256 59.5188 39.2256H57.8463C56.9226 39.2256 56.1738 38.6768 56.1738 37.9998V36.7739Z" fill="#F5F5F5"/>
<path d="M61.1912 36.7739H66.2086V37.9998C66.2086 38.6768 65.4598 39.2256 64.5361 39.2256H62.8636C61.9399 39.2256 61.1912 38.6768 61.1912 37.9998V36.7739Z" fill="#F5F5F5"/>
<path fill-rule="evenodd" clip-rule="evenodd" d="M165.76 49.4978C165.76 57.616 160.163 64.4411 152.578 66.4033C152.688 67.19 152.744 67.9933 152.744 68.8098C152.744 78.4598 144.836 86.2827 135.081 86.2827C129.169 86.2827 123.936 83.4096 120.729 78.9979C117.752 81.2598 114.025 82.6043 109.981 82.6043C100.226 82.6043 92.3176 74.7814 92.3176 65.1314C92.3176 61.3957 93.5028 57.9337 95.5214 55.0935C91.3125 51.8998 88.5989 46.8739 88.5989 41.2211C88.5989 31.5711 96.5071 23.7482 106.262 23.7482C109.326 23.7482 112.207 24.5197 114.719 25.877C117.65 20.2438 123.587 16.3911 130.433 16.3911C139.56 16.3911 147.071 23.2395 147.999 32.0251L148.097 32.0249C157.852 32.0249 165.76 39.8478 165.76 49.4978Z" fill="#858585"/>
<ellipse cx="125.888" cy="46.6107" rx="2.41772" ry="3.66042" transform="rotate(28.3107 125.888 46.6107)" fill="#FF7272"/>
<path d="M129.627 39.6575C128.849 42.5334 130.574 45.4899 133.482 46.261C136.389 47.0321 139.376 45.3257 140.155 42.4498C140.933 39.5738 139.208 36.6173 136.301 35.8463C133.394 35.0752 130.406 36.7815 129.627 39.6575Z" fill="white"/>
<path d="M129.895 39.9598C129.371 41.896 130.533 43.8862 132.49 44.405C134.447 44.9238 136.459 43.7748 136.983 41.8386C137.508 39.9024 136.346 37.9122 134.389 37.3934C132.432 36.8746 130.42 38.0236 129.895 39.9598Z" fill="black"/>
<path d="M116.995 36.3091C116.217 39.185 117.942 42.1415 120.849 42.9126C123.756 43.6837 126.744 41.9774 127.522 39.1014C128.301 36.2255 126.575 33.269 123.668 32.4979C120.761 31.7268 117.774 33.4331 116.995 36.3091Z" fill="white"/>
<path d="M117.429 36.0643C116.905 38.0005 118.066 39.9907 120.024 40.5095C121.981 41.0283 123.993 39.8793 124.517 37.9431C125.042 36.0069 123.88 34.0167 121.923 33.4979C119.966 32.9791 117.954 34.1281 117.429 36.0643Z" fill="black"/>
<path d="M139.923 106.941C134.335 102.242 140.491 94.6928 144.913 91.2295C145.426 90.828 146.171 91.0409 146.423 91.6418C151.196 103.058 147.333 107.402 142.895 107.872C141.825 107.985 140.746 107.633 139.923 106.941Z" fill="#99E5FF"/>
<path d="M121.127 111.44C118.476 108.636 121.685 104.544 124.287 102.411C124.784 102.004 125.522 102.214 125.765 102.81C128.334 109.098 126.461 111.765 123.987 112.326C122.959 112.56 121.851 112.206 121.127 111.44Z" fill="#99E5FF"/>
<path d="M103.507 102.968C98.8602 98.6444 104.259 91.7192 108.23 88.4227C108.745 87.9951 109.516 88.2135 109.758 88.8376C113.786 99.1952 110.479 103.322 106.582 103.934C105.473 104.109 104.328 103.733 103.507 102.968Z" fill="#99E5FF"/>
<path d="M81.6515 105.16C79.0009 102.356 82.2094 98.2633 84.8117 96.1309C85.3091 95.7233 86.0462 95.934 86.2896 96.5295C88.8592 102.817 86.9855 105.485 84.5121 106.046C83.4834 106.28 82.3757 105.926 81.6515 105.16Z" fill="#99E5FF"/>
<path d="M71.738 82.7174C66.1495 78.0177 72.3055 70.469 76.7279 67.0056C77.2406 66.6041 77.9863 66.817 78.2375 67.4179C83.0108 78.834 79.1478 83.1784 74.7096 83.6483C73.6398 83.7616 72.5609 83.4094 71.738 82.7174Z" fill="#99E5FF"/>
</g>
<defs>
<clipPath id="clip0_1884_67790">
<rect width="175" height="114" fill="white"/>
</clipPath>
</defs>
</svg>
