<svg width="390" height="844" viewBox="0 0 390 844" fill="none" xmlns="http://www.w3.org/2000/svg">
<g clip-path="url(#clip0_1_12740)">
<rect width="390" height="844" fill="#00BFFE"/>
<path fill-rule="evenodd" clip-rule="evenodd" d="M232.165 601.045C232.165 602.471 232.221 603.883 232.331 605.281C214.107 607.536 200 623.075 200 641.909C200 662.293 216.525 678.818 236.909 678.818H285.333H329.277H398.791C413.351 678.818 425.155 667.015 425.155 652.455C425.155 637.894 413.351 626.091 398.791 626.091H396.573C397.729 622.336 398.351 618.353 398.351 614.227C398.351 591.659 379.75 573.364 356.804 573.364C349.624 573.364 342.87 575.155 336.977 578.308C328.248 559.82 309.203 547 287.113 547C256.766 547 232.165 571.197 232.165 601.045Z" fill="#E5F9FF"/>
<path fill-rule="evenodd" clip-rule="evenodd" d="M105.324 136.736C105.324 137.573 105.291 138.402 105.226 139.223C115.928 140.547 124.211 149.671 124.211 160.731C124.211 172.7 114.508 182.404 102.538 182.404L74.1037 182.404L48.2999 182.404C48.2938 182.404 48.2877 182.404 48.2815 182.404H7.4808C-1.069 182.404 -7.99997 175.473 -7.99997 166.923C-7.99997 158.373 -1.06899 151.442 7.4808 151.442H8.78348C8.10452 149.238 7.73946 146.899 7.73946 144.476C7.73946 131.224 18.662 120.481 32.1356 120.481C36.3517 120.481 40.3181 121.533 43.7782 123.384C48.9039 112.528 60.0872 105 73.0582 105C90.8781 105 105.324 119.209 105.324 136.736Z" fill="#E5F9FF"/>
<path fill-rule="evenodd" clip-rule="evenodd" d="M156.165 633.045C156.165 634.471 156.221 635.883 156.331 637.281C138.107 639.536 124 655.075 124 673.909C124 694.293 140.525 710.818 160.909 710.818H209.333H253.277H322.791C337.351 710.818 349.155 699.015 349.155 684.455C349.155 669.894 337.351 658.091 322.791 658.091H320.573C321.729 654.336 322.351 650.353 322.351 646.227C322.351 623.659 303.75 605.364 280.804 605.364C273.624 605.364 266.87 607.155 260.977 610.308C252.248 591.82 233.203 579 211.113 579C180.766 579 156.165 603.197 156.165 633.045Z" fill="white"/>
<path fill-rule="evenodd" clip-rule="evenodd" d="M284.263 44.8629C286.172 38.5792 292.079 34 299.071 34C305.632 34 311.238 38.032 313.482 43.7208C314.112 43.6302 314.756 43.5833 315.411 43.5833C322.728 43.5833 328.66 49.4341 328.66 56.6514C328.66 56.7766 328.658 56.9013 328.655 57.0256C335.235 58.5339 340.143 64.4248 340.143 71.462C340.143 79.6416 333.512 86.2725 325.332 86.2725H272.811C264.631 86.2725 258 79.6416 258 71.462C258 65.0727 262.046 59.6283 267.715 57.5512L267.715 57.5228C267.715 50.3054 273.647 44.4546 280.964 44.4546C282.103 44.4546 283.208 44.5964 284.263 44.8629Z" fill="white"/>
<path fill-rule="evenodd" clip-rule="evenodd" d="M91.9963 333.95C91.1118 329.872 90.6463 325.641 90.6463 321.303C90.6463 287.999 118.087 261 151.938 261C174.545 261 194.293 273.042 204.918 290.963C213.756 282.77 225.665 277.75 238.767 277.75C266.035 277.75 288.14 299.499 288.14 326.328C288.14 330.386 287.634 334.328 286.681 338.095C310.225 339.098 329 358.195 329 381.606C329 405.66 309.182 425.159 284.734 425.159C279.868 425.159 275.186 424.386 270.806 422.959C271.01 424.781 271.114 426.633 271.114 428.509C271.114 456.262 248.247 478.761 220.038 478.761C199.06 478.761 181.036 466.318 173.174 448.525C166.5 458.657 154.906 465.36 141.72 465.36C121.034 465.36 104.264 448.861 104.264 428.508C104.264 427.343 104.319 426.191 104.427 425.054C79.6117 423.413 60 403.089 60 378.258C60 357.757 73.3685 340.328 91.9963 333.95Z" fill="white"/>
<circle cx="130.243" cy="375.335" r="27.9377" fill="#00BFFE"/>
<circle cx="130.243" cy="375.335" r="11.9733" fill="white"/>
<path fill-rule="evenodd" clip-rule="evenodd" d="M279.227 379.331C279.414 378.026 279.511 376.692 279.511 375.335C279.511 359.906 267.002 347.397 251.573 347.397C236.143 347.397 223.635 359.906 223.635 375.335C223.635 390.765 236.143 403.273 251.573 403.273C260.484 403.273 268.421 399.101 273.537 392.603C274.999 394.252 277.133 395.291 279.511 395.291C283.919 395.291 287.493 391.717 287.493 387.309C287.493 382.9 283.919 379.326 279.511 379.326C279.416 379.326 279.321 379.328 279.227 379.331Z" fill="#00BFFE"/>
<circle cx="251.573" cy="375.335" r="11.9733" fill="white"/>
<path d="M162.97 395.291V355.38C162.97 350.971 166.544 347.397 170.953 347.397C175.361 347.397 178.935 350.971 178.935 355.38V367.353H202.881V355.38C202.881 350.971 206.455 347.397 210.864 347.397C215.272 347.397 218.846 350.971 218.846 355.38V395.291C218.846 399.699 215.272 403.273 210.864 403.273C206.455 403.273 202.881 399.699 202.881 395.291V383.317H178.935V395.291C178.935 399.699 175.361 403.273 170.953 403.273C166.544 403.273 162.97 399.699 162.97 395.291Z" fill="#00BFFE"/>
</g>
<defs>
<clipPath id="clip0_1_12740">
<rect width="390" height="844" fill="white"/>
</clipPath>
</defs>
</svg>
