<svg width="40" height="40" viewBox="0 0 40 40" fill="none" xmlns="http://www.w3.org/2000/svg">
<path d="M19.5921 0.224843C19.7797 -0.0749477 20.2203 -0.0749478 20.4079 0.224843L22.1061 2.93857C22.2634 3.18985 22.6118 3.23944 22.8342 3.0422L25.2359 0.912108C25.5012 0.676792 25.9238 0.799665 26.0185 1.13964L26.8758 4.21715C26.9552 4.50211 27.2753 4.64687 27.5448 4.51966L30.4554 3.14576C30.7769 2.99398 31.1475 3.22978 31.1416 3.5824L31.0884 6.77437C31.0835 7.06993 31.3495 7.29812 31.6443 7.25123L34.8279 6.74484C35.1796 6.6889 35.4681 7.01851 35.3621 7.35521L34.4028 10.403C34.3139 10.6853 34.5042 10.9784 34.8004 11.0156L37.9991 11.4178C38.3525 11.4622 38.5355 11.8589 38.338 12.1524L36.5502 14.8092C36.3847 15.0552 36.4839 15.3896 36.7575 15.5079L39.7122 16.786C40.0386 16.9272 40.1013 17.3589 39.8283 17.5854L37.3569 19.6359C37.1281 19.8258 37.1281 20.1742 37.3569 20.3641L39.8283 22.4146C40.1013 22.6411 40.0386 23.0728 39.7122 23.214L36.7575 24.4921C36.4839 24.6104 36.3847 24.9448 36.5502 25.1908L38.338 27.8476C38.5355 28.1411 38.3525 28.5378 37.9991 28.5822L34.8004 28.9844C34.5042 29.0216 34.3139 29.3147 34.4028 29.597L35.3621 32.6448C35.4681 32.9815 35.1796 33.3111 34.8279 33.2552L31.6443 32.7488C31.3495 32.7019 31.0835 32.9301 31.0884 33.2256L31.1416 36.4176C31.1475 36.7702 30.7769 37.006 30.4554 36.8542L27.5448 35.4803C27.2753 35.3531 26.9552 35.4979 26.8758 35.7828L26.0185 38.8604C25.9238 39.2003 25.5012 39.3232 25.2359 39.0879L22.8342 36.9578C22.6118 36.7606 22.2634 36.8102 22.1061 37.0614L20.4079 39.7752C20.2203 40.0749 19.7797 40.0749 19.5921 39.7752L17.8939 37.0614C17.7366 36.8102 17.3882 36.7606 17.1658 36.9578L14.7641 39.0879C14.4988 39.3232 14.0762 39.2003 13.9815 38.8604L13.1242 35.7828C13.0448 35.4979 12.7247 35.3531 12.4552 35.4803L9.54461 36.8542C9.22307 37.006 8.85249 36.7702 8.85837 36.4176L8.91156 33.2256C8.91648 32.9301 8.65049 32.7019 8.3557 32.7488L5.1721 33.2552C4.8204 33.3111 4.53193 32.9815 4.63791 32.6448L5.59725 29.597C5.68608 29.3147 5.49579 29.0216 5.1996 28.9844L2.00086 28.5822C1.64749 28.5378 1.46449 28.1411 1.66199 27.8476L3.44976 25.1908C3.6153 24.9448 3.51614 24.6104 3.24254 24.4921L0.287802 23.214C-0.0386142 23.0728 -0.101305 22.6411 0.171711 22.4146L2.64307 20.3641C2.87191 20.1742 2.87191 19.8258 2.64307 19.6359L0.171712 17.5854C-0.101305 17.3589 -0.0386143 16.9272 0.287802 16.786L3.24254 15.5079C3.51614 15.3896 3.6153 15.0552 3.44976 14.8092L1.66199 12.1524C1.46449 11.8589 1.64748 11.4622 2.00086 11.4178L5.1996 11.0156C5.49579 10.9784 5.68608 10.6853 5.59725 10.403L4.63791 7.35521C4.53193 7.01851 4.8204 6.6889 5.1721 6.74484L8.3557 7.25123C8.65049 7.29812 8.91648 7.06993 8.91156 6.77437L8.85837 3.5824C8.85249 3.22978 9.22307 2.99398 9.54461 3.14576L12.4552 4.51966C12.7247 4.64687 13.0448 4.50211 13.1242 4.21715L13.9815 1.13964C14.0762 0.799665 14.4988 0.676792 14.7641 0.912108L17.1658 3.0422C17.3882 3.23944 17.7366 3.18985 17.8939 2.93857L19.5921 0.224843Z" fill="#FF8F89"/>
<path d="M35 20C35 28.2843 28.2843 35 20 35C11.7157 35 5 28.2843 5 20C5 11.7157 11.7157 5 20 5C28.2843 5 35 11.7157 35 20Z" fill="#FFFD9B"/>
<path fill-rule="evenodd" clip-rule="evenodd" d="M7.00005 9.99994C7.00002 9.99994 7 9.99996 7 9.99999C7 13.866 10.134 17 14 17C17.866 17 21 13.866 21 9.99999C21 9.99996 21 9.99994 21 9.99994H7.00005Z" fill="#408CFF"/>
<path fill-rule="evenodd" clip-rule="evenodd" d="M18.9385 9.99994C18.9385 9.99994 18.9385 9.99996 18.9385 9.99999C18.9385 13.866 22.0725 17 25.9385 17C29.8045 17 32.9385 13.866 32.9385 9.99999C32.9385 9.99996 32.9385 9.99994 32.9384 9.99994H18.9385Z" fill="#408CFF"/>
<path fill-rule="evenodd" clip-rule="evenodd" d="M10.0005 11C9.4482 11 8.99005 11.4522 9.09921 11.9936C9.56001 14.279 11.5793 16 14.0005 16C16.4217 16 18.441 14.279 18.9018 11.9936C19.0109 11.4522 18.5528 11 18.0005 11H10.0005Z" fill="black"/>
<path fill-rule="evenodd" clip-rule="evenodd" d="M21.9175 11C21.3652 11 20.907 11.4522 21.0162 11.9936C21.477 14.279 23.4963 16 25.9175 16C28.3387 16 30.3579 14.279 30.8187 11.9936C30.9279 11.4522 30.4698 11 29.9175 11H21.9175Z" fill="black"/>
<rect x="5" y="11" width="4" height="2" rx="1" fill="#408CFF"/>
<rect x="31" y="11" width="4" height="2" rx="1" fill="#408CFF"/>
<path fill-rule="evenodd" clip-rule="evenodd" d="M16.0117 17C16.0039 17.0707 16 17.1422 16 17.2143C16 18.7528 17.7909 20 20 20C22.2091 20 24 18.7528 24 17.2143C24 17.1422 23.9961 17.0707 23.9883 17L16.0117 17Z" fill="#FF7272"/>
<path d="M18 17H20V17.4186C20 17.7397 19.6529 18 19.2248 18H18.7752C18.3471 18 18 17.7397 18 17.4186V17Z" fill="white"/>
<path d="M20 17H22V17.4186C22 17.7397 21.6529 18 21.2248 18H20.7752C20.3471 18 20 17.7397 20 17.4186V17Z" fill="white"/>
</svg>
