<svg width="167" height="85" viewBox="0 0 167 85" fill="none" xmlns="http://www.w3.org/2000/svg">
<g clip-path="url(#clip0_1193_19660)">
<rect width="167" height="85" rx="5" fill="white"/>
<g clip-path="url(#clip1_1193_19660)">
<path d="M167.06 5.13V80.19C167.06 80.3 167.06 80.4 167.04 80.5C166.87 82.96 164.91 84.92 162.46 85.11C162.41 85.11 162.35 85.12 162.3 85.12C162.22 85.13 162.14 85.13 162.06 85.13H5.06C2.29 85.13 0.0599976 82.89 0.0599976 80.13V5.13C0.0599976 2.36 2.29 0.130005 5.06 0.130005H162.06C164.82 0.130005 167.06 2.36 167.06 5.13Z" fill="#FF8A66"/>
<path d="M83.11 65.75C91.3335 65.75 98 59.0835 98 50.86C98 42.6365 91.3335 35.97 83.11 35.97C74.8865 35.97 68.22 42.6365 68.22 50.86C68.22 59.0835 74.8865 65.75 83.11 65.75Z" fill="#FFF4D9"/>
<path d="M167.06 55.12V80.19C167.06 80.3 167.06 80.4 167.04 80.5C166.87 82.96 164.91 84.92 162.46 85.11C162.41 85.11 162.35 85.12 162.3 85.12C162.22 85.13 162.14 85.13 162.06 85.13H5.06C2.29 85.13 0.0599976 82.89 0.0599976 80.13V54.88C0.759998 54.47 1.54 54.13 2.41 53.86C8.99 51.84 16.03 49.87 22.98 50.31C26.48 50.53 29.76 51.16 33 52.45C36.29 53.76 38.94 56.01 42.13 57.42C47.34 59.73 54.52 58.64 60.04 58.68C67.17 58.74 74.31 58.77 81.44 58.68C93.81 58.54 106.68 56.61 118.99 57.78C122.23 58.08 125.49 58.98 128.74 59.09C131.27 59.17 132.47 58.29 134.78 57.24C140.15 54.78 145.55 53.62 151.43 53.18C156.47 52.8 162.68 52.29 167.06 55.12Z" fill="#901B00"/>
<path d="M160.58 60.68C157.43 61.42 154.31 62.71 151.39 64.13C149.89 64.86 148.13 66.37 146.43 66.98C146.43 66.98 146.423 66.98 146.41 66.98C146.12 67.09 145.83 67.17 145.55 67.21C144.73 67.33 143.84 67.2 142.96 66.99H142.95C142.07 66.78 141.19 66.49 140.4 66.3C137.08 65.49 133.62 64.69 130.18 64.7C126.81 64.71 123.94 65.79 121.11 67C118.66 68.05 116.24 69.18 113.56 69.8C107.49 71.18 100.01 69.76 93.8 69.56C86.36 69.32 78.93 69.08 71.49 68.85C68.74 68.76 66.02 68.82 63.34 68.23C61.82 67.9 60.33 67.46 58.84 67.02H58.83C56.83 66.42 54.84 65.8 52.79 65.38C37.96 62.34 22.61 61.06 7.61 59.02C4.95 58.66 2.27 58.98 0.0599976 60.1V80.13C0.0599976 82.89 2.29 85.13 5.06 85.13H162.06C162.14 85.13 162.22 85.13 162.3 85.12C162.35 85.12 162.41 85.11 162.46 85.11C164.91 84.92 166.87 82.96 167.04 80.5C167.06 80.4 167.06 80.3 167.06 80.19V60.19C165 59.97 162.8 60.16 160.58 60.68ZM160.65 76.16C160.48 76.12 160.23 76.17 159.93 76.26C159.87 76.22 159.82 76.18 159.76 76.13C160 76.07 160.29 76.07 160.65 76.16Z" fill="#6A1B07"/>
<path d="M162.3 85.12C162.22 85.13 162.14 85.13 162.06 85.13H5.06C2.29 85.13 0.0599976 82.89 0.0599976 80.13V72.44C0.109998 72.42 0.149997 72.41 0.199997 72.41H0.210007C1.96001 72.03 3.96 72.2 5.81 72.84C6.02 72.75 6.23 72.67 6.44 72.58C7.13 72.35 7.82 72.18 8.5 72.07C9.51 71.91 10.53 71.87 11.6 71.93H11.66C13.77 72.06 15.57 72.62 17.34 73.68C17.34 73.7 17.72 73.98 18.21 74.34C20.04 74.2 22.17 74.04 23.88 74.34C25.99 74.7 27.53 74.88 29.71 74.55C30.27 74.46 30.84 74.38 31.4 74.29C37.57 73.32 43.7 72.24 49.93 71.64C63.11 70.37 76.42 70.51 89.56 72.07C102.3 73.58 114.83 77.62 127.72 76.05C133.3 75.38 138.54 74.68 144 74.94C145.34 74.99 146.7 75.11 148.08 75.31C150.93 75.71 153.74 76.29 156.51 77C157.23 77.18 157.94 77.37 158.65 77.58C158.68 77.58 158.7 77.58 158.73 77.6C160.33 78.04 161.92 78.52 163.5 79.02C164.69 79.4 165.88 79.8 167.06 80.2C167.06 80.31 167.06 80.41 167.04 80.51C166.87 82.97 164.91 84.93 162.46 85.12C162.41 85.12 162.35 85.13 162.3 85.13V85.12Z" fill="#370B00"/>
<rect width="167" height="85" fill="black" fill-opacity="0.25"/>
</g>
<path d="M58.2613 35.7188C60.4019 35.7188 61.9957 37.0469 62.0113 38.9062C61.9957 40.7812 60.4019 42.0938 58.2613 42.0938C56.1051 42.0938 54.5113 40.7812 54.5113 38.9062C54.5113 37.0469 56.1051 35.7188 58.2613 35.7188ZM58.2613 37.1562C57.0738 37.1562 56.1988 37.8281 56.1988 38.9062C56.1988 40 57.0738 40.6875 58.2613 40.6875C59.4488 40.6875 60.3238 40 60.3238 38.9062C60.3238 37.8281 59.4488 37.1562 58.2613 37.1562ZM66.0269 35.2656V42.4062H64.2769V35.2656H66.0269ZM66.0269 43.0156V46.7031H58.3863V47.8438H66.4488V49.2188H56.6832V45.4219H64.2926V44.375H56.6519V43.0156H66.0269ZM80.5564 41.1719V42.5781H67.6814V41.1719H73.2283V40.1094H69.3064V35.7031H78.9002V40.1094H74.9471V41.1719H80.5564ZM71.0096 37.0625V38.75H77.1658V37.0625H71.0096ZM78.9471 43.4375V46.9062H70.9158V47.9375H79.3377V49.2656H69.2127V45.6562H77.2439V44.75H69.1971V43.4375H78.9471ZM86.1953 36.1562L82.5547 49.7031H80.8047L84.4609 36.1562H86.1953ZM90.4279 35.7188C92.5686 35.7188 94.1623 37.0469 94.1779 38.9062C94.1623 40.7812 92.5686 42.0938 90.4279 42.0938C88.2717 42.0938 86.6779 40.7812 86.6779 38.9062C86.6779 37.0469 88.2717 35.7188 90.4279 35.7188ZM90.4279 37.1562C89.2404 37.1562 88.3654 37.8281 88.3654 38.9062C88.3654 40 89.2404 40.6875 90.4279 40.6875C91.6154 40.6875 92.4904 40 92.4904 38.9062C92.4904 37.8281 91.6154 37.1562 90.4279 37.1562ZM98.1936 35.2656V42.4062H96.4436V35.2656H98.1936ZM98.1936 43.0156V46.7031H90.5529V47.8438H98.6154V49.2188H88.8498V45.4219H96.4592V44.375H88.8186V43.0156H98.1936ZM112.692 41.375V42.6562H107.129V43.6875H111.114V47H103.082V47.9688H111.504V49.2656H101.379V45.8125H109.411V44.9375H101.364V43.6875H105.411V42.6562H99.8793V41.375H112.692ZM107.129 35.2344V36.4219H111.457V37.7188H107.317C107.653 38.7188 109.293 39.4688 112.114 39.6094L111.598 40.9062C109.067 40.75 107.161 40.0625 106.27 38.9219C105.379 40.0625 103.481 40.75 100.926 40.9062L100.442 39.6094C103.231 39.4688 104.872 38.7188 105.239 37.7188H101.114V36.4219H105.411V35.2344H107.129Z" fill="white"/>
</g>
<defs>
<clipPath id="clip0_1193_19660">
<rect width="167" height="85" rx="5" fill="white"/>
</clipPath>
<clipPath id="clip1_1193_19660">
<rect width="167" height="85" fill="white"/>
</clipPath>
</defs>
</svg>
