<svg width="36" height="46" viewBox="0 0 36 46" fill="none" xmlns="http://www.w3.org/2000/svg">
<path d="M12.4238 32.344L15.2748 24.9523L20.7351 24.5668L19.116 28.93L23.41 30.261L20.7918 34.2045L25.3596 34.8625L18.237 45.6606L19.7204 37.2216L16.1281 36.6581L17.3483 33.4671L12.4238 32.344Z" fill="#D6D6D6"/>
<path fill-rule="evenodd" clip-rule="evenodd" d="M30.7201 8.44156C30.7201 8.96135 30.6707 9.47016 30.5761 9.96399C33.7271 10.9579 36 13.7824 36 17.1114C36 20.7477 33.2884 23.7818 29.6825 24.4862C29.1814 27.6723 26.2906 30.1159 22.7994 30.1159C20.0473 30.1159 17.6682 28.5974 16.5388 26.3936C15.8687 28.2919 13.9822 29.6595 11.7596 29.6595C9.05524 29.6595 6.84835 27.6347 6.72509 25.0927C2.98995 24.975 0 22.0595 0 18.4801C0 15.3765 2.24792 12.772 5.28044 12.0577C5.29981 7.91525 8.83823 4.56289 13.2003 4.56289C13.4476 4.56289 13.6922 4.57366 13.9337 4.59474C15.4054 1.86676 18.3934 0 21.8402 0C26.7444 0 30.7201 3.77942 30.7201 8.44156Z" fill="#707070"/>
<path fill-rule="evenodd" clip-rule="evenodd" d="M22.5288 15.6582C22.6341 15.6726 22.7257 15.7387 22.7742 15.8352L23.6071 17.491C23.689 17.6537 23.6261 17.8533 23.4668 17.9368C23.3074 18.0204 23.1119 17.9562 23.03 17.7935L22.4102 16.5612L21.2406 17.8658C21.1718 17.9426 21.0716 17.9819 20.97 17.9719C20.8685 17.9618 20.7776 17.9036 20.7245 17.8147L19.9597 16.5351L18.7667 17.8658C18.7014 17.9387 18.6077 17.9779 18.5112 17.973C18.4146 17.968 18.3252 17.9194 18.2674 17.8402L17.3306 16.5576L16.4869 17.8281C16.4275 17.9175 16.3291 17.9718 16.2233 17.9734C16.1174 17.975 16.0175 17.9237 15.9555 17.8361L15.0725 16.5875L14.3525 17.8126C14.2604 17.9695 14.0611 18.0203 13.9075 17.9262C13.7539 17.8321 13.7041 17.6287 13.7963 17.4719L14.7693 15.8161C14.8254 15.7206 14.9248 15.6603 15.0337 15.6556C15.1426 15.6508 15.2466 15.7023 15.3105 15.7926L16.2101 17.0647L17.0495 15.8006C17.1084 15.7119 17.2057 15.6578 17.3107 15.6554C17.4156 15.6529 17.5152 15.7025 17.578 15.7885L18.553 17.1233L19.7725 15.7629C19.8414 15.686 19.9416 15.6468 20.0431 15.6568C20.1446 15.6669 20.2356 15.7251 20.2887 15.8139L21.0535 17.0936L22.2464 15.7629C22.3181 15.6829 22.4236 15.6438 22.5288 15.6582Z" fill="#333333"/>
<path d="M23.3264 11.224C24.3223 12.122 24.3899 13.6446 23.4775 14.6248C22.565 15.6049 21.0179 15.6715 20.022 14.7735C19.0261 13.8755 18.9585 12.3529 19.8709 11.3727C20.7834 10.3926 22.3304 10.326 23.3264 11.224Z" fill="white"/>
<path d="M22.6888 11.7196C23.3594 12.3243 23.4049 13.3494 22.7906 14.0093C22.1762 14.6692 21.1346 14.714 20.4641 14.1094C19.7936 13.5048 19.748 12.4797 20.3624 11.8198C20.9767 11.1598 22.0183 11.115 22.6888 11.7196Z" fill="#333333"/>
<path d="M17.7834 11.1635C18.7793 12.0615 18.847 13.5841 17.9345 14.5642C17.022 15.5444 15.475 15.611 14.4791 14.7129C13.4831 13.8149 13.4155 12.2923 14.3279 11.3122C15.2404 10.332 16.7875 10.2654 17.7834 11.1635Z" fill="white"/>
<path d="M17.1459 11.6591C17.8164 12.2637 17.8619 13.2888 17.2476 13.9487C16.6333 14.6087 15.5917 14.6535 14.9211 14.0489C14.2506 13.4442 14.2051 12.4191 14.8194 11.7592C15.4337 11.0993 16.4753 11.0545 17.1459 11.6591Z" fill="#333333"/>
</svg>
