<svg width="70" height="70" viewBox="0 0 70 70" fill="none" xmlns="http://www.w3.org/2000/svg">
<path d="M28.5214 47.0493L31.3725 39.6577L36.8327 39.2722L35.2137 43.6353L39.5076 44.9663L36.8895 48.9098L41.4573 49.5678L34.3347 60.3659L35.818 51.9269L32.2257 51.3635L33.4459 48.1724L28.5214 47.0493Z" fill="#D6D6D6"/>
<path fill-rule="evenodd" clip-rule="evenodd" d="M45.4772 21.3676C46.5478 20.9097 47.7322 20.6554 48.9779 20.6554C53.6467 20.6554 57.4532 24.2273 57.6376 28.7008C59.6909 30.3877 61 32.9429 61 35.803C61 40.8824 56.8711 45 51.7779 45H18.2221C13.1289 45 9 40.8824 9 35.803C9 32.4211 10.8303 29.4656 13.5569 27.8678C14.1087 24.0536 17.3125 21.0619 21.3069 20.6936C21.3031 20.5914 21.3012 20.4886 21.3012 20.3855C21.3012 15.7543 25.1814 12 29.9678 12C33.4564 12 36.4635 13.9942 37.8378 16.8688C41.1569 16.8841 44.035 18.7046 45.4772 21.3676Z" fill="#EBEBEB"/>
<path fill-rule="evenodd" clip-rule="evenodd" d="M35.2329 26C35.2329 26 35.2329 26 35.2329 26C35.2329 28.2091 37.0654 30 39.3259 30C41.5864 30 43.4189 28.2091 43.4189 26C43.4189 26 43.4189 26 43.4189 26L35.2329 26Z" fill="white"/>
<path fill-rule="evenodd" clip-rule="evenodd" d="M25.0005 26C25.0005 26 25.0005 26 25.0005 26C25.0005 28.2091 26.833 30 29.0935 30C31.354 30 33.1865 28.2091 33.1865 26C33.1865 26 33.1865 26 33.1865 26L25.0005 26Z" fill="white"/>
<path fill-rule="evenodd" clip-rule="evenodd" d="M36.6054 26L41.7217 26C41.7217 27.1046 40.5764 28 39.1635 28C37.7507 28 36.6054 27.1046 36.6054 26Z" fill="#333333"/>
<path fill-rule="evenodd" clip-rule="evenodd" d="M26.6054 26L31.7217 26C31.7217 27.1046 30.5764 28 29.1635 28C27.7507 28 26.6054 27.1046 26.6054 26Z" fill="#333333"/>
<path fill-rule="evenodd" clip-rule="evenodd" d="M32.1027 31.6195C33.5331 30.7963 34.8965 31.3194 35.3845 31.6706C35.4957 31.7506 35.6506 31.7253 35.7306 31.6142C35.8106 31.5031 35.7853 31.3481 35.6742 31.2681C35.0772 30.8385 33.5014 30.2424 31.8553 31.1897C31.7367 31.258 31.6958 31.4095 31.7641 31.5282C31.8324 31.6469 31.984 31.6878 32.1027 31.6195Z" fill="#333333"/>
<path d="M56.7271 54.4441C55.2326 53.9881 55.521 51.8852 55.996 50.6005C56.0868 50.3549 56.3869 50.28 56.5927 50.4417C58.7665 52.1495 58.6544 53.4759 57.9053 54.1774C57.5938 54.4692 57.1354 54.5687 56.7271 54.4441Z" fill="#E0E0E0"/>
<path d="M13.7271 50.4441C12.2326 49.9881 12.521 47.8852 12.996 46.6005C13.0868 46.3549 13.3869 46.28 13.5927 46.4417C15.7665 48.1495 15.6544 49.4759 14.9053 50.1774C14.5938 50.4692 14.1354 50.5687 13.7271 50.4441Z" fill="#E0E0E0"/>
<path d="M17.7271 58.4441C16.2326 57.9881 16.521 55.8852 16.996 54.6005C17.0868 54.3549 17.3869 54.28 17.5927 54.4417C19.7665 56.1495 19.6544 57.4759 18.9053 58.1774C18.5938 58.4692 18.1354 58.5687 17.7271 58.4441Z" fill="#E0E0E0"/>
<path d="M29.7271 59.4441C28.2326 58.9881 28.521 56.8852 28.996 55.6005C29.0868 55.3549 29.3869 55.28 29.5927 55.4417C31.7665 57.1495 31.6544 58.4759 30.9053 59.1774C30.5938 59.4692 30.1354 59.5687 29.7271 59.4441Z" fill="#E0E0E0"/>
<path d="M49.7271 50.4441C48.2326 49.9881 48.521 47.8852 48.996 46.6005C49.0868 46.3549 49.3869 46.28 49.5927 46.4417C51.7665 48.1495 51.6544 49.4759 50.9053 50.1774C50.5938 50.4692 50.1354 50.5687 49.7271 50.4441Z" fill="#E0E0E0"/>
<path d="M46.8293 57.8863C44.3297 57.2968 44.8072 53.7445 45.5234 51.7691C45.6164 51.5128 45.9295 51.4338 46.141 51.6058C49.6501 54.4607 49.3343 56.5957 48.0989 57.6042C47.7472 57.8913 47.2713 57.9905 46.8293 57.8863Z" fill="#E0E0E0"/>
<path d="M22.8293 52.8863C20.3297 52.2968 20.8072 48.7445 21.5234 46.7691C21.6164 46.5128 21.9295 46.4338 22.141 46.6058C25.6501 49.4607 25.3343 51.5957 24.0989 52.6042C23.7472 52.8913 23.2713 52.9905 22.8293 52.8863Z" fill="#E0E0E0"/>
</svg>
