<svg width="52" height="49" viewBox="0 0 52 49" fill="none" xmlns="http://www.w3.org/2000/svg">
<rect width="52" height="48.7061" fill="white"/>
<path d="M19.5214 35.0493L22.3725 27.6577L27.8327 27.2722L26.2137 31.6353L30.5076 32.9663L27.8895 36.9098L32.4573 37.5678L25.3347 48.3659L26.818 39.9269L23.2257 39.3635L24.4459 36.1724L19.5214 35.0493Z" fill="#FFFD9B"/>
<path fill-rule="evenodd" clip-rule="evenodd" d="M36.4772 9.36762C37.5478 8.90972 38.7322 8.6554 39.9779 8.6554C44.6467 8.6554 48.4532 12.2273 48.6376 16.7008C50.6909 18.3877 52 20.9429 52 23.803C52 28.8824 47.8711 33 42.7779 33H9.22206C4.12886 33 0 28.8824 0 23.803C0 20.4211 1.83031 17.4656 4.55692 15.8678C5.10874 12.0536 8.31246 9.06195 12.3069 8.69359C12.3031 8.59135 12.3012 8.48865 12.3012 8.3855C12.3012 3.75432 16.1814 0 20.9678 0C24.4564 0 27.4635 1.99425 28.8378 4.86876C32.1569 4.88406 35.035 6.70456 36.4772 9.36762Z" fill="#EBEBEB"/>
<path fill-rule="evenodd" clip-rule="evenodd" d="M26.2329 14C26.2329 14 26.2329 14 26.2329 14C26.2329 16.2091 28.0654 18 30.3259 18C32.5864 18 34.4189 16.2091 34.4189 14C34.4189 14 34.4189 14 34.4189 14L26.2329 14Z" fill="white"/>
<path fill-rule="evenodd" clip-rule="evenodd" d="M16.0005 14C16.0005 14 16.0005 14 16.0005 14C16.0005 16.2091 17.833 18 20.0935 18C22.354 18 24.1865 16.2091 24.1865 14C24.1865 14 24.1865 14 24.1865 14L16.0005 14Z" fill="white"/>
<path fill-rule="evenodd" clip-rule="evenodd" d="M27.6054 14L32.7217 14C32.7217 15.1046 31.5764 16 30.1635 16C28.7507 16 27.6054 15.1046 27.6054 14Z" fill="black"/>
<path fill-rule="evenodd" clip-rule="evenodd" d="M17.6054 14L22.7217 14C22.7217 15.1046 21.5764 16 20.1635 16C18.7507 16 17.6054 15.1046 17.6054 14Z" fill="black"/>
<path fill-rule="evenodd" clip-rule="evenodd" d="M23.1027 19.6195C24.5331 18.7963 25.8965 19.3194 26.3845 19.6706C26.4957 19.7506 26.6506 19.7253 26.7306 19.6142C26.8106 19.5031 26.7853 19.3481 26.6742 19.2681C26.0772 18.8385 24.5014 18.2424 22.8553 19.1897C22.7367 19.258 22.6958 19.4095 22.7641 19.5282C22.8324 19.6469 22.984 19.6878 23.1027 19.6195Z" fill="black"/>
<path d="M47.7271 42.4441C46.2326 41.9881 46.521 39.8852 46.996 38.6005C47.0868 38.3549 47.3869 38.28 47.5927 38.4417C49.7665 40.1495 49.6544 41.4759 48.9053 42.1774C48.5938 42.4692 48.1354 42.5687 47.7271 42.4441Z" fill="#99E5FF"/>
<path d="M4.72707 38.4441C3.23261 37.9881 3.52103 35.8852 3.99604 34.6005C4.08684 34.3549 4.38686 34.28 4.59272 34.4417C6.76649 36.1495 6.65437 37.4759 5.90534 38.1774C5.59378 38.4692 5.13542 38.5687 4.72707 38.4441Z" fill="#99E5FF"/>
<path d="M8.72707 46.4441C7.23261 45.9881 7.52103 43.8852 7.99604 42.6005C8.08684 42.3549 8.38686 42.28 8.59272 42.4417C10.7665 44.1495 10.6544 45.4759 9.90534 46.1774C9.59378 46.4692 9.13542 46.5687 8.72707 46.4441Z" fill="#99E5FF"/>
<path d="M20.7271 47.4441C19.2326 46.9881 19.521 44.8852 19.996 43.6005C20.0868 43.3549 20.3869 43.28 20.5927 43.4417C22.7665 45.1495 22.6544 46.4759 21.9053 47.1774C21.5938 47.4692 21.1354 47.5687 20.7271 47.4441Z" fill="#99E5FF"/>
<path d="M40.7271 38.4441C39.2326 37.9881 39.521 35.8852 39.996 34.6005C40.0868 34.3549 40.3869 34.28 40.5927 34.4417C42.7665 36.1495 42.6544 37.4759 41.9053 38.1774C41.5938 38.4692 41.1354 38.5687 40.7271 38.4441Z" fill="#99E5FF"/>
<path d="M37.8293 45.8863C35.3297 45.2968 35.8072 41.7445 36.5234 39.7691C36.6164 39.5128 36.9295 39.4338 37.141 39.6058C40.6501 42.4607 40.3343 44.5957 39.0989 45.6042C38.7472 45.8913 38.2713 45.9905 37.8293 45.8863Z" fill="#99E5FF"/>
<path d="M13.8293 40.8863C11.3297 40.2968 11.8072 36.7445 12.5234 34.7691C12.6164 34.5128 12.9295 34.4338 13.141 34.6058C16.6501 37.4607 16.3343 39.5957 15.0989 40.6042C14.7472 40.8913 14.2713 40.9905 13.8293 40.8863Z" fill="#99E5FF"/>
</svg>
