<svg width="70" height="70" viewBox="0 0 70 70" fill="none" xmlns="http://www.w3.org/2000/svg">
<path d="M28.5214 47.0491L31.3725 39.6574L36.8327 39.2719L35.2137 43.6351L39.5076 44.9661L36.8895 48.9095L41.4573 49.5675L34.3347 60.3657L35.818 51.9267L32.2257 51.3632L33.4459 48.1721L28.5214 47.0491Z" fill="#D6D6D6"/>
<path fill-rule="evenodd" clip-rule="evenodd" d="M45.4772 21.3676C46.5478 20.9097 47.7322 20.6554 48.9779 20.6554C53.6467 20.6554 57.4532 24.2273 57.6376 28.7008C59.6909 30.3877 61 32.9429 61 35.803C61 40.8824 56.8711 45 51.7779 45H18.2221C13.1289 45 9 40.8824 9 35.803C9 32.4211 10.8303 29.4656 13.5569 27.8678C14.1087 24.0536 17.3125 21.0619 21.3069 20.6936C21.3031 20.5914 21.3012 20.4886 21.3012 20.3855C21.3012 15.7543 25.1814 12 29.9678 12C33.4564 12 36.4635 13.9942 37.8378 16.8688C41.1569 16.8841 44.035 18.7046 45.4772 21.3676Z" fill="#EBEBEB"/>
<path fill-rule="evenodd" clip-rule="evenodd" d="M35.2319 26C35.2319 26 35.2319 26 35.2319 26C35.2319 28.2091 37.0644 30 39.3249 30C41.5855 30 43.418 28.2091 43.418 26C43.418 26 43.418 26 43.418 26L35.2319 26Z" fill="white"/>
<path fill-rule="evenodd" clip-rule="evenodd" d="M24.9975 26C24.9975 26 24.9975 26 24.9975 26C24.9975 28.2091 26.8301 30 29.0906 30C31.3511 30 33.1836 28.2091 33.1836 26C33.1836 26 33.1836 26 33.1836 26L24.9975 26Z" fill="white"/>
<path fill-rule="evenodd" clip-rule="evenodd" d="M36.6025 26L41.7188 26C41.7187 27.1046 40.5734 28 39.1606 28C37.7478 28 36.6025 27.1046 36.6025 26Z" fill="#333333"/>
<path fill-rule="evenodd" clip-rule="evenodd" d="M26.6025 26L31.7188 26C31.7187 27.1046 30.5734 28 29.1606 28C27.7478 28 26.6025 27.1046 26.6025 26Z" fill="#333333"/>
<path fill-rule="evenodd" clip-rule="evenodd" d="M32.1007 31.6195C33.5311 30.7963 34.8945 31.3194 35.3826 31.6706C35.4937 31.7506 35.6487 31.7253 35.7287 31.6142C35.8086 31.5031 35.7834 31.3481 35.6722 31.2681C35.0753 30.8385 33.4995 30.2424 31.8534 31.1897C31.7347 31.258 31.6939 31.4095 31.7622 31.5282C31.8304 31.6469 31.982 31.6878 32.1007 31.6195Z" fill="#333333"/>
<path d="M56.7261 54.4441C55.2316 53.9881 55.5201 51.8852 55.9951 50.6005C56.0859 50.3549 56.3859 50.28 56.5917 50.4417C58.7655 52.1495 58.6534 53.4759 57.9044 54.1774C57.5928 54.4692 57.1344 54.5687 56.7261 54.4441Z" fill="#E0E0E0"/>
<path d="M13.7261 50.4441C12.2316 49.9881 12.5201 47.8852 12.9951 46.6005C13.0859 46.3549 13.3859 46.28 13.5917 46.4417C15.7655 48.1495 15.6534 49.4759 14.9044 50.1774C14.5928 50.4692 14.1344 50.5687 13.7261 50.4441Z" fill="#E0E0E0"/>
<path d="M17.7261 58.4441C16.2316 57.9881 16.5201 55.8852 16.9951 54.6005C17.0859 54.3549 17.3859 54.28 17.5917 54.4417C19.7655 56.1495 19.6534 57.4759 18.9044 58.1774C18.5928 58.4692 18.1344 58.5687 17.7261 58.4441Z" fill="#E0E0E0"/>
<path d="M29.7261 59.4441C28.2316 58.9881 28.5201 56.8852 28.9951 55.6005C29.0859 55.3549 29.3859 55.28 29.5917 55.4417C31.7655 57.1495 31.6534 58.4759 30.9044 59.1774C30.5928 59.4692 30.1344 59.5687 29.7261 59.4441Z" fill="#E0E0E0"/>
<path d="M49.7261 50.4441C48.2316 49.9881 48.5201 47.8852 48.9951 46.6005C49.0859 46.3549 49.3859 46.28 49.5917 46.4417C51.7655 48.1495 51.6534 49.4759 50.9044 50.1774C50.5928 50.4692 50.1344 50.5687 49.7261 50.4441Z" fill="#E0E0E0"/>
<path d="M46.8293 57.8863C44.3297 57.2968 44.8072 53.7445 45.5234 51.7691C45.6164 51.5128 45.9295 51.4338 46.141 51.6058C49.6501 54.4607 49.3343 56.5957 48.0989 57.6042C47.7472 57.8913 47.2713 57.9905 46.8293 57.8863Z" fill="#E0E0E0"/>
<path d="M22.8293 52.8863C20.3297 52.2968 20.8072 48.7445 21.5234 46.7691C21.6164 46.5128 21.9295 46.4338 22.141 46.6058C25.6501 49.4607 25.3343 51.5957 24.0989 52.6042C23.7472 52.8913 23.2713 52.9905 22.8293 52.8863Z" fill="#E0E0E0"/>
</svg>
