<svg width="36" height="46" viewBox="0 0 36 46" fill="none" xmlns="http://www.w3.org/2000/svg">
<path d="M12.4238 32.3435L15.2748 24.9518L20.7351 24.5664L19.116 28.9295L23.41 30.2605L20.7918 34.204L25.3596 34.862L18.237 45.6601L19.7204 37.2211L16.1281 36.6577L17.3483 33.4666L12.4238 32.3435Z" fill="#FFFD9B"/>
<path fill-rule="evenodd" clip-rule="evenodd" d="M30.7201 8.44156C30.7201 8.96135 30.6707 9.47016 30.5761 9.96399C33.7271 10.9579 36 13.7824 36 17.1114C36 20.7477 33.2884 23.7818 29.6825 24.4862C29.1814 27.6723 26.2906 30.1159 22.7994 30.1159C20.0473 30.1159 17.6682 28.5974 16.5388 26.3936C15.8687 28.2919 13.9822 29.6595 11.7596 29.6595C9.05524 29.6595 6.84835 27.6347 6.72509 25.0927C2.98995 24.975 0 22.0595 0 18.4801C0 15.3765 2.24792 12.772 5.28044 12.0577C5.29981 7.91525 8.83823 4.56289 13.2003 4.56289C13.4476 4.56289 13.6922 4.57366 13.9337 4.59474C15.4054 1.86676 18.3934 0 21.8402 0C26.7444 0 30.7201 3.77942 30.7201 8.44156Z" fill="#707070"/>
<path fill-rule="evenodd" clip-rule="evenodd" d="M22.5288 15.6581C22.6341 15.6725 22.7257 15.7386 22.7742 15.835L23.6071 17.4908C23.689 17.6535 23.6261 17.8532 23.4668 17.9367C23.3074 18.0203 23.1119 17.9561 23.03 17.7934L22.4102 16.5611L21.2406 17.8657C21.1718 17.9425 21.0716 17.9818 20.97 17.9717C20.8685 17.9617 20.7776 17.9035 20.7245 17.8146L19.9597 16.5349L18.7667 17.8657C18.7014 17.9385 18.6077 17.9778 18.5112 17.9729C18.4146 17.9679 18.3252 17.9192 18.2674 17.8401L17.3306 16.5575L16.4869 17.828C16.4275 17.9174 16.3291 17.9716 16.2233 17.9732C16.1174 17.9748 16.0175 17.9236 15.9555 17.836L15.0725 16.5874L14.3525 17.8125C14.2604 17.9693 14.0611 18.0202 13.9075 17.9261C13.7539 17.832 13.7041 17.6286 13.7963 17.4717L14.7693 15.8159C14.8254 15.7205 14.9248 15.6602 15.0337 15.6555C15.1426 15.6507 15.2466 15.7022 15.3105 15.7925L16.2101 17.0646L17.0495 15.8005C17.1084 15.7118 17.2057 15.6577 17.3107 15.6552C17.4156 15.6528 17.5152 15.7024 17.578 15.7883L18.553 17.1231L19.7725 15.7627C19.8414 15.6859 19.9416 15.6467 20.0431 15.6567C20.1446 15.6667 20.2356 15.7249 20.2887 15.8138L21.0535 17.0935L22.2464 15.7627C22.3181 15.6828 22.4236 15.6437 22.5288 15.6581Z" fill="#202020"/>
<path d="M23.3273 11.2239C24.3233 12.1219 24.3909 13.6445 23.4784 14.6246C22.566 15.6048 21.0189 15.6714 20.023 14.7733C19.0271 13.8753 18.9594 12.3527 19.8719 11.3726C20.7844 10.3924 22.3314 10.3258 23.3273 11.2239Z" fill="white"/>
<path d="M22.6888 11.7197C23.3594 12.3243 23.4049 13.3495 22.7906 14.0094C22.1762 14.6693 21.1346 14.7141 20.4641 14.1095C19.7936 13.5049 19.748 12.4798 20.3624 11.8199C20.9767 11.1599 22.0183 11.1151 22.6888 11.7197Z" fill="black"/>
<path d="M17.7844 11.1634C18.7803 12.0614 18.8479 13.584 17.9355 14.5642C17.023 15.5443 15.476 15.6109 14.48 14.7129C13.4841 13.8148 13.4165 12.2923 14.3289 11.3121C15.2414 10.332 16.7884 10.2654 17.7844 11.1634Z" fill="white"/>
<path d="M17.1459 11.6593C17.8164 12.2639 17.8619 13.289 17.2476 13.9489C16.6333 14.6088 15.5917 14.6537 14.9211 14.049C14.2506 13.4444 14.2051 12.4193 14.8194 11.7594C15.4337 11.0995 16.4753 11.0547 17.1459 11.6593Z" fill="black"/>
</svg>
