<svg width="22" height="22" viewBox="0 0 22 22" fill="none" xmlns="http://www.w3.org/2000/svg">
<path d="M1.84033 6.37744L13.8674 1.99995L16.9942 10.5907L4.96711 14.9682L1.84033 6.37744Z" fill="white"/>
<path fill-rule="evenodd" clip-rule="evenodd" d="M0.900614 6.6798C0.711721 6.16083 0.979308 5.58698 1.49829 5.39809L13.5253 1.0206C14.0443 0.831706 14.6182 1.09929 14.8071 1.61827L17.9338 10.209C18.1227 10.728 17.8551 11.3019 17.3362 11.4907L5.30911 15.8682C4.79013 16.0571 4.21629 15.7895 4.02739 15.2706L0.900614 6.6798ZM3.12202 6.93546L5.56476 13.6468L15.7124 9.95338L13.2697 3.242L3.12202 6.93546Z" fill="#D6D6D6"/>
<path d="M9.40332 10.1284L20 12.9678L18.1071 20.0323L7.5104 17.1929L9.40332 10.1284Z" fill="white"/>
<path fill-rule="evenodd" clip-rule="evenodd" d="M8.43747 9.86961C8.58041 9.33615 9.12875 9.01956 9.66221 9.16251L20.2589 12.0019C20.7924 12.1448 21.109 12.6932 20.966 13.2266L19.0731 20.2911C18.9302 20.8246 18.3818 21.1411 17.8484 20.9982L7.25166 18.1588C6.71819 18.0159 6.40161 17.4675 6.54455 16.9341L8.43747 9.86961ZM10.1105 11.3532L8.73522 16.4858L17.4001 18.8075L18.7754 13.6749L10.1105 11.3532Z" fill="#D6D6D6"/>
</svg>
