<svg width="53" height="45" viewBox="0 0 53 45" fill="none" xmlns="http://www.w3.org/2000/svg">
<path fill-rule="evenodd" clip-rule="evenodd" d="M32.2159 3.66787C33.6385 2.39795 35.509 1.62709 37.5579 1.62709C42.0119 1.62709 45.6225 5.26951 45.6225 9.76267C45.6225 11.2934 45.2034 12.7253 44.4748 13.9482C48.2498 15.0892 51 18.6114 51 22.7797C51 27.8719 46.8954 32 41.832 32H10.1679C5.10463 32 1 27.8719 1 22.7797C1 18.5795 3.79251 15.0352 7.61217 13.9224C7.50733 13.4568 7.45197 12.9722 7.45197 12.4746C7.45197 8.88007 10.3405 5.96613 13.9036 5.96613C14.5055 5.96613 15.0882 6.04928 15.6409 6.20483C17.0506 2.57246 20.5553 0 24.6556 0C27.7148 0 30.4425 1.43203 32.2159 3.66787Z" fill="#E5F9FF"/>
<path fill-rule="evenodd" clip-rule="evenodd" d="M29.7788 18.0029C29.8841 18.0174 29.9757 18.0834 30.0242 18.1799L30.8571 19.8357C30.939 19.9984 30.8761 20.198 30.7168 20.2816C30.5574 20.3651 30.3619 20.301 30.28 20.1383L29.6602 18.9059L28.4906 20.2106C28.4218 20.2874 28.3216 20.3266 28.22 20.3166C28.1185 20.3065 28.0276 20.2483 27.9745 20.1595L27.2097 18.8798L26.0167 20.2106C25.9514 20.2834 25.8577 20.3227 25.7612 20.3177C25.6646 20.3128 25.5752 20.2641 25.5174 20.1849L24.5806 18.9023L23.7369 20.1728C23.6775 20.2623 23.5791 20.3165 23.4733 20.3181C23.3674 20.3197 23.2675 20.2685 23.2055 20.1808L22.3225 18.9323L21.6025 20.1574C21.5104 20.3142 21.3111 20.365 21.1575 20.2709C21.0039 20.1768 20.9541 19.9734 21.0463 19.8166L22.0193 18.1608C22.0754 18.0653 22.1748 18.005 22.2837 18.0003C22.3926 17.9956 22.4966 18.047 22.5605 18.1373L23.4601 19.4094L24.2995 18.1453C24.3584 18.0566 24.4557 18.0025 24.5607 18.0001C24.6656 17.9977 24.7652 18.0473 24.828 18.1332L25.803 19.468L27.0225 18.1076C27.0914 18.0308 27.1916 17.9915 27.2931 18.0015C27.3946 18.0116 27.4856 18.0698 27.5387 18.1587L28.3035 19.4384L29.4964 18.1076C29.5681 18.0276 29.6736 17.9885 29.7788 18.0029Z" fill="#0091BC"/>
<path d="M35.0034 10.5784C36.6431 12.3069 36.5668 15.0333 34.8329 16.668C33.099 18.3026 30.3642 18.2265 28.7245 16.498C27.0848 14.7694 27.1611 12.043 28.895 10.4084C30.6289 8.7737 33.3637 8.84982 35.0034 10.5784Z" fill="white"/>
<path d="M33.4891 11.4237C34.6603 12.6584 34.6057 14.6058 33.3672 15.7734C32.1288 16.941 30.1753 16.8867 29.0041 15.652C27.8329 14.4173 27.8874 12.4699 29.1259 11.3023C30.3644 10.1347 32.3178 10.189 33.4891 11.4237Z" fill="black"/>
<path d="M17.6138 10.5784C15.9741 12.3069 16.0504 15.0333 17.7843 16.668C19.5182 18.3026 22.253 18.2265 23.8927 16.498C25.5324 14.7694 25.456 12.043 23.7222 10.4084C21.9883 8.7737 19.2535 8.84982 17.6138 10.5784Z" fill="white"/>
<path d="M19.1281 11.4237C17.9569 12.6584 18.0115 14.6058 19.2499 15.7734C20.4884 16.941 22.4419 16.8867 23.6131 15.652C24.7843 14.4173 24.7298 12.4699 23.4913 11.3023C22.2528 10.1347 20.2993 10.189 19.1281 11.4237Z" fill="black"/>
<rect y="22" width="53" height="11" rx="2" fill="#FEFFC6"/>
<rect x="43" y="24" width="17" height="11" rx="2" transform="rotate(90 43 24)" fill="#FEFFC6"/>
<rect x="35" y="39" width="6" height="1" rx="0.5" transform="rotate(90 35 39)" fill="#ACB4F8"/>
<rect x="37" y="39" width="6" height="1" rx="0.5" transform="rotate(90 37 39)" fill="#ACB4F8"/>
<rect x="39" y="39" width="6" height="1" rx="0.5" transform="rotate(90 39 39)" fill="#ACB4F8"/>
<rect x="41" y="39" width="6" height="1" rx="0.5" transform="rotate(90 41 39)" fill="#ACB4F8"/>
<rect x="4" y="22" width="5" height="11" fill="#ACB4F8"/>
<rect x="13" y="22" width="5" height="11" fill="#ACB4F8"/>
<rect x="22" y="22" width="5" height="11" fill="#ACB4F8"/>
<path d="M43 36L43 39C43 40.1046 42.1046 41 41 41L34 41C32.8954 41 32 40.1046 32 39L32 36L43 36Z" fill="#ACB4F8"/>
<rect x="31" y="22" width="5" height="11" fill="#ACB4F8"/>
<rect x="40" y="22" width="5" height="11" fill="#ACB4F8"/>
<path d="M49 22H51C52.1046 22 53 22.8954 53 24V31C53 32.1046 52.1046 33 51 33H49V22Z" fill="#ACB4F8"/>
</svg>
