<svg width="54" height="45" viewBox="0 0 54 45" fill="none" xmlns="http://www.w3.org/2000/svg">
<path fill-rule="evenodd" clip-rule="evenodd" d="M11.8718 16.0173L40.3078 0.642267C40.6875 0.436949 41.0462 0.943384 40.7209 1.22553L25.3742 14.5355C25.0634 14.8051 25.3786 15.296 25.7578 15.133L44.839 6.93472C45.2188 6.77156 45.5339 7.26376 45.2219 7.53286L31.1726 19.6531C30.8674 19.9165 31.163 20.4009 31.5412 20.2571L48.6718 13.7434C49.0561 13.5973 49.3502 14.0969 49.0316 14.3547L32.1637 28.004C31.8583 28.2512 32.1162 28.7343 32.4951 28.6248L52.405 22.87C52.8223 22.7494 53.0616 23.3244 52.6792 23.5287L24.2859 38.698C24.2705 38.7062 24.2548 38.7132 24.2389 38.719C24.1491 38.7697 24.0585 38.8194 23.9671 38.8683C17.6285 42.2547 9.71159 39.9229 6.28419 33.66C2.85679 27.3972 5.2168 19.5748 11.5554 16.1884C11.6439 16.1411 11.7326 16.095 11.8217 16.05C11.8372 16.0379 11.8539 16.027 11.8718 16.0173Z" fill="#FF8F89"/>
<path d="M25.0159 23.4676C27.6817 28.3387 25.8461 34.4227 20.9161 37.0566C15.9861 39.6905 9.82846 37.8769 7.16271 33.0058C4.49696 28.1347 6.33252 22.0506 11.2626 19.4167C16.1926 16.7828 22.3502 18.5965 25.0159 23.4676Z" fill="#FFFD9B"/>
<path d="M11.498 27.119C12.5241 28.191 12.4763 29.882 11.3913 30.8958C10.3063 31.9096 8.5949 31.8624 7.56882 30.7903C6.54274 29.7183 6.59052 28.0273 7.67554 27.0135C8.76056 25.9997 10.4719 26.0469 11.498 27.119Z" fill="white"/>
<path d="M10.2156 28.0585C10.9065 28.7803 10.8743 29.9188 10.1438 30.6014C9.41327 31.2839 8.26104 31.2522 7.5702 30.5304C6.87937 29.8086 6.91154 28.6701 7.64205 27.9875C8.37257 27.3049 9.5248 27.3367 10.2156 28.0585Z" fill="black"/>
<path d="M16.9179 24.2234C17.944 25.2955 17.8963 26.9864 16.8112 28.0002C15.7262 29.0141 14.0148 28.9669 12.9887 27.8948C11.9627 26.8227 12.0104 25.1318 13.0955 24.118C14.1805 23.1042 15.8919 23.1514 16.9179 24.2234Z" fill="white"/>
<path d="M15.6356 25.163C16.3264 25.8848 16.2942 27.0233 15.5637 27.7058C14.8332 28.3884 13.681 28.3566 12.9901 27.6349C12.2993 26.9131 12.3315 25.7746 13.062 25.092C13.7925 24.4094 14.9447 24.4412 15.6356 25.163Z" fill="black"/>
<path d="M10.4886 33.0602C10.2506 32.6253 10.4145 32.0821 10.8546 31.8469L16.912 28.6107C17.3522 28.3756 17.902 28.5375 18.14 28.9724C18.378 29.4074 18.2141 29.9506 17.7739 30.1857L11.7166 33.4219C11.2764 33.6571 10.7266 33.4952 10.4886 33.0602Z" fill="#FF7272"/>
</svg>
