<svg width="70" height="70" viewBox="0 0 70 70" fill="none" xmlns="http://www.w3.org/2000/svg">
<path fill-rule="evenodd" clip-rule="evenodd" d="M41.2159 16.6679C42.6385 15.3979 44.509 14.6271 46.5579 14.6271C51.0119 14.6271 54.6225 18.2695 54.6225 22.7627C54.6225 24.2934 54.2034 25.7253 53.4748 26.9482C57.2498 28.0892 60 31.6114 60 35.7797C60 40.8719 55.8954 45 50.832 45H19.1679C14.1046 45 10 40.8719 10 35.7797C10 31.5795 12.7925 28.0352 16.6122 26.9224C16.5073 26.4568 16.452 25.9722 16.452 25.4746C16.452 21.8801 19.3405 18.9661 22.9036 18.9661C23.5055 18.9661 24.0882 19.0493 24.6409 19.2048C26.0506 15.5725 29.5553 13 33.6556 13C36.7148 13 39.4425 14.432 41.2159 16.6679Z" fill="#E5F9FF"/>
<path fill-rule="evenodd" clip-rule="evenodd" d="M38.7788 31.0029C38.8841 31.0174 38.9757 31.0834 39.0242 31.1799L39.8571 32.8357C39.939 32.9984 39.8761 33.198 39.7168 33.2816C39.5574 33.3651 39.3619 33.301 39.28 33.1383L38.6602 31.9059L37.4906 33.2106C37.4218 33.2874 37.3216 33.3266 37.22 33.3166C37.1185 33.3065 37.0276 33.2483 36.9745 33.1595L36.2097 31.8798L35.0167 33.2106C34.9514 33.2834 34.8577 33.3227 34.7612 33.3177C34.6646 33.3128 34.5752 33.2641 34.5174 33.1849L33.5806 31.9023L32.7369 33.1728C32.6775 33.2623 32.5791 33.3165 32.4733 33.3181C32.3674 33.3197 32.2675 33.2685 32.2055 33.1808L31.3225 31.9323L30.6025 33.1574C30.5104 33.3142 30.3111 33.365 30.1575 33.2709C30.0039 33.1768 29.9541 32.9734 30.0463 32.8166L31.0193 31.1608C31.0754 31.0653 31.1748 31.005 31.2837 31.0003C31.3926 30.9956 31.4966 31.047 31.5605 31.1373L32.4601 32.4094L33.2995 31.1453C33.3584 31.0566 33.4557 31.0025 33.5607 31.0001C33.6656 30.9977 33.7652 31.0473 33.828 31.1332L34.803 32.468L36.0225 31.1076C36.0914 31.0308 36.1916 30.9915 36.2931 31.0015C36.3946 31.0116 36.4856 31.0698 36.5387 31.1587L37.3035 32.4384L38.4964 31.1076C38.5681 31.0276 38.6736 30.9885 38.7788 31.0029Z" fill="#0091BC"/>
<path d="M44.0034 23.5784C45.6431 25.3069 45.5668 28.0333 43.8329 29.668C42.099 31.3026 39.3642 31.2265 37.7245 29.498C36.0848 27.7694 36.1611 25.043 37.895 23.4084C39.6289 21.7737 42.3637 21.8498 44.0034 23.5784Z" fill="white"/>
<path d="M42.4891 24.4237C43.6603 25.6584 43.6057 27.6058 42.3672 28.7734C41.1288 29.941 39.1753 29.8867 38.0041 28.652C36.8329 27.4173 36.8874 25.4699 38.1259 24.3023C39.3644 23.1347 41.3178 23.189 42.4891 24.4237Z" fill="black"/>
<path d="M26.6138 23.5784C24.9741 25.3069 25.0504 28.0333 26.7843 29.668C28.5182 31.3026 31.253 31.2265 32.8927 29.498C34.5324 27.7694 34.456 25.043 32.7222 23.4084C30.9883 21.7737 28.2535 21.8498 26.6138 23.5784Z" fill="white"/>
<path d="M28.1281 24.4237C26.9569 25.6584 27.0115 27.6058 28.2499 28.7734C29.4884 29.941 31.4419 29.8867 32.6131 28.652C33.7843 27.4173 33.7298 25.4699 32.4913 24.3023C31.2528 23.1347 29.2993 23.189 28.1281 24.4237Z" fill="black"/>
<rect x="9" y="35" width="53" height="11" rx="2" fill="#FEFFC6"/>
<rect x="52" y="37" width="17" height="11" rx="2" transform="rotate(90 52 37)" fill="#FEFFC6"/>
<rect x="44" y="52" width="6" height="1" rx="0.5" transform="rotate(90 44 52)" fill="#ACB4F8"/>
<rect x="46" y="52" width="6" height="1" rx="0.5" transform="rotate(90 46 52)" fill="#ACB4F8"/>
<rect x="48" y="52" width="6" height="1" rx="0.5" transform="rotate(90 48 52)" fill="#ACB4F8"/>
<rect x="50" y="52" width="6" height="1" rx="0.5" transform="rotate(90 50 52)" fill="#ACB4F8"/>
<rect x="13" y="35" width="5" height="11" fill="#ACB4F8"/>
<rect x="22" y="35" width="5" height="11" fill="#ACB4F8"/>
<rect x="31" y="35" width="5" height="11" fill="#ACB4F8"/>
<path d="M52 49L52 52C52 53.1046 51.1046 54 50 54L43 54C41.8954 54 41 53.1046 41 52L41 49L52 49Z" fill="#ACB4F8"/>
<rect x="40" y="35" width="5" height="11" fill="#ACB4F8"/>
<rect x="49" y="35" width="5" height="11" fill="#ACB4F8"/>
<path d="M58 35H60C61.1046 35 62 35.8954 62 37V44C62 45.1046 61.1046 46 60 46H58V35Z" fill="#ACB4F8"/>
</svg>
