<svg width="54" height="45" viewBox="0 0 54 45" fill="none" xmlns="http://www.w3.org/2000/svg">
<path fill-rule="evenodd" clip-rule="evenodd" d="M11.8718 16.0172L40.3078 0.642084C40.6875 0.436766 41.0462 0.943201 40.7209 1.22535L25.3742 14.5353C25.0634 14.8049 25.3786 15.2958 25.7578 15.1328L44.839 6.93453C45.2188 6.77137 45.5339 7.26358 45.2219 7.53268L31.1726 19.653C30.8674 19.9163 31.163 20.4007 31.5412 20.2569L48.6718 13.7432C49.0561 13.5971 49.3502 14.0967 49.0316 14.3545L32.1637 28.0039C31.8583 28.251 32.1162 28.7341 32.4951 28.6246L52.405 22.8698C52.8223 22.7492 53.0616 23.3242 52.6792 23.5285L24.2859 38.6978C24.2705 38.706 24.2548 38.713 24.2389 38.7188C24.1491 38.7695 24.0585 38.8193 23.9671 38.8681C17.6285 42.2546 9.71159 39.9227 6.28419 33.6599C2.85679 27.397 5.2168 19.5747 11.5554 16.1882C11.6439 16.141 11.7326 16.0948 11.8217 16.0498C11.8372 16.0378 11.8539 16.0268 11.8718 16.0172Z" fill="#C2C2C2"/>
<path d="M25.0159 23.4673C27.6817 28.3384 25.8461 34.4225 20.9161 37.0564C15.9861 39.6903 9.82846 37.8766 7.16271 33.0055C4.49696 28.1344 6.33252 22.0503 11.2626 19.4164C16.1926 16.7825 22.3502 18.5962 25.0159 23.4673Z" fill="#F5F5F5"/>
<path d="M11.498 27.1194C12.5241 28.1914 12.4763 29.8824 11.3913 30.8962C10.3063 31.91 8.5949 31.8628 7.56882 30.7907C6.54274 29.7187 6.59052 28.0277 7.67554 27.0139C8.76056 26.0001 10.4719 26.0473 11.498 27.1194Z" fill="white"/>
<path d="M10.2166 28.0587C10.9075 28.7805 10.8753 29.919 10.1448 30.6015C9.41425 31.2841 8.26202 31.2523 7.57118 30.5305C6.88035 29.8088 6.91251 28.6703 7.64303 27.9877C8.37355 27.3051 9.52578 27.3369 10.2166 28.0587Z" fill="#333333"/>
<path d="M16.916 24.2239C17.9421 25.2959 17.8943 26.9868 16.8093 28.0007C15.7243 29.0145 14.0129 28.9673 12.9868 27.8952C11.9607 26.8232 12.0085 25.1322 13.0935 24.1184C14.1785 23.1046 15.8899 23.1518 16.916 24.2239Z" fill="white"/>
<path d="M15.6346 25.1632C16.3254 25.885 16.2933 27.0234 15.5627 27.706C14.8322 28.3886 13.68 28.3568 12.9891 27.635C12.2983 26.9132 12.3305 25.7748 13.061 25.0922C13.7915 24.4096 14.9437 24.4414 15.6346 25.1632Z" fill="#333333"/>
<path d="M10.4896 33.06C10.2515 32.625 10.4154 32.0818 10.8556 31.8466L16.913 28.6105C17.3531 28.3753 17.9029 28.5372 18.1409 28.9722C18.379 29.4071 18.2151 29.9503 17.7749 30.1855L11.7175 33.4216C11.2774 33.6568 10.7276 33.4949 10.4896 33.06Z" fill="#707070"/>
</svg>
