<svg width="16" height="16" viewBox="0 0 16 16" fill="none" xmlns="http://www.w3.org/2000/svg">
<path d="M8 5C10.6667 5 12.4444 7 13 8C11.3333 10.25 9.66667 11 8 11C5.33333 11 3.55556 9 3 8C4.33333 5.6 6.88889 5 8 5Z" fill="#EBEBEB"/>
<path fill-rule="evenodd" clip-rule="evenodd" d="M5.1762 4.69647C6.26493 4.17772 7.32648 4 8 4C11.1242 4 13.2071 6.33054 13.888 7.55624C14.0562 7.85891 14.033 8.25961 13.8316 8.53149C11.938 11.0878 9.98376 12 8 12C4.87577 12 2.79291 9.66946 2.11197 8.44376C1.96268 8.17504 1.96268 7.82496 2.11197 7.55624C2.91951 6.10266 4.08408 5.21683 5.1762 4.69647ZM3.50377 7.99075C4.22212 8.96898 5.79512 10.4 8 10.4C9.45193 10.4 10.929 9.81309 12.4559 7.95505C11.72 6.97907 10.1645 5.6 8 5.6C7.48833 5.6 6.59432 5.74228 5.66824 6.18353C4.87813 6.56 4.0977 7.13776 3.50377 7.99075Z" fill="#EBEBEB"/>
<path d="M11 8C11 8.59334 10.8241 9.17336 10.4944 9.66671C10.1648 10.1601 9.69623 10.5446 9.14805 10.7716C8.59987 10.9987 7.99667 11.0581 7.41473 10.9424C6.83279 10.8266 6.29824 10.5409 5.87868 10.1213C5.45912 9.70176 5.1734 9.16721 5.05764 8.58527C4.94189 8.00333 5.0013 7.40013 5.22836 6.85195C5.45542 6.30377 5.83994 5.83524 6.33329 5.50559C6.82664 5.17595 7.40666 5 8 5V8H11Z" fill="#00BFFE"/>
</svg>
