<svg width="378" height="455" viewBox="0 0 378 455" fill="none" xmlns="http://www.w3.org/2000/svg">
<g filter="url(#filter0_d_302_6984)">
<g clip-path="url(#clip0_302_6984)">
<rect x="16" y="16" width="346" height="423" rx="15" fill="#00BFFE"/>
<path d="M45.6037 275.994L49.38 259.017L60.957 256.483L58.8648 266.484L68.4846 268.048L64.1194 277.446L74.1135 277.46L62.2603 303.179L62.7758 284.347L54.9014 284.236L56.5088 276.91L45.6037 275.994Z" fill="#FFFC74"/>
<path fill-rule="evenodd" clip-rule="evenodd" d="M73.9171 214.546C74.1557 215.664 74.2847 216.781 74.3112 217.886C81.439 218.601 87.548 223.65 89.0766 230.811C90.7463 238.634 86.3983 246.386 79.0874 249.531C79.4894 256.612 74.491 263.175 67.0994 264.753C61.2725 265.996 55.5383 263.805 52.1353 259.574C51.5882 263.961 48.2219 267.755 43.5163 268.76C37.7905 269.982 32.1883 266.623 30.7602 261.21C22.798 262.645 15.129 257.724 13.4854 250.024C12.0604 243.347 15.6238 236.728 21.7163 233.821C19.8552 224.901 25.8075 216.09 35.043 214.119C35.5665 214.008 36.0894 213.92 36.6104 213.856C38.4736 207.323 43.9428 201.957 51.2403 200.399C61.6236 198.183 71.7764 204.517 73.9171 214.546Z" fill="#707070"/>
<path fill-rule="evenodd" clip-rule="evenodd" d="M58.3316 230.963C58.5609 230.946 58.7858 231.045 58.9338 231.23L61.4742 234.402C61.7238 234.714 61.6848 235.172 61.3871 235.426C61.0894 235.679 60.6458 235.632 60.3961 235.32L58.5054 232.959L56.6459 236.304C56.5364 236.501 56.3429 236.631 56.1235 236.657C55.9042 236.682 55.6844 236.599 55.5303 236.433L53.3108 234.037L51.414 237.449C51.3102 237.636 51.1306 237.764 50.924 237.798C50.7175 237.832 50.5056 237.769 50.3461 237.625L47.7614 235.303L46.575 238.424C46.4914 238.643 46.3088 238.806 46.0857 238.858C45.8626 238.91 45.6271 238.847 45.4548 238.687L43.0001 236.413L42.0539 239.379C41.9327 239.758 41.5353 239.96 41.1662 239.829C40.7971 239.698 40.596 239.284 40.7172 238.904L41.996 234.895C42.0697 234.664 42.2514 234.489 42.4796 234.428C42.7077 234.368 42.9518 234.43 43.1293 234.594L45.6304 236.911L46.8108 233.807C46.8937 233.589 47.074 233.427 47.2948 233.373C47.5157 233.32 47.7496 233.38 47.9228 233.536L50.6127 235.953L52.5517 232.465C52.6612 232.268 52.8547 232.137 53.0741 232.111C53.2934 232.086 53.5132 232.169 53.6673 232.335L55.8867 234.731L57.7836 231.319C57.8975 231.114 58.1022 230.981 58.3316 230.963Z" fill="#202020"/>
<path d="M59.1566 220.877C61.5737 222.523 62.199 225.816 60.5533 228.234C58.9076 230.651 55.614 231.276 53.1969 229.63C50.7798 227.985 50.1544 224.691 51.8002 222.274C53.4459 219.857 56.7395 219.231 59.1566 220.877Z" fill="white"/>
<path d="M57.9445 222.154C59.5719 223.262 59.9929 225.48 58.8849 227.107C57.7769 228.734 55.5594 229.155 53.932 228.047C52.3046 226.939 51.8836 224.722 52.9916 223.094C54.0996 221.467 56.3171 221.046 57.9445 222.154Z" fill="black"/>
<path d="M47.3704 223.458C49.7876 225.103 50.4129 228.397 48.7672 230.814C47.1215 233.231 43.8279 233.857 41.4108 232.211C38.9936 230.565 38.3683 227.271 40.014 224.854C41.6597 222.437 44.9533 221.812 47.3704 223.458Z" fill="white"/>
<path d="M46.1593 224.735C47.7867 225.843 48.2078 228.06 47.0997 229.687C45.9917 231.315 43.7742 231.736 42.1468 230.628C40.5195 229.52 40.0984 227.302 41.2065 225.675C42.3145 224.048 44.532 223.627 46.1593 224.735Z" fill="black"/>
<path d="M47.0938 63.3594C47.0938 66.7812 48.5938 70.5078 52.3438 72.0312L50.5391 74.6797C48.043 73.6484 46.3906 71.6328 45.4297 69.1719C44.4922 71.8672 42.793 74.0938 40.2734 75.2188L38.3516 72.5703C42.0781 70.9297 43.6484 66.9922 43.6484 63.3594V62.5156H39.2422V59.7734H51.4062V62.5156H47.0938V63.3594ZM56.6328 57.7344V79.25H53.2344V57.7344H56.6328ZM76.3107 58.6719V60.4297C76.3107 62.0938 76.3107 63.9219 75.842 66.3125H78.5607V69.0078H58.8967V66.3125H72.4201C72.842 64.3438 72.924 62.7734 72.9357 61.3438H61.2639V58.6719H76.3107ZM76.1701 71.0938V79.0156H61.1936V71.0938H76.1701ZM64.4982 73.7188V76.3203H72.8186V73.7188H64.4982ZM103.831 69.6641V72.4062H95.6041V79.2734H92.2526V72.4062H84.1666V69.6641H103.831ZM93.9401 58.4141C98.5807 58.4141 101.862 60.3359 101.862 63.3359C101.862 66.2891 98.5807 68.1641 93.9401 68.1641C89.2994 68.1641 86.0416 66.2891 86.0651 63.3359C86.0416 60.3359 89.2994 58.4141 93.9401 58.4141ZM93.9401 61.0859C91.1979 61.1094 89.5338 61.8594 89.5338 63.3359C89.5338 64.7656 91.1979 65.5156 93.9401 65.5156C96.7057 65.5156 98.3698 64.7656 98.3698 63.3359C98.3698 61.8594 96.7057 61.1094 93.9401 61.0859ZM122.618 57.7344V79.2969H119.266V57.7344H122.618ZM115.915 59.4922V67.9766H109.141V71.5391C112.317 71.5156 114.966 71.3516 117.907 70.8594L118.188 73.5781C114.79 74.1875 111.626 74.3281 107.618 74.3281H105.649V65.3281H112.47V62.1875H105.649V59.4922H115.915ZM144.522 67.7422V70.3906H124.858V67.7422H133.038V66.125H127.202V58.6719H142.202V61.2969H130.577V63.4766H142.296V66.125H136.366V67.7422H144.522ZM134.632 71.3047C139.319 71.3047 142.132 72.7344 142.132 75.3125C142.132 77.8438 139.319 79.2969 134.632 79.2969C129.921 79.2969 127.062 77.8438 127.062 75.3125C127.062 72.7344 129.921 71.3047 134.632 71.3047ZM134.632 73.8594C131.796 73.8594 130.483 74.3281 130.507 75.3125C130.483 76.3203 131.796 76.7188 134.632 76.7188C137.397 76.7188 138.757 76.3203 138.757 75.3125C138.757 74.3281 137.397 73.8594 134.632 73.8594ZM149.341 59.7031V71.3047C151.193 71.2695 152.868 71.1289 154.732 70.7188L155.177 73.5312C152.599 74.1172 150.302 74.2109 147.49 74.1875H145.943V59.7031H149.341ZM163.896 57.7344V79.25H160.732V57.7344H163.896ZM159.279 58.1094V78.3359H156.115V67.1094H152.013V64.4141H156.115V58.1094H159.279ZM187.619 57.7344V61.625H190.408V64.3906H187.619V68.3047H184.244V57.7344H187.619ZM174.681 58.6719V65.0469C177.119 65.0117 179.791 64.7773 182.603 64.25L182.978 66.9688C179.486 67.6719 176.158 67.8594 173.181 67.8359H171.283V58.6719H174.681ZM187.619 69.1484V75.2656H176.603V76.3203H188.181V79.0156H173.205V72.7578H184.197V71.75H173.181V69.1484H187.619ZM209.383 57.7344V79.25H205.984V57.7344H209.383ZM196.562 62.7266C196.562 65.1992 196.762 67.9531 197.945 70.1328C199.117 67.9531 199.305 65.2461 199.305 62.7266V59.375H202.539V62.7266C202.516 66.3125 202.867 70.0625 205.656 72.2422L203.594 74.6328C202.223 73.5781 201.379 72.0078 200.875 70.1797C200.301 72.0781 199.398 73.7188 197.945 74.7969C196.504 73.7305 195.601 72.1133 195.039 70.25C194.547 71.9727 193.738 73.4609 192.461 74.4922L190.305 72.2422C193.094 70.0156 193.422 66.3125 193.422 62.7266V59.375H196.562V62.7266ZM228.639 63.4062V66.0312H213.522V58.5078H216.873V63.4062H228.639ZM230.795 68.1172V70.7656H211.131V68.1172H230.795ZM228.779 76.0859V78.7812H213.311V72.3828H216.686V76.0859H228.779ZM235.356 71.4922C235.356 68.6562 236.082 67.7891 237.418 66.9453C238.449 66.2891 239.246 65.6328 239.246 64.6016C239.246 63.5703 238.426 62.9141 237.418 62.9141C236.434 62.9141 235.52 63.6172 235.496 64.7891H231.77C231.817 61.3438 234.371 59.7969 237.442 59.7969C240.84 59.7969 243.301 61.4375 243.301 64.4141C243.301 66.3828 242.246 67.6016 240.676 68.5391C239.41 69.2891 238.801 69.9922 238.801 71.4922V71.8203H235.356V71.4922ZM237.137 77.2344C235.965 77.2344 235.004 76.2969 235.028 75.1016C235.004 73.9531 235.965 73.0156 237.137 73.0156C238.262 73.0156 239.246 73.9531 239.27 75.1016C239.246 76.2969 238.262 77.2344 237.137 77.2344Z" fill="white"/>
<path d="M49.6348 100.873V101.912H38.4512V100.873H43.4141V99.5742H39.8457V95.4727H48.2539V96.498H41.1309V98.5352H48.3359V99.5742H44.6719V100.873H49.6348ZM44.0293 102.705C46.668 102.705 48.2539 103.512 48.2539 104.934C48.2539 106.355 46.668 107.148 44.0293 107.162C41.377 107.148 39.7773 106.355 39.7773 104.934C39.7773 103.512 41.377 102.705 44.0293 102.705ZM44.0293 103.717C42.1562 103.717 41.0898 104.154 41.0898 104.934C41.0898 105.713 42.1562 106.15 44.0293 106.137C45.875 106.15 46.9551 105.713 46.9551 104.934C46.9551 104.154 45.875 103.717 44.0293 103.717ZM52.0022 96.1836V102.992C53.26 102.972 54.4494 102.89 55.8029 102.609L55.9807 103.717C54.3811 104.045 53.0275 104.113 51.51 104.113H50.7033V96.1836H52.0022ZM60.6701 94.9121V107.162H59.4397V94.9121H60.6701ZM58.0451 95.1855V106.561H56.8147V100.012H54.135V98.9453H56.8147V95.1855H58.0451ZM69.0963 98.0293C69.0826 100.203 70.3405 102.418 72.1725 103.307L71.3658 104.346C70.0328 103.655 69.0006 102.281 68.4674 100.641C67.9137 102.391 66.8405 103.854 65.4459 104.578L64.6393 103.525C66.526 102.623 67.7975 100.271 67.7975 98.0293V95.9375H69.0963V98.0293ZM74.3873 94.9121V99.793H76.3561V100.9H74.3873V107.162H73.0885V94.9121H74.3873ZM87.7059 100.887V101.939H76.536V100.887H79.2157V99.2324C78.2723 98.8496 77.7391 98.2344 77.7391 97.4277C77.7391 95.9785 79.4207 95.1309 82.1141 95.1309C84.7938 95.1309 86.4891 95.9785 86.4891 97.4277C86.4891 98.2344 85.9491 98.8564 84.9989 99.2324V100.887H87.7059ZM82.1141 102.773C84.7528 102.773 86.3387 103.553 86.3387 104.947C86.3387 106.369 84.7528 107.135 82.1141 107.135C79.4481 107.135 77.8621 106.369 77.8621 104.947C77.8621 103.553 79.4481 102.773 82.1141 102.773ZM82.1141 103.771C80.241 103.771 79.1746 104.195 79.1746 104.947C79.1746 105.713 80.241 106.15 82.1141 106.137C83.9598 106.15 85.0399 105.713 85.0399 104.947C85.0399 104.195 83.9598 103.771 82.1141 103.771ZM82.1141 96.1289C80.2137 96.1289 79.0653 96.6074 79.0789 97.4277C79.0653 98.248 80.2137 98.7129 82.1141 98.7129C84.0145 98.7129 85.1493 98.248 85.1493 97.4277C85.1493 96.6074 84.0145 96.1289 82.1141 96.1289ZM80.5282 100.887H83.7137V99.5742C83.2352 99.6562 82.6951 99.6973 82.1141 99.6973C81.5399 99.6973 81.0067 99.6562 80.5282 99.5879V100.887ZM92.4932 98.5215C92.4932 100.463 93.7647 102.623 95.6241 103.498L94.8858 104.51C93.5118 103.847 92.4248 102.466 91.878 100.859C91.3106 102.616 90.1621 104.127 88.7608 104.824L87.9952 103.799C89.8545 102.91 91.208 100.6 91.208 98.5215V97.2227H88.4463V96.1426H95.1592V97.2227H92.4932V98.5215ZM97.7705 94.9121V99.7656H99.7393V100.859H97.7705V107.162H96.4717V94.9121H97.7705ZM111.103 99.9297V100.969H99.9192V99.9297H111.103ZM109.777 98.002V99.041H101.382V95.2676H109.654V96.3203H102.681V98.002H109.777ZM109.681 101.939V104.906H102.544V106H110.023V107.025H101.273V103.949H108.396V102.938H101.259V101.939H109.681ZM118.433 96.2246V96.9766C118.433 98.002 118.433 99.5879 118.078 101.775L116.792 101.68C117.1 99.7178 117.134 98.3027 117.148 97.2773H112.171V96.2246H118.433ZM115.289 99.7246V103.389C116.594 103.348 117.92 103.259 119.144 103.102L119.212 104.072C116.656 104.482 113.812 104.537 111.638 104.523L111.488 103.471C112.253 103.464 113.108 103.457 114.003 103.43V99.7246H115.289ZM121.154 94.9121V99.9707H123.027V101.078H121.154V107.162H119.841V94.9121H121.154ZM135.937 94.9121V98.084H137.715V99.1914H135.937V102.295H134.639V94.9121H135.937ZM135.937 102.938V107.012H128.117V102.938H135.937ZM129.389 103.963V105.959H134.652V103.963H129.389ZM133.627 96.1562V97.1953H126.326V96.1562H129.334V94.8164H130.633V96.1562H133.627ZM129.976 97.7285C131.74 97.7285 132.943 98.6035 132.943 99.916C132.943 101.242 131.74 102.104 129.976 102.117C128.185 102.104 126.996 101.242 126.996 99.916C126.996 98.6035 128.185 97.7285 129.976 97.7285ZM129.976 98.7266C128.937 98.7129 128.24 99.1777 128.254 99.916C128.24 100.682 128.937 101.133 129.976 101.133C131.016 101.133 131.713 100.682 131.726 99.916C131.713 99.1777 131.016 98.7129 129.976 98.7266ZM141.039 96.3613C141.025 99.1094 140.684 101.939 138.975 104.346L137.963 103.771C139.392 101.857 139.822 99.7383 139.918 97.4277H138.25V96.3613H141.039ZM143.76 96.3613C143.76 97.3936 143.739 98.5215 143.609 99.6562H145.045V95.2266H146.275V106.561H145.045V100.709H143.459C143.179 102.233 142.666 103.744 141.723 105.084L140.711 104.496C142.297 102.37 142.584 99.793 142.639 97.4277H141.408V96.3613H143.76ZM148.6 94.9121V107.162H147.356V94.9121H148.6ZM162.331 94.9121V97.373H164.108V98.4668H162.331V101.051H161.032V94.9121H162.331ZM154.565 95.459V99.4512C156.212 99.4375 157.949 99.3076 159.829 98.9316L159.993 100.012C157.928 100.422 156.069 100.545 154.264 100.545H153.266V95.459H154.565ZM162.331 101.611V104.729H155.727V105.959H162.754V107.012H154.442V103.73H161.032V102.637H154.415V101.611H162.331ZM174.747 94.9121V107.162H173.434V94.9121H174.747ZM167.309 98.5352C167.309 99.8203 167.521 101.57 168.444 102.814C169.353 101.598 169.551 99.8818 169.565 98.5352V95.9648H170.809V98.5352C170.809 100.258 171.178 102.377 172.71 103.484L171.903 104.414C171.008 103.758 170.481 102.712 170.18 101.543C169.893 102.739 169.367 103.84 168.444 104.51C167.521 103.84 166.995 102.732 166.708 101.543C166.407 102.685 165.894 103.717 165.04 104.373L164.192 103.484C165.723 102.35 166.092 100.217 166.106 98.5352V95.9648H167.309V98.5352ZM189.312 94.9121V102.199H188.013V99.0957H185.73V98.0293H188.013V94.9121H189.312ZM185.21 102.541C187.78 102.541 189.353 103.389 189.353 104.852C189.353 106.314 187.78 107.148 185.21 107.162C182.64 107.148 181.054 106.314 181.068 104.852C181.054 103.389 182.64 102.541 185.21 102.541ZM185.21 103.553C183.419 103.553 182.353 104.018 182.353 104.852C182.353 105.672 183.419 106.15 185.21 106.137C187.001 106.15 188.068 105.672 188.068 104.852C188.068 104.018 187.001 103.553 185.21 103.553ZM183.487 97.0723C183.487 98.6309 184.595 100.135 186.441 100.764L185.771 101.789C184.397 101.311 183.385 100.333 182.859 99.123C182.318 100.497 181.245 101.598 179.782 102.131L179.099 101.092C180.999 100.436 182.161 98.7812 182.161 97.0859V96.8125H179.509V95.7598H186.112V96.8125H183.487V97.0723ZM202.001 104.564V105.645H190.79V104.564H195.726V102.049H192.076V95.7461H193.374V97.8516H199.39V95.7461H200.675V102.049H197.011V104.564H202.001ZM193.374 100.996H199.39V98.9043H193.374V100.996ZM213.679 100.531V101.529H202.468V100.531H213.679ZM212.298 102.391V105.084H205.107V106.096H212.681V107.012H203.808V104.223H211.013V103.32H203.794V102.391H212.298ZM212.271 95.2266V97.8789H205.189V98.8086H212.476V99.7246H203.904V97.0176H210.972V96.1426H203.876V95.2266H212.271ZM222.707 102.609C225.359 102.609 227.027 103.443 227.041 104.879C227.027 106.301 225.359 107.148 222.707 107.135C220.082 107.148 218.4 106.301 218.4 104.879C218.4 103.443 220.082 102.609 222.707 102.609ZM222.707 103.594C220.848 103.594 219.686 104.072 219.699 104.879C219.686 105.672 220.848 106.137 222.707 106.137C224.58 106.137 225.742 105.672 225.756 104.879C225.742 104.072 224.58 103.594 222.707 103.594ZM226.945 95.5137V96.5391C226.945 97.5234 226.945 98.5352 226.603 99.793L225.332 99.6562C225.66 98.4053 225.66 97.5029 225.66 96.5527H218.496V95.5137H226.945ZM228.34 100.545V101.598H217.197V100.545H221.668V98.248H222.939V100.545H228.34ZM240.072 101.83V102.896H237.229V107.162H235.916V102.896H232.99V107.162H231.651V102.896H228.861V101.83H240.072ZM234.44 95.377C237.024 95.377 238.801 96.4297 238.801 98.084C238.801 99.7109 237.024 100.75 234.44 100.736C231.842 100.75 230.078 99.7109 230.078 98.084C230.078 96.4297 231.842 95.377 234.44 95.377ZM234.44 96.416C232.621 96.4297 231.404 97.0586 231.418 98.084C231.404 99.082 232.621 99.7109 234.44 99.7109C236.258 99.7109 237.475 99.082 237.475 98.084C237.475 97.0586 236.258 96.4297 234.44 96.416ZM246.623 96.9355V97.9883H240.539V96.9355H242.946V95.2676H244.231V96.9355H246.623ZM243.588 98.7266C245.147 98.7266 246.241 99.8887 246.254 101.543C246.241 103.211 245.147 104.387 243.588 104.387C242.057 104.387 240.922 103.211 240.936 101.543C240.922 99.8887 242.057 98.7266 243.588 98.7266ZM243.588 99.8066C242.7 99.8066 242.084 100.531 242.084 101.543C242.084 102.582 242.7 103.279 243.588 103.279C244.463 103.279 245.106 102.582 245.106 101.543C245.106 100.531 244.463 99.8066 243.588 99.8066ZM251.053 94.9121V107.162H249.823V101.078H248.414V106.588H247.184V95.1855H248.414V100.012H249.823V94.9121H251.053ZM266.438 101.816V102.869H261.462V107.148H260.19V102.869H255.268V101.816H266.438ZM265.386 95.6367V96.6758H261.598C261.619 98.1934 263.506 99.5469 265.823 99.8613L265.345 100.887C263.335 100.572 261.598 99.5811 260.86 98.1797C260.101 99.5811 258.372 100.572 256.389 100.887L255.897 99.8613C258.187 99.5469 260.074 98.1934 260.122 96.6758H256.307V95.6367H265.386ZM270.692 98.2617C270.692 100.217 271.513 102.309 273.153 103.307L272.429 104.305C271.28 103.614 270.501 102.391 270.091 100.969C269.633 102.527 268.792 103.854 267.603 104.578L266.796 103.607C268.532 102.568 269.435 100.408 269.435 98.3164V96.0332H270.692V98.2617ZM277.501 94.9121V107.162H276.257V94.9121H277.501ZM274.958 95.1445V106.561H273.728V100.299H271.827V99.2188H273.728V95.1445H274.958ZM289.863 104.551V105.631H278.652V104.551H281.331V101.352C280.326 100.798 279.718 99.916 279.718 98.8223C279.718 96.8945 281.605 95.623 284.23 95.623C286.868 95.623 288.755 96.8945 288.755 98.8223C288.755 99.9023 288.167 100.771 287.183 101.324V104.551H289.863ZM284.23 96.6621C282.302 96.6621 280.976 97.4961 280.976 98.8223C280.976 100.135 282.302 100.996 284.23 100.996C286.144 100.996 287.497 100.135 287.497 98.8223C287.497 97.4961 286.144 96.6621 284.23 96.6621ZM282.616 104.551H285.87V101.816C285.371 101.946 284.818 102.008 284.23 102.008C283.655 102.008 283.109 101.946 282.616 101.83V104.551ZM292.599 96.1016L292.476 103.143H291.122L290.999 96.1016H292.599ZM291.806 106.096C291.273 106.096 290.822 105.658 290.835 105.125C290.822 104.592 291.273 104.154 291.806 104.154C292.326 104.154 292.777 104.592 292.777 105.125C292.777 105.658 292.326 106.096 291.806 106.096ZM43.9746 118.609C46.627 118.609 48.2949 119.443 48.3086 120.879C48.2949 122.301 46.627 123.148 43.9746 123.135C41.3496 123.148 39.668 122.301 39.668 120.879C39.668 119.443 41.3496 118.609 43.9746 118.609ZM43.9746 119.594C42.1152 119.594 40.9531 120.072 40.9668 120.879C40.9531 121.672 42.1152 122.137 43.9746 122.137C45.8477 122.137 47.0098 121.672 47.0234 120.879C47.0098 120.072 45.8477 119.594 43.9746 119.594ZM48.2129 111.514V112.539C48.2129 113.523 48.2129 114.535 47.8711 115.793L46.5996 115.656C46.9277 114.405 46.9277 113.503 46.9277 112.553H39.7637V111.514H48.2129ZM49.6074 116.545V117.598H38.4648V116.545H42.9355V114.248H44.207V116.545H49.6074ZM61.34 117.83V118.896H58.4963V123.162H57.1838V118.896H54.258V123.162H52.9182V118.896H50.1291V117.83H61.34ZM55.7072 111.377C58.2912 111.377 60.0686 112.43 60.0686 114.084C60.0686 115.711 58.2912 116.75 55.7072 116.736C53.1096 116.75 51.3459 115.711 51.3459 114.084C51.3459 112.43 53.1096 111.377 55.7072 111.377ZM55.7072 112.416C53.8889 112.43 52.6721 113.059 52.6858 114.084C52.6721 115.082 53.8889 115.711 55.7072 115.711C57.5256 115.711 58.7424 115.082 58.7424 114.084C58.7424 113.059 57.5256 112.43 55.7072 112.416ZM74.4694 110.871V113.742H76.2604V114.809H74.4694V117.611H73.1705V110.871H74.4694ZM74.4694 118.186V121.029H67.8522V122.055H74.8932V123.039H66.5807V120.113H73.1842V119.156H66.5533V118.186H74.4694ZM72.1588 111.951V112.977H64.858V111.951H67.8658V110.803H69.1647V111.951H72.1588ZM68.5084 113.441C70.2994 113.441 71.4752 114.207 71.4752 115.451C71.4752 116.695 70.2994 117.447 68.5084 117.447C66.7037 117.447 65.528 116.695 65.528 115.451C65.528 114.207 66.7037 113.441 68.5084 113.441ZM68.5084 114.371C67.4557 114.371 66.7721 114.795 66.7858 115.451C66.7721 116.107 67.4557 116.504 68.5084 116.504C69.5612 116.504 70.2448 116.107 70.2584 115.451C70.2448 114.795 69.5612 114.371 68.5084 114.371ZM82.8114 111.992C82.7977 113.619 84.7938 115.15 87.2 115.465L86.6942 116.531C84.6912 116.21 82.9276 115.171 82.1414 113.729C81.3348 115.178 79.578 116.21 77.5887 116.531L77.0692 115.465C79.4754 115.15 81.4442 113.633 81.4578 111.992V111.322H82.8114V111.992ZM87.7059 117.734V118.801H82.7293V123.162H81.4578V118.801H76.536V117.734H87.7059ZM99.4248 117.598V118.65H88.2139V117.598H93.1768V116.436H89.6495V113.318H96.7178V112.225H89.6221V111.199H98.0166V114.275H90.9346V115.424H98.2627V116.436H94.462V117.598H99.4248ZM98.085 119.512V123.066H96.7725V120.551H89.4717V119.512H98.085ZM109.15 112.047V113.127H104.843V119.102C106.894 119.095 108.309 119.02 109.915 118.705L110.066 119.771C108.302 120.1 106.812 120.182 104.501 120.182H103.531V112.047H109.15ZM113.156 110.912V123.189H111.857V116.367H108.453V115.287H111.857V110.912H113.156ZM127.844 110.912V118.199H126.545V115.096H124.262V114.029H126.545V110.912H127.844ZM123.742 118.541C126.312 118.541 127.885 119.389 127.885 120.852C127.885 122.314 126.312 123.148 123.742 123.162C121.172 123.148 119.586 122.314 119.599 120.852C119.586 119.389 121.172 118.541 123.742 118.541ZM123.742 119.553C121.951 119.553 120.885 120.018 120.885 120.852C120.885 121.672 121.951 122.15 123.742 122.137C125.533 122.15 126.599 121.672 126.599 120.852C126.599 120.018 125.533 119.553 123.742 119.553ZM122.019 113.072C122.019 114.631 123.127 116.135 124.973 116.764L124.303 117.789C122.929 117.311 121.917 116.333 121.391 115.123C120.85 116.497 119.777 117.598 118.314 118.131L117.631 117.092C119.531 116.436 120.693 114.781 120.693 113.086V112.812H118.041V111.76H124.644V112.812H122.019V113.072ZM138.961 110.926V114.562H140.711V115.629H138.961V119.17H137.662V110.926H138.961ZM129.24 117.803C130.191 117.803 131.291 117.803 132.44 117.762V116.941C131.045 116.798 130.156 116.142 130.17 115.15C130.156 114.029 131.318 113.332 133.082 113.346C134.832 113.332 135.994 114.029 135.994 115.15C135.994 116.135 135.119 116.791 133.738 116.941V117.721C134.832 117.666 135.94 117.577 136.965 117.434L137.074 118.363C134.436 118.828 131.537 118.842 129.377 118.842L129.24 117.803ZM138.961 119.744V123.162H137.662V120.756H130.772V119.744H138.961ZM136.623 111.965V112.936H129.555V111.965H132.44V110.816H133.738V111.965H136.623ZM133.082 114.234C132.029 114.221 131.4 114.562 131.4 115.15C131.4 115.725 132.029 116.094 133.082 116.094C134.121 116.094 134.75 115.725 134.75 115.15C134.75 114.562 134.121 114.221 133.082 114.234ZM150.639 110.926V114.863H152.416V115.943H150.639V120.086H149.34V110.926H150.639ZM148.328 112.348V113.4H141.028V112.348H144.035V110.912H145.334V112.348H148.328ZM144.678 113.988C146.442 113.988 147.645 114.904 147.645 116.299C147.645 117.693 146.442 118.596 144.678 118.596C142.901 118.596 141.698 117.693 141.698 116.299C141.698 114.904 142.901 113.988 144.678 113.988ZM144.678 114.986C143.639 114.986 142.942 115.492 142.955 116.299C142.942 117.092 143.639 117.584 144.678 117.584C145.717 117.584 146.414 117.092 146.428 116.299C146.414 115.492 145.717 114.986 144.678 114.986ZM151.158 121.85V122.902H142.873V119.361H144.172V121.85H151.158ZM165.341 110.912V113.373H167.118V114.467H165.341V117.051H164.042V110.912H165.341ZM157.575 111.459V115.451C159.222 115.438 160.959 115.308 162.839 114.932L163.003 116.012C160.938 116.422 159.079 116.545 157.274 116.545H156.276V111.459H157.575ZM165.341 117.611V120.729H158.737V121.959H165.764V123.012H157.452V119.73H164.042V118.637H157.425V117.611H165.341ZM177.757 110.912V123.162H176.444V110.912H177.757ZM170.319 114.535C170.319 115.82 170.531 117.57 171.454 118.814C172.363 117.598 172.561 115.882 172.575 114.535V111.965H173.819V114.535C173.819 116.258 174.188 118.377 175.72 119.484L174.913 120.414C174.017 119.758 173.491 118.712 173.19 117.543C172.903 118.739 172.377 119.84 171.454 120.51C170.531 119.84 170.005 118.732 169.718 117.543C169.417 118.685 168.904 119.717 168.05 120.373L167.202 119.484C168.733 118.35 169.102 116.217 169.116 114.535V111.965H170.319V114.535ZM190.296 116.531V117.529H179.085V116.531H190.296ZM188.915 118.391V121.084H181.724V122.096H189.298V123.012H180.425V120.223H187.63V119.32H180.411V118.391H188.915ZM188.888 111.227V113.879H181.806V114.809H189.093V115.725H180.521V113.018H187.589V112.143H180.493V111.227H188.888ZM203.425 110.912V113.469H205.203V114.549H203.425V117.105H202.126V110.912H203.425ZM203.425 117.666V120.77H196.808V121.973H203.849V123.012H195.537V119.799H202.14V118.678H195.509V117.666H203.425ZM197.205 111.336C199.064 111.336 200.418 112.457 200.418 114.07C200.418 115.684 199.064 116.805 197.205 116.805C195.345 116.805 193.978 115.684 193.992 114.07C193.978 112.457 195.345 111.336 197.205 111.336ZM197.205 112.402C196.07 112.402 195.25 113.072 195.25 114.07C195.25 115.068 196.07 115.766 197.205 115.766C198.326 115.766 199.16 115.068 199.16 114.07C199.16 113.072 198.326 112.402 197.205 112.402ZM214.777 111.992C214.764 113.619 216.76 115.15 219.166 115.465L218.66 116.531C216.657 116.21 214.894 115.171 214.107 113.729C213.301 115.178 211.544 116.21 209.555 116.531L209.035 115.465C211.441 115.15 213.41 113.633 213.424 111.992V111.322H214.777V111.992ZM219.672 117.734V118.801H214.695V123.162H213.424V118.801H208.502V117.734H219.672ZM227.455 119.006C227.455 120.059 227.975 121.173 229.082 121.836C230.21 121.118 230.764 119.942 230.764 119.006V118.418H232.036V119.006C232.036 120.277 232.87 121.508 234.469 122.027L233.827 122.984C232.617 122.567 231.796 121.754 231.366 120.742C230.976 121.733 230.245 122.629 229.123 123.094C227.948 122.649 227.203 121.781 226.827 120.783C226.382 121.747 225.576 122.561 224.42 122.984L223.764 122.027C225.336 121.467 226.184 120.195 226.198 119.006V118.418H227.455V119.006ZM233.362 110.926V117.898H232.063V110.926H233.362ZM226.717 111.596C228.59 111.596 229.971 112.785 229.971 114.494C229.971 116.189 228.59 117.365 226.717 117.365C224.844 117.365 223.45 116.189 223.45 114.494C223.45 112.785 224.844 111.596 226.717 111.596ZM226.717 112.703C225.555 112.689 224.721 113.414 224.721 114.494C224.721 115.561 225.555 116.285 226.717 116.285C227.866 116.285 228.7 115.561 228.7 114.494C228.7 113.414 227.866 112.689 226.717 112.703ZM238.217 111.828C239.878 111.828 241.095 113.236 241.294 115.506H243.823V110.912H245.108V123.189H243.823V116.559H241.307C241.164 118.944 239.92 120.428 238.217 120.428C236.385 120.428 235.1 118.76 235.114 116.121C235.1 113.496 236.385 111.828 238.217 111.828ZM238.217 112.99C237.11 112.99 236.344 114.193 236.344 116.121C236.344 118.062 237.11 119.266 238.217 119.266C239.325 119.266 240.09 118.062 240.09 116.121C240.09 114.193 239.325 112.99 238.217 112.99ZM257.798 120.551V121.631H246.587V120.551H249.266V117.352C248.262 116.798 247.653 115.916 247.653 114.822C247.653 112.895 249.54 111.623 252.165 111.623C254.803 111.623 256.69 112.895 256.69 114.822C256.69 115.902 256.102 116.771 255.118 117.324V120.551H257.798ZM252.165 112.662C250.237 112.662 248.911 113.496 248.911 114.822C248.911 116.135 250.237 116.996 252.165 116.996C254.079 116.996 255.432 116.135 255.432 114.822C255.432 113.496 254.079 112.662 252.165 112.662ZM250.552 120.551H253.805V117.816C253.306 117.946 252.753 118.008 252.165 118.008C251.591 118.008 251.044 117.946 250.552 117.83V120.551Z" fill="white"/>
<path fill-rule="evenodd" clip-rule="evenodd" d="M74.7561 344.729L153.216 301.794C154.263 301.22 155.253 302.634 154.355 303.422L112.011 340.591C111.154 341.343 112.023 342.714 113.07 342.259L165.718 319.365C166.766 318.91 167.635 320.284 166.775 321.036L128.01 354.882C127.168 355.617 127.984 356.97 129.027 356.568L176.293 338.379C177.354 337.971 178.165 339.366 177.286 340.086L130.745 378.202C129.902 378.892 130.614 380.241 131.659 379.935L186.594 363.865C187.745 363.528 188.405 365.134 187.35 365.704L109.009 408.065C108.966 408.088 108.923 408.108 108.879 408.124C108.631 408.265 108.381 408.404 108.129 408.541C90.6399 417.997 68.7958 411.486 59.3391 393.997C49.8824 376.507 56.394 354.663 73.8833 345.207C74.1273 345.075 74.3722 344.946 74.6179 344.82C74.6607 344.786 74.7068 344.756 74.7561 344.729Z" fill="#FB564D"/>
<path d="M111.022 365.534C118.377 379.137 113.313 396.126 99.71 403.482C86.1072 410.837 69.1174 405.772 61.7622 392.17C54.4069 378.567 59.4715 361.577 73.0743 354.222C86.6771 346.866 103.667 351.931 111.022 365.534Z" fill="#FFFC74"/>
<path d="M73.7253 375.727C76.5564 378.721 76.4246 383.443 73.4309 386.274C70.4371 389.105 65.7151 388.973 62.884 385.98C60.0529 382.986 60.1847 378.264 63.1785 375.433C66.1722 372.602 70.8942 372.734 73.7253 375.727Z" fill="white"/>
<path d="M70.188 378.351C72.0941 380.367 72.0054 383.546 69.9898 385.452C67.9742 387.358 64.795 387.27 62.8888 385.254C60.9827 383.238 61.0715 380.059 63.0871 378.153C65.1027 376.247 68.2819 376.336 70.188 378.351Z" fill="black"/>
<path d="M88.6784 367.641C91.5096 370.635 91.3777 375.357 88.384 378.188C85.3903 381.019 80.6683 380.888 77.8371 377.894C75.006 374.9 75.1378 370.178 78.1316 367.347C81.1253 364.516 85.8473 364.648 88.6784 367.641Z" fill="white"/>
<path d="M85.1411 370.265C87.0473 372.281 86.9585 375.46 84.9429 377.366C82.9273 379.273 79.7481 379.184 77.842 377.168C75.9358 375.153 76.0246 371.973 78.0402 370.067C80.0558 368.161 83.235 368.25 85.1411 370.265Z" fill="black"/>
<path d="M70.9391 392.323C70.2824 391.109 70.7346 389.592 71.9491 388.935L88.6623 379.898C89.8768 379.241 91.3938 379.693 92.0505 380.908C92.7072 382.122 92.255 383.639 91.0405 384.296L74.3273 393.333C73.1128 393.99 71.5958 393.538 70.9391 392.323Z" fill="#FF7272"/>
<rect x="38.5" y="137.5" width="138" height="40" rx="4.5" fill="white"/>
<rect x="38.5" y="137.5" width="138" height="40" rx="4.5" stroke="#D6D6D6"/>
<path d="M93.8151 156.812V158.234H80.9245V156.812H93.8151ZM92.3307 154.312V155.703H82.5026V150.719H92.2526V152.125H84.237V154.312H92.3307ZM87.3464 159.219C90.3932 159.203 92.2214 160.141 92.237 161.781C92.2214 163.438 90.3932 164.375 87.3464 164.375C84.2682 164.375 82.4245 163.438 82.4245 161.781C82.4245 160.141 84.2682 159.203 87.3464 159.219ZM87.3464 160.547C85.2839 160.547 84.1745 160.984 84.1901 161.781C84.1745 162.609 85.2839 163.031 87.3464 163.031C89.362 163.031 90.487 162.609 90.5026 161.781C90.487 160.984 89.362 160.547 87.3464 160.547ZM107.235 157.906V159.312H94.329V157.906H99.9227V156.734H95.9696V152.984H103.907V151.938H95.9227V150.578H105.641V154.25H97.6884V155.375H105.923V156.734H101.641V157.906H107.235ZM105.72 160.203V164.297H103.97V161.578H95.7665V160.203H105.72ZM118.827 150.266V155.891H120.999V157.328H118.827V164.391H117.108V150.266H118.827ZM116.015 152.438V153.828H107.687V152.438H111.03V150.469H112.765V152.438H116.015ZM111.905 154.75C113.937 154.75 115.452 156.125 115.452 158.078C115.452 160.031 113.937 161.391 111.905 161.391C109.843 161.391 108.327 160.031 108.343 158.078C108.327 156.125 109.843 154.75 111.905 154.75ZM111.905 156.172C110.796 156.172 109.999 156.922 109.999 158.078C109.999 159.234 110.796 159.969 111.905 159.953C112.983 159.969 113.78 159.234 113.796 158.078C113.78 156.922 112.983 156.172 111.905 156.172ZM132.982 150.266V164.391H131.232V150.266H132.982ZM128.763 151.766C128.763 155.969 127.138 159.547 122.185 161.891L121.279 160.5C124.974 158.742 126.693 156.352 126.997 153.141H121.997V151.766H128.763Z" fill="#333333"/>
<path d="M193 268.132C203.609 232.369 233.917 212.177 250.284 208.926L259.086 214.779C224.117 220.619 203.021 258.945 201.196 270.563L193 268.132Z" fill="#FB564D"/>
<path d="M200.451 270.343C211.06 234.579 241.368 214.387 257.735 211.136L266.537 216.989C231.569 222.829 210.472 261.156 208.647 272.774L200.451 270.343Z" fill="#FFBB37"/>
<path d="M207.902 272.553C218.511 236.789 248.82 216.597 265.186 213.346L273.988 219.199C239.02 225.039 217.923 263.366 216.098 274.984L207.902 272.553Z" fill="#FFFC74"/>
<path d="M215.351 274.763C225.96 239 256.269 218.808 272.635 215.556L281.437 221.41C246.469 227.25 225.372 265.576 223.547 277.194L215.351 274.763Z" fill="#0FCC0B"/>
<path d="M222.802 276.973C233.41 241.21 263.719 221.018 280.086 217.766L288.887 223.62C253.919 229.46 232.822 267.786 230.997 279.404L222.802 276.973Z" fill="#38ACFF"/>
<path d="M230.253 279.183C240.862 243.42 271.17 223.228 287.537 219.976L296.339 225.83C261.37 231.67 240.274 269.996 238.449 281.614L230.253 279.183Z" fill="#204CBF"/>
<path d="M237.705 281.393C248.314 245.63 278.622 225.438 294.989 222.187L303.791 228.04C268.823 233.88 247.726 272.207 245.901 283.825L237.705 281.393Z" fill="#8500C4"/>
<path fill-rule="evenodd" clip-rule="evenodd" d="M258.612 178.338C258.749 176.511 259.081 174.672 259.623 172.846C263.782 158.825 278.707 150.885 292.958 155.113C302.475 157.936 309.286 165.472 311.521 174.343C316.265 171.998 321.905 171.372 327.42 173.008C338.9 176.414 345.49 188.331 342.14 199.626C341.633 201.334 340.928 202.931 340.056 204.398C349.844 207.76 355.363 218.145 352.44 228.002C349.436 238.128 338.657 243.863 328.364 240.809C326.316 240.202 324.442 239.292 322.777 238.145C322.635 238.937 322.448 239.73 322.214 240.519C318.748 252.203 306.31 258.82 294.434 255.297C285.601 252.676 279.565 245.184 278.48 236.708C274.404 240.144 268.683 241.52 263.129 239.873C254.42 237.289 249.421 228.249 251.963 219.68C252.108 219.189 252.275 218.71 252.463 218.245C242.222 214.454 236.505 203.449 239.606 192.996C242.167 184.365 249.972 178.697 258.612 178.338Z" fill="#EDEDED"/>
<path d="M297.601 187.711C300.496 193.424 298.212 200.402 292.5 203.297C286.787 206.193 279.809 203.909 276.914 198.197C274.018 192.484 276.302 185.506 282.014 182.61C287.727 179.715 294.705 181.999 297.601 187.711Z" fill="white"/>
<path d="M295.416 189.32C297.365 193.166 295.828 197.864 291.982 199.814C288.135 201.763 283.437 200.226 281.488 196.38C279.538 192.533 281.076 187.835 284.922 185.886C288.768 183.936 293.466 185.474 295.416 189.32Z" fill="black"/>
<path d="M322.492 196.716C325.388 202.429 323.104 209.407 317.391 212.302C311.679 215.198 304.701 212.914 301.805 207.201C298.91 201.489 301.193 194.511 306.906 191.615C312.619 188.72 319.597 191.004 322.492 196.716Z" fill="white"/>
<path d="M320.305 198.325C322.255 202.171 320.717 206.869 316.871 208.819C313.025 210.768 308.327 209.231 306.377 205.384C304.428 201.538 305.966 196.84 309.812 194.891C313.658 192.941 318.356 194.479 320.305 198.325Z" fill="black"/>
<path d="M256.011 298.277C256.124 297.75 256.876 297.75 256.989 298.277L257.228 299.388C257.269 299.581 257.419 299.731 257.612 299.772L258.723 300.011C259.25 300.124 259.25 300.876 258.723 300.989L257.612 301.228C257.419 301.269 257.269 301.419 257.228 301.612L256.989 302.723C256.876 303.25 256.124 303.25 256.011 302.723L255.772 301.612C255.731 301.419 255.581 301.269 255.388 301.228L254.277 300.989C253.75 300.876 253.75 300.124 254.277 300.011L255.388 299.772C255.581 299.731 255.731 299.581 255.772 299.388L256.011 298.277Z" fill="#FFFCAC"/>
<path d="M304.011 276.277C304.124 275.75 304.876 275.75 304.989 276.277L305.228 277.388C305.269 277.581 305.419 277.731 305.612 277.772L306.723 278.011C307.25 278.124 307.25 278.876 306.723 278.989L305.612 279.228C305.419 279.269 305.269 279.419 305.228 279.612L304.989 280.723C304.876 281.25 304.124 281.25 304.011 280.723L303.772 279.612C303.731 279.419 303.581 279.269 303.388 279.228L302.277 278.989C301.75 278.876 301.75 278.124 302.277 278.011L303.388 277.772C303.581 277.731 303.731 277.581 303.772 277.388L304.011 276.277Z" fill="#FFFCAC"/>
<path d="M274.576 284.231C274.917 283.408 276.083 283.408 276.424 284.231L278.304 288.771C278.41 289.026 278.617 289.227 278.876 289.324L283.508 291.064C284.372 291.389 284.372 292.611 283.508 292.936L278.876 294.676C278.617 294.773 278.41 294.974 278.304 295.229L276.424 299.769C276.083 300.592 274.917 300.592 274.576 299.769L272.696 295.229C272.59 294.974 272.383 294.773 272.124 294.676L267.492 292.936C266.628 292.611 266.628 291.389 267.492 291.064L272.124 289.324C272.383 289.227 272.59 289.026 272.696 288.771L274.576 284.231Z" fill="#FFFCAC"/>
<path d="M260.237 347.242C262.291 345.185 265.849 346.476 266.106 349.371L267.816 368.685C267.92 369.865 268.635 370.911 269.704 371.447L287.191 380.216C289.813 381.531 289.698 385.277 287.002 386.394L269.017 393.845C267.918 394.301 267.141 395.291 266.964 396.46L264.075 415.604C263.641 418.473 260.012 419.498 258.089 417.293L245.264 402.584C244.48 401.685 243.285 401.251 242.107 401.438L222.834 404.5C219.944 404.959 217.816 401.846 219.324 399.366L229.383 382.824C229.997 381.814 230.036 380.555 229.484 379.501L220.462 362.251C219.11 359.665 221.424 356.716 224.278 357.389L243.32 361.874C244.484 362.148 245.703 361.804 246.54 360.966L260.237 347.242Z" fill="#FFF96D"/>
<path d="M229.164 365.731C229.498 364.811 230.515 364.335 231.435 364.669L234.158 365.657C235.079 365.991 235.554 367.008 235.22 367.928C234.886 368.849 233.869 369.324 232.949 368.99L230.226 368.002C229.305 367.668 228.83 366.651 229.164 365.731Z" fill="#FF7DBC"/>
<path d="M271.99 381.27C272.324 380.35 273.341 379.874 274.261 380.208L276.984 381.196C277.905 381.53 278.38 382.547 278.046 383.467C277.712 384.388 276.696 384.863 275.775 384.529L273.052 383.541C272.132 383.207 271.656 382.19 271.99 381.27Z" fill="#FF7DBC"/>
<path fill-rule="evenodd" clip-rule="evenodd" d="M256.35 372.452C254.793 371.887 253.046 372.691 252.723 374.316C251.336 381.317 254.074 387.97 259.537 389.952C265 391.934 271.368 388.585 274.792 382.324C275.587 380.87 274.762 379.133 273.204 378.568L256.35 372.452Z" fill="#FF7DBC"/>
<path fill-rule="evenodd" clip-rule="evenodd" d="M236.02 365.076C234.463 364.511 232.715 365.315 232.393 366.94C231.006 373.941 233.744 380.594 239.207 382.576C244.67 384.558 251.038 381.209 254.462 374.947C255.257 373.494 254.432 371.756 252.874 371.191L236.02 365.076Z" fill="#FF7DBC"/>
<path fill-rule="evenodd" clip-rule="evenodd" d="M257.633 375.432C256.595 375.055 255.429 375.592 255.226 376.678C254.341 381.418 256.447 386.002 260.445 387.453C264.443 388.904 268.999 386.737 271.359 382.531C271.9 381.568 271.349 380.409 270.311 380.032L257.633 375.432Z" fill="black"/>
<path fill-rule="evenodd" clip-rule="evenodd" d="M237.302 368.055C236.264 367.678 235.098 368.215 234.895 369.301C234.01 374.041 236.116 378.626 240.114 380.076C244.112 381.527 248.668 379.36 251.028 375.154C251.569 374.191 251.018 373.032 249.98 372.655L237.302 368.055Z" fill="black"/>
<path fill-rule="evenodd" clip-rule="evenodd" d="M247.491 383.074C247.987 383.318 248.19 383.918 247.945 384.413C247.66 384.99 247.392 385.883 247.451 386.673C247.479 387.053 247.58 387.372 247.753 387.625C247.92 387.868 248.195 388.11 248.675 388.284C248.719 388.3 248.763 388.319 248.804 388.341C249.109 388.504 249.666 388.628 250.257 388.394C250.821 388.171 251.603 387.544 252.219 385.847C252.408 385.327 252.981 385.059 253.5 385.248C254.019 385.436 254.288 386.01 254.099 386.529C253.351 388.591 252.24 389.76 250.993 390.254C249.807 390.723 248.668 390.512 247.929 390.14C247.125 389.836 246.518 389.36 246.104 388.756C245.685 388.146 245.504 387.464 245.456 386.82C245.363 385.56 245.769 384.304 246.152 383.528C246.397 383.032 246.996 382.829 247.491 383.074Z" fill="#FF7272"/>
</g>
</g>
<defs>
<filter id="filter0_d_302_6984" x="0" y="0" width="378" height="455" filterUnits="userSpaceOnUse" color-interpolation-filters="sRGB">
<feFlood flood-opacity="0" result="BackgroundImageFix"/>
<feColorMatrix in="SourceAlpha" type="matrix" values="0 0 0 0 0 0 0 0 0 0 0 0 0 0 0 0 0 0 127 0" result="hardAlpha"/>
<feMorphology radius="1" operator="dilate" in="SourceAlpha" result="effect1_dropShadow_302_6984"/>
<feOffset/>
<feGaussianBlur stdDeviation="7.5"/>
<feComposite in2="hardAlpha" operator="out"/>
<feColorMatrix type="matrix" values="0 0 0 0 0 0 0 0 0 0 0 0 0 0 0 0 0 0 0.1 0"/>
<feBlend mode="normal" in2="BackgroundImageFix" result="effect1_dropShadow_302_6984"/>
<feBlend mode="normal" in="SourceGraphic" in2="effect1_dropShadow_302_6984" result="shape"/>
</filter>
<clipPath id="clip0_302_6984">
<rect x="16" y="16" width="346" height="423" rx="15" fill="white"/>
</clipPath>
</defs>
</svg>
