<svg width="61" height="32" viewBox="0 0 61 32" fill="none" xmlns="http://www.w3.org/2000/svg">
<path fill-rule="evenodd" clip-rule="evenodd" d="M56.3587 25.3333H51.6704C51.7015 25.5508 51.7174 25.7734 51.7174 26C51.7174 26.7161 51.5571 27.3932 51.2706 28H52.3804C53.4789 28 54.3696 28.8958 54.3696 30C54.3696 31.1042 53.4789 32 52.3804 32H23.2065H13.9239C9.38653 32 5.66824 28.4753 5.3296 24H5.30435C2.37472 24 0 21.612 0 18.6667C0 16.0534 1.86934 13.8789 4.33698 13.4219C5.44971 9.52083 9.02361 6.66667 13.2609 6.66667C13.3888 6.66667 13.5163 6.66927 13.6429 6.67448C14.7815 2.8151 18.3357 0 22.5435 0C25.0726 0 27.3661 1.01693 29.0402 2.66667H47.0761C47.7407 2.66667 48.3297 2.99479 48.6906 3.4987C48.9263 3.82682 49.0652 4.23047 49.0652 4.66667C49.0652 5.77083 48.1746 6.66667 47.0761 6.66667H38.8965L39.1756 6.89062C39.2756 6.97396 39.374 7.05859 39.4715 7.14453C39.5845 7.24479 39.6955 7.34635 39.8046 7.44922C39.9921 7.6276 40.1744 7.8112 40.3508 8H40.4457H53.7065C54.805 8 55.6957 8.89583 55.6957 10C55.6957 11.1042 54.805 12 53.7065 12H47.7103C48.5679 13.3477 49.0652 14.9479 49.0652 16.6667C49.0652 17.3438 48.9882 18.0026 48.8422 18.6341C48.6175 19.6068 48.2303 20.5169 47.7103 21.3333H56.3587C57.4572 21.3333 58.3478 22.2292 58.3478 23.3333C58.3478 24.4375 57.4572 25.3333 56.3587 25.3333ZM51.7174 4.66667C51.7174 3.5625 52.608 2.66667 53.7065 2.66667H56.3587C57.4572 2.66667 58.3478 3.5625 58.3478 4.66667C58.3478 5.77083 57.4572 6.66667 56.3587 6.66667H53.7065C52.608 6.66667 51.7174 5.77083 51.7174 4.66667ZM59.0109 8C57.9124 8 57.0217 8.89583 57.0217 10C57.0217 11.1042 57.9124 12 59.0109 12C60.1094 12 61 11.1042 61 10C61 8.89583 60.1094 8 59.0109 8Z" fill="#AECFFF"/>
<path fill-rule="evenodd" clip-rule="evenodd" d="M18.8339 18.4074C18.8294 18.4569 18.8275 18.507 18.8283 18.5574C18.8468 19.6338 20.1111 20.49 21.6521 20.4697C23.1931 20.4493 24.4274 19.5602 24.4089 18.4838C24.408 18.4334 24.4044 18.3834 24.3982 18.334L18.8339 18.4074Z" fill="#FF7272"/>
<path d="M20.2207 18.3899L21.6158 18.3715L21.6209 18.6644C21.6247 18.889 21.3858 19.0743 21.0871 19.0783L20.7735 19.0824C20.4748 19.0864 20.2296 18.9074 20.2257 18.6828L20.2207 18.3899Z" fill="white"/>
<path d="M21.6152 18.3713L23.0104 18.3529L23.0154 18.6458C23.0193 18.8705 22.7803 19.0558 22.4816 19.0597L22.168 19.0639C21.8694 19.0678 21.6241 18.8889 21.6203 18.6642L21.6152 18.3713Z" fill="white"/>
<path d="M20.4078 14.045C20.8473 15.7649 19.8147 17.5108 18.1016 17.9446C16.3885 18.3783 14.6434 17.3357 14.2039 15.6157C13.7645 13.8958 14.797 12.1499 16.5101 11.7161C18.2233 11.2824 19.9683 12.325 20.4078 14.045Z" fill="white"/>
<path d="M18.5339 14.2858C18.8298 15.4438 18.1347 16.6193 16.9812 16.9113C15.8278 17.2033 14.6529 16.5013 14.357 15.3433C14.0612 14.1854 14.7563 13.0099 15.9097 12.7178C17.0631 12.4258 18.238 13.1278 18.5339 14.2858Z" fill="black"/>
<path d="M29.1412 14.1602C29.5807 15.8802 28.5481 17.6261 26.835 18.0598C25.1219 18.4936 23.3768 17.4509 22.9373 15.731C22.4979 14.011 23.5304 12.2651 25.2435 11.8314C26.9567 11.3976 28.7017 12.4403 29.1412 14.1602Z" fill="white"/>
<path d="M27.2683 14.4001C27.5642 15.5581 26.869 16.7335 25.7156 17.0256C24.5622 17.3176 23.3873 16.6156 23.0914 15.4576C22.7955 14.2996 23.4907 13.1241 24.6441 12.8321C25.7975 12.5401 26.9724 13.2421 27.2683 14.4001Z" fill="black"/>
</svg>
