<svg width="150" height="79" viewBox="0 0 150 79" fill="none" xmlns="http://www.w3.org/2000/svg">
<path fill-rule="evenodd" clip-rule="evenodd" d="M138.587 62.2951H127.058C127.135 62.8298 127.174 63.3773 127.174 63.9344C127.174 65.6954 126.78 67.3604 126.075 68.8525H128.804C131.506 68.8525 133.696 71.0553 133.696 73.7705C133.696 76.4857 131.506 78.6885 128.804 78.6885H57.0652H34.2391C23.0816 78.6885 13.9383 70.0211 13.1056 59.0164H13.0435C5.83947 59.0164 0 53.1442 0 45.9016C0 39.4755 4.59674 34.1285 10.6647 33.0046C13.4009 23.4119 22.1892 16.3934 32.6087 16.3934C32.9232 16.3934 33.2368 16.3998 33.5481 16.4127C36.348 6.92239 45.0877 0 55.4348 0C61.654 0 67.2936 2.50064 71.4103 6.55738H115.761C117.395 6.55738 118.843 7.36424 119.731 8.60336C120.311 9.41022 120.652 10.4028 120.652 11.4754C120.652 14.1906 118.462 16.3934 115.761 16.3934H95.6471L96.3334 16.9442C96.5794 17.1491 96.8214 17.3572 97.061 17.5685C97.3389 17.8151 97.6119 18.0648 97.8802 18.3178C98.3412 18.7564 98.7894 19.2079 99.2233 19.6721H99.4565H132.065C134.766 19.6721 136.957 21.875 136.957 24.5902C136.957 27.3053 134.766 29.5082 132.065 29.5082H117.32C119.429 32.8221 120.652 36.7572 120.652 40.9836C120.652 42.6486 120.463 44.2687 120.104 45.8216C119.551 48.2134 118.599 50.4515 117.32 52.459H138.587C141.288 52.459 143.478 54.6619 143.478 57.377C143.478 60.0922 141.288 62.2951 138.587 62.2951ZM127.174 11.4754C127.174 8.76025 129.364 6.55738 132.065 6.55738H138.587C141.288 6.55738 143.478 8.76025 143.478 11.4754C143.478 14.1906 141.288 16.3934 138.587 16.3934H132.065C129.364 16.3934 127.174 14.1906 127.174 11.4754ZM145.109 19.6721C142.407 19.6721 140.217 21.875 140.217 24.5902C140.217 27.3053 142.407 29.5082 145.109 29.5082C147.81 29.5082 150 27.3053 150 24.5902C150 21.875 147.81 19.6721 145.109 19.6721Z" fill="#AECFFF"/>
<path fill-rule="evenodd" clip-rule="evenodd" d="M46.316 45.2634C46.3049 45.3853 46.3003 45.5083 46.3024 45.6324C46.3479 48.2793 49.4566 50.3846 53.2461 50.3346C57.0355 50.2847 60.0706 48.0984 60.0251 45.4514C60.023 45.3274 60.0141 45.2045 59.9988 45.083L46.316 45.2634Z" fill="#FF7272"/>
<path d="M49.7246 45.2202L53.1553 45.175L53.1677 45.8952C53.1771 46.4476 52.5895 46.9033 51.8551 46.913L51.0839 46.9231C50.3495 46.9328 49.7465 46.4928 49.737 45.9404L49.7246 45.2202Z" fill="white"/>
<path d="M53.1543 45.1748L56.585 45.1296L56.5973 45.8498C56.6068 46.4022 56.0192 46.8579 55.2848 46.8676L54.5136 46.8777C53.7792 46.8874 53.1762 46.4474 53.1667 45.895L53.1543 45.1748Z" fill="white"/>
<path d="M50.1808 34.5377C51.2615 38.767 48.7225 43.0603 44.5099 44.1268C40.2973 45.1934 36.0062 42.6295 34.9255 38.4001C33.8448 34.1708 36.3838 29.8775 40.5964 28.811C44.809 27.7444 49.1001 30.3083 50.1808 34.5377Z" fill="white"/>
<path d="M45.5738 35.1301C46.3014 37.9776 44.592 40.8682 41.7557 41.5863C38.9195 42.3044 36.0304 40.5781 35.3028 37.7306C34.5752 34.8831 36.2846 31.9926 39.1209 31.2745C41.9571 30.5563 44.8462 32.2826 45.5738 35.1301Z" fill="black"/>
<path d="M71.6574 34.8214C72.7381 39.0507 70.1991 43.3439 65.9865 44.4105C61.7738 45.4771 57.4827 42.9132 56.4021 38.6838C55.3214 34.4545 57.8603 30.1612 62.073 29.0946C66.2856 28.0281 70.5767 30.592 71.6574 34.8214Z" fill="white"/>
<path d="M67.0523 35.4109C67.7799 38.2584 66.0705 41.1489 63.2342 41.867C60.398 42.5851 57.5089 40.8589 56.7813 38.0114C56.0537 35.1638 57.7631 32.2733 60.5994 31.5552C63.4356 30.8371 66.3247 32.5633 67.0523 35.4109Z" fill="black"/>
</svg>
