<svg width="61" height="32" viewBox="0 0 61 32" fill="none" xmlns="http://www.w3.org/2000/svg">
<path fill-rule="evenodd" clip-rule="evenodd" d="M56.3587 25.3333H51.6704C51.7015 25.5508 51.7174 25.7734 51.7174 26C51.7174 26.7161 51.5571 27.3932 51.2706 28H52.3804C53.4789 28 54.3696 28.8958 54.3696 30C54.3696 31.1042 53.4789 32 52.3804 32H23.2065H13.9239C9.38653 32 5.66824 28.4753 5.3296 24H5.30435C2.37472 24 0 21.612 0 18.6667C0 16.0534 1.86934 13.8789 4.33698 13.4219C5.44971 9.52083 9.02361 6.66667 13.2609 6.66667C13.3888 6.66667 13.5163 6.66927 13.6429 6.67448C14.7815 2.8151 18.3357 0 22.5435 0C25.0726 0 27.3661 1.01693 29.0402 2.66667H47.0761C47.7407 2.66667 48.3297 2.99479 48.6906 3.4987C48.9263 3.82682 49.0652 4.23047 49.0652 4.66667C49.0652 5.77083 48.1746 6.66667 47.0761 6.66667H38.8965L39.1756 6.89062C39.2756 6.97396 39.374 7.05859 39.4715 7.14453C39.5845 7.24479 39.6955 7.34635 39.8046 7.44922C39.9921 7.6276 40.1744 7.8112 40.3508 8H40.4457H53.7065C54.805 8 55.6957 8.89583 55.6957 10C55.6957 11.1042 54.805 12 53.7065 12H47.7103C48.5679 13.3477 49.0652 14.9479 49.0652 16.6667C49.0652 17.3438 48.9882 18.0026 48.8422 18.6341C48.6175 19.6068 48.2303 20.5169 47.7103 21.3333H56.3587C57.4572 21.3333 58.3478 22.2292 58.3478 23.3333C58.3478 24.4375 57.4572 25.3333 56.3587 25.3333ZM51.7174 4.66667C51.7174 3.5625 52.608 2.66667 53.7065 2.66667H56.3587C57.4572 2.66667 58.3478 3.5625 58.3478 4.66667C58.3478 5.77083 57.4572 6.66667 56.3587 6.66667H53.7065C52.608 6.66667 51.7174 5.77083 51.7174 4.66667ZM59.0109 8C57.9124 8 57.0217 8.89583 57.0217 10C57.0217 11.1042 57.9124 12 59.0109 12C60.1094 12 61 11.1042 61 10C61 8.89583 60.1094 8 59.0109 8Z" fill="#EBEBEB"/>
<path fill-rule="evenodd" clip-rule="evenodd" d="M18.8368 18.4071C18.8323 18.4567 18.8304 18.5067 18.8313 18.5572C18.8498 19.6336 20.114 20.4897 21.655 20.4694C23.1961 20.4491 24.4303 19.56 24.4118 18.4836C24.411 18.4331 24.4074 18.3832 24.4011 18.3338L18.8368 18.4071Z" fill="#707070"/>
<path d="M20.2227 18.3896L21.6178 18.3713L21.6228 18.6641C21.6267 18.8888 21.3877 19.0741 21.0891 19.078L20.7754 19.0822C20.4768 19.0861 20.2315 18.9072 20.2277 18.6825L20.2227 18.3896Z" fill="white"/>
<path d="M21.6172 18.3711L23.0123 18.3527L23.0174 18.6456C23.0212 18.8702 22.7822 19.0555 22.4836 19.0595L22.17 19.0636C21.8713 19.0676 21.6261 18.8886 21.6222 18.664L21.6172 18.3711Z" fill="white"/>
<path d="M20.4058 14.0454C20.8453 15.7654 19.8128 17.5113 18.0996 17.945C16.3865 18.3788 14.6415 17.3361 14.202 15.6162C13.7625 13.8962 14.795 12.1503 16.5082 11.7166C18.2213 11.2828 19.9663 12.3255 20.4058 14.0454Z" fill="white"/>
<path d="M18.5329 14.2863C18.8288 15.4443 18.1337 16.6197 16.9803 16.9118C15.8268 17.2038 14.652 16.5018 14.3561 15.3438C14.0602 14.1858 14.7553 13.0103 15.9088 12.7183C17.0622 12.4263 18.2371 13.1283 18.5329 14.2863Z" fill="#333333"/>
<path d="M29.1402 14.1607C29.5797 15.8806 28.5472 17.6265 26.834 18.0603C25.1209 18.494 23.3758 17.4514 22.9364 15.7314C22.4969 14.0115 23.5294 12.2656 25.2425 11.8318C26.9557 11.3981 28.7007 12.4407 29.1402 14.1607Z" fill="white"/>
<path d="M27.2673 14.4005C27.5632 15.5585 26.8681 16.734 25.7146 17.026C24.5612 17.3181 23.3863 16.6161 23.0904 15.4581C22.7946 14.3001 23.4897 13.1246 24.6431 12.8326C25.7965 12.5405 26.9714 13.2425 27.2673 14.4005Z" fill="#333333"/>
</svg>
